%TF.GenerationSoftware,KiCad,Pcbnew,7.0.11+dfsg-1build4*%
%TF.CreationDate,2025-02-25T03:32:20+01:00*%
%TF.ProjectId,BertheVario213-Shema,42657274-6865-4566-9172-696f3231332d,1.11*%
%TF.SameCoordinates,Original*%
%TF.FileFunction,Drillmap*%
%TF.FilePolarity,Positive*%
%FSLAX45Y45*%
G04 Gerber Fmt 4.5, Leading zero omitted, Abs format (unit mm)*
G04 Created by KiCad (PCBNEW 7.0.11+dfsg-1build4) date 2025-02-25 03:32:20*
%MOMM*%
%LPD*%
G01*
G04 APERTURE LIST*
%ADD10C,0.050000*%
%ADD11C,0.200000*%
G04 APERTURE END LIST*
D10*
X16350000Y-6250000D02*
X16350000Y-15550000D01*
X16150000Y-15750000D01*
X12400000Y-15750000D01*
X12150000Y-15500000D01*
X12150000Y-6225000D01*
X12275000Y-6100000D01*
X16200000Y-6100000D01*
X16350000Y-6250000D01*
X12550000Y-6400000D02*
G75*
G03*
X12250000Y-6400000I-150000J0D01*
G01*
X12250000Y-6400000D02*
G75*
G03*
X12550000Y-6400000I150000J0D01*
G01*
X16250000Y-15469187D02*
G75*
G03*
X15950000Y-15469187I-150000J0D01*
G01*
X15950000Y-15469187D02*
G75*
G03*
X16250000Y-15469187I150000J0D01*
G01*
X12952000Y-10350000D02*
X15096457Y-10350000D01*
X15096457Y-11705543D01*
X12952000Y-11705543D01*
X12952000Y-10350000D01*
X16250000Y-6400000D02*
G75*
G03*
X15950000Y-6400000I-150000J0D01*
G01*
X15950000Y-6400000D02*
G75*
G03*
X16250000Y-6400000I150000J0D01*
G01*
X12550000Y-15440919D02*
G75*
G03*
X12250000Y-15440919I-150000J0D01*
G01*
X12250000Y-15440919D02*
G75*
G03*
X12550000Y-15440919I150000J0D01*
G01*
D11*
X12408277Y-16813984D02*
X12408277Y-16613984D01*
X12408277Y-16613984D02*
X12455896Y-16613984D01*
X12455896Y-16613984D02*
X12484467Y-16623508D01*
X12484467Y-16623508D02*
X12503515Y-16642555D01*
X12503515Y-16642555D02*
X12513039Y-16661603D01*
X12513039Y-16661603D02*
X12522562Y-16699698D01*
X12522562Y-16699698D02*
X12522562Y-16728269D01*
X12522562Y-16728269D02*
X12513039Y-16766365D01*
X12513039Y-16766365D02*
X12503515Y-16785412D01*
X12503515Y-16785412D02*
X12484467Y-16804460D01*
X12484467Y-16804460D02*
X12455896Y-16813984D01*
X12455896Y-16813984D02*
X12408277Y-16813984D01*
X12608277Y-16813984D02*
X12608277Y-16680650D01*
X12608277Y-16718746D02*
X12617801Y-16699698D01*
X12617801Y-16699698D02*
X12627324Y-16690174D01*
X12627324Y-16690174D02*
X12646372Y-16680650D01*
X12646372Y-16680650D02*
X12665420Y-16680650D01*
X12732086Y-16813984D02*
X12732086Y-16680650D01*
X12732086Y-16613984D02*
X12722562Y-16623508D01*
X12722562Y-16623508D02*
X12732086Y-16633031D01*
X12732086Y-16633031D02*
X12741610Y-16623508D01*
X12741610Y-16623508D02*
X12732086Y-16613984D01*
X12732086Y-16613984D02*
X12732086Y-16633031D01*
X12855896Y-16813984D02*
X12836848Y-16804460D01*
X12836848Y-16804460D02*
X12827324Y-16785412D01*
X12827324Y-16785412D02*
X12827324Y-16613984D01*
X12960658Y-16813984D02*
X12941610Y-16804460D01*
X12941610Y-16804460D02*
X12932086Y-16785412D01*
X12932086Y-16785412D02*
X12932086Y-16613984D01*
X13189229Y-16813984D02*
X13189229Y-16613984D01*
X13189229Y-16613984D02*
X13255896Y-16756841D01*
X13255896Y-16756841D02*
X13322562Y-16613984D01*
X13322562Y-16613984D02*
X13322562Y-16813984D01*
X13503515Y-16813984D02*
X13503515Y-16709222D01*
X13503515Y-16709222D02*
X13493991Y-16690174D01*
X13493991Y-16690174D02*
X13474943Y-16680650D01*
X13474943Y-16680650D02*
X13436848Y-16680650D01*
X13436848Y-16680650D02*
X13417801Y-16690174D01*
X13503515Y-16804460D02*
X13484467Y-16813984D01*
X13484467Y-16813984D02*
X13436848Y-16813984D01*
X13436848Y-16813984D02*
X13417801Y-16804460D01*
X13417801Y-16804460D02*
X13408277Y-16785412D01*
X13408277Y-16785412D02*
X13408277Y-16766365D01*
X13408277Y-16766365D02*
X13417801Y-16747317D01*
X13417801Y-16747317D02*
X13436848Y-16737793D01*
X13436848Y-16737793D02*
X13484467Y-16737793D01*
X13484467Y-16737793D02*
X13503515Y-16728269D01*
X13598753Y-16680650D02*
X13598753Y-16880650D01*
X13598753Y-16690174D02*
X13617801Y-16680650D01*
X13617801Y-16680650D02*
X13655896Y-16680650D01*
X13655896Y-16680650D02*
X13674943Y-16690174D01*
X13674943Y-16690174D02*
X13684467Y-16699698D01*
X13684467Y-16699698D02*
X13693991Y-16718746D01*
X13693991Y-16718746D02*
X13693991Y-16775888D01*
X13693991Y-16775888D02*
X13684467Y-16794936D01*
X13684467Y-16794936D02*
X13674943Y-16804460D01*
X13674943Y-16804460D02*
X13655896Y-16813984D01*
X13655896Y-16813984D02*
X13617801Y-16813984D01*
X13617801Y-16813984D02*
X13598753Y-16804460D01*
X13779705Y-16794936D02*
X13789229Y-16804460D01*
X13789229Y-16804460D02*
X13779705Y-16813984D01*
X13779705Y-16813984D02*
X13770182Y-16804460D01*
X13770182Y-16804460D02*
X13779705Y-16794936D01*
X13779705Y-16794936D02*
X13779705Y-16813984D01*
X13779705Y-16690174D02*
X13789229Y-16699698D01*
X13789229Y-16699698D02*
X13779705Y-16709222D01*
X13779705Y-16709222D02*
X13770182Y-16699698D01*
X13770182Y-16699698D02*
X13779705Y-16690174D01*
X13779705Y-16690174D02*
X13779705Y-16709222D01*
M02*
