%TF.GenerationSoftware,KiCad,Pcbnew,7.0.11+dfsg-1build4*%
%TF.CreationDate,2025-02-25T03:32:25+01:00*%
%TF.ProjectId,BertheVario213-Shema,42657274-6865-4566-9172-696f3231332d,1.11*%
%TF.SameCoordinates,Original*%
%TF.FileFunction,Copper,L1,Top*%
%TF.FilePolarity,Positive*%
%FSLAX46Y46*%
G04 Gerber Fmt 4.6, Leading zero omitted, Abs format (unit mm)*
G04 Created by KiCad (PCBNEW 7.0.11+dfsg-1build4) date 2025-02-25 03:32:25*
%MOMM*%
%LPD*%
G01*
G04 APERTURE LIST*
%TA.AperFunction,ComponentPad*%
%ADD10C,1.800000*%
%TD*%
%TA.AperFunction,ComponentPad*%
%ADD11C,1.524000*%
%TD*%
%TA.AperFunction,ComponentPad*%
%ADD12C,2.000000*%
%TD*%
%TA.AperFunction,ViaPad*%
%ADD13C,0.600000*%
%TD*%
%TA.AperFunction,Conductor*%
%ADD14C,1.500000*%
%TD*%
G04 APERTURE END LIST*
D10*
%TO.P,S1,1,1*%
%TO.N,Net-(Q1-C)*%
X153540000Y-138000000D03*
%TO.P,S1,2,2*%
%TO.N,Net-(U1-Vbat)*%
X151000000Y-138000000D03*
%TD*%
%TO.P,MS5611,1,SDA*%
%TO.N,Net-(MS5611-SDA)*%
X138810000Y-100040000D03*
%TO.P,MS5611,2,SCL*%
%TO.N,Net-(MS5611-SCL)*%
X136260000Y-100040000D03*
%TO.P,MS5611,3,GND*%
%TO.N,GNDREF*%
X133720000Y-100040000D03*
%TO.P,MS5611,4,VIN*%
%TO.N,Net-(GPS-NEO6M1-VCC)*%
X131180000Y-100040000D03*
%TD*%
D11*
%TO.P,SW1,1*%
%TO.N,Net-(U1-Bouton_Gauche)*%
X157302000Y-67330000D03*
X150698000Y-67330000D03*
%TO.P,SW1,2*%
%TO.N,GNDREF*%
X157302000Y-62250000D03*
X150698000Y-62250000D03*
%TD*%
%TO.P,Q1,1,E*%
%TO.N,GNDREF*%
X147201500Y-73315800D03*
%TO.P,Q1,2,B*%
%TO.N,Net-(Q1-B)*%
X147201500Y-75093800D03*
%TO.P,Q1,3,C*%
%TO.N,Net-(Q1-C)*%
X147201500Y-76871800D03*
%TD*%
%TO.P,SW3,1*%
%TO.N,Net-(U1-Bouton_Droit)*%
X134302000Y-67330000D03*
X127698000Y-67330000D03*
%TO.P,SW3,2*%
%TO.N,GNDREF*%
X134302000Y-62250000D03*
X127698000Y-62250000D03*
%TD*%
D12*
%TO.P,R3,1*%
%TO.N,Net-(GPS-NEO6M1-VCC)*%
X142000000Y-120000000D03*
%TO.P,R3,2*%
%TO.N,Net-(MS5611-SDA)*%
X152160000Y-120000000D03*
%TD*%
D11*
%TO.P,jumper1,1,1*%
%TO.N,Net-(U1-Rxd)*%
X158000000Y-134000000D03*
%TO.P,jumper1,2,2*%
%TO.N,Net-(GPS-NEO6M1-TX)*%
X158000000Y-136540000D03*
%TD*%
D12*
%TO.P,R4,1*%
%TO.N,Net-(GPS-NEO6M1-VCC)*%
X151500000Y-93580000D03*
%TO.P,R4,2*%
%TO.N,Net-(MS5611-SCL)*%
X151500000Y-83420000D03*
%TD*%
%TO.P,R5,1*%
%TO.N,Net-(U1-Vbat)*%
X130420000Y-83500000D03*
%TO.P,R5,2*%
%TO.N,Net-(U1-In_Vbat)*%
X140580000Y-83500000D03*
%TD*%
D10*
%TO.P,QMC5883_Mag1,1,VCC*%
%TO.N,Net-(GPS-NEO6M1-VCC)*%
X161040000Y-142000000D03*
%TO.P,QMC5883_Mag1,2,GND*%
%TO.N,GNDREF*%
X158500000Y-142000000D03*
%TO.P,QMC5883_Mag1,3,SCL*%
%TO.N,Net-(MS5611-SCL)*%
X155960000Y-142000000D03*
%TO.P,QMC5883_Mag1,4,SDA*%
%TO.N,Net-(MS5611-SDA)*%
X153420000Y-142000000D03*
%TO.P,QMC5883_Mag1,5*%
%TO.N,N/C*%
X150880000Y-142000000D03*
%TD*%
D11*
%TO.P,U1,0*%
%TO.N,N/C*%
X157000000Y-102460000D03*
%TO.P,U1,2*%
X123980000Y-94840000D03*
%TO.P,U1,12*%
X157000000Y-99920000D03*
%TO.P,U1,13*%
X123980000Y-99920000D03*
%TO.P,U1,14*%
X123980000Y-92300000D03*
%TO.P,U1,15*%
X123980000Y-97380000D03*
%TO.P,U1,19,Bouton_Gauche*%
%TO.N,Net-(U1-Bouton_Gauche)*%
X123980000Y-89760000D03*
%TO.P,U1,21,SDA*%
%TO.N,Net-(MS5611-SDA)*%
X123980000Y-79600000D03*
%TO.P,U1,22,SCL*%
%TO.N,Net-(MS5611-SCL)*%
X123980000Y-87220000D03*
%TO.P,U1,25,Speaker*%
%TO.N,Net-(U1-Speaker)*%
X157000000Y-92300000D03*
%TO.P,U1,26,Bouton_Droit*%
%TO.N,Net-(U1-Bouton_Droit)*%
X157000000Y-94840000D03*
%TO.P,U1,27*%
%TO.N,N/C*%
X157000000Y-97380000D03*
%TO.P,U1,32,Bouton_Centre*%
%TO.N,Net-(U1-Bouton_Centre)*%
X157000000Y-87220000D03*
%TO.P,U1,33*%
%TO.N,N/C*%
X157000000Y-89760000D03*
%TO.P,U1,34*%
X157000000Y-82140000D03*
%TO.P,U1,36,In_Vbat*%
%TO.N,Net-(U1-In_Vbat)*%
X157000000Y-74520000D03*
%TO.P,U1,39*%
%TO.N,N/C*%
X157000000Y-77060000D03*
%TO.P,U1,40,3v3*%
%TO.N,Net-(GPS-NEO6M1-VCC)*%
X123980000Y-74520000D03*
X157000000Y-84680000D03*
%TO.P,U1,41,Gnd*%
%TO.N,GNDREF*%
X123980000Y-77060000D03*
X157000000Y-105000000D03*
%TO.P,U1,42*%
%TO.N,N/C*%
X123980000Y-82140000D03*
%TO.P,U1,43,Rxd*%
%TO.N,Net-(U1-Rxd)*%
X123980000Y-84680000D03*
%TO.P,U1,44*%
%TO.N,N/C*%
X123980000Y-102460000D03*
%TO.P,U1,45,Vbat*%
%TO.N,Net-(U1-Vbat)*%
X123980000Y-105000000D03*
%TO.P,U1,46*%
%TO.N,N/C*%
X157000000Y-79600000D03*
%TO.P,U1,50*%
X134140000Y-108810000D03*
%TO.P,U1,51*%
X134140000Y-111350000D03*
%TD*%
D12*
%TO.P,R2,1*%
%TO.N,Net-(Q1-B)*%
X140580000Y-72000000D03*
%TO.P,R2,2*%
%TO.N,GNDREF*%
X130420000Y-72000000D03*
%TD*%
%TO.P,R6,1*%
%TO.N,Net-(U1-In_Vbat)*%
X140580000Y-78000000D03*
%TO.P,R6,2*%
%TO.N,GNDREF*%
X130420000Y-78000000D03*
%TD*%
%TO.P,R1,1*%
%TO.N,Net-(U1-Speaker)*%
X154000000Y-81080000D03*
%TO.P,R1,2*%
%TO.N,Net-(Q1-B)*%
X154000000Y-70920000D03*
%TD*%
D10*
%TO.P,GPS-NEO6M1,1,GND*%
%TO.N,GNDREF*%
X131460000Y-124000000D03*
%TO.P,GPS-NEO6M1,2,TX*%
%TO.N,Net-(GPS-NEO6M1-TX)*%
X134000000Y-124000000D03*
%TO.P,GPS-NEO6M1,3,RX*%
%TO.N,unconnected-(GPS-NEO6M1-RX-Pad3)*%
X136540000Y-124000000D03*
%TO.P,GPS-NEO6M1,4,VCC*%
%TO.N,Net-(GPS-NEO6M1-VCC)*%
X139080000Y-124000000D03*
%TD*%
D11*
%TO.P,SW2,1*%
%TO.N,Net-(U1-Bouton_Centre)*%
X145854000Y-67330000D03*
X139250000Y-67330000D03*
%TO.P,SW2,2*%
%TO.N,GNDREF*%
X145854000Y-62250000D03*
X139250000Y-62250000D03*
%TD*%
D13*
%TO.N,Net-(GPS-NEO6M1-VCC)*%
X144974500Y-82670000D03*
%TO.N,Net-(MS5611-SDA)*%
X128282800Y-82890400D03*
%TO.N,Net-(MS5611-SCL)*%
X128458600Y-103387600D03*
%TO.N,Net-(Q1-C)*%
X153678700Y-123408000D03*
%TO.N,Net-(U1-Vbat)*%
X134672100Y-84695600D03*
X133030700Y-92754100D03*
%TO.N,Net-(U1-Rxd)*%
X130135100Y-85801200D03*
%TD*%
D14*
%TO.N,Net-(GPS-NEO6M1-VCC)*%
X151500000Y-90180000D02*
X151992300Y-89687700D01*
X151500000Y-93580000D02*
X151500000Y-90180000D01*
X144974500Y-82670000D02*
X151992300Y-89687700D01*
X151992300Y-89687700D02*
X157000000Y-84680000D01*
%TO.N,Net-(MS5611-SDA)*%
X155401500Y-138826100D02*
X155401500Y-122723900D01*
X152677600Y-120000000D02*
X152160000Y-120000000D01*
X138810000Y-96126500D02*
X133735700Y-91052200D01*
X153420000Y-142000000D02*
X153420000Y-140807600D01*
X132914500Y-91052200D02*
X128282800Y-86420500D01*
X133735700Y-91052200D02*
X132914500Y-91052200D01*
X153420000Y-140807600D02*
X155401500Y-138826100D01*
X138810000Y-100040000D02*
X138810000Y-96126500D01*
X155401500Y-122723900D02*
X152677600Y-120000000D01*
X128282800Y-86420500D02*
X128282800Y-82890400D01*
%TO.N,Net-(MS5611-SCL)*%
X155960000Y-142129600D02*
X154232400Y-143857200D01*
X155960000Y-142000000D02*
X155960000Y-142129600D01*
X129711200Y-101891900D02*
X134487100Y-101891900D01*
X128528400Y-103387600D02*
X128528400Y-103074700D01*
X128528400Y-103387600D02*
X128458600Y-103387600D01*
X148698200Y-143857200D02*
X128528400Y-123687400D01*
X128528400Y-103074700D02*
X129711200Y-101891900D01*
X154232400Y-143857200D02*
X148698200Y-143857200D01*
X136260000Y-100119000D02*
X136260000Y-100040000D01*
X128528400Y-123687400D02*
X128528400Y-103387600D01*
X134487100Y-101891900D02*
X136260000Y-100119000D01*
%TO.N,Net-(Q1-C)*%
X153540000Y-123546700D02*
X153540000Y-138000000D01*
X153678700Y-123408000D02*
X153540000Y-123546700D01*
%TO.N,Net-(U1-Vbat)*%
X127641100Y-101338900D02*
X127641100Y-98143700D01*
X133476500Y-83500000D02*
X134672100Y-84695600D01*
X130420000Y-83500000D02*
X133476500Y-83500000D01*
X123980000Y-105000000D02*
X127641100Y-101338900D01*
X127641100Y-98143700D02*
X133030700Y-92754100D01*
%TO.N,Net-(U1-In_Vbat)*%
X140580000Y-78000000D02*
X140580000Y-83500000D01*
%TO.N,Net-(U1-Bouton_Gauche)*%
X157302000Y-67330000D02*
X150698000Y-67330000D01*
X133596700Y-65603200D02*
X126394200Y-72805700D01*
X126394200Y-72805700D02*
X126394200Y-87345800D01*
X148971200Y-65603200D02*
X133596700Y-65603200D01*
X150698000Y-67330000D02*
X148971200Y-65603200D01*
X126394200Y-87345800D02*
X123980000Y-89760000D01*
%TO.N,Net-(U1-Bouton_Centre)*%
X157661700Y-72755900D02*
X158730700Y-73824900D01*
X155989600Y-72755900D02*
X157661700Y-72755900D01*
X158730700Y-73824900D02*
X158730700Y-85489300D01*
X158730700Y-85489300D02*
X157000000Y-87220000D01*
X155797500Y-72948000D02*
X155989600Y-72755900D01*
X151472000Y-72948000D02*
X155797500Y-72948000D01*
X145854000Y-67330000D02*
X151472000Y-72948000D01*
X139250000Y-67330000D02*
X145854000Y-67330000D01*
%TO.N,Net-(U1-Bouton_Droit)*%
X150722200Y-95569700D02*
X142902300Y-87749800D01*
X142902300Y-87749800D02*
X142902300Y-77557400D01*
X157000000Y-94840000D02*
X156270300Y-95569700D01*
X156270300Y-95569700D02*
X150722200Y-95569700D01*
X134302000Y-68957100D02*
X134302000Y-67330000D01*
X142902300Y-77557400D02*
X134302000Y-68957100D01*
%TO.N,Net-(U1-Rxd)*%
X130135100Y-85801200D02*
X130731400Y-86397500D01*
X130731400Y-86397500D02*
X135223400Y-86397500D01*
X158000000Y-109174100D02*
X158000000Y-134000000D01*
X135223400Y-86397500D02*
X158000000Y-109174100D01*
%TD*%
%TA.AperFunction,Conductor*%
%TO.N,GNDREF*%
G36*
X151670274Y-104613294D02*
G01*
X151676752Y-104619326D01*
X156713181Y-109655755D01*
X156746666Y-109717078D01*
X156749500Y-109743436D01*
X156749500Y-122095029D01*
X156729815Y-122162068D01*
X156677011Y-122207823D01*
X156607853Y-122217767D01*
X156544297Y-122188742D01*
X156512601Y-122146310D01*
X156493508Y-122104277D01*
X156493507Y-122104274D01*
X156491017Y-122100680D01*
X156481225Y-122083864D01*
X156479329Y-122079927D01*
X156422239Y-122001350D01*
X156420628Y-121999079D01*
X156365320Y-121919245D01*
X156362225Y-121916150D01*
X156349587Y-121901353D01*
X156347021Y-121897821D01*
X156347018Y-121897818D01*
X156276821Y-121830702D01*
X156274832Y-121828757D01*
X153616416Y-119170342D01*
X153607149Y-119159973D01*
X153585106Y-119132332D01*
X153535203Y-119088732D01*
X153529107Y-119083033D01*
X153522132Y-119076058D01*
X153522121Y-119076048D01*
X153490855Y-119049945D01*
X153488739Y-119048138D01*
X153415603Y-118984240D01*
X153415597Y-118984236D01*
X153415596Y-118984235D01*
X153411841Y-118981991D01*
X153395973Y-118970732D01*
X153392619Y-118967932D01*
X153392618Y-118967931D01*
X153392613Y-118967927D01*
X153308148Y-118920001D01*
X153305744Y-118918601D01*
X153222363Y-118868784D01*
X153218269Y-118867248D01*
X153200644Y-118859002D01*
X153196845Y-118856846D01*
X153105175Y-118824769D01*
X153102566Y-118823823D01*
X153099496Y-118822671D01*
X153066898Y-118804430D01*
X152983510Y-118739527D01*
X152983509Y-118739526D01*
X152883165Y-118685222D01*
X152764811Y-118621172D01*
X152764802Y-118621169D01*
X152529616Y-118540429D01*
X152284335Y-118499500D01*
X152035665Y-118499500D01*
X151790383Y-118540429D01*
X151555197Y-118621169D01*
X151555188Y-118621172D01*
X151336493Y-118739524D01*
X151140257Y-118892261D01*
X150971833Y-119075217D01*
X150835826Y-119283393D01*
X150735936Y-119511118D01*
X150674892Y-119752175D01*
X150674890Y-119752187D01*
X150654357Y-119999994D01*
X150654357Y-120000005D01*
X150674890Y-120247812D01*
X150674892Y-120247824D01*
X150735936Y-120488881D01*
X150835826Y-120716606D01*
X150971833Y-120924782D01*
X150971836Y-120924785D01*
X151140256Y-121107738D01*
X151336491Y-121260474D01*
X151555190Y-121378828D01*
X151790386Y-121459571D01*
X152035665Y-121500500D01*
X152284330Y-121500500D01*
X152284335Y-121500500D01*
X152328749Y-121493088D01*
X152398112Y-121501468D01*
X152436841Y-121527715D01*
X153052137Y-122143011D01*
X153085622Y-122204334D01*
X153080638Y-122274026D01*
X153038766Y-122329959D01*
X153035073Y-122332620D01*
X152874042Y-122444183D01*
X152710338Y-122607885D01*
X152699975Y-122617147D01*
X152672337Y-122639189D01*
X152672334Y-122639192D01*
X152628736Y-122689092D01*
X152623048Y-122695176D01*
X152616064Y-122702160D01*
X152616051Y-122702175D01*
X152589928Y-122733464D01*
X152588125Y-122735575D01*
X152524234Y-122808704D01*
X152524230Y-122808710D01*
X152521981Y-122812474D01*
X152510746Y-122828308D01*
X152507932Y-122831679D01*
X152459978Y-122916190D01*
X152458604Y-122918549D01*
X152430207Y-122966081D01*
X152408781Y-123001942D01*
X152407247Y-123006032D01*
X152399008Y-123023645D01*
X152396850Y-123027447D01*
X152396847Y-123027454D01*
X152364762Y-123119145D01*
X152363815Y-123121757D01*
X152329692Y-123212679D01*
X152329689Y-123212688D01*
X152328909Y-123216988D01*
X152323952Y-123235769D01*
X152322503Y-123239909D01*
X152322502Y-123239915D01*
X152307304Y-123335865D01*
X152306838Y-123338606D01*
X152289500Y-123434147D01*
X152289500Y-123438527D01*
X152287973Y-123457929D01*
X152287289Y-123462240D01*
X152289469Y-123559339D01*
X152289500Y-123562121D01*
X152289500Y-137015160D01*
X152269815Y-137082199D01*
X152217011Y-137127954D01*
X152147853Y-137137898D01*
X152084297Y-137108873D01*
X152074270Y-137099143D01*
X152050319Y-137073125D01*
X151951784Y-136966087D01*
X151951779Y-136966083D01*
X151951777Y-136966081D01*
X151768634Y-136823535D01*
X151768628Y-136823531D01*
X151564504Y-136713064D01*
X151564495Y-136713061D01*
X151344984Y-136637702D01*
X151173282Y-136609050D01*
X151116049Y-136599500D01*
X150883951Y-136599500D01*
X150838164Y-136607140D01*
X150655015Y-136637702D01*
X150435504Y-136713061D01*
X150435495Y-136713064D01*
X150231371Y-136823531D01*
X150231365Y-136823535D01*
X150048222Y-136966081D01*
X150048219Y-136966084D01*
X149891016Y-137136852D01*
X149764075Y-137331151D01*
X149670842Y-137543699D01*
X149613866Y-137768691D01*
X149613864Y-137768702D01*
X149594700Y-137999993D01*
X149594700Y-138000006D01*
X149613864Y-138231297D01*
X149613866Y-138231308D01*
X149670842Y-138456300D01*
X149764075Y-138668848D01*
X149891016Y-138863147D01*
X149891019Y-138863151D01*
X149891021Y-138863153D01*
X150048216Y-139033913D01*
X150048219Y-139033915D01*
X150048222Y-139033918D01*
X150231365Y-139176464D01*
X150231371Y-139176468D01*
X150231374Y-139176470D01*
X150435497Y-139286936D01*
X150549487Y-139326068D01*
X150655015Y-139362297D01*
X150655017Y-139362297D01*
X150655019Y-139362298D01*
X150883951Y-139400500D01*
X150883952Y-139400500D01*
X151116048Y-139400500D01*
X151116049Y-139400500D01*
X151344981Y-139362298D01*
X151564503Y-139286936D01*
X151768626Y-139176470D01*
X151789628Y-139160124D01*
X151830129Y-139128600D01*
X151951784Y-139033913D01*
X152108979Y-138863153D01*
X152166191Y-138775582D01*
X152219337Y-138730226D01*
X152288568Y-138720802D01*
X152351904Y-138750304D01*
X152373809Y-138775583D01*
X152431016Y-138863147D01*
X152431019Y-138863151D01*
X152431021Y-138863153D01*
X152588216Y-139033913D01*
X152588219Y-139033915D01*
X152588222Y-139033918D01*
X152771365Y-139176464D01*
X152771376Y-139176471D01*
X152956869Y-139276855D01*
X153006460Y-139326075D01*
X153021568Y-139394291D01*
X152997398Y-139459847D01*
X152985533Y-139473591D01*
X152590344Y-139868780D01*
X152579980Y-139878043D01*
X152552337Y-139900089D01*
X152552334Y-139900092D01*
X152508736Y-139949992D01*
X152503048Y-139956076D01*
X152496064Y-139963060D01*
X152496051Y-139963075D01*
X152469928Y-139994364D01*
X152468125Y-139996475D01*
X152404234Y-140069604D01*
X152404230Y-140069610D01*
X152401981Y-140073374D01*
X152390746Y-140089208D01*
X152387932Y-140092579D01*
X152339978Y-140177090D01*
X152338604Y-140179449D01*
X152307964Y-140230733D01*
X152288781Y-140262842D01*
X152287247Y-140266932D01*
X152279008Y-140284545D01*
X152276850Y-140288347D01*
X152276847Y-140288354D01*
X152244762Y-140380045D01*
X152243815Y-140382657D01*
X152209692Y-140473579D01*
X152209689Y-140473588D01*
X152208909Y-140477888D01*
X152203952Y-140496669D01*
X152202503Y-140500809D01*
X152202502Y-140500815D01*
X152187304Y-140596765D01*
X152186838Y-140599506D01*
X152169500Y-140695047D01*
X152169500Y-140699427D01*
X152167973Y-140718829D01*
X152167289Y-140723140D01*
X152169469Y-140820239D01*
X152169500Y-140823021D01*
X152169500Y-141015160D01*
X152149815Y-141082199D01*
X152097011Y-141127954D01*
X152027853Y-141137898D01*
X151964297Y-141108873D01*
X151954270Y-141099143D01*
X151938672Y-141082199D01*
X151831784Y-140966087D01*
X151831779Y-140966083D01*
X151831777Y-140966081D01*
X151648634Y-140823535D01*
X151648628Y-140823531D01*
X151444504Y-140713064D01*
X151444495Y-140713061D01*
X151224984Y-140637702D01*
X151053282Y-140609050D01*
X150996049Y-140599500D01*
X150763951Y-140599500D01*
X150718164Y-140607140D01*
X150535015Y-140637702D01*
X150315504Y-140713061D01*
X150315495Y-140713064D01*
X150111371Y-140823531D01*
X150111365Y-140823535D01*
X149928222Y-140966081D01*
X149928219Y-140966084D01*
X149771016Y-141136852D01*
X149644075Y-141331151D01*
X149550842Y-141543699D01*
X149493866Y-141768691D01*
X149493864Y-141768702D01*
X149474700Y-141999993D01*
X149474700Y-142000006D01*
X149493864Y-142231297D01*
X149493866Y-142231305D01*
X149549820Y-142452259D01*
X149547195Y-142522080D01*
X149507239Y-142579397D01*
X149442638Y-142606014D01*
X149429614Y-142606700D01*
X149267536Y-142606700D01*
X149200497Y-142587015D01*
X149179855Y-142570381D01*
X132058608Y-125449134D01*
X132025123Y-125387811D01*
X132030107Y-125318119D01*
X132071979Y-125262186D01*
X132087272Y-125252398D01*
X132228353Y-125176048D01*
X132258797Y-125152351D01*
X132258798Y-125152351D01*
X131504400Y-124397953D01*
X131585148Y-124385165D01*
X131698045Y-124327641D01*
X131787641Y-124238045D01*
X131845165Y-124125148D01*
X131857953Y-124044400D01*
X132611185Y-124797632D01*
X132625891Y-124775125D01*
X132679037Y-124729768D01*
X132748268Y-124720344D01*
X132811604Y-124749846D01*
X132833508Y-124775123D01*
X132891021Y-124863153D01*
X133048216Y-125033913D01*
X133048219Y-125033915D01*
X133048222Y-125033918D01*
X133231365Y-125176464D01*
X133231371Y-125176468D01*
X133231374Y-125176470D01*
X133435497Y-125286936D01*
X133526330Y-125318119D01*
X133655015Y-125362297D01*
X133655017Y-125362297D01*
X133655019Y-125362298D01*
X133883951Y-125400500D01*
X133883952Y-125400500D01*
X134116048Y-125400500D01*
X134116049Y-125400500D01*
X134344981Y-125362298D01*
X134564503Y-125286936D01*
X134768626Y-125176470D01*
X134951784Y-125033913D01*
X135108979Y-124863153D01*
X135166191Y-124775582D01*
X135219337Y-124730226D01*
X135288568Y-124720802D01*
X135351904Y-124750304D01*
X135373809Y-124775583D01*
X135431016Y-124863147D01*
X135431018Y-124863149D01*
X135431021Y-124863153D01*
X135588216Y-125033913D01*
X135588219Y-125033915D01*
X135588222Y-125033918D01*
X135771365Y-125176464D01*
X135771371Y-125176468D01*
X135771374Y-125176470D01*
X135975497Y-125286936D01*
X136066330Y-125318119D01*
X136195015Y-125362297D01*
X136195017Y-125362297D01*
X136195019Y-125362298D01*
X136423951Y-125400500D01*
X136423952Y-125400500D01*
X136656048Y-125400500D01*
X136656049Y-125400500D01*
X136884981Y-125362298D01*
X137104503Y-125286936D01*
X137308626Y-125176470D01*
X137491784Y-125033913D01*
X137648979Y-124863153D01*
X137706191Y-124775582D01*
X137759337Y-124730226D01*
X137828568Y-124720802D01*
X137891904Y-124750304D01*
X137913809Y-124775583D01*
X137971016Y-124863147D01*
X137971018Y-124863149D01*
X137971021Y-124863153D01*
X138128216Y-125033913D01*
X138128219Y-125033915D01*
X138128222Y-125033918D01*
X138311365Y-125176464D01*
X138311371Y-125176468D01*
X138311374Y-125176470D01*
X138515497Y-125286936D01*
X138606330Y-125318119D01*
X138735015Y-125362297D01*
X138735017Y-125362297D01*
X138735019Y-125362298D01*
X138963951Y-125400500D01*
X138963952Y-125400500D01*
X139196048Y-125400500D01*
X139196049Y-125400500D01*
X139424981Y-125362298D01*
X139644503Y-125286936D01*
X139848626Y-125176470D01*
X140031784Y-125033913D01*
X140188979Y-124863153D01*
X140315924Y-124668849D01*
X140409157Y-124456300D01*
X140466134Y-124231305D01*
X140466135Y-124231297D01*
X140485300Y-124000006D01*
X140485300Y-123999993D01*
X140466135Y-123768702D01*
X140466133Y-123768691D01*
X140409157Y-123543699D01*
X140315924Y-123331151D01*
X140188983Y-123136852D01*
X140188980Y-123136849D01*
X140188979Y-123136847D01*
X140031784Y-122966087D01*
X140031779Y-122966083D01*
X140031777Y-122966081D01*
X139848634Y-122823535D01*
X139848628Y-122823531D01*
X139644504Y-122713064D01*
X139644495Y-122713061D01*
X139424984Y-122637702D01*
X139253282Y-122609050D01*
X139196049Y-122599500D01*
X138963951Y-122599500D01*
X138918164Y-122607140D01*
X138735015Y-122637702D01*
X138515504Y-122713061D01*
X138515495Y-122713064D01*
X138311371Y-122823531D01*
X138311365Y-122823535D01*
X138128222Y-122966081D01*
X138128219Y-122966084D01*
X137971016Y-123136852D01*
X137913809Y-123224416D01*
X137860662Y-123269773D01*
X137791431Y-123279197D01*
X137728095Y-123249695D01*
X137706191Y-123224416D01*
X137648983Y-123136852D01*
X137648980Y-123136849D01*
X137648979Y-123136847D01*
X137491784Y-122966087D01*
X137491779Y-122966083D01*
X137491777Y-122966081D01*
X137308634Y-122823535D01*
X137308628Y-122823531D01*
X137104504Y-122713064D01*
X137104495Y-122713061D01*
X136884984Y-122637702D01*
X136713282Y-122609050D01*
X136656049Y-122599500D01*
X136423951Y-122599500D01*
X136378164Y-122607140D01*
X136195015Y-122637702D01*
X135975504Y-122713061D01*
X135975495Y-122713064D01*
X135771371Y-122823531D01*
X135771365Y-122823535D01*
X135588222Y-122966081D01*
X135588219Y-122966084D01*
X135431016Y-123136852D01*
X135373809Y-123224416D01*
X135320662Y-123269773D01*
X135251431Y-123279197D01*
X135188095Y-123249695D01*
X135166191Y-123224416D01*
X135108983Y-123136852D01*
X135108980Y-123136849D01*
X135108979Y-123136847D01*
X134951784Y-122966087D01*
X134951779Y-122966083D01*
X134951777Y-122966081D01*
X134768634Y-122823535D01*
X134768628Y-122823531D01*
X134564504Y-122713064D01*
X134564495Y-122713061D01*
X134344984Y-122637702D01*
X134173282Y-122609050D01*
X134116049Y-122599500D01*
X133883951Y-122599500D01*
X133838164Y-122607140D01*
X133655015Y-122637702D01*
X133435504Y-122713061D01*
X133435495Y-122713064D01*
X133231371Y-122823531D01*
X133231365Y-122823535D01*
X133048222Y-122966081D01*
X133048219Y-122966084D01*
X133048216Y-122966086D01*
X133048216Y-122966087D01*
X132904913Y-123121757D01*
X132891015Y-123136854D01*
X132833509Y-123224874D01*
X132780363Y-123270230D01*
X132711132Y-123279654D01*
X132647796Y-123250152D01*
X132625892Y-123224874D01*
X132611186Y-123202365D01*
X131857953Y-123955598D01*
X131845165Y-123874852D01*
X131787641Y-123761955D01*
X131698045Y-123672359D01*
X131585148Y-123614835D01*
X131504400Y-123602046D01*
X132258797Y-122847647D01*
X132258797Y-122847645D01*
X132228360Y-122823955D01*
X132228354Y-122823951D01*
X132024302Y-122713523D01*
X132024293Y-122713520D01*
X131804860Y-122638188D01*
X131576007Y-122600000D01*
X131343993Y-122600000D01*
X131115139Y-122638188D01*
X130895706Y-122713520D01*
X130895697Y-122713523D01*
X130691650Y-122823949D01*
X130661200Y-122847647D01*
X131415600Y-123602046D01*
X131334852Y-123614835D01*
X131221955Y-123672359D01*
X131132359Y-123761955D01*
X131074835Y-123874852D01*
X131062046Y-123955599D01*
X130308811Y-123202365D01*
X130224516Y-123331390D01*
X130210935Y-123362353D01*
X130165979Y-123415839D01*
X130099243Y-123436529D01*
X130031915Y-123417854D01*
X130009698Y-123400224D01*
X129815219Y-123205745D01*
X129781734Y-123144422D01*
X129778900Y-123118064D01*
X129778900Y-120000005D01*
X140494357Y-120000005D01*
X140514890Y-120247812D01*
X140514892Y-120247824D01*
X140575936Y-120488881D01*
X140675826Y-120716606D01*
X140811833Y-120924782D01*
X140811836Y-120924785D01*
X140980256Y-121107738D01*
X141176491Y-121260474D01*
X141395190Y-121378828D01*
X141630386Y-121459571D01*
X141875665Y-121500500D01*
X142124335Y-121500500D01*
X142369614Y-121459571D01*
X142604810Y-121378828D01*
X142823509Y-121260474D01*
X143019744Y-121107738D01*
X143188164Y-120924785D01*
X143324173Y-120716607D01*
X143424063Y-120488881D01*
X143485108Y-120247821D01*
X143505643Y-120000000D01*
X143485108Y-119752179D01*
X143424063Y-119511119D01*
X143324173Y-119283393D01*
X143188166Y-119075217D01*
X143164901Y-119049945D01*
X143019744Y-118892262D01*
X142823509Y-118739526D01*
X142823507Y-118739525D01*
X142823506Y-118739524D01*
X142604811Y-118621172D01*
X142604802Y-118621169D01*
X142369616Y-118540429D01*
X142124335Y-118499500D01*
X141875665Y-118499500D01*
X141630383Y-118540429D01*
X141395197Y-118621169D01*
X141395188Y-118621172D01*
X141176493Y-118739524D01*
X140980257Y-118892261D01*
X140811833Y-119075217D01*
X140675826Y-119283393D01*
X140575936Y-119511118D01*
X140514892Y-119752175D01*
X140514890Y-119752187D01*
X140494357Y-119999994D01*
X140494357Y-120000005D01*
X129778900Y-120000005D01*
X129778900Y-117679929D01*
X129798585Y-117612890D01*
X129851389Y-117567135D01*
X129902900Y-117555929D01*
X151036531Y-117555929D01*
X151036532Y-117555929D01*
X151062724Y-117548238D01*
X151080007Y-117544479D01*
X151084453Y-117543839D01*
X151107028Y-117540594D01*
X151131858Y-117529253D01*
X151148433Y-117523071D01*
X151174624Y-117515382D01*
X151197591Y-117500621D01*
X151213111Y-117492146D01*
X151237944Y-117480806D01*
X151258577Y-117462926D01*
X151272719Y-117452339D01*
X151295699Y-117437572D01*
X151313586Y-117416928D01*
X151326070Y-117404444D01*
X151346714Y-117386557D01*
X151361481Y-117363577D01*
X151372068Y-117349435D01*
X151389948Y-117328802D01*
X151401288Y-117303969D01*
X151409763Y-117288449D01*
X151424524Y-117265482D01*
X151432213Y-117239291D01*
X151438395Y-117222716D01*
X151449736Y-117197886D01*
X151453621Y-117170865D01*
X151457380Y-117153582D01*
X151465071Y-117127390D01*
X151465071Y-116983468D01*
X151465071Y-104707007D01*
X151484756Y-104639968D01*
X151537560Y-104594213D01*
X151606718Y-104584269D01*
X151670274Y-104613294D01*
G37*
%TD.AperFunction*%
%TA.AperFunction,Conductor*%
G36*
X132970834Y-68100054D02*
G01*
X133026767Y-68141926D01*
X133051184Y-68207390D01*
X133051500Y-68216236D01*
X133051500Y-68879914D01*
X133050720Y-68893798D01*
X133046762Y-68928922D01*
X133046761Y-68928930D01*
X133051219Y-68995031D01*
X133051500Y-69003373D01*
X133051500Y-69013256D01*
X133055153Y-69053849D01*
X133055371Y-69056621D01*
X133061903Y-69153507D01*
X133061903Y-69153512D01*
X133062972Y-69157752D01*
X133066230Y-69176924D01*
X133066623Y-69181290D01*
X133092465Y-69274924D01*
X133093158Y-69277547D01*
X133107971Y-69336334D01*
X133116903Y-69371781D01*
X133118715Y-69375770D01*
X133125340Y-69394044D01*
X133126504Y-69398262D01*
X133126507Y-69398270D01*
X133168657Y-69485798D01*
X133169835Y-69488316D01*
X133209993Y-69576726D01*
X133209994Y-69576729D01*
X133212483Y-69580321D01*
X133222269Y-69597126D01*
X133224166Y-69601065D01*
X133224171Y-69601073D01*
X133281311Y-69679720D01*
X133282835Y-69681868D01*
X133320433Y-69736138D01*
X133338181Y-69761756D01*
X133341273Y-69764848D01*
X133353907Y-69779639D01*
X133356478Y-69783178D01*
X133356482Y-69783182D01*
X133426699Y-69850317D01*
X133428688Y-69852262D01*
X140001912Y-76425486D01*
X140035397Y-76486809D01*
X140030413Y-76556501D01*
X139988541Y-76612434D01*
X139973249Y-76622222D01*
X139756493Y-76739524D01*
X139560257Y-76892261D01*
X139391833Y-77075217D01*
X139255826Y-77283393D01*
X139155936Y-77511118D01*
X139094892Y-77752175D01*
X139094890Y-77752187D01*
X139074357Y-77999994D01*
X139074357Y-78000005D01*
X139094890Y-78247812D01*
X139094892Y-78247824D01*
X139155936Y-78488881D01*
X139255826Y-78716606D01*
X139309309Y-78798468D01*
X139329496Y-78865357D01*
X139329500Y-78866289D01*
X139329500Y-82633710D01*
X139309815Y-82700749D01*
X139309309Y-82701531D01*
X139255826Y-82783393D01*
X139155936Y-83011118D01*
X139094892Y-83252175D01*
X139094890Y-83252187D01*
X139074357Y-83499994D01*
X139074357Y-83500005D01*
X139094890Y-83747812D01*
X139094892Y-83747824D01*
X139155936Y-83988881D01*
X139255826Y-84216606D01*
X139391833Y-84424782D01*
X139391836Y-84424785D01*
X139560256Y-84607738D01*
X139756491Y-84760474D01*
X139975190Y-84878828D01*
X140210386Y-84959571D01*
X140455665Y-85000500D01*
X140704335Y-85000500D01*
X140949614Y-84959571D01*
X141184810Y-84878828D01*
X141403509Y-84760474D01*
X141451640Y-84723011D01*
X141516631Y-84697370D01*
X141585171Y-84710936D01*
X141635496Y-84759404D01*
X141651800Y-84820866D01*
X141651800Y-87672614D01*
X141651020Y-87686498D01*
X141647062Y-87721622D01*
X141647061Y-87721630D01*
X141651519Y-87787731D01*
X141651800Y-87796073D01*
X141651800Y-87805956D01*
X141655453Y-87846549D01*
X141655671Y-87849321D01*
X141662203Y-87946207D01*
X141662203Y-87946212D01*
X141663272Y-87950452D01*
X141666530Y-87969624D01*
X141666923Y-87973990D01*
X141692765Y-88067624D01*
X141693458Y-88070247D01*
X141708271Y-88129034D01*
X141717203Y-88164481D01*
X141719015Y-88168470D01*
X141725640Y-88186744D01*
X141726804Y-88190962D01*
X141726807Y-88190970D01*
X141768957Y-88278498D01*
X141770135Y-88281016D01*
X141810293Y-88369426D01*
X141810294Y-88369429D01*
X141812783Y-88373021D01*
X141822569Y-88389826D01*
X141824466Y-88393765D01*
X141824471Y-88393773D01*
X141881611Y-88472420D01*
X141883135Y-88474568D01*
X141920733Y-88528838D01*
X141938481Y-88554456D01*
X141941573Y-88557548D01*
X141954207Y-88572339D01*
X141956778Y-88575878D01*
X141956782Y-88575882D01*
X142026999Y-88643017D01*
X142028988Y-88644962D01*
X149783382Y-96399356D01*
X149792648Y-96409724D01*
X149814692Y-96437366D01*
X149864595Y-96480966D01*
X149870691Y-96486665D01*
X149877671Y-96493645D01*
X149908971Y-96519776D01*
X149911059Y-96521560D01*
X149984204Y-96585465D01*
X149987953Y-96587705D01*
X150003822Y-96598964D01*
X150007180Y-96601767D01*
X150007183Y-96601770D01*
X150091666Y-96649706D01*
X150094034Y-96651084D01*
X150177436Y-96700915D01*
X150181526Y-96702449D01*
X150199150Y-96710695D01*
X150202949Y-96712851D01*
X150202951Y-96712852D01*
X150202955Y-96712854D01*
X150294679Y-96744949D01*
X150297220Y-96745870D01*
X150388176Y-96780007D01*
X150392466Y-96780785D01*
X150411294Y-96785755D01*
X150415418Y-96787198D01*
X150511479Y-96802412D01*
X150514027Y-96802845D01*
X150592222Y-96817036D01*
X150609652Y-96820200D01*
X150609653Y-96820200D01*
X150614022Y-96820200D01*
X150633420Y-96821726D01*
X150637741Y-96822411D01*
X150734867Y-96820230D01*
X150737649Y-96820200D01*
X155681361Y-96820200D01*
X155748400Y-96839885D01*
X155794155Y-96892689D01*
X155804099Y-96961847D01*
X155801136Y-96976294D01*
X155751930Y-97159929D01*
X155751929Y-97159937D01*
X155732677Y-97379997D01*
X155732677Y-97380002D01*
X155751929Y-97600062D01*
X155751930Y-97600070D01*
X155809104Y-97813445D01*
X155809105Y-97813447D01*
X155809106Y-97813450D01*
X155820048Y-97836915D01*
X155902466Y-98013662D01*
X155902468Y-98013666D01*
X156029170Y-98194615D01*
X156029175Y-98194621D01*
X156185378Y-98350824D01*
X156185384Y-98350829D01*
X156366333Y-98477531D01*
X156366335Y-98477532D01*
X156366338Y-98477534D01*
X156485748Y-98533215D01*
X156495189Y-98537618D01*
X156547628Y-98583790D01*
X156566780Y-98650984D01*
X156546564Y-98717865D01*
X156495189Y-98762382D01*
X156366340Y-98822465D01*
X156366338Y-98822466D01*
X156185377Y-98949175D01*
X156029175Y-99105377D01*
X155902466Y-99286338D01*
X155902465Y-99286340D01*
X155809107Y-99486548D01*
X155809104Y-99486554D01*
X155751930Y-99699929D01*
X155751929Y-99699937D01*
X155732677Y-99919997D01*
X155732677Y-99920002D01*
X155751929Y-100140062D01*
X155751930Y-100140070D01*
X155809104Y-100353445D01*
X155809105Y-100353447D01*
X155809106Y-100353450D01*
X155842547Y-100425165D01*
X155902466Y-100553662D01*
X155902468Y-100553666D01*
X156029170Y-100734615D01*
X156029175Y-100734621D01*
X156185378Y-100890824D01*
X156185384Y-100890829D01*
X156366333Y-101017531D01*
X156366335Y-101017532D01*
X156366338Y-101017534D01*
X156485748Y-101073215D01*
X156495189Y-101077618D01*
X156547628Y-101123790D01*
X156566780Y-101190984D01*
X156546564Y-101257865D01*
X156495189Y-101302382D01*
X156366340Y-101362465D01*
X156366338Y-101362466D01*
X156185377Y-101489175D01*
X156029175Y-101645377D01*
X155902466Y-101826338D01*
X155902465Y-101826340D01*
X155809107Y-102026548D01*
X155809104Y-102026554D01*
X155751930Y-102239929D01*
X155751929Y-102239937D01*
X155732677Y-102459997D01*
X155732677Y-102460002D01*
X155751929Y-102680062D01*
X155751930Y-102680070D01*
X155809104Y-102893445D01*
X155809105Y-102893447D01*
X155809106Y-102893450D01*
X155858558Y-102999500D01*
X155902466Y-103093662D01*
X155902468Y-103093666D01*
X156029170Y-103274615D01*
X156029175Y-103274621D01*
X156185378Y-103430824D01*
X156185384Y-103430829D01*
X156366333Y-103557531D01*
X156366335Y-103557532D01*
X156366338Y-103557534D01*
X156495781Y-103617894D01*
X156548220Y-103664066D01*
X156567372Y-103731260D01*
X156547156Y-103798141D01*
X156495781Y-103842658D01*
X156366590Y-103902901D01*
X156301811Y-103948258D01*
X156972553Y-104619000D01*
X156968431Y-104619000D01*
X156874579Y-104634661D01*
X156762749Y-104695180D01*
X156676629Y-104788731D01*
X156625552Y-104905177D01*
X156619894Y-104973447D01*
X155948258Y-104301811D01*
X155902901Y-104366590D01*
X155809579Y-104566720D01*
X155809575Y-104566729D01*
X155752426Y-104780013D01*
X155752424Y-104780023D01*
X155745188Y-104862732D01*
X155719735Y-104927801D01*
X155663144Y-104968779D01*
X155593382Y-104972657D01*
X155533979Y-104939605D01*
X136162216Y-85567842D01*
X136152949Y-85557473D01*
X136130906Y-85529832D01*
X136081003Y-85486232D01*
X136074907Y-85480533D01*
X136067932Y-85473558D01*
X136067921Y-85473548D01*
X136036655Y-85447445D01*
X136034539Y-85445638D01*
X135961403Y-85381740D01*
X135961397Y-85381736D01*
X135961396Y-85381735D01*
X135957641Y-85379491D01*
X135941773Y-85368232D01*
X135938419Y-85365432D01*
X135938417Y-85365431D01*
X135938415Y-85365429D01*
X135883170Y-85334082D01*
X135834577Y-85283877D01*
X135820842Y-85215371D01*
X135833885Y-85169931D01*
X135837399Y-85163035D01*
X135902136Y-84947451D01*
X135927338Y-84723773D01*
X135912196Y-84499188D01*
X135873289Y-84344785D01*
X135857197Y-84280921D01*
X135857196Y-84280918D01*
X135841587Y-84246554D01*
X135764107Y-84075975D01*
X135635920Y-83890946D01*
X134415316Y-82670342D01*
X134406049Y-82659973D01*
X134384006Y-82632332D01*
X134334103Y-82588732D01*
X134328007Y-82583033D01*
X134321032Y-82576058D01*
X134321021Y-82576048D01*
X134289755Y-82549945D01*
X134287639Y-82548138D01*
X134214503Y-82484240D01*
X134214497Y-82484236D01*
X134214496Y-82484235D01*
X134210741Y-82481991D01*
X134194873Y-82470732D01*
X134191519Y-82467932D01*
X134191518Y-82467931D01*
X134191513Y-82467927D01*
X134107048Y-82420001D01*
X134104644Y-82418601D01*
X134021263Y-82368784D01*
X134017169Y-82367248D01*
X133999544Y-82359002D01*
X133995745Y-82356846D01*
X133904069Y-82324767D01*
X133901453Y-82323819D01*
X133810529Y-82289694D01*
X133810519Y-82289691D01*
X133806223Y-82288912D01*
X133787418Y-82283949D01*
X133783284Y-82282502D01*
X133783277Y-82282501D01*
X133687348Y-82267307D01*
X133684605Y-82266841D01*
X133589050Y-82249500D01*
X133589047Y-82249500D01*
X133584672Y-82249500D01*
X133565269Y-82247972D01*
X133560960Y-82247289D01*
X133463859Y-82249469D01*
X133461077Y-82249500D01*
X131293341Y-82249500D01*
X131234324Y-82234555D01*
X131024816Y-82121175D01*
X131024813Y-82121174D01*
X131024810Y-82121172D01*
X131024804Y-82121170D01*
X131024802Y-82121169D01*
X130789616Y-82040429D01*
X130544335Y-81999500D01*
X130295665Y-81999500D01*
X130050383Y-82040429D01*
X129815197Y-82121169D01*
X129815188Y-82121172D01*
X129596489Y-82239527D01*
X129543356Y-82280881D01*
X129478361Y-82306522D01*
X129409821Y-82292954D01*
X129364696Y-82250354D01*
X129363902Y-82250932D01*
X129360831Y-82246706D01*
X129360749Y-82246628D01*
X129360628Y-82246426D01*
X129228326Y-82064327D01*
X129228325Y-82064325D01*
X129065623Y-81908766D01*
X128877766Y-81784763D01*
X128670795Y-81696299D01*
X128670782Y-81696295D01*
X128451342Y-81646210D01*
X128451338Y-81646209D01*
X128451337Y-81646209D01*
X128451336Y-81646208D01*
X128451331Y-81646208D01*
X128226474Y-81636110D01*
X128226473Y-81636110D01*
X128226470Y-81636110D01*
X128003413Y-81666325D01*
X128003411Y-81666325D01*
X128003408Y-81666326D01*
X127807018Y-81730137D01*
X127737177Y-81732132D01*
X127677344Y-81696052D01*
X127646516Y-81633351D01*
X127644700Y-81612206D01*
X127644700Y-78000005D01*
X128914859Y-78000005D01*
X128935385Y-78247729D01*
X128935387Y-78247738D01*
X128996412Y-78488717D01*
X129096266Y-78716364D01*
X129196564Y-78869882D01*
X130022046Y-78044400D01*
X130034835Y-78125148D01*
X130092359Y-78238045D01*
X130181955Y-78327641D01*
X130294852Y-78385165D01*
X130375599Y-78397953D01*
X129549942Y-79223609D01*
X129596768Y-79260055D01*
X129596770Y-79260056D01*
X129815385Y-79378364D01*
X129815396Y-79378369D01*
X130050506Y-79459083D01*
X130295707Y-79500000D01*
X130544293Y-79500000D01*
X130789493Y-79459083D01*
X131024603Y-79378369D01*
X131024614Y-79378364D01*
X131243228Y-79260057D01*
X131243231Y-79260055D01*
X131290056Y-79223609D01*
X130464400Y-78397953D01*
X130545148Y-78385165D01*
X130658045Y-78327641D01*
X130747641Y-78238045D01*
X130805165Y-78125148D01*
X130817953Y-78044401D01*
X131643434Y-78869882D01*
X131743731Y-78716369D01*
X131843587Y-78488717D01*
X131904612Y-78247738D01*
X131904614Y-78247729D01*
X131925141Y-78000005D01*
X131925141Y-77999994D01*
X131904614Y-77752270D01*
X131904612Y-77752261D01*
X131843587Y-77511282D01*
X131743731Y-77283630D01*
X131643434Y-77130116D01*
X130817953Y-77955598D01*
X130805165Y-77874852D01*
X130747641Y-77761955D01*
X130658045Y-77672359D01*
X130545148Y-77614835D01*
X130464401Y-77602046D01*
X131290057Y-76776390D01*
X131290056Y-76776389D01*
X131243229Y-76739943D01*
X131024614Y-76621635D01*
X131024603Y-76621630D01*
X130789493Y-76540916D01*
X130544293Y-76500000D01*
X130295707Y-76500000D01*
X130050506Y-76540916D01*
X129815396Y-76621630D01*
X129815390Y-76621632D01*
X129596761Y-76739949D01*
X129549942Y-76776388D01*
X129549942Y-76776390D01*
X130375599Y-77602046D01*
X130294852Y-77614835D01*
X130181955Y-77672359D01*
X130092359Y-77761955D01*
X130034835Y-77874852D01*
X130022046Y-77955598D01*
X129196564Y-77130116D01*
X129096267Y-77283632D01*
X128996412Y-77511282D01*
X128935387Y-77752261D01*
X128935385Y-77752270D01*
X128914859Y-77999994D01*
X128914859Y-78000005D01*
X127644700Y-78000005D01*
X127644700Y-73375035D01*
X127664385Y-73307996D01*
X127681014Y-73287359D01*
X128737683Y-72230690D01*
X128799002Y-72197208D01*
X128868694Y-72202192D01*
X128924627Y-72244064D01*
X128945566Y-72287934D01*
X128996411Y-72488716D01*
X129096266Y-72716364D01*
X129196564Y-72869882D01*
X130022046Y-72044399D01*
X130034835Y-72125148D01*
X130092359Y-72238045D01*
X130181955Y-72327641D01*
X130294852Y-72385165D01*
X130375599Y-72397953D01*
X129549942Y-73223609D01*
X129596768Y-73260055D01*
X129596770Y-73260056D01*
X129815385Y-73378364D01*
X129815396Y-73378369D01*
X130050506Y-73459083D01*
X130295707Y-73500000D01*
X130544293Y-73500000D01*
X130789493Y-73459083D01*
X131024603Y-73378369D01*
X131024614Y-73378364D01*
X131243228Y-73260057D01*
X131243231Y-73260055D01*
X131290056Y-73223609D01*
X130464400Y-72397953D01*
X130545148Y-72385165D01*
X130658045Y-72327641D01*
X130747641Y-72238045D01*
X130805165Y-72125148D01*
X130817953Y-72044401D01*
X131643434Y-72869882D01*
X131743731Y-72716369D01*
X131843587Y-72488717D01*
X131904612Y-72247738D01*
X131904614Y-72247729D01*
X131925141Y-72000005D01*
X131925141Y-71999994D01*
X131904614Y-71752270D01*
X131904612Y-71752261D01*
X131843587Y-71511282D01*
X131743731Y-71283630D01*
X131643434Y-71130116D01*
X130817953Y-71955598D01*
X130805165Y-71874852D01*
X130747641Y-71761955D01*
X130658045Y-71672359D01*
X130545148Y-71614835D01*
X130464399Y-71602046D01*
X131290057Y-70776389D01*
X131243229Y-70739943D01*
X131024614Y-70621635D01*
X131024603Y-70621630D01*
X130789493Y-70540916D01*
X130716841Y-70528793D01*
X130653956Y-70498342D01*
X130617516Y-70438728D01*
X130619092Y-70368876D01*
X130649568Y-70318805D01*
X132839819Y-68128555D01*
X132901142Y-68095070D01*
X132970834Y-68100054D01*
G37*
%TD.AperFunction*%
%TA.AperFunction,Conductor*%
G36*
X134282504Y-93368879D02*
G01*
X134294266Y-93379240D01*
X137523181Y-96608155D01*
X137556666Y-96669478D01*
X137559500Y-96695836D01*
X137559500Y-99066023D01*
X137539815Y-99133062D01*
X137487011Y-99178817D01*
X137417853Y-99188761D01*
X137354297Y-99159736D01*
X137344270Y-99150006D01*
X137303189Y-99105380D01*
X137211784Y-99006087D01*
X137211779Y-99006083D01*
X137211777Y-99006081D01*
X137028634Y-98863535D01*
X137028628Y-98863531D01*
X136824504Y-98753064D01*
X136824495Y-98753061D01*
X136604984Y-98677702D01*
X136433081Y-98649017D01*
X136376049Y-98639500D01*
X136143951Y-98639500D01*
X136105017Y-98645997D01*
X135915015Y-98677702D01*
X135695504Y-98753061D01*
X135695495Y-98753064D01*
X135491371Y-98863531D01*
X135491365Y-98863535D01*
X135308222Y-99006081D01*
X135308219Y-99006084D01*
X135308216Y-99006086D01*
X135308216Y-99006087D01*
X135216814Y-99105377D01*
X135151015Y-99176854D01*
X135093509Y-99264874D01*
X135040363Y-99310230D01*
X134971132Y-99319654D01*
X134907796Y-99290152D01*
X134885892Y-99264874D01*
X134871186Y-99242365D01*
X134117953Y-99995598D01*
X134105165Y-99914852D01*
X134047641Y-99801955D01*
X133958045Y-99712359D01*
X133845148Y-99654835D01*
X133764400Y-99642046D01*
X134518797Y-98887647D01*
X134518797Y-98887645D01*
X134488360Y-98863955D01*
X134488354Y-98863951D01*
X134284302Y-98753523D01*
X134284293Y-98753520D01*
X134064860Y-98678188D01*
X133836007Y-98640000D01*
X133603993Y-98640000D01*
X133375139Y-98678188D01*
X133155706Y-98753520D01*
X133155697Y-98753523D01*
X132951650Y-98863949D01*
X132921200Y-98887647D01*
X133675600Y-99642046D01*
X133594852Y-99654835D01*
X133481955Y-99712359D01*
X133392359Y-99801955D01*
X133334835Y-99914852D01*
X133322046Y-99995600D01*
X132568811Y-99242365D01*
X132554106Y-99264873D01*
X132500959Y-99310230D01*
X132431728Y-99319653D01*
X132368392Y-99290150D01*
X132346489Y-99264873D01*
X132288981Y-99176850D01*
X132288980Y-99176849D01*
X132288979Y-99176847D01*
X132131784Y-99006087D01*
X132131779Y-99006083D01*
X132131777Y-99006081D01*
X131948634Y-98863535D01*
X131948628Y-98863531D01*
X131744504Y-98753064D01*
X131744495Y-98753061D01*
X131524984Y-98677702D01*
X131353081Y-98649017D01*
X131296049Y-98639500D01*
X131063951Y-98639500D01*
X131025017Y-98645997D01*
X130835015Y-98677702D01*
X130615504Y-98753061D01*
X130615495Y-98753064D01*
X130411371Y-98863531D01*
X130411365Y-98863535D01*
X130228222Y-99006081D01*
X130228219Y-99006084D01*
X130071016Y-99176852D01*
X129944075Y-99371151D01*
X129850842Y-99583699D01*
X129793866Y-99808691D01*
X129793864Y-99808702D01*
X129774700Y-100039993D01*
X129774700Y-100040006D01*
X129793864Y-100271297D01*
X129793866Y-100271308D01*
X129847414Y-100482760D01*
X129844789Y-100552580D01*
X129804833Y-100609897D01*
X129740232Y-100636514D01*
X129735551Y-100636919D01*
X129679881Y-100640673D01*
X129673265Y-100641119D01*
X129664925Y-100641400D01*
X129655038Y-100641400D01*
X129614451Y-100645052D01*
X129611682Y-100645270D01*
X129514790Y-100651803D01*
X129510549Y-100652872D01*
X129491376Y-100656130D01*
X129487008Y-100656523D01*
X129393385Y-100682362D01*
X129390695Y-100683072D01*
X129296519Y-100706802D01*
X129292522Y-100708618D01*
X129274259Y-100715239D01*
X129270031Y-100716406D01*
X129182516Y-100758549D01*
X129180000Y-100759726D01*
X129091576Y-100799891D01*
X129091571Y-100799894D01*
X129087975Y-100802386D01*
X129071140Y-100812186D01*
X129069376Y-100813035D01*
X129000432Y-100824372D01*
X128936304Y-100796635D01*
X128897352Y-100738630D01*
X128891600Y-100701303D01*
X128891600Y-98713036D01*
X128911285Y-98645997D01*
X128927919Y-98625355D01*
X131440597Y-96112677D01*
X133954644Y-93598630D01*
X134062768Y-93469119D01*
X134098738Y-93405725D01*
X134148940Y-93357134D01*
X134217446Y-93343398D01*
X134282504Y-93368879D01*
G37*
%TD.AperFunction*%
%TA.AperFunction,Conductor*%
G36*
X137976026Y-66873385D02*
G01*
X138021781Y-66926189D01*
X138031725Y-66995347D01*
X138028762Y-67009793D01*
X138001931Y-67109926D01*
X138001929Y-67109937D01*
X137982677Y-67329997D01*
X137982677Y-67330002D01*
X138001929Y-67550062D01*
X138001930Y-67550070D01*
X138059104Y-67763445D01*
X138059105Y-67763447D01*
X138059106Y-67763450D01*
X138152466Y-67963662D01*
X138152468Y-67963666D01*
X138279170Y-68144615D01*
X138279175Y-68144621D01*
X138435378Y-68300824D01*
X138435384Y-68300829D01*
X138616333Y-68427531D01*
X138616335Y-68427532D01*
X138616338Y-68427534D01*
X138816550Y-68520894D01*
X139029932Y-68578070D01*
X139187123Y-68591822D01*
X139249998Y-68597323D01*
X139250000Y-68597323D01*
X139250002Y-68597323D01*
X139436897Y-68580972D01*
X139447704Y-68580500D01*
X145284664Y-68580500D01*
X145351703Y-68600185D01*
X145372345Y-68616819D01*
X150533182Y-73777656D01*
X150542448Y-73788024D01*
X150564492Y-73815666D01*
X150614395Y-73859266D01*
X150620491Y-73864965D01*
X150627471Y-73871945D01*
X150655223Y-73895114D01*
X150658714Y-73898028D01*
X150660833Y-73899837D01*
X150734005Y-73963766D01*
X150737755Y-73966006D01*
X150753626Y-73977266D01*
X150756982Y-73980068D01*
X150756984Y-73980069D01*
X150841454Y-74027999D01*
X150843821Y-74029377D01*
X150927236Y-74079215D01*
X150931327Y-74080750D01*
X150948946Y-74088992D01*
X150952755Y-74091154D01*
X150952759Y-74091156D01*
X151012648Y-74112111D01*
X151044479Y-74123249D01*
X151047020Y-74124170D01*
X151137976Y-74158307D01*
X151142266Y-74159085D01*
X151161094Y-74164055D01*
X151165218Y-74165498D01*
X151165220Y-74165498D01*
X151165222Y-74165499D01*
X151202278Y-74171368D01*
X151261214Y-74180702D01*
X151263817Y-74181144D01*
X151345678Y-74196000D01*
X151359452Y-74198500D01*
X151359453Y-74198500D01*
X151363824Y-74198500D01*
X151383221Y-74200026D01*
X151387540Y-74200711D01*
X151484666Y-74198530D01*
X151487448Y-74198500D01*
X155625482Y-74198500D01*
X155692521Y-74218185D01*
X155738276Y-74270989D01*
X155749010Y-74333307D01*
X155732677Y-74519997D01*
X155732677Y-74520002D01*
X155751929Y-74740062D01*
X155751930Y-74740070D01*
X155809104Y-74953445D01*
X155809105Y-74953447D01*
X155809106Y-74953450D01*
X155836300Y-75011767D01*
X155902466Y-75153662D01*
X155902468Y-75153666D01*
X156029170Y-75334615D01*
X156029175Y-75334621D01*
X156185378Y-75490824D01*
X156185384Y-75490829D01*
X156366333Y-75617531D01*
X156366335Y-75617532D01*
X156366338Y-75617534D01*
X156485748Y-75673215D01*
X156495189Y-75677618D01*
X156547628Y-75723790D01*
X156566780Y-75790984D01*
X156546564Y-75857865D01*
X156495189Y-75902382D01*
X156366340Y-75962465D01*
X156366338Y-75962466D01*
X156185377Y-76089175D01*
X156029175Y-76245377D01*
X155902466Y-76426338D01*
X155902465Y-76426340D01*
X155809107Y-76626548D01*
X155809104Y-76626554D01*
X155751930Y-76839929D01*
X155751929Y-76839937D01*
X155732677Y-77059997D01*
X155732677Y-77060002D01*
X155751929Y-77280062D01*
X155751930Y-77280070D01*
X155809104Y-77493445D01*
X155809105Y-77493447D01*
X155809106Y-77493450D01*
X155892532Y-77672359D01*
X155902466Y-77693662D01*
X155902468Y-77693666D01*
X156029170Y-77874615D01*
X156029175Y-77874621D01*
X156185378Y-78030824D01*
X156185384Y-78030829D01*
X156366333Y-78157531D01*
X156366335Y-78157532D01*
X156366338Y-78157534D01*
X156485748Y-78213215D01*
X156495189Y-78217618D01*
X156547628Y-78263790D01*
X156566780Y-78330984D01*
X156546564Y-78397865D01*
X156495189Y-78442382D01*
X156366340Y-78502465D01*
X156366338Y-78502466D01*
X156185377Y-78629175D01*
X156029175Y-78785377D01*
X155902466Y-78966338D01*
X155902465Y-78966340D01*
X155809107Y-79166548D01*
X155809104Y-79166554D01*
X155751930Y-79379929D01*
X155751929Y-79379937D01*
X155732677Y-79599997D01*
X155732677Y-79600002D01*
X155751929Y-79820062D01*
X155751930Y-79820070D01*
X155809104Y-80033445D01*
X155809105Y-80033447D01*
X155809106Y-80033450D01*
X155836300Y-80091767D01*
X155902466Y-80233662D01*
X155902468Y-80233666D01*
X156029170Y-80414615D01*
X156029175Y-80414621D01*
X156185378Y-80570824D01*
X156185384Y-80570829D01*
X156366333Y-80697531D01*
X156366335Y-80697532D01*
X156366338Y-80697534D01*
X156485748Y-80753215D01*
X156495189Y-80757618D01*
X156547628Y-80803790D01*
X156566780Y-80870984D01*
X156546564Y-80937865D01*
X156495189Y-80982382D01*
X156366340Y-81042465D01*
X156366338Y-81042466D01*
X156185377Y-81169175D01*
X156029175Y-81325377D01*
X155902466Y-81506338D01*
X155902465Y-81506340D01*
X155809107Y-81706548D01*
X155809104Y-81706554D01*
X155751930Y-81919929D01*
X155751929Y-81919937D01*
X155732677Y-82139997D01*
X155732677Y-82140002D01*
X155751929Y-82360062D01*
X155751930Y-82360070D01*
X155809104Y-82573445D01*
X155809105Y-82573447D01*
X155809106Y-82573450D01*
X155854420Y-82670627D01*
X155902466Y-82773662D01*
X155902468Y-82773666D01*
X156029170Y-82954615D01*
X156029175Y-82954621D01*
X156185378Y-83110824D01*
X156185384Y-83110829D01*
X156366333Y-83237531D01*
X156366335Y-83237532D01*
X156366338Y-83237534D01*
X156397762Y-83252187D01*
X156495189Y-83297618D01*
X156547628Y-83343790D01*
X156566780Y-83410984D01*
X156546564Y-83477865D01*
X156495189Y-83522382D01*
X156366340Y-83582465D01*
X156366338Y-83582466D01*
X156185381Y-83709172D01*
X156029172Y-83865382D01*
X155995756Y-83913105D01*
X155981863Y-83929661D01*
X152079973Y-87831551D01*
X152018650Y-87865036D01*
X151948958Y-87860052D01*
X151904613Y-87831553D01*
X147493003Y-83420005D01*
X149994357Y-83420005D01*
X150014890Y-83667812D01*
X150014892Y-83667824D01*
X150075936Y-83908881D01*
X150175826Y-84136606D01*
X150311833Y-84344782D01*
X150311836Y-84344785D01*
X150480256Y-84527738D01*
X150676491Y-84680474D01*
X150895190Y-84798828D01*
X151114141Y-84873994D01*
X151128227Y-84878830D01*
X151130386Y-84879571D01*
X151375665Y-84920500D01*
X151624335Y-84920500D01*
X151869614Y-84879571D01*
X152104810Y-84798828D01*
X152323509Y-84680474D01*
X152519744Y-84527738D01*
X152688164Y-84344785D01*
X152824173Y-84136607D01*
X152924063Y-83908881D01*
X152985108Y-83667821D01*
X152992181Y-83582464D01*
X153005643Y-83420005D01*
X153005643Y-83419994D01*
X152985109Y-83172187D01*
X152985107Y-83172175D01*
X152924063Y-82931118D01*
X152824173Y-82703393D01*
X152688166Y-82495217D01*
X152654667Y-82458828D01*
X152519744Y-82312262D01*
X152323509Y-82159526D01*
X152323507Y-82159525D01*
X152323506Y-82159524D01*
X152104811Y-82041172D01*
X152104802Y-82041169D01*
X151869616Y-81960429D01*
X151624335Y-81919500D01*
X151375665Y-81919500D01*
X151130383Y-81960429D01*
X150895197Y-82041169D01*
X150895188Y-82041172D01*
X150676493Y-82159524D01*
X150480257Y-82312261D01*
X150311833Y-82495217D01*
X150175826Y-82703393D01*
X150075936Y-82931118D01*
X150014892Y-83172175D01*
X150014890Y-83172187D01*
X149994357Y-83419994D01*
X149994357Y-83420005D01*
X147493003Y-83420005D01*
X145819023Y-81746049D01*
X145699433Y-81646210D01*
X145689509Y-81637925D01*
X145493745Y-81526846D01*
X145493737Y-81526843D01*
X145281274Y-81452500D01*
X145281272Y-81452499D01*
X145281271Y-81452499D01*
X145058954Y-81417288D01*
X144833908Y-81422341D01*
X144613402Y-81467493D01*
X144613388Y-81467497D01*
X144404487Y-81551294D01*
X144342772Y-81590073D01*
X144275535Y-81609073D01*
X144208700Y-81588705D01*
X144163486Y-81535437D01*
X144152800Y-81485079D01*
X144152800Y-81080005D01*
X152494357Y-81080005D01*
X152514890Y-81327812D01*
X152514892Y-81327824D01*
X152575936Y-81568881D01*
X152675826Y-81796606D01*
X152811833Y-82004782D01*
X152811836Y-82004785D01*
X152980256Y-82187738D01*
X153176491Y-82340474D01*
X153395190Y-82458828D01*
X153630386Y-82539571D01*
X153875665Y-82580500D01*
X154124335Y-82580500D01*
X154369614Y-82539571D01*
X154604810Y-82458828D01*
X154823509Y-82340474D01*
X155019744Y-82187738D01*
X155188164Y-82004785D01*
X155324173Y-81796607D01*
X155424063Y-81568881D01*
X155485108Y-81327821D01*
X155485109Y-81327812D01*
X155505643Y-81080005D01*
X155505643Y-81079994D01*
X155485109Y-80832187D01*
X155485107Y-80832175D01*
X155424063Y-80591118D01*
X155324173Y-80363393D01*
X155188166Y-80155217D01*
X155076071Y-80033450D01*
X155019744Y-79972262D01*
X154823509Y-79819526D01*
X154823507Y-79819525D01*
X154823506Y-79819524D01*
X154604811Y-79701172D01*
X154604802Y-79701169D01*
X154369616Y-79620429D01*
X154124335Y-79579500D01*
X153875665Y-79579500D01*
X153630383Y-79620429D01*
X153395197Y-79701169D01*
X153395188Y-79701172D01*
X153176493Y-79819524D01*
X152980257Y-79972261D01*
X152811833Y-80155217D01*
X152675826Y-80363393D01*
X152575936Y-80591118D01*
X152514892Y-80832175D01*
X152514890Y-80832187D01*
X152494357Y-81079994D01*
X152494357Y-81080005D01*
X144152800Y-81080005D01*
X144152800Y-77634585D01*
X144153580Y-77620700D01*
X144155912Y-77600000D01*
X144157538Y-77585573D01*
X144153080Y-77519466D01*
X144152800Y-77511125D01*
X144152800Y-77501252D01*
X144152800Y-77501245D01*
X144149138Y-77460572D01*
X144148930Y-77457916D01*
X144145007Y-77399713D01*
X144142397Y-77360993D01*
X144141328Y-77356751D01*
X144138068Y-77337569D01*
X144137677Y-77333212D01*
X144111827Y-77239550D01*
X144111131Y-77236914D01*
X144090446Y-77154823D01*
X144087396Y-77142717D01*
X144085589Y-77138739D01*
X144078953Y-77120434D01*
X144077792Y-77116228D01*
X144035651Y-77028720D01*
X144034472Y-77026200D01*
X143994308Y-76937777D01*
X143994307Y-76937774D01*
X143991817Y-76934180D01*
X143982025Y-76917364D01*
X143980130Y-76913429D01*
X143980127Y-76913424D01*
X143949887Y-76871802D01*
X145934177Y-76871802D01*
X145953429Y-77091862D01*
X145953430Y-77091870D01*
X146010604Y-77305245D01*
X146010605Y-77305247D01*
X146010606Y-77305250D01*
X146082429Y-77459276D01*
X146103966Y-77505462D01*
X146103968Y-77505466D01*
X146230670Y-77686415D01*
X146230675Y-77686421D01*
X146386878Y-77842624D01*
X146386884Y-77842629D01*
X146567833Y-77969331D01*
X146567835Y-77969332D01*
X146567838Y-77969334D01*
X146768050Y-78062694D01*
X146981432Y-78119870D01*
X147138623Y-78133622D01*
X147201498Y-78139123D01*
X147201500Y-78139123D01*
X147201502Y-78139123D01*
X147256517Y-78134309D01*
X147421568Y-78119870D01*
X147634950Y-78062694D01*
X147835162Y-77969334D01*
X148016120Y-77842626D01*
X148172326Y-77686420D01*
X148299034Y-77505462D01*
X148392394Y-77305250D01*
X148449570Y-77091868D01*
X148465181Y-76913427D01*
X148468823Y-76871802D01*
X148468823Y-76871797D01*
X148457251Y-76739526D01*
X148449570Y-76651732D01*
X148392394Y-76438350D01*
X148299034Y-76238139D01*
X148172326Y-76057180D01*
X148172324Y-76057178D01*
X148170045Y-76053923D01*
X148147718Y-75987717D01*
X148164728Y-75919950D01*
X148170045Y-75911676D01*
X148172322Y-75908423D01*
X148172326Y-75908420D01*
X148299034Y-75727462D01*
X148392394Y-75527250D01*
X148449570Y-75313868D01*
X148468823Y-75093800D01*
X148449570Y-74873732D01*
X148392394Y-74660350D01*
X148299034Y-74460139D01*
X148172326Y-74279180D01*
X148169739Y-74275485D01*
X148147412Y-74209279D01*
X148164422Y-74141511D01*
X148169740Y-74133238D01*
X148298595Y-73949217D01*
X148298600Y-73949207D01*
X148391919Y-73749084D01*
X148391924Y-73749070D01*
X148449073Y-73535786D01*
X148449075Y-73535776D01*
X148468321Y-73315800D01*
X148468321Y-73315799D01*
X148449075Y-73095823D01*
X148449073Y-73095813D01*
X148391924Y-72882529D01*
X148391920Y-72882520D01*
X148298596Y-72682386D01*
X148253241Y-72617611D01*
X148253240Y-72617610D01*
X147586403Y-73284446D01*
X147586449Y-73283902D01*
X147555234Y-73160638D01*
X147485687Y-73054188D01*
X147385343Y-72976087D01*
X147265078Y-72934800D01*
X147228948Y-72934800D01*
X147899688Y-72264059D01*
X147899687Y-72264058D01*
X147834911Y-72218701D01*
X147834905Y-72218698D01*
X147634784Y-72125380D01*
X147634770Y-72125375D01*
X147421486Y-72068226D01*
X147421476Y-72068224D01*
X147201501Y-72048979D01*
X147201499Y-72048979D01*
X146981523Y-72068224D01*
X146981513Y-72068226D01*
X146768229Y-72125375D01*
X146768220Y-72125379D01*
X146568090Y-72218701D01*
X146503311Y-72264058D01*
X147174053Y-72934800D01*
X147169931Y-72934800D01*
X147076079Y-72950461D01*
X146964249Y-73010980D01*
X146878129Y-73104531D01*
X146827052Y-73220977D01*
X146821394Y-73289247D01*
X146149758Y-72617611D01*
X146104401Y-72682390D01*
X146011079Y-72882520D01*
X146011075Y-72882529D01*
X145953926Y-73095813D01*
X145953924Y-73095823D01*
X145934679Y-73315799D01*
X145934679Y-73315800D01*
X145953924Y-73535776D01*
X145953926Y-73535786D01*
X146011075Y-73749070D01*
X146011080Y-73749084D01*
X146104399Y-73949207D01*
X146104405Y-73949217D01*
X146233259Y-74133238D01*
X146255587Y-74199444D01*
X146238577Y-74267211D01*
X146233260Y-74275485D01*
X146103966Y-74460138D01*
X146103965Y-74460140D01*
X146010607Y-74660348D01*
X146010604Y-74660354D01*
X145953430Y-74873729D01*
X145953429Y-74873737D01*
X145934177Y-75093797D01*
X145934177Y-75093802D01*
X145953429Y-75313862D01*
X145953430Y-75313870D01*
X146010604Y-75527245D01*
X146010605Y-75527247D01*
X146010606Y-75527250D01*
X146080852Y-75677894D01*
X146103966Y-75727462D01*
X146103968Y-75727466D01*
X146232954Y-75911677D01*
X146255281Y-75977883D01*
X146238271Y-76045650D01*
X146232954Y-76053923D01*
X146103966Y-76238138D01*
X146103965Y-76238140D01*
X146010607Y-76438348D01*
X146010604Y-76438354D01*
X145953430Y-76651729D01*
X145953429Y-76651737D01*
X145934177Y-76871797D01*
X145934177Y-76871802D01*
X143949887Y-76871802D01*
X143923040Y-76834850D01*
X143921462Y-76832628D01*
X143866120Y-76752746D01*
X143863029Y-76749655D01*
X143850393Y-76734861D01*
X143847821Y-76731321D01*
X143847818Y-76731318D01*
X143777599Y-76664181D01*
X143775610Y-76662236D01*
X140797150Y-73683776D01*
X140763665Y-73622453D01*
X140768649Y-73552761D01*
X140810521Y-73496828D01*
X140864420Y-73473786D01*
X140949614Y-73459571D01*
X141184810Y-73378828D01*
X141403509Y-73260474D01*
X141599744Y-73107738D01*
X141768164Y-72924785D01*
X141904173Y-72716607D01*
X142004063Y-72488881D01*
X142065108Y-72247821D01*
X142065116Y-72247729D01*
X142085643Y-72000005D01*
X142085643Y-71999994D01*
X142065109Y-71752187D01*
X142065107Y-71752175D01*
X142004063Y-71511118D01*
X141904173Y-71283393D01*
X141768166Y-71075217D01*
X141746557Y-71051744D01*
X141599744Y-70892262D01*
X141403509Y-70739526D01*
X141403507Y-70739525D01*
X141403506Y-70739524D01*
X141184811Y-70621172D01*
X141184802Y-70621169D01*
X140949616Y-70540429D01*
X140704335Y-70499500D01*
X140455665Y-70499500D01*
X140210383Y-70540429D01*
X139975197Y-70621169D01*
X139975188Y-70621172D01*
X139756493Y-70739524D01*
X139560257Y-70892261D01*
X139391833Y-71075217D01*
X139255826Y-71283393D01*
X139155935Y-71511122D01*
X139155935Y-71511123D01*
X139102122Y-71723622D01*
X139066583Y-71783777D01*
X139004162Y-71815169D01*
X138934679Y-71807831D01*
X138894236Y-71780862D01*
X135588819Y-68475445D01*
X135555334Y-68414122D01*
X135552500Y-68387764D01*
X135552500Y-67527703D01*
X135552972Y-67516896D01*
X135569323Y-67330002D01*
X135569323Y-67329997D01*
X135550070Y-67109937D01*
X135550070Y-67109932D01*
X135523238Y-67009793D01*
X135524901Y-66939943D01*
X135564064Y-66882081D01*
X135628292Y-66854577D01*
X135643013Y-66853700D01*
X137908987Y-66853700D01*
X137976026Y-66873385D01*
G37*
%TD.AperFunction*%
%TA.AperFunction,Conductor*%
G36*
X125039988Y-77766435D02*
G01*
X125077391Y-77773952D01*
X125127575Y-77822567D01*
X125143700Y-77883714D01*
X125143700Y-78678891D01*
X125124015Y-78745930D01*
X125071211Y-78791685D01*
X125002053Y-78801629D01*
X124938497Y-78772604D01*
X124932019Y-78766573D01*
X124881810Y-78716364D01*
X124794620Y-78629174D01*
X124794616Y-78629171D01*
X124794615Y-78629170D01*
X124613666Y-78502468D01*
X124613662Y-78502466D01*
X124484218Y-78442105D01*
X124431779Y-78395932D01*
X124412627Y-78328739D01*
X124432843Y-78261858D01*
X124484219Y-78217340D01*
X124613416Y-78157095D01*
X124613417Y-78157094D01*
X124678188Y-78111741D01*
X124007448Y-77441000D01*
X124011569Y-77441000D01*
X124105421Y-77425339D01*
X124217251Y-77364820D01*
X124303371Y-77271269D01*
X124354448Y-77154823D01*
X124360105Y-77086552D01*
X125039988Y-77766435D01*
G37*
%TD.AperFunction*%
%TA.AperFunction,Conductor*%
G36*
X125063034Y-75324926D02*
G01*
X125118967Y-75366798D01*
X125143384Y-75432262D01*
X125143700Y-75441108D01*
X125143700Y-76236283D01*
X125124015Y-76303322D01*
X125071211Y-76349077D01*
X125038910Y-76354640D01*
X124364903Y-77028648D01*
X124364949Y-77028102D01*
X124333734Y-76904838D01*
X124264187Y-76798388D01*
X124163843Y-76720287D01*
X124043578Y-76679000D01*
X124007448Y-76679000D01*
X124678188Y-76008259D01*
X124678187Y-76008258D01*
X124613411Y-75962901D01*
X124613405Y-75962898D01*
X124484219Y-75902658D01*
X124431779Y-75856486D01*
X124412627Y-75789293D01*
X124432843Y-75722411D01*
X124484219Y-75677894D01*
X124484811Y-75677618D01*
X124613662Y-75617534D01*
X124794620Y-75490826D01*
X124932019Y-75353427D01*
X124993342Y-75319942D01*
X125063034Y-75324926D01*
G37*
%TD.AperFunction*%
%TA.AperFunction,Conductor*%
G36*
X126527433Y-61520185D02*
G01*
X126573188Y-61572989D01*
X126583132Y-61642147D01*
X126572776Y-61676905D01*
X126507579Y-61816720D01*
X126507575Y-61816729D01*
X126450426Y-62030013D01*
X126450424Y-62030023D01*
X126431179Y-62249999D01*
X126431179Y-62250000D01*
X126450424Y-62469976D01*
X126450426Y-62469986D01*
X126507575Y-62683270D01*
X126507580Y-62683284D01*
X126600898Y-62883405D01*
X126600901Y-62883411D01*
X126646258Y-62948187D01*
X126646258Y-62948188D01*
X127313096Y-62281350D01*
X127313051Y-62281898D01*
X127344266Y-62405162D01*
X127413813Y-62511612D01*
X127514157Y-62589713D01*
X127634422Y-62631000D01*
X127670553Y-62631000D01*
X126999810Y-63301740D01*
X127064590Y-63347099D01*
X127064592Y-63347100D01*
X127264715Y-63440419D01*
X127264729Y-63440424D01*
X127478013Y-63497573D01*
X127478023Y-63497575D01*
X127697999Y-63516821D01*
X127698001Y-63516821D01*
X127917976Y-63497575D01*
X127917986Y-63497573D01*
X128131270Y-63440424D01*
X128131284Y-63440419D01*
X128331407Y-63347100D01*
X128331417Y-63347094D01*
X128396188Y-63301741D01*
X127725448Y-62631000D01*
X127729569Y-62631000D01*
X127823421Y-62615339D01*
X127935251Y-62554820D01*
X128021371Y-62461269D01*
X128072448Y-62344823D01*
X128078105Y-62276552D01*
X128749741Y-62948188D01*
X128795094Y-62883417D01*
X128795100Y-62883407D01*
X128888419Y-62683284D01*
X128888424Y-62683270D01*
X128945573Y-62469986D01*
X128945575Y-62469976D01*
X128964821Y-62250000D01*
X128964821Y-62249999D01*
X128945575Y-62030023D01*
X128945573Y-62030013D01*
X128888424Y-61816729D01*
X128888420Y-61816720D01*
X128823224Y-61676905D01*
X128812732Y-61607827D01*
X128841252Y-61544043D01*
X128899728Y-61505804D01*
X128935606Y-61500500D01*
X133064394Y-61500500D01*
X133131433Y-61520185D01*
X133177188Y-61572989D01*
X133187132Y-61642147D01*
X133176776Y-61676905D01*
X133111579Y-61816720D01*
X133111575Y-61816729D01*
X133054426Y-62030013D01*
X133054424Y-62030023D01*
X133035179Y-62249999D01*
X133035179Y-62250000D01*
X133054424Y-62469976D01*
X133054426Y-62469986D01*
X133111575Y-62683270D01*
X133111580Y-62683284D01*
X133204898Y-62883405D01*
X133204901Y-62883411D01*
X133250258Y-62948187D01*
X133250258Y-62948188D01*
X133917096Y-62281350D01*
X133917051Y-62281898D01*
X133948266Y-62405162D01*
X134017813Y-62511612D01*
X134118157Y-62589713D01*
X134238422Y-62631000D01*
X134274553Y-62631000D01*
X133603810Y-63301740D01*
X133668590Y-63347099D01*
X133668592Y-63347100D01*
X133868715Y-63440419D01*
X133868729Y-63440424D01*
X134082013Y-63497573D01*
X134082023Y-63497575D01*
X134301999Y-63516821D01*
X134302001Y-63516821D01*
X134521976Y-63497575D01*
X134521986Y-63497573D01*
X134735270Y-63440424D01*
X134735284Y-63440419D01*
X134935407Y-63347100D01*
X134935417Y-63347094D01*
X135000188Y-63301741D01*
X134329448Y-62631000D01*
X134333569Y-62631000D01*
X134427421Y-62615339D01*
X134539251Y-62554820D01*
X134625371Y-62461269D01*
X134676448Y-62344823D01*
X134682105Y-62276552D01*
X135353741Y-62948188D01*
X135399094Y-62883417D01*
X135399100Y-62883407D01*
X135492419Y-62683284D01*
X135492424Y-62683270D01*
X135549573Y-62469986D01*
X135549575Y-62469976D01*
X135568821Y-62250000D01*
X135568821Y-62249999D01*
X135549575Y-62030023D01*
X135549573Y-62030013D01*
X135492424Y-61816729D01*
X135492420Y-61816720D01*
X135427224Y-61676905D01*
X135416732Y-61607827D01*
X135445252Y-61544043D01*
X135503728Y-61505804D01*
X135539606Y-61500500D01*
X138012394Y-61500500D01*
X138079433Y-61520185D01*
X138125188Y-61572989D01*
X138135132Y-61642147D01*
X138124776Y-61676905D01*
X138059579Y-61816720D01*
X138059575Y-61816729D01*
X138002426Y-62030013D01*
X138002424Y-62030023D01*
X137983179Y-62249999D01*
X137983179Y-62250000D01*
X138002424Y-62469976D01*
X138002426Y-62469986D01*
X138059575Y-62683270D01*
X138059580Y-62683284D01*
X138152898Y-62883405D01*
X138152901Y-62883411D01*
X138198258Y-62948187D01*
X138198258Y-62948188D01*
X138865096Y-62281350D01*
X138865051Y-62281898D01*
X138896266Y-62405162D01*
X138965813Y-62511612D01*
X139066157Y-62589713D01*
X139186422Y-62631000D01*
X139222553Y-62631000D01*
X138551810Y-63301740D01*
X138616590Y-63347099D01*
X138616592Y-63347100D01*
X138816715Y-63440419D01*
X138816729Y-63440424D01*
X139030013Y-63497573D01*
X139030023Y-63497575D01*
X139249999Y-63516821D01*
X139250001Y-63516821D01*
X139469976Y-63497575D01*
X139469986Y-63497573D01*
X139683270Y-63440424D01*
X139683284Y-63440419D01*
X139883407Y-63347100D01*
X139883417Y-63347094D01*
X139948188Y-63301741D01*
X139277448Y-62631000D01*
X139281569Y-62631000D01*
X139375421Y-62615339D01*
X139487251Y-62554820D01*
X139573371Y-62461269D01*
X139624448Y-62344823D01*
X139630105Y-62276552D01*
X140301741Y-62948188D01*
X140347094Y-62883417D01*
X140347100Y-62883407D01*
X140440419Y-62683284D01*
X140440424Y-62683270D01*
X140497573Y-62469986D01*
X140497575Y-62469976D01*
X140516821Y-62250000D01*
X140516821Y-62249999D01*
X140497575Y-62030023D01*
X140497573Y-62030013D01*
X140440424Y-61816729D01*
X140440420Y-61816720D01*
X140375224Y-61676905D01*
X140364732Y-61607827D01*
X140393252Y-61544043D01*
X140451728Y-61505804D01*
X140487606Y-61500500D01*
X144616394Y-61500500D01*
X144683433Y-61520185D01*
X144729188Y-61572989D01*
X144739132Y-61642147D01*
X144728776Y-61676905D01*
X144663579Y-61816720D01*
X144663575Y-61816729D01*
X144606426Y-62030013D01*
X144606424Y-62030023D01*
X144587179Y-62249999D01*
X144587179Y-62250000D01*
X144606424Y-62469976D01*
X144606426Y-62469986D01*
X144663575Y-62683270D01*
X144663580Y-62683284D01*
X144756898Y-62883405D01*
X144756901Y-62883411D01*
X144802258Y-62948187D01*
X144802258Y-62948188D01*
X145469096Y-62281350D01*
X145469051Y-62281898D01*
X145500266Y-62405162D01*
X145569813Y-62511612D01*
X145670157Y-62589713D01*
X145790422Y-62631000D01*
X145826553Y-62631000D01*
X145155810Y-63301740D01*
X145220590Y-63347099D01*
X145220592Y-63347100D01*
X145420715Y-63440419D01*
X145420729Y-63440424D01*
X145634013Y-63497573D01*
X145634023Y-63497575D01*
X145853999Y-63516821D01*
X145854001Y-63516821D01*
X146073976Y-63497575D01*
X146073986Y-63497573D01*
X146287270Y-63440424D01*
X146287284Y-63440419D01*
X146487407Y-63347100D01*
X146487417Y-63347094D01*
X146552188Y-63301741D01*
X145881448Y-62631000D01*
X145885569Y-62631000D01*
X145979421Y-62615339D01*
X146091251Y-62554820D01*
X146177371Y-62461269D01*
X146228448Y-62344823D01*
X146234105Y-62276552D01*
X146905741Y-62948188D01*
X146951094Y-62883417D01*
X146951100Y-62883407D01*
X147044419Y-62683284D01*
X147044424Y-62683270D01*
X147101573Y-62469986D01*
X147101575Y-62469976D01*
X147120821Y-62250000D01*
X147120821Y-62249999D01*
X147101575Y-62030023D01*
X147101573Y-62030013D01*
X147044424Y-61816729D01*
X147044420Y-61816720D01*
X146979224Y-61676905D01*
X146968732Y-61607827D01*
X146997252Y-61544043D01*
X147055728Y-61505804D01*
X147091606Y-61500500D01*
X149460394Y-61500500D01*
X149527433Y-61520185D01*
X149573188Y-61572989D01*
X149583132Y-61642147D01*
X149572776Y-61676905D01*
X149507579Y-61816720D01*
X149507575Y-61816729D01*
X149450426Y-62030013D01*
X149450424Y-62030023D01*
X149431179Y-62249999D01*
X149431179Y-62250000D01*
X149450424Y-62469976D01*
X149450426Y-62469986D01*
X149507575Y-62683270D01*
X149507580Y-62683284D01*
X149600898Y-62883405D01*
X149600901Y-62883411D01*
X149646258Y-62948187D01*
X149646258Y-62948188D01*
X150313096Y-62281350D01*
X150313051Y-62281898D01*
X150344266Y-62405162D01*
X150413813Y-62511612D01*
X150514157Y-62589713D01*
X150634422Y-62631000D01*
X150670553Y-62631000D01*
X149999810Y-63301740D01*
X150064590Y-63347099D01*
X150064592Y-63347100D01*
X150264715Y-63440419D01*
X150264729Y-63440424D01*
X150478013Y-63497573D01*
X150478023Y-63497575D01*
X150697999Y-63516821D01*
X150698001Y-63516821D01*
X150917976Y-63497575D01*
X150917986Y-63497573D01*
X151131270Y-63440424D01*
X151131284Y-63440419D01*
X151331407Y-63347100D01*
X151331417Y-63347094D01*
X151396188Y-63301741D01*
X150725448Y-62631000D01*
X150729569Y-62631000D01*
X150823421Y-62615339D01*
X150935251Y-62554820D01*
X151021371Y-62461269D01*
X151072448Y-62344823D01*
X151078105Y-62276552D01*
X151749741Y-62948188D01*
X151795094Y-62883417D01*
X151795100Y-62883407D01*
X151888419Y-62683284D01*
X151888424Y-62683270D01*
X151945573Y-62469986D01*
X151945575Y-62469976D01*
X151964821Y-62250000D01*
X151964821Y-62249999D01*
X151945575Y-62030023D01*
X151945573Y-62030013D01*
X151888424Y-61816729D01*
X151888420Y-61816720D01*
X151823224Y-61676905D01*
X151812732Y-61607827D01*
X151841252Y-61544043D01*
X151899728Y-61505804D01*
X151935606Y-61500500D01*
X156064394Y-61500500D01*
X156131433Y-61520185D01*
X156177188Y-61572989D01*
X156187132Y-61642147D01*
X156176776Y-61676905D01*
X156111579Y-61816720D01*
X156111575Y-61816729D01*
X156054426Y-62030013D01*
X156054424Y-62030023D01*
X156035179Y-62249999D01*
X156035179Y-62250000D01*
X156054424Y-62469976D01*
X156054426Y-62469986D01*
X156111575Y-62683270D01*
X156111580Y-62683284D01*
X156204898Y-62883405D01*
X156204901Y-62883411D01*
X156250258Y-62948187D01*
X156250258Y-62948188D01*
X156917096Y-62281350D01*
X156917051Y-62281898D01*
X156948266Y-62405162D01*
X157017813Y-62511612D01*
X157118157Y-62589713D01*
X157238422Y-62631000D01*
X157274553Y-62631000D01*
X156603810Y-63301740D01*
X156668590Y-63347099D01*
X156668592Y-63347100D01*
X156868715Y-63440419D01*
X156868729Y-63440424D01*
X157082013Y-63497573D01*
X157082023Y-63497575D01*
X157301999Y-63516821D01*
X157302001Y-63516821D01*
X157521976Y-63497575D01*
X157521986Y-63497573D01*
X157735270Y-63440424D01*
X157735284Y-63440419D01*
X157935407Y-63347100D01*
X157935417Y-63347094D01*
X158000188Y-63301741D01*
X157329448Y-62631000D01*
X157333569Y-62631000D01*
X157427421Y-62615339D01*
X157539251Y-62554820D01*
X157625371Y-62461269D01*
X157676448Y-62344823D01*
X157682105Y-62276552D01*
X158353741Y-62948188D01*
X158399094Y-62883417D01*
X158399100Y-62883407D01*
X158492419Y-62683284D01*
X158492424Y-62683270D01*
X158549573Y-62469986D01*
X158549575Y-62469976D01*
X158568821Y-62250000D01*
X158568821Y-62249999D01*
X158549575Y-62030023D01*
X158549573Y-62030013D01*
X158492424Y-61816729D01*
X158492420Y-61816720D01*
X158427224Y-61676905D01*
X158416732Y-61607827D01*
X158445252Y-61544043D01*
X158503728Y-61505804D01*
X158539606Y-61500500D01*
X161741324Y-61500500D01*
X161808363Y-61520185D01*
X161829005Y-61536819D01*
X162963181Y-62670994D01*
X162996666Y-62732317D01*
X162999500Y-62758675D01*
X162999500Y-63001743D01*
X162979815Y-63068782D01*
X162927011Y-63114537D01*
X162857853Y-63124481D01*
X162794297Y-63095456D01*
X162766668Y-63061170D01*
X162687229Y-62915690D01*
X162687224Y-62915682D01*
X162515745Y-62686612D01*
X162515729Y-62686594D01*
X162313405Y-62484270D01*
X162313387Y-62484254D01*
X162084317Y-62312775D01*
X162084309Y-62312770D01*
X161833166Y-62175635D01*
X161833167Y-62175635D01*
X161650605Y-62107543D01*
X161565046Y-62075631D01*
X161565043Y-62075630D01*
X161565037Y-62075628D01*
X161285433Y-62014804D01*
X161000001Y-61994390D01*
X160999999Y-61994390D01*
X160714566Y-62014804D01*
X160434962Y-62075628D01*
X160166833Y-62175635D01*
X159915690Y-62312770D01*
X159915682Y-62312775D01*
X159686612Y-62484254D01*
X159686594Y-62484270D01*
X159484270Y-62686594D01*
X159484254Y-62686612D01*
X159312775Y-62915682D01*
X159312770Y-62915690D01*
X159175635Y-63166833D01*
X159075628Y-63434962D01*
X159014804Y-63714566D01*
X158994390Y-63999998D01*
X158994390Y-64000001D01*
X159014804Y-64285433D01*
X159075628Y-64565037D01*
X159075630Y-64565043D01*
X159075631Y-64565046D01*
X159139219Y-64735532D01*
X159175635Y-64833166D01*
X159312770Y-65084309D01*
X159312775Y-65084317D01*
X159484254Y-65313387D01*
X159484270Y-65313405D01*
X159686594Y-65515729D01*
X159686612Y-65515745D01*
X159915682Y-65687224D01*
X159915690Y-65687229D01*
X160166833Y-65824364D01*
X160166832Y-65824364D01*
X160166836Y-65824365D01*
X160166839Y-65824367D01*
X160434954Y-65924369D01*
X160434960Y-65924370D01*
X160434962Y-65924371D01*
X160714566Y-65985195D01*
X160714568Y-65985195D01*
X160714572Y-65985196D01*
X160968220Y-66003337D01*
X160999999Y-66005610D01*
X161000000Y-66005610D01*
X161000001Y-66005610D01*
X161028595Y-66003564D01*
X161285428Y-65985196D01*
X161565046Y-65924369D01*
X161833161Y-65824367D01*
X162084315Y-65687226D01*
X162313395Y-65515739D01*
X162515739Y-65313395D01*
X162687226Y-65084315D01*
X162734218Y-64998256D01*
X162766668Y-64938829D01*
X162816073Y-64889424D01*
X162884346Y-64874572D01*
X162949811Y-64898989D01*
X162991682Y-64954923D01*
X162999500Y-64998256D01*
X162999500Y-153693614D01*
X162979815Y-153760653D01*
X162927011Y-153806408D01*
X162857853Y-153816352D01*
X162794297Y-153787327D01*
X162766668Y-153753041D01*
X162687229Y-153607561D01*
X162687224Y-153607553D01*
X162515745Y-153378483D01*
X162515729Y-153378465D01*
X162313405Y-153176141D01*
X162313387Y-153176125D01*
X162084317Y-153004646D01*
X162084309Y-153004641D01*
X161833166Y-152867506D01*
X161833167Y-152867506D01*
X161725915Y-152827503D01*
X161565046Y-152767502D01*
X161565043Y-152767501D01*
X161565037Y-152767499D01*
X161285433Y-152706675D01*
X161000001Y-152686261D01*
X160999999Y-152686261D01*
X160714566Y-152706675D01*
X160434962Y-152767499D01*
X160166833Y-152867506D01*
X159915690Y-153004641D01*
X159915682Y-153004646D01*
X159686612Y-153176125D01*
X159686594Y-153176141D01*
X159484270Y-153378465D01*
X159484254Y-153378483D01*
X159312775Y-153607553D01*
X159312770Y-153607561D01*
X159175635Y-153858704D01*
X159075628Y-154126833D01*
X159014804Y-154406437D01*
X158994390Y-154691869D01*
X158994390Y-154691872D01*
X159014804Y-154977304D01*
X159075628Y-155256908D01*
X159075630Y-155256914D01*
X159075631Y-155256917D01*
X159163875Y-155493508D01*
X159175635Y-155525037D01*
X159312770Y-155776180D01*
X159312775Y-155776188D01*
X159484254Y-156005258D01*
X159484270Y-156005276D01*
X159686594Y-156207600D01*
X159686612Y-156207616D01*
X159915682Y-156379095D01*
X159915690Y-156379100D01*
X160166833Y-156516235D01*
X160166832Y-156516235D01*
X160166836Y-156516236D01*
X160166839Y-156516238D01*
X160434954Y-156616240D01*
X160434960Y-156616241D01*
X160434962Y-156616242D01*
X160714566Y-156677066D01*
X160714568Y-156677066D01*
X160714572Y-156677067D01*
X160968220Y-156695208D01*
X160999999Y-156697481D01*
X161000000Y-156697481D01*
X161000001Y-156697481D01*
X161021987Y-156695908D01*
X161285428Y-156677067D01*
X161294121Y-156675176D01*
X161363813Y-156680159D01*
X161419747Y-156722030D01*
X161444165Y-156787494D01*
X161429314Y-156855767D01*
X161408163Y-156884021D01*
X161329003Y-156963182D01*
X161267683Y-156996666D01*
X161241324Y-156999500D01*
X124258676Y-156999500D01*
X124191637Y-156979815D01*
X124170995Y-156963181D01*
X123828627Y-156620813D01*
X123795142Y-156559490D01*
X123800126Y-156489798D01*
X123841998Y-156433865D01*
X123907462Y-156409448D01*
X123925154Y-156409448D01*
X123999999Y-156414801D01*
X124000000Y-156414801D01*
X124000001Y-156414801D01*
X124028595Y-156412755D01*
X124285428Y-156394387D01*
X124355702Y-156379100D01*
X124565037Y-156333562D01*
X124565037Y-156333561D01*
X124565046Y-156333560D01*
X124833161Y-156233558D01*
X125084315Y-156096417D01*
X125313395Y-155924930D01*
X125515739Y-155722586D01*
X125687226Y-155493506D01*
X125824367Y-155242352D01*
X125924369Y-154974237D01*
X125985196Y-154694619D01*
X126005610Y-154409191D01*
X126005413Y-154406443D01*
X125991664Y-154214198D01*
X125985196Y-154123763D01*
X125927537Y-153858710D01*
X125924371Y-153844153D01*
X125924370Y-153844151D01*
X125924369Y-153844145D01*
X125824367Y-153576030D01*
X125801754Y-153534618D01*
X125687229Y-153324881D01*
X125687224Y-153324873D01*
X125515745Y-153095803D01*
X125515729Y-153095785D01*
X125313405Y-152893461D01*
X125313387Y-152893445D01*
X125084317Y-152721966D01*
X125084309Y-152721961D01*
X124833166Y-152584826D01*
X124833167Y-152584826D01*
X124725915Y-152544823D01*
X124565046Y-152484822D01*
X124565043Y-152484821D01*
X124565037Y-152484819D01*
X124285433Y-152423995D01*
X124000001Y-152403581D01*
X123999999Y-152403581D01*
X123714566Y-152423995D01*
X123434962Y-152484819D01*
X123166833Y-152584826D01*
X122915690Y-152721961D01*
X122915682Y-152721966D01*
X122686612Y-152893445D01*
X122686594Y-152893461D01*
X122484270Y-153095785D01*
X122484254Y-153095803D01*
X122312775Y-153324873D01*
X122312770Y-153324881D01*
X122233332Y-153470361D01*
X122183926Y-153519766D01*
X122115653Y-153534618D01*
X122050189Y-153510201D01*
X122008318Y-153454267D01*
X122000500Y-153410934D01*
X122000500Y-105000002D01*
X122712677Y-105000002D01*
X122731929Y-105220062D01*
X122731930Y-105220070D01*
X122789104Y-105433445D01*
X122789105Y-105433447D01*
X122789106Y-105433450D01*
X122882347Y-105633407D01*
X122882466Y-105633662D01*
X122882468Y-105633666D01*
X123009170Y-105814615D01*
X123009175Y-105814621D01*
X123165378Y-105970824D01*
X123165384Y-105970829D01*
X123346333Y-106097531D01*
X123346335Y-106097532D01*
X123346338Y-106097534D01*
X123546550Y-106190894D01*
X123759932Y-106248070D01*
X123917123Y-106261822D01*
X123979998Y-106267323D01*
X123980000Y-106267323D01*
X123980002Y-106267323D01*
X124035017Y-106262509D01*
X124200068Y-106248070D01*
X124413450Y-106190894D01*
X124613662Y-106097534D01*
X124794620Y-105970826D01*
X124950826Y-105814620D01*
X124984244Y-105766892D01*
X124998133Y-105750339D01*
X127053913Y-103694559D01*
X127115234Y-103661076D01*
X127184926Y-103666060D01*
X127240859Y-103707932D01*
X127259522Y-103743922D01*
X127271830Y-103781800D01*
X127277900Y-103820120D01*
X127277900Y-123610214D01*
X127277120Y-123624098D01*
X127273162Y-123659222D01*
X127273161Y-123659230D01*
X127277619Y-123725331D01*
X127277900Y-123733673D01*
X127277900Y-123743556D01*
X127281553Y-123784149D01*
X127281771Y-123786921D01*
X127288303Y-123883807D01*
X127288303Y-123883812D01*
X127289372Y-123888052D01*
X127292630Y-123907224D01*
X127293023Y-123911590D01*
X127318865Y-124005224D01*
X127319558Y-124007847D01*
X127334371Y-124066634D01*
X127343303Y-124102081D01*
X127345115Y-124106070D01*
X127351740Y-124124344D01*
X127352904Y-124128562D01*
X127352907Y-124128570D01*
X127395057Y-124216098D01*
X127396235Y-124218616D01*
X127436393Y-124307026D01*
X127436394Y-124307029D01*
X127438883Y-124310621D01*
X127448669Y-124327426D01*
X127450566Y-124331365D01*
X127450571Y-124331373D01*
X127507711Y-124410020D01*
X127509235Y-124412168D01*
X127546833Y-124466438D01*
X127564581Y-124492056D01*
X127567673Y-124495148D01*
X127580307Y-124509939D01*
X127582878Y-124513478D01*
X127582882Y-124513482D01*
X127653099Y-124580617D01*
X127655088Y-124582562D01*
X147759382Y-144686856D01*
X147768648Y-144697224D01*
X147790692Y-144724866D01*
X147840595Y-144768466D01*
X147846691Y-144774165D01*
X147853671Y-144781145D01*
X147884971Y-144807276D01*
X147887059Y-144809060D01*
X147900750Y-144821021D01*
X147960204Y-144872965D01*
X147963953Y-144875205D01*
X147979822Y-144886464D01*
X147983180Y-144889267D01*
X147983183Y-144889270D01*
X148067666Y-144937206D01*
X148070034Y-144938584D01*
X148153436Y-144988415D01*
X148157526Y-144989949D01*
X148175150Y-144998195D01*
X148178949Y-145000351D01*
X148178951Y-145000352D01*
X148178955Y-145000354D01*
X148270679Y-145032449D01*
X148273220Y-145033370D01*
X148364176Y-145067507D01*
X148368466Y-145068285D01*
X148387294Y-145073255D01*
X148391418Y-145074698D01*
X148487479Y-145089912D01*
X148490027Y-145090345D01*
X148565508Y-145104044D01*
X148585652Y-145107700D01*
X148585653Y-145107700D01*
X148590022Y-145107700D01*
X148609420Y-145109226D01*
X148613741Y-145109911D01*
X148710867Y-145107730D01*
X148713649Y-145107700D01*
X154155214Y-145107700D01*
X154169097Y-145108479D01*
X154204227Y-145112438D01*
X154204228Y-145112437D01*
X154204230Y-145112438D01*
X154270333Y-145107981D01*
X154278675Y-145107700D01*
X154288549Y-145107700D01*
X154288555Y-145107700D01*
X154329193Y-145104041D01*
X154331904Y-145103828D01*
X154428812Y-145097296D01*
X154433046Y-145096228D01*
X154452241Y-145092967D01*
X154456588Y-145092577D01*
X154550256Y-145066725D01*
X154552844Y-145066041D01*
X154647083Y-145042296D01*
X154651055Y-145040491D01*
X154669362Y-145033854D01*
X154673570Y-145032693D01*
X154761140Y-144990521D01*
X154763531Y-144989402D01*
X154852026Y-144949207D01*
X154855620Y-144946716D01*
X154872435Y-144936924D01*
X154876373Y-144935029D01*
X154954992Y-144877908D01*
X154957124Y-144876394D01*
X155037054Y-144821020D01*
X155040143Y-144817930D01*
X155054945Y-144805288D01*
X155058478Y-144802722D01*
X155125639Y-144732475D01*
X155127496Y-144730576D01*
X156613369Y-143244703D01*
X156642024Y-143223336D01*
X156728626Y-143176470D01*
X156729170Y-143176047D01*
X156790129Y-143128600D01*
X156911784Y-143033913D01*
X157068979Y-142863153D01*
X157126490Y-142775124D01*
X157179635Y-142729769D01*
X157248866Y-142720345D01*
X157312202Y-142749846D01*
X157334107Y-142775125D01*
X157348812Y-142797633D01*
X158102046Y-142044399D01*
X158114835Y-142125148D01*
X158172359Y-142238045D01*
X158261955Y-142327641D01*
X158374852Y-142385165D01*
X158455599Y-142397953D01*
X157701201Y-143152351D01*
X157731649Y-143176050D01*
X157935697Y-143286476D01*
X157935706Y-143286479D01*
X158155139Y-143361811D01*
X158383993Y-143400000D01*
X158616007Y-143400000D01*
X158844860Y-143361811D01*
X159064293Y-143286479D01*
X159064301Y-143286476D01*
X159268355Y-143176047D01*
X159298797Y-143152351D01*
X159298798Y-143152350D01*
X158544401Y-142397953D01*
X158625148Y-142385165D01*
X158738045Y-142327641D01*
X158827641Y-142238045D01*
X158885165Y-142125148D01*
X158897953Y-142044400D01*
X159651185Y-142797632D01*
X159665891Y-142775125D01*
X159719037Y-142729768D01*
X159788268Y-142720344D01*
X159851604Y-142749846D01*
X159873508Y-142775123D01*
X159931021Y-142863153D01*
X160088216Y-143033913D01*
X160088219Y-143033915D01*
X160088222Y-143033918D01*
X160271365Y-143176464D01*
X160271371Y-143176468D01*
X160271374Y-143176470D01*
X160373857Y-143231931D01*
X160474652Y-143286479D01*
X160475497Y-143286936D01*
X160589487Y-143326068D01*
X160695015Y-143362297D01*
X160695017Y-143362297D01*
X160695019Y-143362298D01*
X160923951Y-143400500D01*
X160923952Y-143400500D01*
X161156048Y-143400500D01*
X161156049Y-143400500D01*
X161384981Y-143362298D01*
X161604503Y-143286936D01*
X161808626Y-143176470D01*
X161809170Y-143176047D01*
X161870129Y-143128600D01*
X161991784Y-143033913D01*
X162148979Y-142863153D01*
X162275924Y-142668849D01*
X162369157Y-142456300D01*
X162426134Y-142231305D01*
X162426135Y-142231297D01*
X162445300Y-142000006D01*
X162445300Y-141999993D01*
X162426135Y-141768702D01*
X162426133Y-141768691D01*
X162369157Y-141543699D01*
X162275924Y-141331151D01*
X162148983Y-141136852D01*
X162148980Y-141136849D01*
X162148979Y-141136847D01*
X161991784Y-140966087D01*
X161991779Y-140966083D01*
X161991777Y-140966081D01*
X161808634Y-140823535D01*
X161808628Y-140823531D01*
X161604504Y-140713064D01*
X161604495Y-140713061D01*
X161384984Y-140637702D01*
X161213282Y-140609050D01*
X161156049Y-140599500D01*
X160923951Y-140599500D01*
X160878164Y-140607140D01*
X160695015Y-140637702D01*
X160475504Y-140713061D01*
X160475495Y-140713064D01*
X160271371Y-140823531D01*
X160271365Y-140823535D01*
X160088222Y-140966081D01*
X160088219Y-140966084D01*
X160088216Y-140966086D01*
X160088216Y-140966087D01*
X160043042Y-141015160D01*
X159931015Y-141136854D01*
X159873509Y-141224874D01*
X159820363Y-141270230D01*
X159751132Y-141279654D01*
X159687796Y-141250152D01*
X159665892Y-141224874D01*
X159651186Y-141202365D01*
X158897953Y-141955598D01*
X158885165Y-141874852D01*
X158827641Y-141761955D01*
X158738045Y-141672359D01*
X158625148Y-141614835D01*
X158544400Y-141602046D01*
X159298797Y-140847647D01*
X159298797Y-140847645D01*
X159268360Y-140823955D01*
X159268354Y-140823951D01*
X159064302Y-140713523D01*
X159064293Y-140713520D01*
X158844860Y-140638188D01*
X158616007Y-140600000D01*
X158383993Y-140600000D01*
X158155139Y-140638188D01*
X157935706Y-140713520D01*
X157935697Y-140713523D01*
X157731650Y-140823949D01*
X157701200Y-140847647D01*
X158455600Y-141602046D01*
X158374852Y-141614835D01*
X158261955Y-141672359D01*
X158172359Y-141761955D01*
X158114835Y-141874852D01*
X158102046Y-141955600D01*
X157348811Y-141202365D01*
X157334106Y-141224873D01*
X157280959Y-141270230D01*
X157211728Y-141279653D01*
X157148392Y-141250150D01*
X157126489Y-141224873D01*
X157068981Y-141136850D01*
X157068980Y-141136849D01*
X157068979Y-141136847D01*
X156911784Y-140966087D01*
X156911779Y-140966083D01*
X156911777Y-140966081D01*
X156728634Y-140823535D01*
X156728628Y-140823531D01*
X156524504Y-140713064D01*
X156524495Y-140713061D01*
X156304984Y-140637702D01*
X156133282Y-140609050D01*
X156076049Y-140599500D01*
X155843951Y-140599500D01*
X155688755Y-140625397D01*
X155619390Y-140617015D01*
X155565568Y-140572462D01*
X155544378Y-140505883D01*
X155562546Y-140438417D01*
X155580661Y-140415411D01*
X156231166Y-139764906D01*
X156241516Y-139755657D01*
X156269166Y-139733608D01*
X156312755Y-139683715D01*
X156318456Y-139677618D01*
X156325427Y-139670647D01*
X156325427Y-139670646D01*
X156325444Y-139670630D01*
X156351574Y-139639331D01*
X156353357Y-139637243D01*
X156417265Y-139564096D01*
X156419506Y-139560343D01*
X156430774Y-139544464D01*
X156433568Y-139541119D01*
X156481529Y-139456591D01*
X156482875Y-139454282D01*
X156515008Y-139400500D01*
X156532715Y-139370864D01*
X156534247Y-139366779D01*
X156542503Y-139349133D01*
X156544653Y-139345345D01*
X156576753Y-139253607D01*
X156577661Y-139251102D01*
X156611807Y-139160124D01*
X156612585Y-139155837D01*
X156617556Y-139137002D01*
X156618998Y-139132883D01*
X156634208Y-139036846D01*
X156634644Y-139034281D01*
X156652000Y-138938647D01*
X156652000Y-138934269D01*
X156653527Y-138914870D01*
X156654210Y-138910560D01*
X156652030Y-138813477D01*
X156652000Y-138810696D01*
X156652000Y-137195863D01*
X156671685Y-137128824D01*
X156724489Y-137083069D01*
X156793647Y-137073125D01*
X156857203Y-137102150D01*
X156888382Y-137143458D01*
X156902466Y-137173662D01*
X156902468Y-137173666D01*
X157029170Y-137354615D01*
X157029175Y-137354621D01*
X157185378Y-137510824D01*
X157185384Y-137510829D01*
X157366333Y-137637531D01*
X157366335Y-137637532D01*
X157366338Y-137637534D01*
X157566550Y-137730894D01*
X157779932Y-137788070D01*
X157937123Y-137801822D01*
X157999998Y-137807323D01*
X158000000Y-137807323D01*
X158000002Y-137807323D01*
X158055017Y-137802509D01*
X158220068Y-137788070D01*
X158433450Y-137730894D01*
X158633662Y-137637534D01*
X158814620Y-137510826D01*
X158970826Y-137354620D01*
X159097534Y-137173662D01*
X159190894Y-136973450D01*
X159248070Y-136760068D01*
X159267323Y-136540000D01*
X159248070Y-136319932D01*
X159190894Y-136106550D01*
X159097534Y-135906339D01*
X158970826Y-135725380D01*
X158814620Y-135569174D01*
X158814616Y-135569171D01*
X158814615Y-135569170D01*
X158633666Y-135442468D01*
X158633658Y-135442464D01*
X158504811Y-135382382D01*
X158452371Y-135336210D01*
X158433219Y-135269017D01*
X158453435Y-135202135D01*
X158504811Y-135157618D01*
X158510802Y-135154824D01*
X158633662Y-135097534D01*
X158814620Y-134970826D01*
X158970826Y-134814620D01*
X159097534Y-134633662D01*
X159190894Y-134433450D01*
X159248070Y-134220068D01*
X159267323Y-134000000D01*
X159250972Y-133813102D01*
X159250500Y-133802295D01*
X159250500Y-109251285D01*
X159251280Y-109237400D01*
X159255238Y-109202273D01*
X159250781Y-109136161D01*
X159250500Y-109127820D01*
X159250500Y-109117952D01*
X159250500Y-109117945D01*
X159246844Y-109077324D01*
X159246630Y-109074598D01*
X159240098Y-108977697D01*
X159240096Y-108977684D01*
X159239028Y-108973445D01*
X159235768Y-108954255D01*
X159235377Y-108949915D01*
X159235377Y-108949912D01*
X159209507Y-108856179D01*
X159208856Y-108853710D01*
X159185096Y-108759417D01*
X159183289Y-108755439D01*
X159176653Y-108737134D01*
X159175493Y-108732931D01*
X159175493Y-108732930D01*
X159133298Y-108645311D01*
X159132200Y-108642964D01*
X159092007Y-108554475D01*
X159089518Y-108550882D01*
X159079728Y-108534070D01*
X159077829Y-108530127D01*
X159077827Y-108530124D01*
X159077825Y-108530120D01*
X159077824Y-108530119D01*
X159020740Y-108451551D01*
X159019128Y-108449280D01*
X158963820Y-108369446D01*
X158960729Y-108366355D01*
X158948093Y-108351561D01*
X158945521Y-108348021D01*
X158945518Y-108348018D01*
X158875299Y-108280881D01*
X158873310Y-108278936D01*
X157060394Y-106466020D01*
X157026909Y-106404697D01*
X157031893Y-106335005D01*
X157073765Y-106279072D01*
X157137268Y-106254811D01*
X157219975Y-106247575D01*
X157219986Y-106247573D01*
X157433270Y-106190424D01*
X157433284Y-106190419D01*
X157633407Y-106097100D01*
X157633417Y-106097094D01*
X157698188Y-106051741D01*
X157027447Y-105381000D01*
X157031569Y-105381000D01*
X157125421Y-105365339D01*
X157237251Y-105304820D01*
X157323371Y-105211269D01*
X157374448Y-105094823D01*
X157380105Y-105026552D01*
X158051741Y-105698188D01*
X158097094Y-105633417D01*
X158097100Y-105633407D01*
X158190419Y-105433284D01*
X158190424Y-105433270D01*
X158247573Y-105219986D01*
X158247575Y-105219976D01*
X158266821Y-105000000D01*
X158266821Y-104999999D01*
X158247575Y-104780023D01*
X158247573Y-104780013D01*
X158190424Y-104566729D01*
X158190420Y-104566720D01*
X158097096Y-104366586D01*
X158051741Y-104301811D01*
X158051740Y-104301810D01*
X157384903Y-104968648D01*
X157384949Y-104968102D01*
X157353734Y-104844838D01*
X157284187Y-104738388D01*
X157183843Y-104660287D01*
X157063578Y-104619000D01*
X157027448Y-104619000D01*
X157698188Y-103948259D01*
X157698187Y-103948258D01*
X157633411Y-103902901D01*
X157633405Y-103902898D01*
X157504219Y-103842658D01*
X157451779Y-103796486D01*
X157432627Y-103729293D01*
X157452843Y-103662411D01*
X157504219Y-103617894D01*
X157633662Y-103557534D01*
X157814620Y-103430826D01*
X157970826Y-103274620D01*
X158097534Y-103093662D01*
X158190894Y-102893450D01*
X158248070Y-102680068D01*
X158267323Y-102460000D01*
X158248070Y-102239932D01*
X158190894Y-102026550D01*
X158097534Y-101826339D01*
X157970826Y-101645380D01*
X157814620Y-101489174D01*
X157814616Y-101489171D01*
X157814615Y-101489170D01*
X157633666Y-101362468D01*
X157633658Y-101362464D01*
X157504811Y-101302382D01*
X157452371Y-101256210D01*
X157433219Y-101189017D01*
X157453435Y-101122135D01*
X157504811Y-101077618D01*
X157512756Y-101073913D01*
X157633662Y-101017534D01*
X157814620Y-100890826D01*
X157970826Y-100734620D01*
X158097534Y-100553662D01*
X158190894Y-100353450D01*
X158248070Y-100140068D01*
X158267323Y-99920000D01*
X158248070Y-99699932D01*
X158190894Y-99486550D01*
X158097534Y-99286339D01*
X158020871Y-99176852D01*
X157970827Y-99105381D01*
X157931469Y-99066023D01*
X157814620Y-98949174D01*
X157814616Y-98949171D01*
X157814615Y-98949170D01*
X157633666Y-98822468D01*
X157633658Y-98822464D01*
X157504811Y-98762382D01*
X157452371Y-98716210D01*
X157433219Y-98649017D01*
X157453435Y-98582135D01*
X157504811Y-98537618D01*
X157510802Y-98534824D01*
X157633662Y-98477534D01*
X157814620Y-98350826D01*
X157970826Y-98194620D01*
X158097534Y-98013662D01*
X158190894Y-97813450D01*
X158248070Y-97600068D01*
X158264013Y-97417834D01*
X158267323Y-97380002D01*
X158267323Y-97379997D01*
X158254741Y-97236189D01*
X158248070Y-97159932D01*
X158190894Y-96946550D01*
X158097534Y-96746339D01*
X158000777Y-96608155D01*
X157970827Y-96565381D01*
X157899086Y-96493640D01*
X157814620Y-96409174D01*
X157814616Y-96409171D01*
X157814615Y-96409170D01*
X157633666Y-96282468D01*
X157633663Y-96282466D01*
X157633662Y-96282466D01*
X157602359Y-96267869D01*
X157584343Y-96259468D01*
X157531904Y-96213295D01*
X157512752Y-96146101D01*
X157532968Y-96079220D01*
X157549062Y-96059410D01*
X157750339Y-95858133D01*
X157766893Y-95844244D01*
X157814617Y-95810828D01*
X157814616Y-95810828D01*
X157814620Y-95810826D01*
X157970826Y-95654620D01*
X158097534Y-95473662D01*
X158190894Y-95273450D01*
X158248070Y-95060068D01*
X158267323Y-94840000D01*
X158248070Y-94619932D01*
X158190894Y-94406550D01*
X158097534Y-94206339D01*
X158001286Y-94068881D01*
X157970827Y-94025381D01*
X157970823Y-94025377D01*
X157814620Y-93869174D01*
X157814616Y-93869171D01*
X157814615Y-93869170D01*
X157633666Y-93742468D01*
X157633658Y-93742464D01*
X157504811Y-93682382D01*
X157452371Y-93636210D01*
X157433219Y-93569017D01*
X157453435Y-93502135D01*
X157504811Y-93457618D01*
X157510802Y-93454824D01*
X157633662Y-93397534D01*
X157814620Y-93270826D01*
X157970826Y-93114620D01*
X158097534Y-92933662D01*
X158190894Y-92733450D01*
X158248070Y-92520068D01*
X158267323Y-92300000D01*
X158248070Y-92079932D01*
X158190894Y-91866550D01*
X158097534Y-91666339D01*
X157970826Y-91485380D01*
X157814620Y-91329174D01*
X157814616Y-91329171D01*
X157814615Y-91329170D01*
X157633666Y-91202468D01*
X157633658Y-91202464D01*
X157504811Y-91142382D01*
X157452371Y-91096210D01*
X157433219Y-91029017D01*
X157453435Y-90962135D01*
X157504811Y-90917618D01*
X157510802Y-90914824D01*
X157633662Y-90857534D01*
X157814620Y-90730826D01*
X157970826Y-90574620D01*
X158097534Y-90393662D01*
X158190894Y-90193450D01*
X158248070Y-89980068D01*
X158263678Y-89801669D01*
X158267323Y-89760002D01*
X158267323Y-89759997D01*
X158248070Y-89539937D01*
X158248070Y-89539932D01*
X158190894Y-89326550D01*
X158097534Y-89126339D01*
X157970826Y-88945380D01*
X157814620Y-88789174D01*
X157814616Y-88789171D01*
X157814615Y-88789170D01*
X157633666Y-88662468D01*
X157633658Y-88662464D01*
X157504811Y-88602382D01*
X157452371Y-88556210D01*
X157433219Y-88489017D01*
X157453435Y-88422135D01*
X157504811Y-88377618D01*
X157522379Y-88369426D01*
X157633662Y-88317534D01*
X157814620Y-88190826D01*
X157970826Y-88034620D01*
X158004244Y-87986892D01*
X158018133Y-87970339D01*
X159560366Y-86428106D01*
X159570716Y-86418857D01*
X159598366Y-86396808D01*
X159641955Y-86346915D01*
X159647656Y-86340818D01*
X159654627Y-86333847D01*
X159654627Y-86333846D01*
X159654644Y-86333830D01*
X159680774Y-86302531D01*
X159682557Y-86300443D01*
X159746465Y-86227296D01*
X159748706Y-86223543D01*
X159759974Y-86207664D01*
X159762768Y-86204319D01*
X159810729Y-86119791D01*
X159812075Y-86117482D01*
X159817595Y-86108241D01*
X159861915Y-86034064D01*
X159863447Y-86029979D01*
X159871703Y-86012333D01*
X159873853Y-86008545D01*
X159905953Y-85916807D01*
X159906861Y-85914302D01*
X159941007Y-85823324D01*
X159941785Y-85819037D01*
X159946756Y-85800202D01*
X159948198Y-85796083D01*
X159963408Y-85700046D01*
X159963844Y-85697481D01*
X159981200Y-85601847D01*
X159981200Y-85597469D01*
X159982727Y-85578070D01*
X159983410Y-85573760D01*
X159981230Y-85476677D01*
X159981200Y-85473896D01*
X159981200Y-73902075D01*
X159981980Y-73888190D01*
X159985937Y-73853072D01*
X159981481Y-73786975D01*
X159981200Y-73778634D01*
X159981200Y-73768750D01*
X159981200Y-73768745D01*
X159977543Y-73728115D01*
X159977326Y-73725352D01*
X159975980Y-73705380D01*
X159970796Y-73628487D01*
X159969727Y-73624247D01*
X159966468Y-73605058D01*
X159966426Y-73604599D01*
X159966077Y-73600712D01*
X159940232Y-73507068D01*
X159939540Y-73504448D01*
X159915796Y-73410216D01*
X159913990Y-73406240D01*
X159907354Y-73387939D01*
X159906193Y-73383730D01*
X159864040Y-73296199D01*
X159862889Y-73293739D01*
X159822707Y-73205274D01*
X159820217Y-73201680D01*
X159810425Y-73184864D01*
X159808530Y-73180929D01*
X159808527Y-73180924D01*
X159751440Y-73102350D01*
X159749862Y-73100128D01*
X159694520Y-73020246D01*
X159691429Y-73017155D01*
X159678793Y-73002361D01*
X159676221Y-72998821D01*
X159676218Y-72998818D01*
X159605999Y-72931681D01*
X159604010Y-72929736D01*
X158600516Y-71926242D01*
X158591249Y-71915873D01*
X158577149Y-71898192D01*
X158569208Y-71888234D01*
X158555369Y-71876143D01*
X158519303Y-71844632D01*
X158513207Y-71838933D01*
X158506232Y-71831958D01*
X158506221Y-71831948D01*
X158474955Y-71805845D01*
X158472839Y-71804038D01*
X158399703Y-71740140D01*
X158399697Y-71740136D01*
X158399696Y-71740135D01*
X158395941Y-71737891D01*
X158380073Y-71726632D01*
X158376719Y-71723832D01*
X158376718Y-71723831D01*
X158376713Y-71723827D01*
X158292248Y-71675901D01*
X158289844Y-71674501D01*
X158206463Y-71624684D01*
X158202369Y-71623148D01*
X158184744Y-71614902D01*
X158180945Y-71612746D01*
X158089269Y-71580667D01*
X158086653Y-71579719D01*
X157995729Y-71545594D01*
X157995719Y-71545591D01*
X157991423Y-71544812D01*
X157972618Y-71539849D01*
X157968484Y-71538402D01*
X157968477Y-71538401D01*
X157909817Y-71529110D01*
X157872543Y-71523206D01*
X157869805Y-71522741D01*
X157774250Y-71505400D01*
X157774247Y-71505400D01*
X157769872Y-71505400D01*
X157750469Y-71503872D01*
X157746160Y-71503189D01*
X157649059Y-71505369D01*
X157646277Y-71505400D01*
X156066776Y-71505400D01*
X156052893Y-71504620D01*
X156043159Y-71503523D01*
X156017775Y-71500663D01*
X156017768Y-71500662D01*
X155954952Y-71504898D01*
X155951676Y-71505119D01*
X155943336Y-71505400D01*
X155933437Y-71505400D01*
X155892838Y-71509053D01*
X155890070Y-71509271D01*
X155793189Y-71515803D01*
X155788948Y-71516872D01*
X155769775Y-71520130D01*
X155765412Y-71520522D01*
X155765410Y-71520523D01*
X155671752Y-71546370D01*
X155669064Y-71547079D01*
X155570800Y-71571840D01*
X155500983Y-71569133D01*
X155443712Y-71529110D01*
X155417172Y-71464477D01*
X155422932Y-71413885D01*
X155422804Y-71413853D01*
X155423043Y-71412905D01*
X155423224Y-71411324D01*
X155424059Y-71408888D01*
X155424063Y-71408881D01*
X155485108Y-71167821D01*
X155485109Y-71167812D01*
X155505643Y-70920005D01*
X155505643Y-70919994D01*
X155485109Y-70672187D01*
X155485107Y-70672175D01*
X155424063Y-70431118D01*
X155324173Y-70203393D01*
X155188166Y-69995217D01*
X155166557Y-69971744D01*
X155019744Y-69812262D01*
X154823509Y-69659526D01*
X154823507Y-69659525D01*
X154823506Y-69659524D01*
X154604811Y-69541172D01*
X154604802Y-69541169D01*
X154369616Y-69460429D01*
X154124335Y-69419500D01*
X153875665Y-69419500D01*
X153630383Y-69460429D01*
X153395197Y-69541169D01*
X153395188Y-69541172D01*
X153176493Y-69659524D01*
X152980257Y-69812261D01*
X152811833Y-69995217D01*
X152675826Y-70203393D01*
X152575936Y-70431118D01*
X152514892Y-70672175D01*
X152514890Y-70672187D01*
X152494357Y-70919994D01*
X152494357Y-70920005D01*
X152514890Y-71167812D01*
X152514892Y-71167824D01*
X152575936Y-71408881D01*
X152620854Y-71511282D01*
X152625989Y-71522989D01*
X152626297Y-71523690D01*
X152635200Y-71592990D01*
X152605223Y-71656102D01*
X152545884Y-71692989D01*
X152512741Y-71697500D01*
X152041336Y-71697500D01*
X151974297Y-71677815D01*
X151953655Y-71661181D01*
X147357855Y-67065381D01*
X147324370Y-67004058D01*
X147329354Y-66934366D01*
X147371226Y-66878433D01*
X147436690Y-66854016D01*
X147445536Y-66853700D01*
X148401864Y-66853700D01*
X148468903Y-66873385D01*
X148489545Y-66890019D01*
X149679859Y-68080333D01*
X149693752Y-68096889D01*
X149727174Y-68144620D01*
X149727175Y-68144621D01*
X149727176Y-68144622D01*
X149883378Y-68300824D01*
X149883384Y-68300829D01*
X150064333Y-68427531D01*
X150064335Y-68427532D01*
X150064338Y-68427534D01*
X150264550Y-68520894D01*
X150477932Y-68578070D01*
X150635123Y-68591822D01*
X150697998Y-68597323D01*
X150698000Y-68597323D01*
X150698002Y-68597323D01*
X150884897Y-68580972D01*
X150895704Y-68580500D01*
X157104296Y-68580500D01*
X157115103Y-68580972D01*
X157301998Y-68597323D01*
X157302000Y-68597323D01*
X157302002Y-68597323D01*
X157357017Y-68592509D01*
X157522068Y-68578070D01*
X157735450Y-68520894D01*
X157935662Y-68427534D01*
X158116620Y-68300826D01*
X158272826Y-68144620D01*
X158399534Y-67963662D01*
X158492894Y-67763450D01*
X158550070Y-67550068D01*
X158569323Y-67330000D01*
X158550070Y-67109932D01*
X158492894Y-66896550D01*
X158399534Y-66696339D01*
X158272826Y-66515380D01*
X158116620Y-66359174D01*
X158116616Y-66359171D01*
X158116615Y-66359170D01*
X157935666Y-66232468D01*
X157935662Y-66232466D01*
X157935660Y-66232465D01*
X157735450Y-66139106D01*
X157735447Y-66139105D01*
X157735445Y-66139104D01*
X157522070Y-66081930D01*
X157522062Y-66081929D01*
X157302002Y-66062677D01*
X157301998Y-66062677D01*
X157115103Y-66079028D01*
X157104296Y-66079500D01*
X151267336Y-66079500D01*
X151200297Y-66059815D01*
X151179655Y-66043181D01*
X149910016Y-64773542D01*
X149900749Y-64763173D01*
X149878706Y-64735532D01*
X149828803Y-64691932D01*
X149822707Y-64686233D01*
X149815732Y-64679258D01*
X149815721Y-64679248D01*
X149784455Y-64653145D01*
X149782339Y-64651338D01*
X149709203Y-64587440D01*
X149709197Y-64587436D01*
X149709196Y-64587435D01*
X149705441Y-64585191D01*
X149689573Y-64573932D01*
X149686219Y-64571132D01*
X149686218Y-64571131D01*
X149686213Y-64571127D01*
X149601748Y-64523201D01*
X149599344Y-64521801D01*
X149515963Y-64471984D01*
X149511869Y-64470448D01*
X149494244Y-64462202D01*
X149490445Y-64460046D01*
X149398769Y-64427967D01*
X149396153Y-64427019D01*
X149305229Y-64392894D01*
X149305219Y-64392891D01*
X149300923Y-64392112D01*
X149282118Y-64387149D01*
X149277984Y-64385702D01*
X149277977Y-64385701D01*
X149182048Y-64370507D01*
X149179305Y-64370041D01*
X149083750Y-64352700D01*
X149083747Y-64352700D01*
X149079372Y-64352700D01*
X149059969Y-64351172D01*
X149055660Y-64350489D01*
X148958559Y-64352669D01*
X148955777Y-64352700D01*
X133673876Y-64352700D01*
X133659993Y-64351920D01*
X133650259Y-64350823D01*
X133624875Y-64347963D01*
X133624868Y-64347962D01*
X133562052Y-64352198D01*
X133558776Y-64352419D01*
X133550436Y-64352700D01*
X133540537Y-64352700D01*
X133499937Y-64356353D01*
X133497169Y-64356571D01*
X133400290Y-64363103D01*
X133396049Y-64364172D01*
X133376876Y-64367430D01*
X133372513Y-64367822D01*
X133372511Y-64367823D01*
X133278848Y-64393671D01*
X133276161Y-64394380D01*
X133182013Y-64418104D01*
X133182012Y-64418104D01*
X133178019Y-64419918D01*
X133159759Y-64426538D01*
X133155550Y-64427700D01*
X133155522Y-64427710D01*
X133068023Y-64469846D01*
X133065506Y-64471024D01*
X132977075Y-64511191D01*
X132973475Y-64513686D01*
X132956671Y-64523471D01*
X132952731Y-64525368D01*
X132952729Y-64525369D01*
X132874160Y-64582451D01*
X132871895Y-64584058D01*
X132792045Y-64639380D01*
X132788939Y-64642486D01*
X132774165Y-64655103D01*
X132770628Y-64657673D01*
X132770621Y-64657678D01*
X132703504Y-64727877D01*
X132701559Y-64729865D01*
X125564544Y-71866880D01*
X125554180Y-71876143D01*
X125526537Y-71898189D01*
X125526534Y-71898192D01*
X125482936Y-71948092D01*
X125477248Y-71954176D01*
X125470264Y-71961160D01*
X125470251Y-71961175D01*
X125444128Y-71992464D01*
X125442325Y-71994575D01*
X125378434Y-72067704D01*
X125378430Y-72067710D01*
X125376181Y-72071474D01*
X125364946Y-72087308D01*
X125362132Y-72090679D01*
X125314178Y-72175190D01*
X125312804Y-72177549D01*
X125301060Y-72197208D01*
X125262981Y-72260942D01*
X125261447Y-72265032D01*
X125253208Y-72282645D01*
X125251050Y-72286447D01*
X125251047Y-72286454D01*
X125218962Y-72378145D01*
X125218015Y-72380757D01*
X125183892Y-72471679D01*
X125183889Y-72471688D01*
X125183109Y-72475988D01*
X125178152Y-72494769D01*
X125176703Y-72498909D01*
X125176702Y-72498915D01*
X125161504Y-72594865D01*
X125161038Y-72597606D01*
X125143700Y-72693147D01*
X125143700Y-72697527D01*
X125142173Y-72716929D01*
X125141489Y-72721240D01*
X125143669Y-72818339D01*
X125143700Y-72821121D01*
X125143700Y-73598891D01*
X125124015Y-73665930D01*
X125071211Y-73711685D01*
X125002053Y-73721629D01*
X124938497Y-73692604D01*
X124932019Y-73686573D01*
X124866066Y-73620620D01*
X124794620Y-73549174D01*
X124794616Y-73549171D01*
X124794615Y-73549170D01*
X124613666Y-73422468D01*
X124613662Y-73422466D01*
X124587392Y-73410216D01*
X124413450Y-73329106D01*
X124413447Y-73329105D01*
X124413445Y-73329104D01*
X124200070Y-73271930D01*
X124200062Y-73271929D01*
X123980002Y-73252677D01*
X123979998Y-73252677D01*
X123759937Y-73271929D01*
X123759929Y-73271930D01*
X123546554Y-73329104D01*
X123546548Y-73329107D01*
X123346340Y-73422465D01*
X123346338Y-73422466D01*
X123165377Y-73549175D01*
X123009175Y-73705377D01*
X122882466Y-73886338D01*
X122882465Y-73886340D01*
X122789107Y-74086548D01*
X122789104Y-74086554D01*
X122731930Y-74299929D01*
X122731929Y-74299937D01*
X122712677Y-74519997D01*
X122712677Y-74520002D01*
X122731929Y-74740062D01*
X122731930Y-74740070D01*
X122789104Y-74953445D01*
X122789105Y-74953447D01*
X122789106Y-74953450D01*
X122816300Y-75011767D01*
X122882466Y-75153662D01*
X122882468Y-75153666D01*
X123009170Y-75334615D01*
X123009175Y-75334621D01*
X123165378Y-75490824D01*
X123165384Y-75490829D01*
X123346333Y-75617531D01*
X123346335Y-75617532D01*
X123346338Y-75617534D01*
X123475189Y-75677618D01*
X123475781Y-75677894D01*
X123528220Y-75724066D01*
X123547372Y-75791260D01*
X123527156Y-75858141D01*
X123475781Y-75902658D01*
X123346590Y-75962901D01*
X123281811Y-76008258D01*
X123952553Y-76679000D01*
X123948431Y-76679000D01*
X123854579Y-76694661D01*
X123742749Y-76755180D01*
X123656629Y-76848731D01*
X123605552Y-76965177D01*
X123599894Y-77033447D01*
X122928258Y-76361811D01*
X122882901Y-76426590D01*
X122789579Y-76626720D01*
X122789575Y-76626729D01*
X122732426Y-76840013D01*
X122732424Y-76840023D01*
X122713179Y-77059999D01*
X122713179Y-77060000D01*
X122732424Y-77279976D01*
X122732426Y-77279986D01*
X122789575Y-77493270D01*
X122789580Y-77493284D01*
X122882898Y-77693405D01*
X122882901Y-77693411D01*
X122928258Y-77758187D01*
X122928259Y-77758188D01*
X123595096Y-77091350D01*
X123595051Y-77091898D01*
X123626266Y-77215162D01*
X123695813Y-77321612D01*
X123796157Y-77399713D01*
X123916422Y-77441000D01*
X123952553Y-77441000D01*
X123281810Y-78111740D01*
X123346589Y-78157098D01*
X123475781Y-78217342D01*
X123528220Y-78263514D01*
X123547372Y-78330708D01*
X123527156Y-78397589D01*
X123475781Y-78442106D01*
X123346340Y-78502465D01*
X123346338Y-78502466D01*
X123165377Y-78629175D01*
X123009175Y-78785377D01*
X122882466Y-78966338D01*
X122882465Y-78966340D01*
X122789107Y-79166548D01*
X122789104Y-79166554D01*
X122731930Y-79379929D01*
X122731929Y-79379937D01*
X122712677Y-79599997D01*
X122712677Y-79600002D01*
X122731929Y-79820062D01*
X122731930Y-79820070D01*
X122789104Y-80033445D01*
X122789105Y-80033447D01*
X122789106Y-80033450D01*
X122816300Y-80091767D01*
X122882466Y-80233662D01*
X122882468Y-80233666D01*
X123009170Y-80414615D01*
X123009175Y-80414621D01*
X123165378Y-80570824D01*
X123165384Y-80570829D01*
X123346333Y-80697531D01*
X123346335Y-80697532D01*
X123346338Y-80697534D01*
X123465748Y-80753215D01*
X123475189Y-80757618D01*
X123527628Y-80803790D01*
X123546780Y-80870984D01*
X123526564Y-80937865D01*
X123475189Y-80982382D01*
X123346340Y-81042465D01*
X123346338Y-81042466D01*
X123165377Y-81169175D01*
X123009175Y-81325377D01*
X122882466Y-81506338D01*
X122882465Y-81506340D01*
X122789107Y-81706548D01*
X122789104Y-81706554D01*
X122731930Y-81919929D01*
X122731929Y-81919937D01*
X122712677Y-82139997D01*
X122712677Y-82140002D01*
X122731929Y-82360062D01*
X122731930Y-82360070D01*
X122789104Y-82573445D01*
X122789105Y-82573447D01*
X122789106Y-82573450D01*
X122834420Y-82670627D01*
X122882466Y-82773662D01*
X122882468Y-82773666D01*
X123009170Y-82954615D01*
X123009175Y-82954621D01*
X123165378Y-83110824D01*
X123165384Y-83110829D01*
X123346333Y-83237531D01*
X123346335Y-83237532D01*
X123346338Y-83237534D01*
X123377762Y-83252187D01*
X123475189Y-83297618D01*
X123527628Y-83343790D01*
X123546780Y-83410984D01*
X123526564Y-83477865D01*
X123475189Y-83522382D01*
X123346340Y-83582465D01*
X123346338Y-83582466D01*
X123165377Y-83709175D01*
X123009175Y-83865377D01*
X122882466Y-84046338D01*
X122882465Y-84046340D01*
X122789107Y-84246548D01*
X122789104Y-84246554D01*
X122731930Y-84459929D01*
X122731929Y-84459937D01*
X122712677Y-84679997D01*
X122712677Y-84680002D01*
X122731929Y-84900062D01*
X122731930Y-84900070D01*
X122789104Y-85113445D01*
X122789105Y-85113447D01*
X122789106Y-85113450D01*
X122863925Y-85273900D01*
X122882466Y-85313662D01*
X122882468Y-85313666D01*
X123009170Y-85494615D01*
X123009175Y-85494621D01*
X123165378Y-85650824D01*
X123165384Y-85650829D01*
X123346333Y-85777531D01*
X123346335Y-85777532D01*
X123346338Y-85777534D01*
X123444540Y-85823326D01*
X123475189Y-85837618D01*
X123527628Y-85883790D01*
X123546780Y-85950984D01*
X123526564Y-86017865D01*
X123475189Y-86062382D01*
X123346340Y-86122465D01*
X123346338Y-86122466D01*
X123165377Y-86249175D01*
X123009175Y-86405377D01*
X122882466Y-86586338D01*
X122882465Y-86586340D01*
X122789107Y-86786548D01*
X122789104Y-86786554D01*
X122731930Y-86999929D01*
X122731929Y-86999937D01*
X122712677Y-87219997D01*
X122712677Y-87220002D01*
X122731929Y-87440062D01*
X122731930Y-87440070D01*
X122789104Y-87653445D01*
X122789105Y-87653447D01*
X122789106Y-87653450D01*
X122872156Y-87831551D01*
X122882466Y-87853662D01*
X122882468Y-87853666D01*
X123009170Y-88034615D01*
X123009175Y-88034621D01*
X123165378Y-88190824D01*
X123165384Y-88190829D01*
X123346333Y-88317531D01*
X123346335Y-88317532D01*
X123346338Y-88317534D01*
X123383280Y-88334760D01*
X123395653Y-88340530D01*
X123448093Y-88386702D01*
X123467245Y-88453895D01*
X123447029Y-88520777D01*
X123430930Y-88540593D01*
X123229661Y-88741863D01*
X123213105Y-88755756D01*
X123165382Y-88789172D01*
X123009172Y-88945381D01*
X122882466Y-89126338D01*
X122882465Y-89126340D01*
X122789107Y-89326548D01*
X122789104Y-89326554D01*
X122731930Y-89539929D01*
X122731929Y-89539937D01*
X122712677Y-89759997D01*
X122712677Y-89760002D01*
X122731929Y-89980062D01*
X122731930Y-89980070D01*
X122789104Y-90193445D01*
X122789105Y-90193447D01*
X122789106Y-90193450D01*
X122797837Y-90212173D01*
X122882466Y-90393662D01*
X122882468Y-90393666D01*
X123009170Y-90574615D01*
X123009175Y-90574621D01*
X123165378Y-90730824D01*
X123165384Y-90730829D01*
X123346333Y-90857531D01*
X123346335Y-90857532D01*
X123346338Y-90857534D01*
X123465748Y-90913215D01*
X123475189Y-90917618D01*
X123527628Y-90963790D01*
X123546780Y-91030984D01*
X123526564Y-91097865D01*
X123475189Y-91142382D01*
X123346340Y-91202465D01*
X123346338Y-91202466D01*
X123165377Y-91329175D01*
X123009175Y-91485377D01*
X122882466Y-91666338D01*
X122882465Y-91666340D01*
X122789107Y-91866548D01*
X122789104Y-91866554D01*
X122731930Y-92079929D01*
X122731929Y-92079937D01*
X122712677Y-92299997D01*
X122712677Y-92300002D01*
X122731929Y-92520062D01*
X122731930Y-92520070D01*
X122789104Y-92733445D01*
X122789105Y-92733447D01*
X122789106Y-92733450D01*
X122849699Y-92863393D01*
X122882466Y-92933662D01*
X122882468Y-92933666D01*
X123009170Y-93114615D01*
X123009175Y-93114621D01*
X123165378Y-93270824D01*
X123165384Y-93270829D01*
X123346333Y-93397531D01*
X123346335Y-93397532D01*
X123346338Y-93397534D01*
X123465748Y-93453215D01*
X123475189Y-93457618D01*
X123527628Y-93503790D01*
X123546780Y-93570984D01*
X123526564Y-93637865D01*
X123475189Y-93682382D01*
X123346340Y-93742465D01*
X123346338Y-93742466D01*
X123165377Y-93869175D01*
X123009175Y-94025377D01*
X122882466Y-94206338D01*
X122882465Y-94206340D01*
X122789107Y-94406548D01*
X122789104Y-94406554D01*
X122731930Y-94619929D01*
X122731929Y-94619937D01*
X122712677Y-94839997D01*
X122712677Y-94840002D01*
X122731929Y-95060062D01*
X122731930Y-95060070D01*
X122789104Y-95273445D01*
X122789105Y-95273447D01*
X122789106Y-95273450D01*
X122849959Y-95403950D01*
X122882466Y-95473662D01*
X122882468Y-95473666D01*
X123009170Y-95654615D01*
X123009175Y-95654621D01*
X123165378Y-95810824D01*
X123165384Y-95810829D01*
X123346333Y-95937531D01*
X123346335Y-95937532D01*
X123346338Y-95937534D01*
X123465748Y-95993215D01*
X123475189Y-95997618D01*
X123527628Y-96043790D01*
X123546780Y-96110984D01*
X123526564Y-96177865D01*
X123475189Y-96222382D01*
X123346340Y-96282465D01*
X123346338Y-96282466D01*
X123165377Y-96409175D01*
X123009175Y-96565377D01*
X122882466Y-96746338D01*
X122882465Y-96746340D01*
X122789107Y-96946548D01*
X122789104Y-96946554D01*
X122731930Y-97159929D01*
X122731929Y-97159937D01*
X122712677Y-97379997D01*
X122712677Y-97380002D01*
X122731929Y-97600062D01*
X122731930Y-97600070D01*
X122789104Y-97813445D01*
X122789105Y-97813447D01*
X122789106Y-97813450D01*
X122800048Y-97836915D01*
X122882466Y-98013662D01*
X122882468Y-98013666D01*
X123009170Y-98194615D01*
X123009175Y-98194621D01*
X123165378Y-98350824D01*
X123165384Y-98350829D01*
X123346333Y-98477531D01*
X123346335Y-98477532D01*
X123346338Y-98477534D01*
X123465748Y-98533215D01*
X123475189Y-98537618D01*
X123527628Y-98583790D01*
X123546780Y-98650984D01*
X123526564Y-98717865D01*
X123475189Y-98762382D01*
X123346340Y-98822465D01*
X123346338Y-98822466D01*
X123165377Y-98949175D01*
X123009175Y-99105377D01*
X122882466Y-99286338D01*
X122882465Y-99286340D01*
X122789107Y-99486548D01*
X122789104Y-99486554D01*
X122731930Y-99699929D01*
X122731929Y-99699937D01*
X122712677Y-99919997D01*
X122712677Y-99920002D01*
X122731929Y-100140062D01*
X122731930Y-100140070D01*
X122789104Y-100353445D01*
X122789105Y-100353447D01*
X122789106Y-100353450D01*
X122822547Y-100425165D01*
X122882466Y-100553662D01*
X122882468Y-100553666D01*
X123009170Y-100734615D01*
X123009175Y-100734621D01*
X123165378Y-100890824D01*
X123165384Y-100890829D01*
X123346333Y-101017531D01*
X123346335Y-101017532D01*
X123346338Y-101017534D01*
X123465748Y-101073215D01*
X123475189Y-101077618D01*
X123527628Y-101123790D01*
X123546780Y-101190984D01*
X123526564Y-101257865D01*
X123475189Y-101302382D01*
X123346340Y-101362465D01*
X123346338Y-101362466D01*
X123165377Y-101489175D01*
X123009175Y-101645377D01*
X122882466Y-101826338D01*
X122882465Y-101826340D01*
X122789107Y-102026548D01*
X122789104Y-102026554D01*
X122731930Y-102239929D01*
X122731929Y-102239937D01*
X122712677Y-102459997D01*
X122712677Y-102460002D01*
X122731929Y-102680062D01*
X122731930Y-102680070D01*
X122789104Y-102893445D01*
X122789105Y-102893447D01*
X122789106Y-102893450D01*
X122838558Y-102999500D01*
X122882466Y-103093662D01*
X122882468Y-103093666D01*
X123009170Y-103274615D01*
X123009174Y-103274620D01*
X123165380Y-103430826D01*
X123346338Y-103557534D01*
X123395657Y-103580531D01*
X123448093Y-103626701D01*
X123467246Y-103693895D01*
X123447031Y-103760776D01*
X123430931Y-103780593D01*
X123229661Y-103981863D01*
X123213105Y-103995756D01*
X123165382Y-104029172D01*
X123009172Y-104185381D01*
X122882466Y-104366338D01*
X122882465Y-104366340D01*
X122789107Y-104566548D01*
X122789104Y-104566554D01*
X122731930Y-104779929D01*
X122731929Y-104779937D01*
X122712677Y-104999997D01*
X122712677Y-105000002D01*
X122000500Y-105000002D01*
X122000500Y-67330002D01*
X126430677Y-67330002D01*
X126449929Y-67550062D01*
X126449930Y-67550070D01*
X126507104Y-67763445D01*
X126507105Y-67763447D01*
X126507106Y-67763450D01*
X126600466Y-67963662D01*
X126600468Y-67963666D01*
X126727170Y-68144615D01*
X126727175Y-68144621D01*
X126883378Y-68300824D01*
X126883384Y-68300829D01*
X127064333Y-68427531D01*
X127064335Y-68427532D01*
X127064338Y-68427534D01*
X127264550Y-68520894D01*
X127477932Y-68578070D01*
X127635123Y-68591822D01*
X127697998Y-68597323D01*
X127698000Y-68597323D01*
X127698002Y-68597323D01*
X127753017Y-68592509D01*
X127918068Y-68578070D01*
X128131450Y-68520894D01*
X128331662Y-68427534D01*
X128512620Y-68300826D01*
X128668826Y-68144620D01*
X128795534Y-67963662D01*
X128888894Y-67763450D01*
X128946070Y-67550068D01*
X128965323Y-67330000D01*
X128946070Y-67109932D01*
X128888894Y-66896550D01*
X128795534Y-66696339D01*
X128668826Y-66515380D01*
X128512620Y-66359174D01*
X128512616Y-66359171D01*
X128512615Y-66359170D01*
X128331666Y-66232468D01*
X128331662Y-66232466D01*
X128331660Y-66232465D01*
X128131450Y-66139106D01*
X128131447Y-66139105D01*
X128131445Y-66139104D01*
X127918070Y-66081930D01*
X127918062Y-66081929D01*
X127698002Y-66062677D01*
X127697998Y-66062677D01*
X127477937Y-66081929D01*
X127477929Y-66081930D01*
X127264554Y-66139104D01*
X127264548Y-66139107D01*
X127064340Y-66232465D01*
X127064338Y-66232466D01*
X126883377Y-66359175D01*
X126727175Y-66515377D01*
X126600466Y-66696338D01*
X126600465Y-66696340D01*
X126527087Y-66853700D01*
X126510152Y-66890019D01*
X126507107Y-66896548D01*
X126507104Y-66896554D01*
X126449930Y-67109929D01*
X126449929Y-67109937D01*
X126430677Y-67329997D01*
X126430677Y-67330002D01*
X122000500Y-67330002D01*
X122000500Y-64998256D01*
X122020185Y-64931217D01*
X122072989Y-64885462D01*
X122142147Y-64875518D01*
X122205703Y-64904543D01*
X122233332Y-64938829D01*
X122312770Y-65084309D01*
X122312775Y-65084317D01*
X122484254Y-65313387D01*
X122484270Y-65313405D01*
X122686594Y-65515729D01*
X122686612Y-65515745D01*
X122915682Y-65687224D01*
X122915690Y-65687229D01*
X123166833Y-65824364D01*
X123166832Y-65824364D01*
X123166836Y-65824365D01*
X123166839Y-65824367D01*
X123434954Y-65924369D01*
X123434960Y-65924370D01*
X123434962Y-65924371D01*
X123714566Y-65985195D01*
X123714568Y-65985195D01*
X123714572Y-65985196D01*
X123968220Y-66003337D01*
X123999999Y-66005610D01*
X124000000Y-66005610D01*
X124000001Y-66005610D01*
X124028595Y-66003564D01*
X124285428Y-65985196D01*
X124565046Y-65924369D01*
X124833161Y-65824367D01*
X125084315Y-65687226D01*
X125313395Y-65515739D01*
X125515739Y-65313395D01*
X125687226Y-65084315D01*
X125824367Y-64833161D01*
X125924369Y-64565046D01*
X125944947Y-64470450D01*
X125985195Y-64285433D01*
X125985195Y-64285432D01*
X125985196Y-64285428D01*
X126005610Y-64000000D01*
X125985196Y-63714572D01*
X125937991Y-63497575D01*
X125924371Y-63434962D01*
X125924370Y-63434960D01*
X125924369Y-63434954D01*
X125824367Y-63166839D01*
X125801754Y-63125427D01*
X125687229Y-62915690D01*
X125687224Y-62915682D01*
X125515745Y-62686612D01*
X125515729Y-62686594D01*
X125313405Y-62484270D01*
X125313387Y-62484254D01*
X125084317Y-62312775D01*
X125084309Y-62312770D01*
X124833166Y-62175635D01*
X124833167Y-62175635D01*
X124650605Y-62107543D01*
X124565046Y-62075631D01*
X124565043Y-62075630D01*
X124565037Y-62075628D01*
X124285433Y-62014804D01*
X124000001Y-61994390D01*
X123999999Y-61994390D01*
X123714566Y-62014804D01*
X123434962Y-62075628D01*
X123166833Y-62175635D01*
X122915690Y-62312770D01*
X122915682Y-62312775D01*
X122686612Y-62484254D01*
X122686594Y-62484270D01*
X122484270Y-62686594D01*
X122484254Y-62686612D01*
X122312775Y-62915682D01*
X122312770Y-62915690D01*
X122233332Y-63061170D01*
X122183926Y-63110575D01*
X122115653Y-63125427D01*
X122050189Y-63101010D01*
X122008318Y-63045076D01*
X122000500Y-63001743D01*
X122000500Y-62508676D01*
X122020185Y-62441637D01*
X122036819Y-62420995D01*
X122920995Y-61536819D01*
X122982318Y-61503334D01*
X123008676Y-61500500D01*
X126460394Y-61500500D01*
X126527433Y-61520185D01*
G37*
%TD.AperFunction*%
%TD*%
M02*
