%TF.GenerationSoftware,KiCad,Pcbnew,7.0.11+dfsg-1build4*%
%TF.CreationDate,2025-02-25T03:32:25+01:00*%
%TF.ProjectId,BertheVario213-Shema,42657274-6865-4566-9172-696f3231332d,1.11*%
%TF.SameCoordinates,Original*%
%TF.FileFunction,Soldermask,Top*%
%TF.FilePolarity,Negative*%
%FSLAX46Y46*%
G04 Gerber Fmt 4.6, Leading zero omitted, Abs format (unit mm)*
G04 Created by KiCad (PCBNEW 7.0.11+dfsg-1build4) date 2025-02-25 03:32:25*
%MOMM*%
%LPD*%
G01*
G04 APERTURE LIST*
%ADD10C,1.800000*%
%ADD11C,1.524000*%
%ADD12C,2.000000*%
G04 APERTURE END LIST*
D10*
%TO.C,S1*%
X153540000Y-138000000D03*
X151000000Y-138000000D03*
%TD*%
%TO.C,MS5611*%
X138810000Y-100040000D03*
X136260000Y-100040000D03*
X133720000Y-100040000D03*
X131180000Y-100040000D03*
%TD*%
D11*
%TO.C,SW1*%
X157302000Y-67330000D03*
X150698000Y-67330000D03*
X157302000Y-62250000D03*
X150698000Y-62250000D03*
%TD*%
%TO.C,Q1*%
X147201500Y-73315800D03*
X147201500Y-75093800D03*
X147201500Y-76871800D03*
%TD*%
%TO.C,SW3*%
X134302000Y-67330000D03*
X127698000Y-67330000D03*
X134302000Y-62250000D03*
X127698000Y-62250000D03*
%TD*%
D12*
%TO.C,R3*%
X142000000Y-120000000D03*
X152160000Y-120000000D03*
%TD*%
D11*
%TO.C,jumper1*%
X158000000Y-134000000D03*
X158000000Y-136540000D03*
%TD*%
D12*
%TO.C,R4*%
X151500000Y-93580000D03*
X151500000Y-83420000D03*
%TD*%
%TO.C,R5*%
X130420000Y-83500000D03*
X140580000Y-83500000D03*
%TD*%
D10*
%TO.C,QMC5883_Mag1*%
X161040000Y-142000000D03*
X158500000Y-142000000D03*
X155960000Y-142000000D03*
X153420000Y-142000000D03*
X150880000Y-142000000D03*
%TD*%
D11*
%TO.C,U1*%
X157000000Y-102460000D03*
X123980000Y-94840000D03*
X157000000Y-99920000D03*
X123980000Y-99920000D03*
X123980000Y-92300000D03*
X123980000Y-97380000D03*
X123980000Y-89760000D03*
X123980000Y-79600000D03*
X123980000Y-87220000D03*
X157000000Y-92300000D03*
X157000000Y-94840000D03*
X157000000Y-97380000D03*
X157000000Y-87220000D03*
X157000000Y-89760000D03*
X157000000Y-82140000D03*
X157000000Y-74520000D03*
X157000000Y-77060000D03*
X123980000Y-74520000D03*
X157000000Y-84680000D03*
X123980000Y-77060000D03*
X157000000Y-105000000D03*
X123980000Y-82140000D03*
X123980000Y-84680000D03*
X123980000Y-102460000D03*
X123980000Y-105000000D03*
X157000000Y-79600000D03*
X134140000Y-108810000D03*
X134140000Y-111350000D03*
%TD*%
D12*
%TO.C,R2*%
X140580000Y-72000000D03*
X130420000Y-72000000D03*
%TD*%
%TO.C,R6*%
X140580000Y-78000000D03*
X130420000Y-78000000D03*
%TD*%
%TO.C,R1*%
X154000000Y-81080000D03*
X154000000Y-70920000D03*
%TD*%
D10*
%TO.C,GPS-NEO6M1*%
X131460000Y-124000000D03*
X134000000Y-124000000D03*
X136540000Y-124000000D03*
X139080000Y-124000000D03*
%TD*%
D11*
%TO.C,SW2*%
X145854000Y-67330000D03*
X139250000Y-67330000D03*
X145854000Y-62250000D03*
X139250000Y-62250000D03*
%TD*%
M02*
