%TF.GenerationSoftware,KiCad,Pcbnew,7.0.11+dfsg-1build4*%
%TF.CreationDate,2024-10-25T06:38:10+02:00*%
%TF.ProjectId,BertheVarioTac-Shema,42657274-6865-4566-9172-696f5461632d,rev?*%
%TF.SameCoordinates,Original*%
%TF.FileFunction,Copper,L1,Top*%
%TF.FilePolarity,Positive*%
%FSLAX46Y46*%
G04 Gerber Fmt 4.6, Leading zero omitted, Abs format (unit mm)*
G04 Created by KiCad (PCBNEW 7.0.11+dfsg-1build4) date 2024-10-25 06:38:10*
%MOMM*%
%LPD*%
G01*
G04 APERTURE LIST*
%TA.AperFunction,ComponentPad*%
%ADD10C,1.524000*%
%TD*%
%TA.AperFunction,ComponentPad*%
%ADD11C,1.800000*%
%TD*%
%TA.AperFunction,ComponentPad*%
%ADD12C,1.600000*%
%TD*%
%TA.AperFunction,ComponentPad*%
%ADD13O,1.600000X1.600000*%
%TD*%
%TA.AperFunction,ComponentPad*%
%ADD14C,2.000000*%
%TD*%
%TA.AperFunction,ViaPad*%
%ADD15C,0.600000*%
%TD*%
%TA.AperFunction,Conductor*%
%ADD16C,1.500000*%
%TD*%
G04 APERTURE END LIST*
D10*
%TO.P,BT1,1,+*%
%TO.N,Net-(BT1-+)*%
X168000000Y-127460000D03*
%TO.P,BT1,2,-*%
%TO.N,GNDREF*%
X168000000Y-132540000D03*
%TD*%
D11*
%TO.P,SW1,1*%
%TO.N,Net-(Lipo-1S-to-5V1-IN_3.7v)*%
X173500000Y-132500000D03*
%TO.P,SW1,2*%
%TO.N,Net-(BT1-+)*%
X173500000Y-129960000D03*
%TD*%
%TO.P,Usb-C-charger1,1,B-*%
%TO.N,GNDREF*%
X168000000Y-103000000D03*
%TO.P,Usb-C-charger1,2,+*%
%TO.N,Net-(BT1-+)*%
X168000000Y-112000000D03*
%TD*%
D12*
%TO.P,R1,1*%
%TO.N,Net-(R1-Pad1)*%
X143880000Y-140000000D03*
D13*
%TO.P,R1,2*%
%TO.N,Net-(P4-Pin_1)*%
X154040000Y-140000000D03*
%TD*%
D11*
%TO.P,CN1,1,Pin_1*%
%TO.N,Net-(BMP180_Press1-VIN)*%
X125500000Y-140000000D03*
%TO.P,CN1,2,Pin_2*%
%TO.N,Net-(BMP180_Press1-SDA)*%
X122960000Y-140000000D03*
%TO.P,CN1,3,Pin_3*%
%TO.N,Net-(BMP180_Press1-SCL)*%
X120420000Y-140000000D03*
%TO.P,CN1,4,Pin_4*%
%TO.N,GNDREF*%
X117880000Y-140000000D03*
%TD*%
D14*
%TO.P,R2,1*%
%TO.N,Net-(BMP180_Press1-VIN)*%
X111580000Y-99000000D03*
%TO.P,R2,2*%
%TO.N,Net-(BMP180_Press1-SDA)*%
X101420000Y-99000000D03*
%TD*%
D11*
%TO.P,S1,1,1*%
%TO.N,Net-(P4-Pin_2)*%
X168500000Y-140000000D03*
%TO.P,S1,2,2*%
%TO.N,Net-(R1-Pad1)*%
X165960000Y-140000000D03*
%TD*%
%TO.P,P4,1,Pin_1*%
%TO.N,Net-(P4-Pin_1)*%
X161500000Y-140000000D03*
%TO.P,P4,2,Pin_2*%
%TO.N,Net-(P4-Pin_2)*%
X158960000Y-140000000D03*
%TD*%
%TO.P,GPS-NEO6M1,1,GND*%
%TO.N,GNDREF*%
X133500000Y-125620000D03*
%TO.P,GPS-NEO6M1,2,TX*%
%TO.N,Net-(GPS-NEO6M1-TX)*%
X133500000Y-123080000D03*
%TO.P,GPS-NEO6M1,3,RX*%
%TO.N,unconnected-(GPS-NEO6M1-RX-Pad3)*%
X133500000Y-120540000D03*
%TO.P,GPS-NEO6M1,4,VCC*%
%TO.N,Net-(BMP180_Press1-VIN)*%
X133500000Y-118000000D03*
%TD*%
D14*
%TO.P,R3,1*%
%TO.N,Net-(BMP180_Press1-VIN)*%
X111580000Y-103500000D03*
%TO.P,R3,2*%
%TO.N,Net-(BMP180_Press1-SCL)*%
X101420000Y-103500000D03*
%TD*%
D11*
%TO.P,Lipo-1S-to-5V1,1,GND*%
%TO.N,GNDREF*%
X129920000Y-104500000D03*
%TO.P,Lipo-1S-to-5V1,2,IN_3.7v*%
%TO.N,Net-(Lipo-1S-to-5V1-IN_3.7v)*%
X132460000Y-104500000D03*
%TO.P,Lipo-1S-to-5V1,3,OUT_5V*%
%TO.N,Net-(Lipo-1S-to-5V1-OUT_5V)*%
X135000000Y-104500000D03*
%TD*%
%TO.P,QMC5883_Mag1,1,VCC*%
%TO.N,Net-(BMP180_Press1-VIN)*%
X94000000Y-133160000D03*
%TO.P,QMC5883_Mag1,2,GND*%
%TO.N,GNDREF*%
X94000000Y-130620000D03*
%TO.P,QMC5883_Mag1,3,SCL*%
%TO.N,Net-(BMP180_Press1-SCL)*%
X94000000Y-128080000D03*
%TO.P,QMC5883_Mag1,4,SDA*%
%TO.N,Net-(BMP180_Press1-SDA)*%
X94000000Y-125540000D03*
%TO.P,QMC5883_Mag1,5*%
%TO.N,N/C*%
X94000000Y-123000000D03*
%TD*%
%TO.P,P1,1,Pin_1*%
%TO.N,Net-(Lipo-1S-to-5V1-OUT_5V)*%
X139040000Y-140000000D03*
%TO.P,P1,2,Pin_2*%
%TO.N,Net-(GPS-NEO6M1-TX)*%
X136500000Y-140000000D03*
%TO.P,P1,3,Pin_3*%
%TO.N,unconnected-(P1-Pin_3-Pad3)*%
X133960000Y-140000000D03*
%TO.P,P1,4,Pin_4*%
%TO.N,GNDREF*%
X131420000Y-140000000D03*
%TD*%
%TO.P,P5,1,1*%
%TO.N,Net-(Lipo-1S-to-5V1-IN_3.7v)*%
X118000000Y-96000000D03*
%TO.P,P5,2,2*%
%TO.N,Net-(P3-Pin_3)*%
X120500000Y-100000000D03*
%TO.P,P5,3,3*%
%TO.N,GNDREF*%
X123000000Y-96000000D03*
%TD*%
%TO.P,BMP180_Press1,1,SDA*%
%TO.N,Net-(BMP180_Press1-SDA)*%
X144000000Y-125460000D03*
%TO.P,BMP180_Press1,2,SCL*%
%TO.N,Net-(BMP180_Press1-SCL)*%
X144000000Y-128000000D03*
%TO.P,BMP180_Press1,3,GND*%
%TO.N,GNDREF*%
X144000000Y-130540000D03*
%TO.P,BMP180_Press1,4,VIN*%
%TO.N,Net-(BMP180_Press1-VIN)*%
X144000000Y-133080000D03*
%TD*%
%TO.P,P3,1,Pin_1*%
%TO.N,unconnected-(P3-Pin_1-Pad1)*%
X112580000Y-140000000D03*
%TO.P,P3,2,Pin_2*%
%TO.N,unconnected-(P3-Pin_2-Pad2)*%
X110040000Y-140000000D03*
%TO.P,P3,3,Pin_3*%
%TO.N,Net-(P3-Pin_3)*%
X107500000Y-140000000D03*
%TO.P,P3,4,Pin_4*%
%TO.N,unconnected-(P3-Pin_4-Pad4)*%
X104960000Y-140000000D03*
%TD*%
D15*
%TO.N,Net-(BMP180_Press1-VIN)*%
X137124600Y-126899900D03*
%TD*%
D16*
%TO.N,Net-(Lipo-1S-to-5V1-IN_3.7v)*%
X132460000Y-104366500D02*
X132460000Y-104500000D01*
X128326800Y-100233300D02*
X132460000Y-104366500D01*
X124397600Y-100233300D02*
X128326800Y-100233300D01*
X120164300Y-96000000D02*
X124397600Y-100233300D01*
X118000000Y-96000000D02*
X120164300Y-96000000D01*
X171729800Y-134270200D02*
X173500000Y-132500000D01*
X162128800Y-134270200D02*
X171729800Y-134270200D01*
X132460000Y-104601400D02*
X162128800Y-134270200D01*
X132460000Y-104500000D02*
X132460000Y-104601400D01*
%TO.N,Net-(BMP180_Press1-SCL)*%
X108579000Y-128080000D02*
X94000000Y-128080000D01*
X120420000Y-139921000D02*
X108579000Y-128080000D01*
X120420000Y-140000000D02*
X120420000Y-139921000D01*
%TO.N,Net-(BMP180_Press1-SDA)*%
X135422700Y-126324700D02*
X122960000Y-138787400D01*
X135422700Y-126194900D02*
X135422700Y-126324700D01*
X136419600Y-125198000D02*
X135422700Y-126194900D01*
X143738000Y-125198000D02*
X136419600Y-125198000D01*
X144000000Y-125460000D02*
X143738000Y-125198000D01*
X122960000Y-138787400D02*
X122960000Y-140000000D01*
X103386700Y-100966700D02*
X101420000Y-99000000D01*
X103386700Y-125540000D02*
X103386700Y-100966700D01*
X109712600Y-125540000D02*
X103386700Y-125540000D01*
X122960000Y-138787400D02*
X109712600Y-125540000D01*
X103386700Y-125540000D02*
X94000000Y-125540000D01*
%TO.N,Net-(BMP180_Press1-VIN)*%
X137124600Y-126899900D02*
X137124600Y-133080000D01*
X144000000Y-133080000D02*
X137124600Y-133080000D01*
X132420000Y-133080000D02*
X125500000Y-140000000D01*
X137124600Y-133080000D02*
X132420000Y-133080000D01*
X119000000Y-103500000D02*
X111580000Y-103500000D01*
X133500000Y-118000000D02*
X119000000Y-103500000D01*
%TO.N,Net-(GPS-NEO6M1-TX)*%
X136500000Y-139894200D02*
X136500000Y-140000000D01*
X139776000Y-136618200D02*
X136500000Y-139894200D01*
X143092000Y-136618200D02*
X139776000Y-136618200D01*
X145859200Y-133851000D02*
X143092000Y-136618200D01*
X145859200Y-124686800D02*
X145859200Y-133851000D01*
X144252400Y-123080000D02*
X145859200Y-124686800D01*
X133500000Y-123080000D02*
X144252400Y-123080000D01*
%TO.N,Net-(BT1-+)*%
X170500000Y-129960000D02*
X168000000Y-127460000D01*
X173500000Y-129960000D02*
X170500000Y-129960000D01*
%TO.N,Net-(P4-Pin_1)*%
X161296900Y-139796900D02*
X161500000Y-140000000D01*
X161296800Y-139796900D02*
X161296900Y-139796900D01*
X161296800Y-139705900D02*
X161296800Y-139796900D01*
X159737700Y-138146800D02*
X161296800Y-139705900D01*
X158193200Y-138146800D02*
X159737700Y-138146800D01*
X156340000Y-140000000D02*
X158193200Y-138146800D01*
X154040000Y-140000000D02*
X156340000Y-140000000D01*
%TO.N,Net-(R1-Pad1)*%
X162361000Y-136401000D02*
X165960000Y-140000000D01*
X147479000Y-136401000D02*
X162361000Y-136401000D01*
X143880000Y-140000000D02*
X147479000Y-136401000D01*
%TD*%
%TA.AperFunction,Conductor*%
%TO.N,GNDREF*%
G36*
X176260171Y-93615943D02*
G01*
X176327183Y-93635720D01*
X176372865Y-93688587D01*
X176384000Y-93739828D01*
X176427127Y-140302840D01*
X176407504Y-140369898D01*
X176354743Y-140415702D01*
X176302841Y-140426955D01*
X169999301Y-140412410D01*
X169932307Y-140392570D01*
X169886674Y-140339661D01*
X169876890Y-140270480D01*
X169879382Y-140257967D01*
X169880361Y-140254100D01*
X169886134Y-140231305D01*
X169886507Y-140226808D01*
X169905300Y-140000006D01*
X169905300Y-139999993D01*
X169886135Y-139768702D01*
X169886133Y-139768691D01*
X169829157Y-139543699D01*
X169735924Y-139331151D01*
X169608983Y-139136852D01*
X169608980Y-139136849D01*
X169608979Y-139136847D01*
X169451784Y-138966087D01*
X169451779Y-138966083D01*
X169451777Y-138966081D01*
X169268634Y-138823535D01*
X169268628Y-138823531D01*
X169064504Y-138713064D01*
X169064495Y-138713061D01*
X168844984Y-138637702D01*
X168664428Y-138607573D01*
X168616049Y-138599500D01*
X168383951Y-138599500D01*
X168338164Y-138607140D01*
X168155015Y-138637702D01*
X167935504Y-138713061D01*
X167935495Y-138713064D01*
X167731371Y-138823531D01*
X167731365Y-138823535D01*
X167548222Y-138966081D01*
X167548219Y-138966084D01*
X167548216Y-138966086D01*
X167548216Y-138966087D01*
X167530011Y-138985863D01*
X167391016Y-139136852D01*
X167333809Y-139224416D01*
X167280662Y-139269773D01*
X167211431Y-139279197D01*
X167148095Y-139249695D01*
X167126191Y-139224416D01*
X167068983Y-139136852D01*
X167068980Y-139136849D01*
X167068979Y-139136847D01*
X166911784Y-138966087D01*
X166911779Y-138966083D01*
X166911777Y-138966081D01*
X166728634Y-138823535D01*
X166728628Y-138823531D01*
X166524504Y-138713064D01*
X166524495Y-138713061D01*
X166425298Y-138679006D01*
X166377880Y-138649406D01*
X165728474Y-138000000D01*
X171894592Y-138000000D01*
X171914201Y-138286680D01*
X171914201Y-138286684D01*
X171914202Y-138286686D01*
X171935984Y-138391509D01*
X171972666Y-138568034D01*
X171972667Y-138568037D01*
X172068894Y-138838793D01*
X172068893Y-138838793D01*
X172201098Y-139093935D01*
X172366812Y-139328700D01*
X172441655Y-139408836D01*
X172562947Y-139538708D01*
X172785853Y-139720055D01*
X172873423Y-139773308D01*
X173031382Y-139869365D01*
X173218237Y-139950526D01*
X173294942Y-139983844D01*
X173571642Y-140061371D01*
X173821920Y-140095771D01*
X173856321Y-140100500D01*
X173856322Y-140100500D01*
X174143679Y-140100500D01*
X174174370Y-140096281D01*
X174428358Y-140061371D01*
X174705058Y-139983844D01*
X174869726Y-139912319D01*
X174968617Y-139869365D01*
X174968620Y-139869363D01*
X174968625Y-139869361D01*
X175214147Y-139720055D01*
X175437053Y-139538708D01*
X175633189Y-139328698D01*
X175798901Y-139093936D01*
X175931104Y-138838797D01*
X176027334Y-138568032D01*
X176085798Y-138286686D01*
X176105408Y-138000000D01*
X176085798Y-137713314D01*
X176027334Y-137431968D01*
X175997347Y-137347594D01*
X175931105Y-137161206D01*
X175931106Y-137161206D01*
X175798901Y-136906064D01*
X175633187Y-136671299D01*
X175554554Y-136587105D01*
X175437053Y-136461292D01*
X175214147Y-136279945D01*
X175214146Y-136279944D01*
X174968617Y-136130634D01*
X174705063Y-136016158D01*
X174705061Y-136016157D01*
X174705058Y-136016156D01*
X174575578Y-135979877D01*
X174428364Y-135938630D01*
X174428359Y-135938629D01*
X174428358Y-135938629D01*
X174286018Y-135919064D01*
X174143679Y-135899500D01*
X174143678Y-135899500D01*
X173856322Y-135899500D01*
X173856321Y-135899500D01*
X173571642Y-135938629D01*
X173571635Y-135938630D01*
X173363861Y-135996845D01*
X173294942Y-136016156D01*
X173294939Y-136016156D01*
X173294936Y-136016158D01*
X173294935Y-136016158D01*
X173031382Y-136130634D01*
X172785853Y-136279944D01*
X172562950Y-136461289D01*
X172366812Y-136671299D01*
X172201098Y-136906064D01*
X172068894Y-137161206D01*
X171972667Y-137431962D01*
X171972666Y-137431965D01*
X171914201Y-137713319D01*
X171894592Y-138000000D01*
X165728474Y-138000000D01*
X163460855Y-135732381D01*
X163427370Y-135671058D01*
X163432354Y-135601366D01*
X163474226Y-135545433D01*
X163539690Y-135521016D01*
X163548536Y-135520700D01*
X171652614Y-135520700D01*
X171666497Y-135521479D01*
X171701627Y-135525438D01*
X171701628Y-135525437D01*
X171701630Y-135525438D01*
X171767733Y-135520981D01*
X171776075Y-135520700D01*
X171785949Y-135520700D01*
X171785955Y-135520700D01*
X171826593Y-135517041D01*
X171829304Y-135516828D01*
X171926212Y-135510296D01*
X171930446Y-135509228D01*
X171949641Y-135505967D01*
X171953988Y-135505577D01*
X172047656Y-135479725D01*
X172050244Y-135479041D01*
X172144483Y-135455296D01*
X172148455Y-135453491D01*
X172166762Y-135446854D01*
X172170970Y-135445693D01*
X172258540Y-135403521D01*
X172260931Y-135402402D01*
X172349426Y-135362207D01*
X172353020Y-135359716D01*
X172369835Y-135349924D01*
X172373773Y-135348029D01*
X172452392Y-135290908D01*
X172454524Y-135289394D01*
X172534454Y-135234020D01*
X172537543Y-135230930D01*
X172552345Y-135218288D01*
X172555878Y-135215722D01*
X172623039Y-135145475D01*
X172624896Y-135143576D01*
X173917882Y-133850590D01*
X173965294Y-133820993D01*
X174064503Y-133786936D01*
X174268626Y-133676470D01*
X174451784Y-133533913D01*
X174608979Y-133363153D01*
X174735924Y-133168849D01*
X174829157Y-132956300D01*
X174886134Y-132731305D01*
X174886135Y-132731297D01*
X174905300Y-132500006D01*
X174905300Y-132499993D01*
X174886135Y-132268702D01*
X174886133Y-132268691D01*
X174829157Y-132043699D01*
X174735924Y-131831151D01*
X174608983Y-131636852D01*
X174608980Y-131636849D01*
X174608979Y-131636847D01*
X174451784Y-131466087D01*
X174274180Y-131327853D01*
X174233368Y-131271143D01*
X174229693Y-131201370D01*
X174264324Y-131140687D01*
X174274181Y-131132146D01*
X174451784Y-130993913D01*
X174608979Y-130823153D01*
X174735924Y-130628849D01*
X174829157Y-130416300D01*
X174886134Y-130191305D01*
X174889156Y-130154835D01*
X174905300Y-129960006D01*
X174905300Y-129959993D01*
X174886135Y-129728702D01*
X174886133Y-129728691D01*
X174829157Y-129503699D01*
X174735924Y-129291151D01*
X174608983Y-129096852D01*
X174608980Y-129096849D01*
X174608979Y-129096847D01*
X174451784Y-128926087D01*
X174451779Y-128926083D01*
X174451777Y-128926081D01*
X174268634Y-128783535D01*
X174268628Y-128783531D01*
X174064504Y-128673064D01*
X174064495Y-128673061D01*
X173844984Y-128597702D01*
X173673282Y-128569050D01*
X173616049Y-128559500D01*
X173383951Y-128559500D01*
X173338164Y-128567140D01*
X173155015Y-128597702D01*
X172935501Y-128673062D01*
X172935486Y-128673069D01*
X172895786Y-128694554D01*
X172836768Y-128709500D01*
X171069336Y-128709500D01*
X171002297Y-128689815D01*
X170981655Y-128673181D01*
X169018137Y-126709663D01*
X169004242Y-126693104D01*
X169001268Y-126688857D01*
X168970826Y-126645380D01*
X168814620Y-126489174D01*
X168814616Y-126489171D01*
X168814615Y-126489170D01*
X168633666Y-126362468D01*
X168633662Y-126362466D01*
X168633660Y-126362465D01*
X168433450Y-126269106D01*
X168433447Y-126269105D01*
X168433445Y-126269104D01*
X168220070Y-126211930D01*
X168220062Y-126211929D01*
X168000002Y-126192677D01*
X167999998Y-126192677D01*
X167779937Y-126211929D01*
X167779929Y-126211930D01*
X167566554Y-126269104D01*
X167566548Y-126269107D01*
X167366340Y-126362465D01*
X167366338Y-126362466D01*
X167185377Y-126489175D01*
X167029175Y-126645377D01*
X166902466Y-126826338D01*
X166902465Y-126826340D01*
X166809107Y-127026548D01*
X166809104Y-127026554D01*
X166751930Y-127239929D01*
X166751929Y-127239937D01*
X166732677Y-127459997D01*
X166732677Y-127460002D01*
X166751929Y-127680062D01*
X166751930Y-127680070D01*
X166809104Y-127893445D01*
X166809105Y-127893447D01*
X166809106Y-127893450D01*
X166827217Y-127932289D01*
X166902466Y-128093662D01*
X166902468Y-128093666D01*
X167029170Y-128274615D01*
X167029174Y-128274620D01*
X167185380Y-128430826D01*
X167185381Y-128430827D01*
X167233106Y-128464244D01*
X167249664Y-128478138D01*
X169561182Y-130789656D01*
X169570448Y-130800024D01*
X169592492Y-130827666D01*
X169642395Y-130871266D01*
X169648491Y-130876965D01*
X169655471Y-130883945D01*
X169686798Y-130910098D01*
X169688864Y-130911864D01*
X169762001Y-130975763D01*
X169765750Y-130978003D01*
X169781624Y-130989265D01*
X169784981Y-130992068D01*
X169869516Y-131040034D01*
X169871778Y-131041352D01*
X169955236Y-131091215D01*
X169959327Y-131092750D01*
X169976955Y-131100996D01*
X169980755Y-131103153D01*
X170072450Y-131135238D01*
X170075023Y-131136172D01*
X170147320Y-131163305D01*
X170165976Y-131170307D01*
X170165980Y-131170307D01*
X170165981Y-131170308D01*
X170170264Y-131171085D01*
X170189086Y-131176052D01*
X170193218Y-131177498D01*
X170289233Y-131192704D01*
X170291828Y-131193145D01*
X170363558Y-131206163D01*
X170387452Y-131210500D01*
X170387453Y-131210500D01*
X170391828Y-131210500D01*
X170411231Y-131212028D01*
X170412938Y-131212297D01*
X170415540Y-131212710D01*
X170512641Y-131210531D01*
X170515423Y-131210500D01*
X172515395Y-131210500D01*
X172582434Y-131230185D01*
X172628189Y-131282989D01*
X172638133Y-131352147D01*
X172609108Y-131415703D01*
X172591560Y-131432351D01*
X172561278Y-131455920D01*
X172548217Y-131466086D01*
X172391016Y-131636852D01*
X172264076Y-131831149D01*
X172168783Y-132048396D01*
X172167822Y-132047974D01*
X172141678Y-132089846D01*
X171248145Y-132983381D01*
X171186822Y-133016866D01*
X171160464Y-133019700D01*
X169339584Y-133019700D01*
X169272545Y-133000015D01*
X169226790Y-132947211D01*
X169216846Y-132878053D01*
X169219809Y-132863607D01*
X169247573Y-132759986D01*
X169247575Y-132759976D01*
X169266821Y-132540000D01*
X169266821Y-132539999D01*
X169247575Y-132320023D01*
X169247573Y-132320013D01*
X169190424Y-132106729D01*
X169190420Y-132106720D01*
X169097096Y-131906586D01*
X169051741Y-131841811D01*
X169051740Y-131841810D01*
X168384903Y-132508646D01*
X168384949Y-132508102D01*
X168353734Y-132384838D01*
X168284187Y-132278388D01*
X168183843Y-132200287D01*
X168063578Y-132159000D01*
X168027448Y-132159000D01*
X168698188Y-131488259D01*
X168698187Y-131488258D01*
X168633411Y-131442901D01*
X168633405Y-131442898D01*
X168433284Y-131349580D01*
X168433270Y-131349575D01*
X168219986Y-131292426D01*
X168219976Y-131292424D01*
X168000001Y-131273179D01*
X167999999Y-131273179D01*
X167780023Y-131292424D01*
X167780013Y-131292426D01*
X167566729Y-131349575D01*
X167566720Y-131349579D01*
X167366590Y-131442901D01*
X167301811Y-131488258D01*
X167972553Y-132159000D01*
X167968431Y-132159000D01*
X167874579Y-132174661D01*
X167762749Y-132235180D01*
X167676629Y-132328731D01*
X167625552Y-132445177D01*
X167619894Y-132513447D01*
X166948258Y-131841811D01*
X166902901Y-131906590D01*
X166809579Y-132106720D01*
X166809575Y-132106729D01*
X166752426Y-132320013D01*
X166752424Y-132320023D01*
X166733179Y-132539999D01*
X166733179Y-132540000D01*
X166752424Y-132759976D01*
X166752426Y-132759986D01*
X166780191Y-132863607D01*
X166778528Y-132933457D01*
X166739365Y-132991319D01*
X166675137Y-133018823D01*
X166660416Y-133019700D01*
X162698137Y-133019700D01*
X162631098Y-133000015D01*
X162610456Y-132983381D01*
X141627080Y-112000006D01*
X166594700Y-112000006D01*
X166613864Y-112231297D01*
X166613866Y-112231308D01*
X166670842Y-112456300D01*
X166764075Y-112668848D01*
X166891016Y-112863147D01*
X166891019Y-112863151D01*
X166891021Y-112863153D01*
X167048216Y-113033913D01*
X167048219Y-113033915D01*
X167048222Y-113033918D01*
X167231365Y-113176464D01*
X167231371Y-113176468D01*
X167231374Y-113176470D01*
X167435497Y-113286936D01*
X167549487Y-113326068D01*
X167655015Y-113362297D01*
X167655017Y-113362297D01*
X167655019Y-113362298D01*
X167883951Y-113400500D01*
X167883952Y-113400500D01*
X168116048Y-113400500D01*
X168116049Y-113400500D01*
X168344981Y-113362298D01*
X168564503Y-113286936D01*
X168768626Y-113176470D01*
X168951784Y-113033913D01*
X169108979Y-112863153D01*
X169235924Y-112668849D01*
X169329157Y-112456300D01*
X169386134Y-112231305D01*
X169405300Y-112000000D01*
X169405300Y-111999993D01*
X169386135Y-111768702D01*
X169386133Y-111768691D01*
X169329157Y-111543699D01*
X169235924Y-111331151D01*
X169108983Y-111136852D01*
X169108980Y-111136849D01*
X169108979Y-111136847D01*
X168951784Y-110966087D01*
X168951779Y-110966083D01*
X168951777Y-110966081D01*
X168768634Y-110823535D01*
X168768628Y-110823531D01*
X168564504Y-110713064D01*
X168564495Y-110713061D01*
X168344984Y-110637702D01*
X168173282Y-110609050D01*
X168116049Y-110599500D01*
X167883951Y-110599500D01*
X167838164Y-110607140D01*
X167655015Y-110637702D01*
X167435504Y-110713061D01*
X167435495Y-110713064D01*
X167231371Y-110823531D01*
X167231365Y-110823535D01*
X167048222Y-110966081D01*
X167048219Y-110966084D01*
X166891016Y-111136852D01*
X166764075Y-111331151D01*
X166670842Y-111543699D01*
X166613866Y-111768691D01*
X166613864Y-111768702D01*
X166594700Y-111999993D01*
X166594700Y-112000006D01*
X141627080Y-112000006D01*
X135584443Y-105957369D01*
X135550958Y-105896046D01*
X135555942Y-105826354D01*
X135597814Y-105770421D01*
X135613102Y-105760635D01*
X135768626Y-105676470D01*
X135769170Y-105676047D01*
X135830129Y-105628600D01*
X135951784Y-105533913D01*
X136108979Y-105363153D01*
X136235924Y-105168849D01*
X136329157Y-104956300D01*
X136386134Y-104731305D01*
X136386135Y-104731297D01*
X136405300Y-104500006D01*
X136405300Y-104499993D01*
X136386135Y-104268702D01*
X136386133Y-104268691D01*
X136329157Y-104043699D01*
X136235924Y-103831151D01*
X136108983Y-103636852D01*
X136108980Y-103636849D01*
X136108979Y-103636847D01*
X135951784Y-103466087D01*
X135951779Y-103466083D01*
X135951777Y-103466081D01*
X135768634Y-103323535D01*
X135768628Y-103323531D01*
X135564504Y-103213064D01*
X135564495Y-103213061D01*
X135344984Y-103137702D01*
X135173282Y-103109050D01*
X135116049Y-103099500D01*
X134883951Y-103099500D01*
X134838164Y-103107140D01*
X134655015Y-103137702D01*
X134435504Y-103213061D01*
X134435495Y-103213064D01*
X134231371Y-103323531D01*
X134231365Y-103323535D01*
X134048222Y-103466081D01*
X134048219Y-103466084D01*
X134048216Y-103466086D01*
X134048216Y-103466087D01*
X133989267Y-103530122D01*
X133891016Y-103636852D01*
X133833809Y-103724416D01*
X133780662Y-103769773D01*
X133711431Y-103779197D01*
X133648095Y-103749695D01*
X133626191Y-103724416D01*
X133568983Y-103636852D01*
X133568980Y-103636849D01*
X133568979Y-103636847D01*
X133411784Y-103466087D01*
X133411779Y-103466083D01*
X133411777Y-103466081D01*
X133228634Y-103323535D01*
X133228619Y-103323525D01*
X133150528Y-103281264D01*
X133121865Y-103259891D01*
X132861979Y-103000005D01*
X166595202Y-103000005D01*
X166614361Y-103231218D01*
X166671317Y-103456135D01*
X166764515Y-103668606D01*
X166848812Y-103797633D01*
X167602046Y-103044399D01*
X167614835Y-103125148D01*
X167672359Y-103238045D01*
X167761955Y-103327641D01*
X167874852Y-103385165D01*
X167955599Y-103397953D01*
X167201201Y-104152351D01*
X167231649Y-104176050D01*
X167435697Y-104286476D01*
X167435706Y-104286479D01*
X167655139Y-104361811D01*
X167883993Y-104400000D01*
X168116007Y-104400000D01*
X168344860Y-104361811D01*
X168564293Y-104286479D01*
X168564301Y-104286476D01*
X168768355Y-104176047D01*
X168798797Y-104152351D01*
X168798798Y-104152350D01*
X168044401Y-103397953D01*
X168125148Y-103385165D01*
X168238045Y-103327641D01*
X168327641Y-103238045D01*
X168385165Y-103125148D01*
X168397953Y-103044400D01*
X169151186Y-103797633D01*
X169235482Y-103668611D01*
X169328682Y-103456135D01*
X169385638Y-103231218D01*
X169404798Y-103000005D01*
X169404798Y-102999994D01*
X169385638Y-102768781D01*
X169328682Y-102543864D01*
X169235484Y-102331393D01*
X169151186Y-102202365D01*
X168397953Y-102955598D01*
X168385165Y-102874852D01*
X168327641Y-102761955D01*
X168238045Y-102672359D01*
X168125148Y-102614835D01*
X168044400Y-102602046D01*
X168798797Y-101847647D01*
X168798797Y-101847645D01*
X168768360Y-101823955D01*
X168768354Y-101823951D01*
X168564302Y-101713523D01*
X168564293Y-101713520D01*
X168344860Y-101638188D01*
X168116007Y-101600000D01*
X167883993Y-101600000D01*
X167655139Y-101638188D01*
X167435706Y-101713520D01*
X167435697Y-101713523D01*
X167231650Y-101823949D01*
X167201200Y-101847647D01*
X167955600Y-102602046D01*
X167874852Y-102614835D01*
X167761955Y-102672359D01*
X167672359Y-102761955D01*
X167614835Y-102874852D01*
X167602046Y-102955600D01*
X166848811Y-102202365D01*
X166764516Y-102331390D01*
X166671317Y-102543864D01*
X166614361Y-102768781D01*
X166595202Y-102999994D01*
X166595202Y-103000005D01*
X132861979Y-103000005D01*
X129265616Y-99403642D01*
X129256349Y-99393273D01*
X129234306Y-99365632D01*
X129184403Y-99322032D01*
X129178307Y-99316333D01*
X129171332Y-99309358D01*
X129171321Y-99309348D01*
X129140055Y-99283245D01*
X129137939Y-99281438D01*
X129064803Y-99217540D01*
X129064797Y-99217536D01*
X129064796Y-99217535D01*
X129061041Y-99215291D01*
X129045173Y-99204032D01*
X129041819Y-99201232D01*
X129041818Y-99201231D01*
X129041813Y-99201227D01*
X128957348Y-99153301D01*
X128954944Y-99151901D01*
X128871563Y-99102084D01*
X128867469Y-99100548D01*
X128849844Y-99092302D01*
X128846045Y-99090146D01*
X128754369Y-99058067D01*
X128751753Y-99057119D01*
X128660829Y-99022994D01*
X128660819Y-99022991D01*
X128656523Y-99022212D01*
X128637718Y-99017249D01*
X128633584Y-99015802D01*
X128633577Y-99015801D01*
X128537648Y-99000607D01*
X128534905Y-99000141D01*
X128439350Y-98982800D01*
X128439347Y-98982800D01*
X128434972Y-98982800D01*
X128415569Y-98981272D01*
X128411260Y-98980589D01*
X128314159Y-98982769D01*
X128311377Y-98982800D01*
X124966936Y-98982800D01*
X124899897Y-98963115D01*
X124879255Y-98946481D01*
X123447896Y-97515122D01*
X123414411Y-97453799D01*
X123419395Y-97384107D01*
X123461267Y-97328174D01*
X123495315Y-97310159D01*
X123564301Y-97286476D01*
X123768355Y-97176047D01*
X123798797Y-97152351D01*
X123798798Y-97152351D01*
X123044400Y-96397953D01*
X123125148Y-96385165D01*
X123238045Y-96327641D01*
X123327641Y-96238045D01*
X123385165Y-96125148D01*
X123397953Y-96044400D01*
X124151186Y-96797633D01*
X124235482Y-96668611D01*
X124328682Y-96456135D01*
X124385638Y-96231218D01*
X124404798Y-96000005D01*
X124404798Y-96000000D01*
X171894592Y-96000000D01*
X171914201Y-96286680D01*
X171914201Y-96286684D01*
X171914202Y-96286686D01*
X171928097Y-96353553D01*
X171972666Y-96568034D01*
X171972667Y-96568037D01*
X172068894Y-96838793D01*
X172068893Y-96838793D01*
X172201098Y-97093935D01*
X172366812Y-97328700D01*
X172451923Y-97419831D01*
X172562947Y-97538708D01*
X172664309Y-97621172D01*
X172785853Y-97720055D01*
X173031382Y-97869365D01*
X173218237Y-97950526D01*
X173294942Y-97983844D01*
X173571642Y-98061371D01*
X173821920Y-98095771D01*
X173856321Y-98100500D01*
X173856322Y-98100500D01*
X174143679Y-98100500D01*
X174174370Y-98096281D01*
X174428358Y-98061371D01*
X174705058Y-97983844D01*
X174818015Y-97934779D01*
X174968617Y-97869365D01*
X174968620Y-97869363D01*
X174968625Y-97869361D01*
X175214147Y-97720055D01*
X175437053Y-97538708D01*
X175633189Y-97328698D01*
X175798901Y-97093936D01*
X175931104Y-96838797D01*
X176027334Y-96568032D01*
X176085798Y-96286686D01*
X176105408Y-96000000D01*
X176085798Y-95713314D01*
X176027334Y-95431968D01*
X175931105Y-95161206D01*
X175931106Y-95161206D01*
X175798901Y-94906064D01*
X175633187Y-94671299D01*
X175554554Y-94587105D01*
X175437053Y-94461292D01*
X175214147Y-94279945D01*
X175214146Y-94279944D01*
X174968617Y-94130634D01*
X174705063Y-94016158D01*
X174705061Y-94016157D01*
X174705058Y-94016156D01*
X174575578Y-93979877D01*
X174428364Y-93938630D01*
X174428359Y-93938629D01*
X174428358Y-93938629D01*
X174286018Y-93919064D01*
X174143679Y-93899500D01*
X174143678Y-93899500D01*
X173856322Y-93899500D01*
X173856321Y-93899500D01*
X173571642Y-93938629D01*
X173571635Y-93938630D01*
X173363861Y-93996845D01*
X173294942Y-94016156D01*
X173294939Y-94016156D01*
X173294936Y-94016158D01*
X173294935Y-94016158D01*
X173031382Y-94130634D01*
X172785853Y-94279944D01*
X172562950Y-94461289D01*
X172366812Y-94671299D01*
X172201098Y-94906064D01*
X172068894Y-95161206D01*
X171972667Y-95431962D01*
X171972666Y-95431965D01*
X171914201Y-95713319D01*
X171894592Y-96000000D01*
X124404798Y-96000000D01*
X124404798Y-95999994D01*
X124385638Y-95768781D01*
X124328682Y-95543864D01*
X124235484Y-95331393D01*
X124151186Y-95202365D01*
X123397953Y-95955598D01*
X123385165Y-95874852D01*
X123327641Y-95761955D01*
X123238045Y-95672359D01*
X123125148Y-95614835D01*
X123044400Y-95602046D01*
X123798797Y-94847647D01*
X123798797Y-94847645D01*
X123768360Y-94823955D01*
X123768354Y-94823951D01*
X123564302Y-94713523D01*
X123564293Y-94713520D01*
X123344860Y-94638188D01*
X123116007Y-94600000D01*
X122883993Y-94600000D01*
X122655139Y-94638188D01*
X122435706Y-94713520D01*
X122435697Y-94713523D01*
X122231650Y-94823949D01*
X122201200Y-94847647D01*
X122955600Y-95602046D01*
X122874852Y-95614835D01*
X122761955Y-95672359D01*
X122672359Y-95761955D01*
X122614835Y-95874852D01*
X122602046Y-95955599D01*
X121848811Y-95202365D01*
X121764516Y-95331390D01*
X121684863Y-95512981D01*
X121639907Y-95566467D01*
X121573171Y-95587157D01*
X121505843Y-95568482D01*
X121483626Y-95550852D01*
X121103116Y-95170342D01*
X121093849Y-95159973D01*
X121071806Y-95132332D01*
X121021903Y-95088732D01*
X121015807Y-95083033D01*
X121008832Y-95076058D01*
X121008821Y-95076048D01*
X120977555Y-95049945D01*
X120975439Y-95048138D01*
X120902303Y-94984240D01*
X120902297Y-94984236D01*
X120902296Y-94984235D01*
X120898541Y-94981991D01*
X120882673Y-94970732D01*
X120879319Y-94967932D01*
X120879318Y-94967931D01*
X120879313Y-94967927D01*
X120794848Y-94920001D01*
X120792444Y-94918601D01*
X120709063Y-94868784D01*
X120704969Y-94867248D01*
X120687344Y-94859002D01*
X120683545Y-94856846D01*
X120591869Y-94824767D01*
X120589253Y-94823819D01*
X120498329Y-94789694D01*
X120498319Y-94789691D01*
X120494023Y-94788912D01*
X120475218Y-94783949D01*
X120471084Y-94782502D01*
X120471077Y-94782501D01*
X120375148Y-94767307D01*
X120372405Y-94766841D01*
X120276850Y-94749500D01*
X120276847Y-94749500D01*
X120272472Y-94749500D01*
X120253069Y-94747972D01*
X120248760Y-94747289D01*
X120151659Y-94749469D01*
X120148877Y-94749500D01*
X118663232Y-94749500D01*
X118604214Y-94734554D01*
X118564513Y-94713069D01*
X118564507Y-94713066D01*
X118564503Y-94713064D01*
X118564500Y-94713063D01*
X118564498Y-94713062D01*
X118344984Y-94637702D01*
X118173282Y-94609050D01*
X118116049Y-94599500D01*
X117883951Y-94599500D01*
X117838164Y-94607140D01*
X117655015Y-94637702D01*
X117435504Y-94713061D01*
X117435495Y-94713064D01*
X117231371Y-94823531D01*
X117231365Y-94823535D01*
X117048222Y-94966081D01*
X117048219Y-94966084D01*
X116891016Y-95136852D01*
X116764075Y-95331151D01*
X116670842Y-95543699D01*
X116613866Y-95768691D01*
X116613864Y-95768702D01*
X116594700Y-95999993D01*
X116594700Y-96000006D01*
X116613864Y-96231297D01*
X116613866Y-96231308D01*
X116670842Y-96456300D01*
X116764075Y-96668848D01*
X116891016Y-96863147D01*
X116891019Y-96863151D01*
X116891021Y-96863153D01*
X117048216Y-97033913D01*
X117048219Y-97033915D01*
X117048222Y-97033918D01*
X117231365Y-97176464D01*
X117231371Y-97176468D01*
X117231374Y-97176470D01*
X117435497Y-97286936D01*
X117549487Y-97326068D01*
X117655015Y-97362297D01*
X117655017Y-97362297D01*
X117655019Y-97362298D01*
X117883951Y-97400500D01*
X117883952Y-97400500D01*
X118116048Y-97400500D01*
X118116049Y-97400500D01*
X118344981Y-97362298D01*
X118564503Y-97286936D01*
X118586696Y-97274925D01*
X118604214Y-97265446D01*
X118663232Y-97250500D01*
X119594964Y-97250500D01*
X119662003Y-97270185D01*
X119682645Y-97286819D01*
X120797593Y-98401767D01*
X120831078Y-98463090D01*
X120826094Y-98532782D01*
X120784222Y-98588715D01*
X120718758Y-98613132D01*
X120689503Y-98611757D01*
X120616049Y-98599500D01*
X120383951Y-98599500D01*
X120338164Y-98607140D01*
X120155015Y-98637702D01*
X119935504Y-98713061D01*
X119935495Y-98713064D01*
X119731371Y-98823531D01*
X119731365Y-98823535D01*
X119548222Y-98966081D01*
X119548219Y-98966084D01*
X119548216Y-98966086D01*
X119548216Y-98966087D01*
X119516867Y-99000141D01*
X119391016Y-99136852D01*
X119264075Y-99331151D01*
X119170842Y-99543699D01*
X119113866Y-99768691D01*
X119113864Y-99768702D01*
X119094700Y-99999993D01*
X119094700Y-100000006D01*
X119113864Y-100231297D01*
X119113866Y-100231308D01*
X119170842Y-100456300D01*
X119264075Y-100668848D01*
X119391016Y-100863147D01*
X119391019Y-100863151D01*
X119391021Y-100863153D01*
X119548216Y-101033913D01*
X119548219Y-101033915D01*
X119548222Y-101033918D01*
X119731365Y-101176464D01*
X119731371Y-101176468D01*
X119731374Y-101176470D01*
X119935497Y-101286936D01*
X120016362Y-101314697D01*
X120155015Y-101362297D01*
X120155017Y-101362297D01*
X120155019Y-101362298D01*
X120383951Y-101400500D01*
X120383952Y-101400500D01*
X120616048Y-101400500D01*
X120616049Y-101400500D01*
X120844981Y-101362298D01*
X121064503Y-101286936D01*
X121268626Y-101176470D01*
X121309617Y-101144566D01*
X121365634Y-101100966D01*
X121451784Y-101033913D01*
X121608979Y-100863153D01*
X121735924Y-100668849D01*
X121829157Y-100456300D01*
X121886134Y-100231305D01*
X121891873Y-100162046D01*
X121905300Y-100000006D01*
X121905300Y-99999994D01*
X121888916Y-99802268D01*
X121902997Y-99733832D01*
X121951842Y-99683873D01*
X122019943Y-99668252D01*
X122085679Y-99691929D01*
X122100173Y-99704347D01*
X123458782Y-101062956D01*
X123468048Y-101073324D01*
X123490092Y-101100966D01*
X123539995Y-101144566D01*
X123546091Y-101150265D01*
X123553066Y-101157240D01*
X123553077Y-101157250D01*
X123584339Y-101183350D01*
X123586454Y-101185156D01*
X123659604Y-101249065D01*
X123663350Y-101251303D01*
X123679224Y-101262565D01*
X123682581Y-101265368D01*
X123767116Y-101313334D01*
X123769378Y-101314652D01*
X123852836Y-101364515D01*
X123856927Y-101366050D01*
X123874555Y-101374296D01*
X123878355Y-101376453D01*
X123970096Y-101408554D01*
X123972598Y-101409461D01*
X124063576Y-101443607D01*
X124066165Y-101444076D01*
X124067874Y-101444387D01*
X124086689Y-101449353D01*
X124090817Y-101450798D01*
X124186837Y-101466005D01*
X124189432Y-101466446D01*
X124261032Y-101479440D01*
X124285052Y-101483800D01*
X124285053Y-101483800D01*
X124289428Y-101483800D01*
X124308831Y-101485328D01*
X124310538Y-101485597D01*
X124313140Y-101486010D01*
X124410221Y-101483831D01*
X124413004Y-101483800D01*
X127757464Y-101483800D01*
X127824503Y-101503485D01*
X127845145Y-101520119D01*
X129356753Y-103031727D01*
X129390238Y-103093050D01*
X129385254Y-103162742D01*
X129343382Y-103218675D01*
X129328090Y-103228462D01*
X129151656Y-103323944D01*
X129151652Y-103323947D01*
X129121200Y-103347647D01*
X129875599Y-104102046D01*
X129794852Y-104114835D01*
X129681955Y-104172359D01*
X129592359Y-104261955D01*
X129534835Y-104374852D01*
X129522046Y-104455600D01*
X128768811Y-103702365D01*
X128684516Y-103831390D01*
X128591317Y-104043864D01*
X128534361Y-104268781D01*
X128515202Y-104499994D01*
X128515202Y-104500005D01*
X128534361Y-104731218D01*
X128591317Y-104956135D01*
X128684515Y-105168606D01*
X128768812Y-105297633D01*
X129522046Y-104544399D01*
X129534835Y-104625148D01*
X129592359Y-104738045D01*
X129681955Y-104827641D01*
X129794852Y-104885165D01*
X129875599Y-104897953D01*
X129121201Y-105652351D01*
X129151649Y-105676050D01*
X129355697Y-105786476D01*
X129355706Y-105786479D01*
X129575139Y-105861811D01*
X129803993Y-105900000D01*
X130036007Y-105900000D01*
X130264860Y-105861811D01*
X130484293Y-105786479D01*
X130484301Y-105786476D01*
X130688355Y-105676047D01*
X130718797Y-105652351D01*
X130718798Y-105652350D01*
X129964401Y-104897953D01*
X130045148Y-104885165D01*
X130158045Y-104827641D01*
X130247641Y-104738045D01*
X130305165Y-104625148D01*
X130317953Y-104544400D01*
X131071185Y-105297632D01*
X131085891Y-105275125D01*
X131139037Y-105229768D01*
X131208268Y-105220344D01*
X131271604Y-105249846D01*
X131293508Y-105275123D01*
X131351021Y-105363153D01*
X131508216Y-105533913D01*
X131508219Y-105533915D01*
X131508222Y-105533918D01*
X131691365Y-105676464D01*
X131691372Y-105676468D01*
X131691374Y-105676470D01*
X131839430Y-105756594D01*
X131868093Y-105777967D01*
X161028945Y-134938819D01*
X161062430Y-135000142D01*
X161057446Y-135069834D01*
X161015574Y-135125767D01*
X160950110Y-135150184D01*
X160941264Y-135150500D01*
X147556186Y-135150500D01*
X147542303Y-135149720D01*
X147532693Y-135148637D01*
X147507176Y-135145762D01*
X147507169Y-135145761D01*
X147444307Y-135150000D01*
X147441062Y-135150219D01*
X147432722Y-135150500D01*
X147422837Y-135150500D01*
X147382284Y-135154149D01*
X147379516Y-135154367D01*
X147282588Y-135160902D01*
X147282581Y-135160903D01*
X147278327Y-135161975D01*
X147259174Y-135165230D01*
X147254811Y-135165623D01*
X147254802Y-135165624D01*
X147161213Y-135191454D01*
X147158524Y-135192164D01*
X147064318Y-135215903D01*
X147060322Y-135217718D01*
X147042059Y-135224339D01*
X147037838Y-135225504D01*
X147037821Y-135225510D01*
X146950289Y-135267662D01*
X146947772Y-135268840D01*
X146859374Y-135308992D01*
X146855772Y-135311488D01*
X146838980Y-135321267D01*
X146835029Y-135323170D01*
X146835020Y-135323175D01*
X146756411Y-135380287D01*
X146754185Y-135381866D01*
X146724601Y-135402363D01*
X146674345Y-135437180D01*
X146671239Y-135440286D01*
X146656465Y-135452903D01*
X146652928Y-135455473D01*
X146652921Y-135455478D01*
X146585804Y-135525677D01*
X146583859Y-135527665D01*
X143270509Y-138841015D01*
X143235242Y-138865712D01*
X143227264Y-138869432D01*
X143040858Y-138999954D01*
X142879954Y-139160858D01*
X142749432Y-139347265D01*
X142749431Y-139347267D01*
X142653261Y-139553502D01*
X142653258Y-139553511D01*
X142594366Y-139773302D01*
X142594364Y-139773313D01*
X142574532Y-139999998D01*
X142574532Y-140000002D01*
X142593261Y-140214082D01*
X142579494Y-140282582D01*
X142530879Y-140332765D01*
X142469447Y-140348889D01*
X140551171Y-140344463D01*
X140484177Y-140324623D01*
X140438544Y-140271714D01*
X140427881Y-140210223D01*
X140445300Y-140000005D01*
X140445300Y-139999993D01*
X140426135Y-139768702D01*
X140426133Y-139768691D01*
X140369157Y-139543699D01*
X140275924Y-139331151D01*
X140148983Y-139136852D01*
X140148980Y-139136849D01*
X140148979Y-139136847D01*
X139991784Y-138966087D01*
X139991779Y-138966083D01*
X139991777Y-138966081D01*
X139808634Y-138823535D01*
X139808628Y-138823531D01*
X139650250Y-138737821D01*
X139600660Y-138688601D01*
X139585552Y-138620384D01*
X139609723Y-138554829D01*
X139621579Y-138541093D01*
X140257655Y-137905019D01*
X140318978Y-137871534D01*
X140345336Y-137868700D01*
X143014814Y-137868700D01*
X143028697Y-137869479D01*
X143063827Y-137873438D01*
X143063828Y-137873437D01*
X143063830Y-137873438D01*
X143129933Y-137868981D01*
X143138275Y-137868700D01*
X143148149Y-137868700D01*
X143148155Y-137868700D01*
X143188793Y-137865041D01*
X143191504Y-137864828D01*
X143288412Y-137858296D01*
X143292646Y-137857228D01*
X143311841Y-137853967D01*
X143316188Y-137853577D01*
X143409856Y-137827725D01*
X143412444Y-137827041D01*
X143506683Y-137803296D01*
X143510655Y-137801491D01*
X143528962Y-137794854D01*
X143533170Y-137793693D01*
X143620740Y-137751521D01*
X143623131Y-137750402D01*
X143711626Y-137710207D01*
X143715220Y-137707716D01*
X143732035Y-137697924D01*
X143735973Y-137696029D01*
X143740575Y-137692686D01*
X143763220Y-137676233D01*
X143814592Y-137638908D01*
X143816724Y-137637394D01*
X143896654Y-137582020D01*
X143899743Y-137578930D01*
X143914545Y-137566288D01*
X143918078Y-137563722D01*
X143985239Y-137493475D01*
X143987096Y-137491576D01*
X146688866Y-134789806D01*
X146699216Y-134780557D01*
X146726866Y-134758508D01*
X146770467Y-134708601D01*
X146776157Y-134702516D01*
X146783145Y-134695529D01*
X146809319Y-134664175D01*
X146811019Y-134662185D01*
X146874965Y-134588996D01*
X146877202Y-134585250D01*
X146888469Y-134569369D01*
X146891268Y-134566018D01*
X146939255Y-134481445D01*
X146940549Y-134479223D01*
X146990415Y-134395764D01*
X146991949Y-134391675D01*
X147000198Y-134374044D01*
X147002354Y-134370245D01*
X147034459Y-134278491D01*
X147035390Y-134275925D01*
X147069505Y-134185029D01*
X147069504Y-134185029D01*
X147069507Y-134185024D01*
X147070285Y-134180735D01*
X147075257Y-134161896D01*
X147076698Y-134157782D01*
X147091912Y-134061717D01*
X147092340Y-134059200D01*
X147109700Y-133963547D01*
X147109700Y-133959175D01*
X147111227Y-133939777D01*
X147111910Y-133935464D01*
X147111911Y-133935459D01*
X147109730Y-133838332D01*
X147109700Y-133835551D01*
X147109700Y-124763975D01*
X147110480Y-124750090D01*
X147114437Y-124714972D01*
X147111562Y-124672334D01*
X147109981Y-124648875D01*
X147109700Y-124640534D01*
X147109700Y-124630650D01*
X147109700Y-124630645D01*
X147106043Y-124590015D01*
X147105826Y-124587252D01*
X147099296Y-124490387D01*
X147098227Y-124486147D01*
X147094968Y-124466958D01*
X147094926Y-124466499D01*
X147094577Y-124462612D01*
X147068732Y-124368968D01*
X147068040Y-124366348D01*
X147044296Y-124272116D01*
X147042490Y-124268140D01*
X147035854Y-124249839D01*
X147034693Y-124245630D01*
X146992540Y-124158099D01*
X146991389Y-124155639D01*
X146951207Y-124067174D01*
X146948717Y-124063580D01*
X146938925Y-124046764D01*
X146937029Y-124042827D01*
X146879939Y-123964250D01*
X146878328Y-123961979D01*
X146823020Y-123882145D01*
X146819925Y-123879050D01*
X146807287Y-123864253D01*
X146806483Y-123863147D01*
X146804722Y-123860722D01*
X146804718Y-123860718D01*
X146734521Y-123793602D01*
X146732532Y-123791657D01*
X145191216Y-122250342D01*
X145181949Y-122239973D01*
X145159906Y-122212332D01*
X145110003Y-122168732D01*
X145103907Y-122163033D01*
X145096932Y-122156058D01*
X145096921Y-122156048D01*
X145065655Y-122129945D01*
X145063539Y-122128138D01*
X144990403Y-122064240D01*
X144990397Y-122064236D01*
X144990396Y-122064235D01*
X144986641Y-122061991D01*
X144970773Y-122050732D01*
X144967419Y-122047932D01*
X144967418Y-122047931D01*
X144967413Y-122047927D01*
X144882948Y-122000001D01*
X144880544Y-121998601D01*
X144797163Y-121948784D01*
X144793069Y-121947248D01*
X144775444Y-121939002D01*
X144771645Y-121936846D01*
X144679969Y-121904767D01*
X144677353Y-121903819D01*
X144586429Y-121869694D01*
X144586419Y-121869691D01*
X144582123Y-121868912D01*
X144563318Y-121863949D01*
X144559184Y-121862502D01*
X144559177Y-121862501D01*
X144463248Y-121847307D01*
X144460505Y-121846841D01*
X144364950Y-121829500D01*
X144364947Y-121829500D01*
X144360572Y-121829500D01*
X144341169Y-121827972D01*
X144336860Y-121827289D01*
X144239759Y-121829469D01*
X144236977Y-121829500D01*
X134484605Y-121829500D01*
X134417566Y-121809815D01*
X134371811Y-121757011D01*
X134361867Y-121687853D01*
X134390892Y-121624297D01*
X134408439Y-121607648D01*
X134451784Y-121573913D01*
X134608979Y-121403153D01*
X134735924Y-121208849D01*
X134829157Y-120996300D01*
X134886134Y-120771305D01*
X134905300Y-120540000D01*
X134905300Y-120539993D01*
X134886135Y-120308702D01*
X134886133Y-120308691D01*
X134829157Y-120083699D01*
X134735924Y-119871151D01*
X134608983Y-119676852D01*
X134608980Y-119676849D01*
X134608979Y-119676847D01*
X134451784Y-119506087D01*
X134274180Y-119367853D01*
X134233368Y-119311143D01*
X134229693Y-119241370D01*
X134264324Y-119180687D01*
X134274181Y-119172146D01*
X134451784Y-119033913D01*
X134608979Y-118863153D01*
X134735924Y-118668849D01*
X134829157Y-118456300D01*
X134886134Y-118231305D01*
X134905300Y-118000000D01*
X134905300Y-117999993D01*
X134886135Y-117768702D01*
X134886133Y-117768691D01*
X134829157Y-117543699D01*
X134735924Y-117331151D01*
X134608983Y-117136852D01*
X134608980Y-117136849D01*
X134608979Y-117136847D01*
X134451784Y-116966087D01*
X134451779Y-116966083D01*
X134451777Y-116966081D01*
X134268634Y-116823535D01*
X134268628Y-116823531D01*
X134064504Y-116713064D01*
X134064495Y-116713061D01*
X133965298Y-116679006D01*
X133917880Y-116649406D01*
X119938816Y-102670342D01*
X119929549Y-102659973D01*
X119907506Y-102632332D01*
X119857603Y-102588732D01*
X119851507Y-102583033D01*
X119844532Y-102576058D01*
X119844521Y-102576048D01*
X119813255Y-102549945D01*
X119811139Y-102548138D01*
X119738003Y-102484240D01*
X119737997Y-102484236D01*
X119737996Y-102484235D01*
X119734241Y-102481991D01*
X119718373Y-102470732D01*
X119715019Y-102467932D01*
X119715018Y-102467931D01*
X119715013Y-102467927D01*
X119630548Y-102420001D01*
X119628144Y-102418601D01*
X119544763Y-102368784D01*
X119540669Y-102367248D01*
X119523044Y-102359002D01*
X119519245Y-102356846D01*
X119427569Y-102324767D01*
X119424953Y-102323819D01*
X119334029Y-102289694D01*
X119334019Y-102289691D01*
X119329723Y-102288912D01*
X119310918Y-102283949D01*
X119306784Y-102282502D01*
X119306777Y-102282501D01*
X119210848Y-102267307D01*
X119208105Y-102266841D01*
X119112550Y-102249500D01*
X119112547Y-102249500D01*
X119108172Y-102249500D01*
X119088769Y-102247972D01*
X119084460Y-102247289D01*
X118987359Y-102249469D01*
X118984577Y-102249500D01*
X112453341Y-102249500D01*
X112394324Y-102234555D01*
X112184816Y-102121175D01*
X112184813Y-102121174D01*
X112184810Y-102121172D01*
X112184804Y-102121170D01*
X112184802Y-102121169D01*
X111949616Y-102040429D01*
X111704335Y-101999500D01*
X111455665Y-101999500D01*
X111210383Y-102040429D01*
X110975197Y-102121169D01*
X110975188Y-102121172D01*
X110756493Y-102239524D01*
X110560257Y-102392261D01*
X110391833Y-102575217D01*
X110255826Y-102783393D01*
X110155936Y-103011118D01*
X110094892Y-103252175D01*
X110094890Y-103252187D01*
X110074357Y-103499994D01*
X110074357Y-103500005D01*
X110094890Y-103747812D01*
X110094892Y-103747824D01*
X110155936Y-103988881D01*
X110255826Y-104216606D01*
X110391833Y-104424782D01*
X110391836Y-104424785D01*
X110560256Y-104607738D01*
X110756491Y-104760474D01*
X110756493Y-104760475D01*
X110975182Y-104878824D01*
X110975190Y-104878828D01*
X111210386Y-104959571D01*
X111455665Y-105000500D01*
X111704335Y-105000500D01*
X111949614Y-104959571D01*
X112184810Y-104878828D01*
X112385565Y-104770185D01*
X112394324Y-104765445D01*
X112453341Y-104750500D01*
X118430664Y-104750500D01*
X118497703Y-104770185D01*
X118518345Y-104786819D01*
X132141678Y-118410152D01*
X132167822Y-118452025D01*
X132168783Y-118451604D01*
X132264075Y-118668848D01*
X132391016Y-118863147D01*
X132391019Y-118863151D01*
X132391021Y-118863153D01*
X132548216Y-119033913D01*
X132548219Y-119033915D01*
X132548222Y-119033918D01*
X132725818Y-119172147D01*
X132766631Y-119228857D01*
X132770306Y-119298630D01*
X132735674Y-119359313D01*
X132725818Y-119367853D01*
X132548222Y-119506081D01*
X132548219Y-119506084D01*
X132391016Y-119676852D01*
X132264075Y-119871151D01*
X132170842Y-120083699D01*
X132113866Y-120308691D01*
X132113864Y-120308702D01*
X132094700Y-120539993D01*
X132094700Y-120540006D01*
X132113864Y-120771297D01*
X132113866Y-120771308D01*
X132170842Y-120996300D01*
X132264075Y-121208848D01*
X132391016Y-121403147D01*
X132391019Y-121403151D01*
X132391021Y-121403153D01*
X132548216Y-121573913D01*
X132548219Y-121573915D01*
X132548222Y-121573918D01*
X132725818Y-121712147D01*
X132766631Y-121768857D01*
X132770306Y-121838630D01*
X132735674Y-121899313D01*
X132725818Y-121907853D01*
X132548222Y-122046081D01*
X132548219Y-122046084D01*
X132391016Y-122216852D01*
X132264075Y-122411151D01*
X132170842Y-122623699D01*
X132113866Y-122848691D01*
X132113864Y-122848702D01*
X132094700Y-123079993D01*
X132094700Y-123080006D01*
X132113864Y-123311297D01*
X132113866Y-123311308D01*
X132170842Y-123536300D01*
X132264075Y-123748848D01*
X132391016Y-123943147D01*
X132391019Y-123943151D01*
X132391021Y-123943153D01*
X132548216Y-124113913D01*
X132726225Y-124252462D01*
X132767038Y-124309173D01*
X132770713Y-124378946D01*
X132736082Y-124439629D01*
X132726225Y-124448170D01*
X132701201Y-124467646D01*
X132701200Y-124467647D01*
X133455600Y-125222046D01*
X133374852Y-125234835D01*
X133261955Y-125292359D01*
X133172359Y-125381955D01*
X133114835Y-125494852D01*
X133102046Y-125575600D01*
X132348811Y-124822365D01*
X132264516Y-124951390D01*
X132171317Y-125163864D01*
X132114361Y-125388781D01*
X132095202Y-125619994D01*
X132095202Y-125620005D01*
X132114361Y-125851218D01*
X132171317Y-126076135D01*
X132264515Y-126288606D01*
X132348812Y-126417633D01*
X133102046Y-125664399D01*
X133114835Y-125745148D01*
X133172359Y-125858045D01*
X133261955Y-125947641D01*
X133374852Y-126005165D01*
X133455599Y-126017953D01*
X132701201Y-126772351D01*
X132731649Y-126796050D01*
X132878176Y-126875347D01*
X132927766Y-126924567D01*
X132942874Y-126992783D01*
X132918704Y-127058339D01*
X132906839Y-127072083D01*
X123047679Y-136931243D01*
X122986356Y-136964728D01*
X122916664Y-136959744D01*
X122872317Y-136931243D01*
X110651416Y-124710342D01*
X110642149Y-124699973D01*
X110620106Y-124672332D01*
X110570203Y-124628732D01*
X110564107Y-124623033D01*
X110557132Y-124616058D01*
X110557121Y-124616048D01*
X110525855Y-124589945D01*
X110523739Y-124588138D01*
X110450603Y-124524240D01*
X110450597Y-124524236D01*
X110450596Y-124524235D01*
X110446841Y-124521991D01*
X110430973Y-124510732D01*
X110427619Y-124507932D01*
X110427618Y-124507931D01*
X110427613Y-124507927D01*
X110343148Y-124460001D01*
X110340744Y-124458601D01*
X110257363Y-124408784D01*
X110253269Y-124407248D01*
X110235644Y-124399002D01*
X110231845Y-124396846D01*
X110140169Y-124364767D01*
X110137553Y-124363819D01*
X110046629Y-124329694D01*
X110046619Y-124329691D01*
X110042323Y-124328912D01*
X110023518Y-124323949D01*
X110019384Y-124322502D01*
X110019377Y-124322501D01*
X109923448Y-124307307D01*
X109920705Y-124306841D01*
X109825150Y-124289500D01*
X109825147Y-124289500D01*
X109820772Y-124289500D01*
X109801369Y-124287972D01*
X109797060Y-124287289D01*
X109699959Y-124289469D01*
X109697177Y-124289500D01*
X104761200Y-124289500D01*
X104694161Y-124269815D01*
X104648406Y-124217011D01*
X104637200Y-124165500D01*
X104637200Y-101043885D01*
X104637980Y-101030000D01*
X104641938Y-100994873D01*
X104637480Y-100928766D01*
X104637200Y-100920425D01*
X104637200Y-100910552D01*
X104637200Y-100910545D01*
X104633538Y-100869872D01*
X104633330Y-100867216D01*
X104630199Y-100820780D01*
X104626797Y-100770293D01*
X104625728Y-100766051D01*
X104622468Y-100746869D01*
X104622077Y-100742512D01*
X104596227Y-100648850D01*
X104595531Y-100646214D01*
X104571796Y-100552017D01*
X104569989Y-100548039D01*
X104563353Y-100529734D01*
X104562192Y-100525528D01*
X104520051Y-100438020D01*
X104518872Y-100435500D01*
X104478708Y-100347077D01*
X104478707Y-100347074D01*
X104476217Y-100343480D01*
X104466425Y-100326664D01*
X104464530Y-100322729D01*
X104464527Y-100322724D01*
X104407440Y-100244150D01*
X104405862Y-100241928D01*
X104350520Y-100162046D01*
X104347429Y-100158955D01*
X104334793Y-100144161D01*
X104332221Y-100140621D01*
X104332218Y-100140618D01*
X104261999Y-100073481D01*
X104260010Y-100071536D01*
X103188479Y-99000005D01*
X110074357Y-99000005D01*
X110094890Y-99247812D01*
X110094892Y-99247824D01*
X110155936Y-99488881D01*
X110255826Y-99716606D01*
X110391833Y-99924782D01*
X110391836Y-99924785D01*
X110560256Y-100107738D01*
X110756491Y-100260474D01*
X110975190Y-100378828D01*
X111210386Y-100459571D01*
X111455665Y-100500500D01*
X111704335Y-100500500D01*
X111949614Y-100459571D01*
X112184810Y-100378828D01*
X112403509Y-100260474D01*
X112599744Y-100107738D01*
X112768164Y-99924785D01*
X112904173Y-99716607D01*
X113004063Y-99488881D01*
X113065108Y-99247821D01*
X113067617Y-99217540D01*
X113085643Y-99000005D01*
X113085643Y-98999994D01*
X113065109Y-98752187D01*
X113065107Y-98752175D01*
X113004063Y-98511118D01*
X112904173Y-98283393D01*
X112768166Y-98075217D01*
X112684048Y-97983841D01*
X112599744Y-97892262D01*
X112403509Y-97739526D01*
X112403507Y-97739525D01*
X112403506Y-97739524D01*
X112184811Y-97621172D01*
X112184802Y-97621169D01*
X111949616Y-97540429D01*
X111704335Y-97499500D01*
X111455665Y-97499500D01*
X111210383Y-97540429D01*
X110975197Y-97621169D01*
X110975188Y-97621172D01*
X110756493Y-97739524D01*
X110560257Y-97892261D01*
X110391833Y-98075217D01*
X110255826Y-98283393D01*
X110155936Y-98511118D01*
X110094892Y-98752175D01*
X110094890Y-98752187D01*
X110074357Y-98999994D01*
X110074357Y-99000005D01*
X103188479Y-99000005D01*
X102917197Y-98728723D01*
X102884672Y-98671482D01*
X102869896Y-98613132D01*
X102844063Y-98511119D01*
X102744173Y-98283393D01*
X102608166Y-98075217D01*
X102524048Y-97983841D01*
X102439744Y-97892262D01*
X102243509Y-97739526D01*
X102243507Y-97739525D01*
X102243506Y-97739524D01*
X102024811Y-97621172D01*
X102024802Y-97621169D01*
X101789616Y-97540429D01*
X101544335Y-97499500D01*
X101295665Y-97499500D01*
X101050383Y-97540429D01*
X100815197Y-97621169D01*
X100815188Y-97621172D01*
X100596493Y-97739524D01*
X100400257Y-97892261D01*
X100231833Y-98075217D01*
X100095826Y-98283393D01*
X99995936Y-98511118D01*
X99934892Y-98752175D01*
X99934890Y-98752187D01*
X99914357Y-98999994D01*
X99914357Y-99000005D01*
X99934890Y-99247812D01*
X99934892Y-99247824D01*
X99995936Y-99488881D01*
X100095826Y-99716606D01*
X100231833Y-99924782D01*
X100231836Y-99924785D01*
X100400256Y-100107738D01*
X100596491Y-100260474D01*
X100815190Y-100378828D01*
X100980270Y-100435500D01*
X101050380Y-100459569D01*
X101050385Y-100459571D01*
X101084073Y-100465192D01*
X101146959Y-100495641D01*
X101151346Y-100499820D01*
X102099881Y-101448355D01*
X102133366Y-101509678D01*
X102136200Y-101536036D01*
X102136200Y-101985739D01*
X102116515Y-102052778D01*
X102063711Y-102098533D01*
X101994553Y-102108477D01*
X101971937Y-102103020D01*
X101789616Y-102040429D01*
X101544335Y-101999500D01*
X101295665Y-101999500D01*
X101050383Y-102040429D01*
X100815197Y-102121169D01*
X100815188Y-102121172D01*
X100596493Y-102239524D01*
X100400257Y-102392261D01*
X100231833Y-102575217D01*
X100095826Y-102783393D01*
X99995936Y-103011118D01*
X99934892Y-103252175D01*
X99934890Y-103252187D01*
X99914357Y-103499994D01*
X99914357Y-103500005D01*
X99934890Y-103747812D01*
X99934892Y-103747824D01*
X99995936Y-103988881D01*
X100095826Y-104216606D01*
X100231833Y-104424782D01*
X100231836Y-104424785D01*
X100400256Y-104607738D01*
X100596491Y-104760474D01*
X100596493Y-104760475D01*
X100815182Y-104878824D01*
X100815190Y-104878828D01*
X101050386Y-104959571D01*
X101295665Y-105000500D01*
X101544335Y-105000500D01*
X101789614Y-104959571D01*
X101971938Y-104896978D01*
X102041735Y-104893829D01*
X102102157Y-104928915D01*
X102134017Y-104991097D01*
X102136200Y-105014260D01*
X102136200Y-124165500D01*
X102116515Y-124232539D01*
X102063711Y-124278294D01*
X102012200Y-124289500D01*
X94984605Y-124289500D01*
X94917566Y-124269815D01*
X94871811Y-124217011D01*
X94861867Y-124147853D01*
X94890892Y-124084297D01*
X94908439Y-124067648D01*
X94951784Y-124033913D01*
X95108979Y-123863153D01*
X95235924Y-123668849D01*
X95329157Y-123456300D01*
X95386134Y-123231305D01*
X95398671Y-123080006D01*
X95405300Y-123000006D01*
X95405300Y-122999993D01*
X95386135Y-122768702D01*
X95386133Y-122768691D01*
X95329157Y-122543699D01*
X95235924Y-122331151D01*
X95108983Y-122136852D01*
X95108980Y-122136849D01*
X95108979Y-122136847D01*
X94951784Y-121966087D01*
X94951779Y-121966083D01*
X94951777Y-121966081D01*
X94768634Y-121823535D01*
X94768628Y-121823531D01*
X94564504Y-121713064D01*
X94564495Y-121713061D01*
X94344984Y-121637702D01*
X94146875Y-121604644D01*
X94116049Y-121599500D01*
X93883951Y-121599500D01*
X93883950Y-121599500D01*
X93802881Y-121613027D01*
X93733516Y-121604644D01*
X93679695Y-121560091D01*
X93658504Y-121493512D01*
X93658478Y-121491653D01*
X93515670Y-96000000D01*
X93894592Y-96000000D01*
X93914201Y-96286680D01*
X93914201Y-96286684D01*
X93914202Y-96286686D01*
X93928097Y-96353553D01*
X93972666Y-96568034D01*
X93972667Y-96568037D01*
X94068894Y-96838793D01*
X94068893Y-96838793D01*
X94201098Y-97093935D01*
X94366812Y-97328700D01*
X94451923Y-97419831D01*
X94562947Y-97538708D01*
X94664309Y-97621172D01*
X94785853Y-97720055D01*
X95031382Y-97869365D01*
X95218237Y-97950526D01*
X95294942Y-97983844D01*
X95571642Y-98061371D01*
X95821920Y-98095771D01*
X95856321Y-98100500D01*
X95856322Y-98100500D01*
X96143679Y-98100500D01*
X96174370Y-98096281D01*
X96428358Y-98061371D01*
X96705058Y-97983844D01*
X96818015Y-97934779D01*
X96968617Y-97869365D01*
X96968620Y-97869363D01*
X96968625Y-97869361D01*
X97214147Y-97720055D01*
X97437053Y-97538708D01*
X97633189Y-97328698D01*
X97798901Y-97093936D01*
X97931104Y-96838797D01*
X98027334Y-96568032D01*
X98085798Y-96286686D01*
X98105408Y-96000000D01*
X98085798Y-95713314D01*
X98027334Y-95431968D01*
X97931105Y-95161206D01*
X97931106Y-95161206D01*
X97798901Y-94906064D01*
X97633187Y-94671299D01*
X97554554Y-94587105D01*
X97437053Y-94461292D01*
X97214147Y-94279945D01*
X97214146Y-94279944D01*
X96968617Y-94130634D01*
X96705063Y-94016158D01*
X96705061Y-94016157D01*
X96705058Y-94016156D01*
X96575578Y-93979877D01*
X96428364Y-93938630D01*
X96428359Y-93938629D01*
X96428358Y-93938629D01*
X96286018Y-93919064D01*
X96143679Y-93899500D01*
X96143678Y-93899500D01*
X95856322Y-93899500D01*
X95856321Y-93899500D01*
X95571642Y-93938629D01*
X95571635Y-93938630D01*
X95363861Y-93996845D01*
X95294942Y-94016156D01*
X95294939Y-94016156D01*
X95294936Y-94016158D01*
X95294935Y-94016158D01*
X95031382Y-94130634D01*
X94785853Y-94279944D01*
X94562950Y-94461289D01*
X94366812Y-94671299D01*
X94201098Y-94906064D01*
X94068894Y-95161206D01*
X93972667Y-95431962D01*
X93972666Y-95431965D01*
X93914201Y-95713319D01*
X93894592Y-96000000D01*
X93515670Y-96000000D01*
X93502373Y-93626535D01*
X93521681Y-93559392D01*
X93574227Y-93513342D01*
X93626539Y-93501846D01*
X176260171Y-93615943D01*
G37*
%TD.AperFunction*%
%TA.AperFunction,Conductor*%
G36*
X137099323Y-134330624D02*
G01*
X137180930Y-134334290D01*
X137198593Y-134331897D01*
X137200627Y-134331622D01*
X137217270Y-134330500D01*
X143311863Y-134330500D01*
X143378902Y-134350185D01*
X143424657Y-134402989D01*
X143434601Y-134472147D01*
X143405576Y-134535703D01*
X143399544Y-134542181D01*
X142610345Y-135331381D01*
X142549022Y-135364866D01*
X142522664Y-135367700D01*
X139853186Y-135367700D01*
X139839303Y-135366920D01*
X139829693Y-135365837D01*
X139804176Y-135362962D01*
X139804169Y-135362961D01*
X139741307Y-135367200D01*
X139738062Y-135367419D01*
X139729722Y-135367700D01*
X139719837Y-135367700D01*
X139679284Y-135371349D01*
X139676516Y-135371567D01*
X139579588Y-135378102D01*
X139579581Y-135378103D01*
X139575327Y-135379175D01*
X139556174Y-135382430D01*
X139551811Y-135382823D01*
X139551802Y-135382824D01*
X139458213Y-135408654D01*
X139455524Y-135409364D01*
X139361318Y-135433103D01*
X139357322Y-135434918D01*
X139339059Y-135441539D01*
X139334838Y-135442704D01*
X139334821Y-135442710D01*
X139247289Y-135484862D01*
X139244772Y-135486040D01*
X139156374Y-135526192D01*
X139152772Y-135528688D01*
X139135980Y-135538467D01*
X139132029Y-135540370D01*
X139132020Y-135540375D01*
X139053411Y-135597487D01*
X139051185Y-135599066D01*
X139010314Y-135627382D01*
X138971345Y-135654380D01*
X138968239Y-135657486D01*
X138953465Y-135670103D01*
X138949928Y-135672673D01*
X138949921Y-135672678D01*
X138882804Y-135742877D01*
X138880859Y-135744865D01*
X135898504Y-138727220D01*
X135869841Y-138748593D01*
X135731380Y-138823525D01*
X135731365Y-138823535D01*
X135548222Y-138966081D01*
X135548219Y-138966084D01*
X135548216Y-138966086D01*
X135548216Y-138966087D01*
X135530011Y-138985863D01*
X135391016Y-139136852D01*
X135333809Y-139224416D01*
X135280662Y-139269773D01*
X135211431Y-139279197D01*
X135148095Y-139249695D01*
X135126191Y-139224416D01*
X135068983Y-139136852D01*
X135068980Y-139136849D01*
X135068979Y-139136847D01*
X134911784Y-138966087D01*
X134911779Y-138966083D01*
X134911777Y-138966081D01*
X134728634Y-138823535D01*
X134728628Y-138823531D01*
X134524504Y-138713064D01*
X134524495Y-138713061D01*
X134304984Y-138637702D01*
X134124428Y-138607573D01*
X134076049Y-138599500D01*
X133843951Y-138599500D01*
X133798164Y-138607140D01*
X133615015Y-138637702D01*
X133395504Y-138713061D01*
X133395495Y-138713064D01*
X133191371Y-138823531D01*
X133191365Y-138823535D01*
X133008222Y-138966081D01*
X133008219Y-138966084D01*
X133008216Y-138966086D01*
X133008216Y-138966087D01*
X132890524Y-139093936D01*
X132851015Y-139136854D01*
X132793509Y-139224874D01*
X132740363Y-139270230D01*
X132671132Y-139279654D01*
X132607796Y-139250152D01*
X132585892Y-139224874D01*
X132571186Y-139202365D01*
X131817953Y-139955598D01*
X131805165Y-139874852D01*
X131747641Y-139761955D01*
X131658045Y-139672359D01*
X131545148Y-139614835D01*
X131464400Y-139602046D01*
X132218797Y-138847647D01*
X132218797Y-138847645D01*
X132188360Y-138823955D01*
X132188354Y-138823951D01*
X131984302Y-138713523D01*
X131984293Y-138713520D01*
X131764860Y-138638188D01*
X131536007Y-138600000D01*
X131303993Y-138600000D01*
X131075139Y-138638188D01*
X130855706Y-138713520D01*
X130855697Y-138713523D01*
X130651650Y-138823949D01*
X130621200Y-138847647D01*
X131375600Y-139602046D01*
X131294852Y-139614835D01*
X131181955Y-139672359D01*
X131092359Y-139761955D01*
X131034835Y-139874852D01*
X131022046Y-139955600D01*
X130268811Y-139202365D01*
X130184516Y-139331390D01*
X130091317Y-139543864D01*
X130034361Y-139768781D01*
X130015202Y-139999994D01*
X130015202Y-140000005D01*
X130030586Y-140185664D01*
X130016505Y-140254100D01*
X129967660Y-140304059D01*
X129906724Y-140319904D01*
X127253765Y-140313782D01*
X127186771Y-140293942D01*
X127141138Y-140241033D01*
X127131354Y-140171852D01*
X127160526Y-140108363D01*
X127166341Y-140102131D01*
X132901655Y-134366819D01*
X132962978Y-134333334D01*
X132989336Y-134330500D01*
X137012053Y-134330500D01*
X137093761Y-134330500D01*
X137099323Y-134330624D01*
G37*
%TD.AperFunction*%
%TA.AperFunction,Conductor*%
G36*
X108076703Y-129350185D02*
G01*
X108097345Y-129366819D01*
X117281391Y-138550865D01*
X117314876Y-138612188D01*
X117309892Y-138681880D01*
X117268020Y-138737813D01*
X117252728Y-138747601D01*
X117111650Y-138823949D01*
X117081200Y-138847647D01*
X117835599Y-139602046D01*
X117754852Y-139614835D01*
X117641955Y-139672359D01*
X117552359Y-139761955D01*
X117494835Y-139874852D01*
X117482046Y-139955600D01*
X116728811Y-139202365D01*
X116644516Y-139331390D01*
X116551317Y-139543864D01*
X116494361Y-139768781D01*
X116475202Y-139999994D01*
X116475202Y-140000005D01*
X116487997Y-140154416D01*
X116473916Y-140222852D01*
X116425071Y-140272811D01*
X116364135Y-140288656D01*
X114096229Y-140283423D01*
X114029235Y-140263583D01*
X113983602Y-140210674D01*
X113972939Y-140149183D01*
X113985300Y-140000005D01*
X113985300Y-139999993D01*
X113966135Y-139768702D01*
X113966133Y-139768691D01*
X113909157Y-139543699D01*
X113815924Y-139331151D01*
X113688983Y-139136852D01*
X113688980Y-139136849D01*
X113688979Y-139136847D01*
X113531784Y-138966087D01*
X113531779Y-138966083D01*
X113531777Y-138966081D01*
X113348634Y-138823535D01*
X113348628Y-138823531D01*
X113144504Y-138713064D01*
X113144495Y-138713061D01*
X112924984Y-138637702D01*
X112744428Y-138607573D01*
X112696049Y-138599500D01*
X112463951Y-138599500D01*
X112418164Y-138607140D01*
X112235015Y-138637702D01*
X112015504Y-138713061D01*
X112015495Y-138713064D01*
X111811371Y-138823531D01*
X111811365Y-138823535D01*
X111628222Y-138966081D01*
X111628219Y-138966084D01*
X111628216Y-138966086D01*
X111628216Y-138966087D01*
X111610011Y-138985863D01*
X111471016Y-139136852D01*
X111413809Y-139224416D01*
X111360662Y-139269773D01*
X111291431Y-139279197D01*
X111228095Y-139249695D01*
X111206191Y-139224416D01*
X111148983Y-139136852D01*
X111148980Y-139136849D01*
X111148979Y-139136847D01*
X110991784Y-138966087D01*
X110991779Y-138966083D01*
X110991777Y-138966081D01*
X110808634Y-138823535D01*
X110808628Y-138823531D01*
X110604504Y-138713064D01*
X110604495Y-138713061D01*
X110384984Y-138637702D01*
X110204428Y-138607573D01*
X110156049Y-138599500D01*
X109923951Y-138599500D01*
X109878164Y-138607140D01*
X109695015Y-138637702D01*
X109475504Y-138713061D01*
X109475495Y-138713064D01*
X109271371Y-138823531D01*
X109271365Y-138823535D01*
X109088222Y-138966081D01*
X109088219Y-138966084D01*
X109088216Y-138966086D01*
X109088216Y-138966087D01*
X109070011Y-138985863D01*
X108931016Y-139136852D01*
X108873809Y-139224416D01*
X108820662Y-139269773D01*
X108751431Y-139279197D01*
X108688095Y-139249695D01*
X108666191Y-139224416D01*
X108608983Y-139136852D01*
X108608980Y-139136849D01*
X108608979Y-139136847D01*
X108451784Y-138966087D01*
X108451779Y-138966083D01*
X108451777Y-138966081D01*
X108268634Y-138823535D01*
X108268628Y-138823531D01*
X108064504Y-138713064D01*
X108064495Y-138713061D01*
X107844984Y-138637702D01*
X107664428Y-138607573D01*
X107616049Y-138599500D01*
X107383951Y-138599500D01*
X107338164Y-138607140D01*
X107155015Y-138637702D01*
X106935504Y-138713061D01*
X106935495Y-138713064D01*
X106731371Y-138823531D01*
X106731365Y-138823535D01*
X106548222Y-138966081D01*
X106548219Y-138966084D01*
X106548216Y-138966086D01*
X106548216Y-138966087D01*
X106530011Y-138985863D01*
X106391016Y-139136852D01*
X106333809Y-139224416D01*
X106280662Y-139269773D01*
X106211431Y-139279197D01*
X106148095Y-139249695D01*
X106126191Y-139224416D01*
X106068983Y-139136852D01*
X106068980Y-139136849D01*
X106068979Y-139136847D01*
X105911784Y-138966087D01*
X105911779Y-138966083D01*
X105911777Y-138966081D01*
X105728634Y-138823535D01*
X105728628Y-138823531D01*
X105524504Y-138713064D01*
X105524495Y-138713061D01*
X105304984Y-138637702D01*
X105124428Y-138607573D01*
X105076049Y-138599500D01*
X104843951Y-138599500D01*
X104798164Y-138607140D01*
X104615015Y-138637702D01*
X104395504Y-138713061D01*
X104395495Y-138713064D01*
X104191371Y-138823531D01*
X104191365Y-138823535D01*
X104008222Y-138966081D01*
X104008219Y-138966084D01*
X104008216Y-138966086D01*
X104008216Y-138966087D01*
X103990011Y-138985863D01*
X103851016Y-139136852D01*
X103724075Y-139331151D01*
X103630842Y-139543699D01*
X103573866Y-139768691D01*
X103573864Y-139768702D01*
X103554700Y-139999993D01*
X103554700Y-139999994D01*
X103554700Y-140000000D01*
X103557834Y-140037822D01*
X103565024Y-140124599D01*
X103550942Y-140193035D01*
X103502096Y-140242994D01*
X103441161Y-140258838D01*
X96681136Y-140243241D01*
X96614142Y-140223401D01*
X96568509Y-140170492D01*
X96558725Y-140101311D01*
X96587897Y-140037822D01*
X96646762Y-140000184D01*
X96647890Y-139999861D01*
X96705058Y-139983844D01*
X96869726Y-139912319D01*
X96968617Y-139869365D01*
X96968620Y-139869363D01*
X96968625Y-139869361D01*
X97214147Y-139720055D01*
X97437053Y-139538708D01*
X97633189Y-139328698D01*
X97798901Y-139093936D01*
X97931104Y-138838797D01*
X98027334Y-138568032D01*
X98085798Y-138286686D01*
X98105408Y-138000000D01*
X98085798Y-137713314D01*
X98027334Y-137431968D01*
X97997347Y-137347594D01*
X97931105Y-137161206D01*
X97931106Y-137161206D01*
X97798901Y-136906064D01*
X97633187Y-136671299D01*
X97554554Y-136587105D01*
X97437053Y-136461292D01*
X97214147Y-136279945D01*
X97214146Y-136279944D01*
X96968617Y-136130634D01*
X96705063Y-136016158D01*
X96705061Y-136016157D01*
X96705058Y-136016156D01*
X96575578Y-135979877D01*
X96428364Y-135938630D01*
X96428359Y-135938629D01*
X96428358Y-135938629D01*
X96286018Y-135919064D01*
X96143679Y-135899500D01*
X96143678Y-135899500D01*
X95856322Y-135899500D01*
X95856321Y-135899500D01*
X95571642Y-135938629D01*
X95571635Y-135938630D01*
X95363861Y-135996845D01*
X95294942Y-136016156D01*
X95294939Y-136016156D01*
X95294936Y-136016158D01*
X95294935Y-136016158D01*
X95031382Y-136130634D01*
X94785853Y-136279944D01*
X94562950Y-136461289D01*
X94366812Y-136671299D01*
X94201098Y-136906064D01*
X94068895Y-137161204D01*
X93988142Y-137388419D01*
X93947144Y-137444995D01*
X93882066Y-137470425D01*
X93813571Y-137456634D01*
X93763405Y-137408001D01*
X93747305Y-137347594D01*
X93732374Y-134682298D01*
X93751681Y-134615158D01*
X93804227Y-134569108D01*
X93873329Y-134558777D01*
X93876743Y-134559297D01*
X93883951Y-134560500D01*
X93883954Y-134560500D01*
X94116048Y-134560500D01*
X94116049Y-134560500D01*
X94344981Y-134522298D01*
X94564503Y-134446936D01*
X94768626Y-134336470D01*
X94776297Y-134330500D01*
X94844729Y-134277237D01*
X94951784Y-134193913D01*
X95108979Y-134023153D01*
X95235924Y-133828849D01*
X95329157Y-133616300D01*
X95386134Y-133391305D01*
X95388467Y-133363153D01*
X95405300Y-133160006D01*
X95405300Y-133159993D01*
X95386135Y-132928702D01*
X95386133Y-132928691D01*
X95329157Y-132703699D01*
X95235924Y-132491151D01*
X95108983Y-132296852D01*
X95108980Y-132296849D01*
X95108979Y-132296847D01*
X94951784Y-132126087D01*
X94773773Y-131987536D01*
X94732961Y-131930826D01*
X94729286Y-131861053D01*
X94763917Y-131800370D01*
X94773772Y-131791831D01*
X94798797Y-131772352D01*
X94798798Y-131772351D01*
X94044400Y-131017953D01*
X94125148Y-131005165D01*
X94238045Y-130947641D01*
X94327641Y-130858045D01*
X94385165Y-130745148D01*
X94397953Y-130664400D01*
X95151186Y-131417633D01*
X95235482Y-131288611D01*
X95328682Y-131076135D01*
X95385638Y-130851218D01*
X95404798Y-130620005D01*
X95404798Y-130619994D01*
X95385638Y-130388781D01*
X95328682Y-130163864D01*
X95235484Y-129951393D01*
X95151186Y-129822365D01*
X94397953Y-130575598D01*
X94385165Y-130494852D01*
X94327641Y-130381955D01*
X94238045Y-130292359D01*
X94125148Y-130234835D01*
X94044400Y-130222046D01*
X94798797Y-129467647D01*
X94798458Y-129462184D01*
X94813951Y-129394054D01*
X94863818Y-129345115D01*
X94922220Y-129330500D01*
X108009664Y-129330500D01*
X108076703Y-129350185D01*
G37*
%TD.AperFunction*%
%TA.AperFunction,Conductor*%
G36*
X143019058Y-126468185D02*
G01*
X143043252Y-126488521D01*
X143048209Y-126493906D01*
X143048212Y-126493909D01*
X143048216Y-126493913D01*
X143048219Y-126493915D01*
X143048222Y-126493918D01*
X143225818Y-126632147D01*
X143266631Y-126688857D01*
X143270306Y-126758630D01*
X143235674Y-126819313D01*
X143225818Y-126827853D01*
X143048222Y-126966081D01*
X143048219Y-126966084D01*
X142891016Y-127136852D01*
X142764075Y-127331151D01*
X142670842Y-127543699D01*
X142613866Y-127768691D01*
X142613864Y-127768702D01*
X142594700Y-127999993D01*
X142594700Y-128000006D01*
X142613864Y-128231297D01*
X142613866Y-128231308D01*
X142670842Y-128456300D01*
X142764075Y-128668848D01*
X142891016Y-128863147D01*
X142891019Y-128863151D01*
X142891021Y-128863153D01*
X143048216Y-129033913D01*
X143226225Y-129172462D01*
X143267038Y-129229173D01*
X143270713Y-129298946D01*
X143236082Y-129359629D01*
X143226225Y-129368170D01*
X143201201Y-129387646D01*
X143201200Y-129387647D01*
X143955599Y-130142046D01*
X143874852Y-130154835D01*
X143761955Y-130212359D01*
X143672359Y-130301955D01*
X143614835Y-130414852D01*
X143602046Y-130495600D01*
X142848811Y-129742365D01*
X142764516Y-129871390D01*
X142671317Y-130083864D01*
X142614361Y-130308781D01*
X142595202Y-130539994D01*
X142595202Y-130540005D01*
X142614361Y-130771218D01*
X142671317Y-130996135D01*
X142764515Y-131208606D01*
X142848812Y-131337633D01*
X143602046Y-130584399D01*
X143614835Y-130665148D01*
X143672359Y-130778045D01*
X143761955Y-130867641D01*
X143874852Y-130925165D01*
X143955598Y-130937953D01*
X143201201Y-131692351D01*
X143201541Y-131697816D01*
X143186048Y-131765946D01*
X143136181Y-131814885D01*
X143077779Y-131829500D01*
X138499100Y-131829500D01*
X138432061Y-131809815D01*
X138386306Y-131757011D01*
X138375100Y-131705500D01*
X138375100Y-126843752D01*
X138375100Y-126843745D01*
X138359977Y-126675712D01*
X138347954Y-126632147D01*
X138340597Y-126605489D01*
X138341737Y-126535629D01*
X138380465Y-126477475D01*
X138444486Y-126449491D01*
X138460128Y-126448500D01*
X142952019Y-126448500D01*
X143019058Y-126468185D01*
G37*
%TD.AperFunction*%
%TA.AperFunction,Conductor*%
G36*
X135286302Y-124350185D02*
G01*
X135332057Y-124402989D01*
X135342001Y-124472147D01*
X135312976Y-124535703D01*
X135306944Y-124542181D01*
X134907571Y-124941553D01*
X134846248Y-124975038D01*
X134776556Y-124970054D01*
X134720623Y-124928182D01*
X134716081Y-124921694D01*
X134651186Y-124822365D01*
X133897953Y-125575598D01*
X133885165Y-125494852D01*
X133827641Y-125381955D01*
X133738045Y-125292359D01*
X133625148Y-125234835D01*
X133544400Y-125222046D01*
X134298797Y-124467647D01*
X134298458Y-124462184D01*
X134313951Y-124394054D01*
X134363818Y-124345115D01*
X134422220Y-124330500D01*
X135219263Y-124330500D01*
X135286302Y-124350185D01*
G37*
%TD.AperFunction*%
%TD*%
M02*
