M48
; DRILL file {KiCad 7.0.11+dfsg-1build4} date ven. 25 oct. 2024 06:38:07
; FORMAT={-:-/ absolute / inch / decimal}
; #@! TF.CreationDate,2024-10-25T06:38:07+02:00
; #@! TF.GenerationSoftware,Kicad,Pcbnew,7.0.11+dfsg-1build4
; #@! TF.FileFunction,Plated,1,2,PTH
FMAT,2
INCH
; #@! TA.AperFunction,Plated,PTH,ViaDrill
T1C0.0118
; #@! TA.AperFunction,Plated,PTH,ComponentDrill
T2C0.0300
; #@! TA.AperFunction,Plated,PTH,ComponentDrill
T3C0.0315
%
G90
G05
T1
X5.3986Y-4.9961
T2
X6.6142Y-5.0181
X6.6142Y-5.2181
T3
X3.7008Y-4.8425
X3.7008Y-4.9425
X3.7008Y-5.0425
X3.7008Y-5.1425
X3.7008Y-5.2425
X3.9929Y-3.8976
X3.9929Y-4.0748
X4.1323Y-5.5118
X4.2323Y-5.5118
X4.3323Y-5.5118
X4.3929Y-3.8976
X4.3929Y-4.0748
X4.4323Y-5.5118
X4.6409Y-5.5118
X4.6457Y-3.7795
X4.7409Y-5.5118
X4.7441Y-3.937
X4.8409Y-5.5118
X4.8425Y-3.7795
X4.9409Y-5.5118
X5.115Y-4.1142
X5.174Y-5.5118
X5.215Y-4.1142
X5.2559Y-4.6457
X5.2559Y-4.7457
X5.2559Y-4.8457
X5.2559Y-4.9457
X5.274Y-5.5118
X5.315Y-4.1142
X5.374Y-5.5118
X5.474Y-5.5118
X5.6646Y-5.5118
X5.6693Y-4.9394
X5.6693Y-5.0394
X5.6693Y-5.1394
X5.6693Y-5.2394
X6.0646Y-5.5118
X6.2583Y-5.5118
X6.3583Y-5.5118
X6.5339Y-5.5118
X6.6142Y-4.0551
X6.6142Y-4.4094
X6.6339Y-5.5118
X6.8307Y-5.1165
X6.8307Y-5.2165
M30
