%TF.GenerationSoftware,KiCad,Pcbnew,7.0.11+dfsg-1build4*%
%TF.CreationDate,2024-10-25T06:38:10+02:00*%
%TF.ProjectId,BertheVarioTac-Shema,42657274-6865-4566-9172-696f5461632d,rev?*%
%TF.SameCoordinates,Original*%
%TF.FileFunction,Legend,Top*%
%TF.FilePolarity,Positive*%
%FSLAX46Y46*%
G04 Gerber Fmt 4.6, Leading zero omitted, Abs format (unit mm)*
G04 Created by KiCad (PCBNEW 7.0.11+dfsg-1build4) date 2024-10-25 06:38:10*
%MOMM*%
%LPD*%
G01*
G04 APERTURE LIST*
%ADD10C,0.100000*%
%ADD11C,0.150000*%
%ADD12C,0.120000*%
%ADD13C,0.010000*%
G04 APERTURE END LIST*
D10*
X123372419Y-138196115D02*
X122372419Y-138196115D01*
X122372419Y-137529449D02*
X122372419Y-137338973D01*
X122372419Y-137338973D02*
X122420038Y-137243735D01*
X122420038Y-137243735D02*
X122515276Y-137148497D01*
X122515276Y-137148497D02*
X122705752Y-137100878D01*
X122705752Y-137100878D02*
X123039085Y-137100878D01*
X123039085Y-137100878D02*
X123229561Y-137148497D01*
X123229561Y-137148497D02*
X123324800Y-137243735D01*
X123324800Y-137243735D02*
X123372419Y-137338973D01*
X123372419Y-137338973D02*
X123372419Y-137529449D01*
X123372419Y-137529449D02*
X123324800Y-137624687D01*
X123324800Y-137624687D02*
X123229561Y-137719925D01*
X123229561Y-137719925D02*
X123039085Y-137767544D01*
X123039085Y-137767544D02*
X122705752Y-137767544D01*
X122705752Y-137767544D02*
X122515276Y-137719925D01*
X122515276Y-137719925D02*
X122420038Y-137624687D01*
X122420038Y-137624687D02*
X122372419Y-137529449D01*
X122467657Y-136719925D02*
X122420038Y-136672306D01*
X122420038Y-136672306D02*
X122372419Y-136577068D01*
X122372419Y-136577068D02*
X122372419Y-136338973D01*
X122372419Y-136338973D02*
X122420038Y-136243735D01*
X122420038Y-136243735D02*
X122467657Y-136196116D01*
X122467657Y-136196116D02*
X122562895Y-136148497D01*
X122562895Y-136148497D02*
X122658133Y-136148497D01*
X122658133Y-136148497D02*
X122800990Y-136196116D01*
X122800990Y-136196116D02*
X123372419Y-136767544D01*
X123372419Y-136767544D02*
X123372419Y-136148497D01*
X122372419Y-135815163D02*
X122372419Y-135148497D01*
X122372419Y-135148497D02*
X123372419Y-135577068D01*
X138372419Y-138338972D02*
X139372419Y-138005639D01*
X139372419Y-138005639D02*
X138372419Y-137672306D01*
X139372419Y-137338972D02*
X138705752Y-137338972D01*
X138372419Y-137338972D02*
X138420038Y-137386591D01*
X138420038Y-137386591D02*
X138467657Y-137338972D01*
X138467657Y-137338972D02*
X138420038Y-137291353D01*
X138420038Y-137291353D02*
X138372419Y-137338972D01*
X138372419Y-137338972D02*
X138467657Y-137338972D01*
X138705752Y-136862782D02*
X139372419Y-136862782D01*
X138800990Y-136862782D02*
X138753371Y-136815163D01*
X138753371Y-136815163D02*
X138705752Y-136719925D01*
X138705752Y-136719925D02*
X138705752Y-136577068D01*
X138705752Y-136577068D02*
X138753371Y-136481830D01*
X138753371Y-136481830D02*
X138848609Y-136434211D01*
X138848609Y-136434211D02*
X139372419Y-136434211D01*
X169303884Y-126372419D02*
X169303884Y-125372419D01*
X169303884Y-125753371D02*
X169399122Y-125705752D01*
X169399122Y-125705752D02*
X169589598Y-125705752D01*
X169589598Y-125705752D02*
X169684836Y-125753371D01*
X169684836Y-125753371D02*
X169732455Y-125800990D01*
X169732455Y-125800990D02*
X169780074Y-125896228D01*
X169780074Y-125896228D02*
X169780074Y-126181942D01*
X169780074Y-126181942D02*
X169732455Y-126277180D01*
X169732455Y-126277180D02*
X169684836Y-126324800D01*
X169684836Y-126324800D02*
X169589598Y-126372419D01*
X169589598Y-126372419D02*
X169399122Y-126372419D01*
X169399122Y-126372419D02*
X169303884Y-126324800D01*
X170637217Y-126372419D02*
X170637217Y-125848609D01*
X170637217Y-125848609D02*
X170589598Y-125753371D01*
X170589598Y-125753371D02*
X170494360Y-125705752D01*
X170494360Y-125705752D02*
X170303884Y-125705752D01*
X170303884Y-125705752D02*
X170208646Y-125753371D01*
X170637217Y-126324800D02*
X170541979Y-126372419D01*
X170541979Y-126372419D02*
X170303884Y-126372419D01*
X170303884Y-126372419D02*
X170208646Y-126324800D01*
X170208646Y-126324800D02*
X170161027Y-126229561D01*
X170161027Y-126229561D02*
X170161027Y-126134323D01*
X170161027Y-126134323D02*
X170208646Y-126039085D01*
X170208646Y-126039085D02*
X170303884Y-125991466D01*
X170303884Y-125991466D02*
X170541979Y-125991466D01*
X170541979Y-125991466D02*
X170637217Y-125943847D01*
X170970551Y-125705752D02*
X171351503Y-125705752D01*
X171113408Y-125372419D02*
X171113408Y-126229561D01*
X171113408Y-126229561D02*
X171161027Y-126324800D01*
X171161027Y-126324800D02*
X171256265Y-126372419D01*
X171256265Y-126372419D02*
X171351503Y-126372419D01*
X172446742Y-125991466D02*
X173208647Y-125991466D01*
X172827694Y-126372419D02*
X172827694Y-125610514D01*
X135872419Y-138338972D02*
X135872419Y-137767544D01*
X136872419Y-138053258D02*
X135872419Y-138053258D01*
X136872419Y-137529448D02*
X136205752Y-137005639D01*
X136205752Y-137529448D02*
X136872419Y-137005639D01*
X120872419Y-138196115D02*
X119872419Y-138196115D01*
X119872419Y-137529449D02*
X119872419Y-137338973D01*
X119872419Y-137338973D02*
X119920038Y-137243735D01*
X119920038Y-137243735D02*
X120015276Y-137148497D01*
X120015276Y-137148497D02*
X120205752Y-137100878D01*
X120205752Y-137100878D02*
X120539085Y-137100878D01*
X120539085Y-137100878D02*
X120729561Y-137148497D01*
X120729561Y-137148497D02*
X120824800Y-137243735D01*
X120824800Y-137243735D02*
X120872419Y-137338973D01*
X120872419Y-137338973D02*
X120872419Y-137529449D01*
X120872419Y-137529449D02*
X120824800Y-137624687D01*
X120824800Y-137624687D02*
X120729561Y-137719925D01*
X120729561Y-137719925D02*
X120539085Y-137767544D01*
X120539085Y-137767544D02*
X120205752Y-137767544D01*
X120205752Y-137767544D02*
X120015276Y-137719925D01*
X120015276Y-137719925D02*
X119920038Y-137624687D01*
X119920038Y-137624687D02*
X119872419Y-137529449D01*
X119967657Y-136719925D02*
X119920038Y-136672306D01*
X119920038Y-136672306D02*
X119872419Y-136577068D01*
X119872419Y-136577068D02*
X119872419Y-136338973D01*
X119872419Y-136338973D02*
X119920038Y-136243735D01*
X119920038Y-136243735D02*
X119967657Y-136196116D01*
X119967657Y-136196116D02*
X120062895Y-136148497D01*
X120062895Y-136148497D02*
X120158133Y-136148497D01*
X120158133Y-136148497D02*
X120300990Y-136196116D01*
X120300990Y-136196116D02*
X120872419Y-136767544D01*
X120872419Y-136767544D02*
X120872419Y-136148497D01*
X119967657Y-135767544D02*
X119920038Y-135719925D01*
X119920038Y-135719925D02*
X119872419Y-135624687D01*
X119872419Y-135624687D02*
X119872419Y-135386592D01*
X119872419Y-135386592D02*
X119920038Y-135291354D01*
X119920038Y-135291354D02*
X119967657Y-135243735D01*
X119967657Y-135243735D02*
X120062895Y-135196116D01*
X120062895Y-135196116D02*
X120158133Y-135196116D01*
X120158133Y-135196116D02*
X120300990Y-135243735D01*
X120300990Y-135243735D02*
X120872419Y-135815163D01*
X120872419Y-135815163D02*
X120872419Y-135196116D01*
X124872419Y-138291353D02*
X124872419Y-137672306D01*
X124872419Y-137672306D02*
X125253371Y-138005639D01*
X125253371Y-138005639D02*
X125253371Y-137862782D01*
X125253371Y-137862782D02*
X125300990Y-137767544D01*
X125300990Y-137767544D02*
X125348609Y-137719925D01*
X125348609Y-137719925D02*
X125443847Y-137672306D01*
X125443847Y-137672306D02*
X125681942Y-137672306D01*
X125681942Y-137672306D02*
X125777180Y-137719925D01*
X125777180Y-137719925D02*
X125824800Y-137767544D01*
X125824800Y-137767544D02*
X125872419Y-137862782D01*
X125872419Y-137862782D02*
X125872419Y-138148496D01*
X125872419Y-138148496D02*
X125824800Y-138243734D01*
X125824800Y-138243734D02*
X125777180Y-138291353D01*
X125777180Y-137243734D02*
X125824800Y-137196115D01*
X125824800Y-137196115D02*
X125872419Y-137243734D01*
X125872419Y-137243734D02*
X125824800Y-137291353D01*
X125824800Y-137291353D02*
X125777180Y-137243734D01*
X125777180Y-137243734D02*
X125872419Y-137243734D01*
X124872419Y-136862782D02*
X124872419Y-136243735D01*
X124872419Y-136243735D02*
X125253371Y-136577068D01*
X125253371Y-136577068D02*
X125253371Y-136434211D01*
X125253371Y-136434211D02*
X125300990Y-136338973D01*
X125300990Y-136338973D02*
X125348609Y-136291354D01*
X125348609Y-136291354D02*
X125443847Y-136243735D01*
X125443847Y-136243735D02*
X125681942Y-136243735D01*
X125681942Y-136243735D02*
X125777180Y-136291354D01*
X125777180Y-136291354D02*
X125824800Y-136338973D01*
X125824800Y-136338973D02*
X125872419Y-136434211D01*
X125872419Y-136434211D02*
X125872419Y-136719925D01*
X125872419Y-136719925D02*
X125824800Y-136815163D01*
X125824800Y-136815163D02*
X125777180Y-136862782D01*
X125205752Y-135910401D02*
X125872419Y-135672306D01*
X125872419Y-135672306D02*
X125205752Y-135434211D01*
X168303884Y-134872419D02*
X168303884Y-133872419D01*
X168303884Y-134253371D02*
X168399122Y-134205752D01*
X168399122Y-134205752D02*
X168589598Y-134205752D01*
X168589598Y-134205752D02*
X168684836Y-134253371D01*
X168684836Y-134253371D02*
X168732455Y-134300990D01*
X168732455Y-134300990D02*
X168780074Y-134396228D01*
X168780074Y-134396228D02*
X168780074Y-134681942D01*
X168780074Y-134681942D02*
X168732455Y-134777180D01*
X168732455Y-134777180D02*
X168684836Y-134824800D01*
X168684836Y-134824800D02*
X168589598Y-134872419D01*
X168589598Y-134872419D02*
X168399122Y-134872419D01*
X168399122Y-134872419D02*
X168303884Y-134824800D01*
X169637217Y-134872419D02*
X169637217Y-134348609D01*
X169637217Y-134348609D02*
X169589598Y-134253371D01*
X169589598Y-134253371D02*
X169494360Y-134205752D01*
X169494360Y-134205752D02*
X169303884Y-134205752D01*
X169303884Y-134205752D02*
X169208646Y-134253371D01*
X169637217Y-134824800D02*
X169541979Y-134872419D01*
X169541979Y-134872419D02*
X169303884Y-134872419D01*
X169303884Y-134872419D02*
X169208646Y-134824800D01*
X169208646Y-134824800D02*
X169161027Y-134729561D01*
X169161027Y-134729561D02*
X169161027Y-134634323D01*
X169161027Y-134634323D02*
X169208646Y-134539085D01*
X169208646Y-134539085D02*
X169303884Y-134491466D01*
X169303884Y-134491466D02*
X169541979Y-134491466D01*
X169541979Y-134491466D02*
X169637217Y-134443847D01*
X169970551Y-134205752D02*
X170351503Y-134205752D01*
X170113408Y-133872419D02*
X170113408Y-134729561D01*
X170113408Y-134729561D02*
X170161027Y-134824800D01*
X170161027Y-134824800D02*
X170256265Y-134872419D01*
X170256265Y-134872419D02*
X170351503Y-134872419D01*
X171446742Y-134491466D02*
X172208647Y-134491466D01*
X107872419Y-138196115D02*
X106872419Y-138196115D01*
X106872419Y-137529449D02*
X106872419Y-137338973D01*
X106872419Y-137338973D02*
X106920038Y-137243735D01*
X106920038Y-137243735D02*
X107015276Y-137148497D01*
X107015276Y-137148497D02*
X107205752Y-137100878D01*
X107205752Y-137100878D02*
X107539085Y-137100878D01*
X107539085Y-137100878D02*
X107729561Y-137148497D01*
X107729561Y-137148497D02*
X107824800Y-137243735D01*
X107824800Y-137243735D02*
X107872419Y-137338973D01*
X107872419Y-137338973D02*
X107872419Y-137529449D01*
X107872419Y-137529449D02*
X107824800Y-137624687D01*
X107824800Y-137624687D02*
X107729561Y-137719925D01*
X107729561Y-137719925D02*
X107539085Y-137767544D01*
X107539085Y-137767544D02*
X107205752Y-137767544D01*
X107205752Y-137767544D02*
X107015276Y-137719925D01*
X107015276Y-137719925D02*
X106920038Y-137624687D01*
X106920038Y-137624687D02*
X106872419Y-137529449D01*
X106872419Y-136767544D02*
X106872419Y-136148497D01*
X106872419Y-136148497D02*
X107253371Y-136481830D01*
X107253371Y-136481830D02*
X107253371Y-136338973D01*
X107253371Y-136338973D02*
X107300990Y-136243735D01*
X107300990Y-136243735D02*
X107348609Y-136196116D01*
X107348609Y-136196116D02*
X107443847Y-136148497D01*
X107443847Y-136148497D02*
X107681942Y-136148497D01*
X107681942Y-136148497D02*
X107777180Y-136196116D01*
X107777180Y-136196116D02*
X107824800Y-136243735D01*
X107824800Y-136243735D02*
X107872419Y-136338973D01*
X107872419Y-136338973D02*
X107872419Y-136624687D01*
X107872419Y-136624687D02*
X107824800Y-136719925D01*
X107824800Y-136719925D02*
X107777180Y-136767544D01*
X106872419Y-135243735D02*
X106872419Y-135719925D01*
X106872419Y-135719925D02*
X107348609Y-135767544D01*
X107348609Y-135767544D02*
X107300990Y-135719925D01*
X107300990Y-135719925D02*
X107253371Y-135624687D01*
X107253371Y-135624687D02*
X107253371Y-135386592D01*
X107253371Y-135386592D02*
X107300990Y-135291354D01*
X107300990Y-135291354D02*
X107348609Y-135243735D01*
X107348609Y-135243735D02*
X107443847Y-135196116D01*
X107443847Y-135196116D02*
X107681942Y-135196116D01*
X107681942Y-135196116D02*
X107777180Y-135243735D01*
X107777180Y-135243735D02*
X107824800Y-135291354D01*
X107824800Y-135291354D02*
X107872419Y-135386592D01*
X107872419Y-135386592D02*
X107872419Y-135624687D01*
X107872419Y-135624687D02*
X107824800Y-135719925D01*
X107824800Y-135719925D02*
X107777180Y-135767544D01*
X171909800Y-132833332D02*
X171957419Y-132690475D01*
X171957419Y-132690475D02*
X171957419Y-132452380D01*
X171957419Y-132452380D02*
X171909800Y-132357142D01*
X171909800Y-132357142D02*
X171862180Y-132309523D01*
X171862180Y-132309523D02*
X171766942Y-132261904D01*
X171766942Y-132261904D02*
X171671704Y-132261904D01*
X171671704Y-132261904D02*
X171576466Y-132309523D01*
X171576466Y-132309523D02*
X171528847Y-132357142D01*
X171528847Y-132357142D02*
X171481228Y-132452380D01*
X171481228Y-132452380D02*
X171433609Y-132642856D01*
X171433609Y-132642856D02*
X171385990Y-132738094D01*
X171385990Y-132738094D02*
X171338371Y-132785713D01*
X171338371Y-132785713D02*
X171243133Y-132833332D01*
X171243133Y-132833332D02*
X171147895Y-132833332D01*
X171147895Y-132833332D02*
X171052657Y-132785713D01*
X171052657Y-132785713D02*
X171005038Y-132738094D01*
X171005038Y-132738094D02*
X170957419Y-132642856D01*
X170957419Y-132642856D02*
X170957419Y-132404761D01*
X170957419Y-132404761D02*
X171005038Y-132261904D01*
X170957419Y-131928570D02*
X171957419Y-131690475D01*
X171957419Y-131690475D02*
X171243133Y-131499999D01*
X171243133Y-131499999D02*
X171957419Y-131309523D01*
X171957419Y-131309523D02*
X170957419Y-131071428D01*
X171957419Y-130166666D02*
X171957419Y-130738094D01*
X171957419Y-130452380D02*
X170957419Y-130452380D01*
X170957419Y-130452380D02*
X171100276Y-130547618D01*
X171100276Y-130547618D02*
X171195514Y-130642856D01*
X171195514Y-130642856D02*
X171243133Y-130738094D01*
X176342580Y-99809523D02*
X175533057Y-99809523D01*
X175533057Y-99809523D02*
X175437819Y-99857142D01*
X175437819Y-99857142D02*
X175390200Y-99904761D01*
X175390200Y-99904761D02*
X175342580Y-99999999D01*
X175342580Y-99999999D02*
X175342580Y-100190475D01*
X175342580Y-100190475D02*
X175390200Y-100285713D01*
X175390200Y-100285713D02*
X175437819Y-100333332D01*
X175437819Y-100333332D02*
X175533057Y-100380951D01*
X175533057Y-100380951D02*
X176342580Y-100380951D01*
X175390200Y-100809523D02*
X175342580Y-100904761D01*
X175342580Y-100904761D02*
X175342580Y-101095237D01*
X175342580Y-101095237D02*
X175390200Y-101190475D01*
X175390200Y-101190475D02*
X175485438Y-101238094D01*
X175485438Y-101238094D02*
X175533057Y-101238094D01*
X175533057Y-101238094D02*
X175628295Y-101190475D01*
X175628295Y-101190475D02*
X175675914Y-101095237D01*
X175675914Y-101095237D02*
X175675914Y-100952380D01*
X175675914Y-100952380D02*
X175723533Y-100857142D01*
X175723533Y-100857142D02*
X175818771Y-100809523D01*
X175818771Y-100809523D02*
X175866390Y-100809523D01*
X175866390Y-100809523D02*
X175961628Y-100857142D01*
X175961628Y-100857142D02*
X176009247Y-100952380D01*
X176009247Y-100952380D02*
X176009247Y-101095237D01*
X176009247Y-101095237D02*
X175961628Y-101190475D01*
X175342580Y-101666666D02*
X176342580Y-101666666D01*
X175961628Y-101666666D02*
X176009247Y-101761904D01*
X176009247Y-101761904D02*
X176009247Y-101952380D01*
X176009247Y-101952380D02*
X175961628Y-102047618D01*
X175961628Y-102047618D02*
X175914009Y-102095237D01*
X175914009Y-102095237D02*
X175818771Y-102142856D01*
X175818771Y-102142856D02*
X175533057Y-102142856D01*
X175533057Y-102142856D02*
X175437819Y-102095237D01*
X175437819Y-102095237D02*
X175390200Y-102047618D01*
X175390200Y-102047618D02*
X175342580Y-101952380D01*
X175342580Y-101952380D02*
X175342580Y-101761904D01*
X175342580Y-101761904D02*
X175390200Y-101666666D01*
X175723533Y-102571428D02*
X175723533Y-103333333D01*
X175437819Y-104380951D02*
X175390200Y-104333332D01*
X175390200Y-104333332D02*
X175342580Y-104190475D01*
X175342580Y-104190475D02*
X175342580Y-104095237D01*
X175342580Y-104095237D02*
X175390200Y-103952380D01*
X175390200Y-103952380D02*
X175485438Y-103857142D01*
X175485438Y-103857142D02*
X175580676Y-103809523D01*
X175580676Y-103809523D02*
X175771152Y-103761904D01*
X175771152Y-103761904D02*
X175914009Y-103761904D01*
X175914009Y-103761904D02*
X176104485Y-103809523D01*
X176104485Y-103809523D02*
X176199723Y-103857142D01*
X176199723Y-103857142D02*
X176294961Y-103952380D01*
X176294961Y-103952380D02*
X176342580Y-104095237D01*
X176342580Y-104095237D02*
X176342580Y-104190475D01*
X176342580Y-104190475D02*
X176294961Y-104333332D01*
X176294961Y-104333332D02*
X176247342Y-104380951D01*
X175723533Y-104809523D02*
X175723533Y-105571428D01*
X175390200Y-106476189D02*
X175342580Y-106380951D01*
X175342580Y-106380951D02*
X175342580Y-106190475D01*
X175342580Y-106190475D02*
X175390200Y-106095237D01*
X175390200Y-106095237D02*
X175437819Y-106047618D01*
X175437819Y-106047618D02*
X175533057Y-105999999D01*
X175533057Y-105999999D02*
X175818771Y-105999999D01*
X175818771Y-105999999D02*
X175914009Y-106047618D01*
X175914009Y-106047618D02*
X175961628Y-106095237D01*
X175961628Y-106095237D02*
X176009247Y-106190475D01*
X176009247Y-106190475D02*
X176009247Y-106380951D01*
X176009247Y-106380951D02*
X175961628Y-106476189D01*
X175342580Y-106904761D02*
X176342580Y-106904761D01*
X175342580Y-107333332D02*
X175866390Y-107333332D01*
X175866390Y-107333332D02*
X175961628Y-107285713D01*
X175961628Y-107285713D02*
X176009247Y-107190475D01*
X176009247Y-107190475D02*
X176009247Y-107047618D01*
X176009247Y-107047618D02*
X175961628Y-106952380D01*
X175961628Y-106952380D02*
X175914009Y-106904761D01*
X175342580Y-108238094D02*
X175866390Y-108238094D01*
X175866390Y-108238094D02*
X175961628Y-108190475D01*
X175961628Y-108190475D02*
X176009247Y-108095237D01*
X176009247Y-108095237D02*
X176009247Y-107904761D01*
X176009247Y-107904761D02*
X175961628Y-107809523D01*
X175390200Y-108238094D02*
X175342580Y-108142856D01*
X175342580Y-108142856D02*
X175342580Y-107904761D01*
X175342580Y-107904761D02*
X175390200Y-107809523D01*
X175390200Y-107809523D02*
X175485438Y-107761904D01*
X175485438Y-107761904D02*
X175580676Y-107761904D01*
X175580676Y-107761904D02*
X175675914Y-107809523D01*
X175675914Y-107809523D02*
X175723533Y-107904761D01*
X175723533Y-107904761D02*
X175723533Y-108142856D01*
X175723533Y-108142856D02*
X175771152Y-108238094D01*
X175342580Y-108714285D02*
X176009247Y-108714285D01*
X175818771Y-108714285D02*
X175914009Y-108761904D01*
X175914009Y-108761904D02*
X175961628Y-108809523D01*
X175961628Y-108809523D02*
X176009247Y-108904761D01*
X176009247Y-108904761D02*
X176009247Y-108999999D01*
X176009247Y-109761904D02*
X175199723Y-109761904D01*
X175199723Y-109761904D02*
X175104485Y-109714285D01*
X175104485Y-109714285D02*
X175056866Y-109666666D01*
X175056866Y-109666666D02*
X175009247Y-109571428D01*
X175009247Y-109571428D02*
X175009247Y-109428571D01*
X175009247Y-109428571D02*
X175056866Y-109333333D01*
X175390200Y-109761904D02*
X175342580Y-109666666D01*
X175342580Y-109666666D02*
X175342580Y-109476190D01*
X175342580Y-109476190D02*
X175390200Y-109380952D01*
X175390200Y-109380952D02*
X175437819Y-109333333D01*
X175437819Y-109333333D02*
X175533057Y-109285714D01*
X175533057Y-109285714D02*
X175818771Y-109285714D01*
X175818771Y-109285714D02*
X175914009Y-109333333D01*
X175914009Y-109333333D02*
X175961628Y-109380952D01*
X175961628Y-109380952D02*
X176009247Y-109476190D01*
X176009247Y-109476190D02*
X176009247Y-109666666D01*
X176009247Y-109666666D02*
X175961628Y-109761904D01*
X175390200Y-110619047D02*
X175342580Y-110523809D01*
X175342580Y-110523809D02*
X175342580Y-110333333D01*
X175342580Y-110333333D02*
X175390200Y-110238095D01*
X175390200Y-110238095D02*
X175485438Y-110190476D01*
X175485438Y-110190476D02*
X175866390Y-110190476D01*
X175866390Y-110190476D02*
X175961628Y-110238095D01*
X175961628Y-110238095D02*
X176009247Y-110333333D01*
X176009247Y-110333333D02*
X176009247Y-110523809D01*
X176009247Y-110523809D02*
X175961628Y-110619047D01*
X175961628Y-110619047D02*
X175866390Y-110666666D01*
X175866390Y-110666666D02*
X175771152Y-110666666D01*
X175771152Y-110666666D02*
X175675914Y-110190476D01*
X175342580Y-111095238D02*
X176009247Y-111095238D01*
X175818771Y-111095238D02*
X175914009Y-111142857D01*
X175914009Y-111142857D02*
X175961628Y-111190476D01*
X175961628Y-111190476D02*
X176009247Y-111285714D01*
X176009247Y-111285714D02*
X176009247Y-111380952D01*
X175342580Y-112238095D02*
X175342580Y-111666667D01*
X175342580Y-111952381D02*
X176342580Y-111952381D01*
X176342580Y-111952381D02*
X176199723Y-111857143D01*
X176199723Y-111857143D02*
X176104485Y-111761905D01*
X176104485Y-111761905D02*
X176056866Y-111666667D01*
X166451390Y-102637217D02*
X166403771Y-102780074D01*
X166403771Y-102780074D02*
X166356152Y-102827693D01*
X166356152Y-102827693D02*
X166260914Y-102875312D01*
X166260914Y-102875312D02*
X166118057Y-102875312D01*
X166118057Y-102875312D02*
X166022819Y-102827693D01*
X166022819Y-102827693D02*
X165975200Y-102780074D01*
X165975200Y-102780074D02*
X165927580Y-102684836D01*
X165927580Y-102684836D02*
X165927580Y-102303884D01*
X165927580Y-102303884D02*
X166927580Y-102303884D01*
X166927580Y-102303884D02*
X166927580Y-102637217D01*
X166927580Y-102637217D02*
X166879961Y-102732455D01*
X166879961Y-102732455D02*
X166832342Y-102780074D01*
X166832342Y-102780074D02*
X166737104Y-102827693D01*
X166737104Y-102827693D02*
X166641866Y-102827693D01*
X166641866Y-102827693D02*
X166546628Y-102780074D01*
X166546628Y-102780074D02*
X166499009Y-102732455D01*
X166499009Y-102732455D02*
X166451390Y-102637217D01*
X166451390Y-102637217D02*
X166451390Y-102303884D01*
X166308533Y-103303884D02*
X166308533Y-104065789D01*
X166308533Y-112303884D02*
X166308533Y-113065789D01*
X165927580Y-112684836D02*
X166689485Y-112684836D01*
D11*
X148793333Y-138084819D02*
X148460000Y-137608628D01*
X148221905Y-138084819D02*
X148221905Y-137084819D01*
X148221905Y-137084819D02*
X148602857Y-137084819D01*
X148602857Y-137084819D02*
X148698095Y-137132438D01*
X148698095Y-137132438D02*
X148745714Y-137180057D01*
X148745714Y-137180057D02*
X148793333Y-137275295D01*
X148793333Y-137275295D02*
X148793333Y-137418152D01*
X148793333Y-137418152D02*
X148745714Y-137513390D01*
X148745714Y-137513390D02*
X148698095Y-137561009D01*
X148698095Y-137561009D02*
X148602857Y-137608628D01*
X148602857Y-137608628D02*
X148221905Y-137608628D01*
X149745714Y-138084819D02*
X149174286Y-138084819D01*
X149460000Y-138084819D02*
X149460000Y-137084819D01*
X149460000Y-137084819D02*
X149364762Y-137227676D01*
X149364762Y-137227676D02*
X149269524Y-137322914D01*
X149269524Y-137322914D02*
X149174286Y-137370533D01*
D10*
X115309523Y-137862180D02*
X115261904Y-137909800D01*
X115261904Y-137909800D02*
X115119047Y-137957419D01*
X115119047Y-137957419D02*
X115023809Y-137957419D01*
X115023809Y-137957419D02*
X114880952Y-137909800D01*
X114880952Y-137909800D02*
X114785714Y-137814561D01*
X114785714Y-137814561D02*
X114738095Y-137719323D01*
X114738095Y-137719323D02*
X114690476Y-137528847D01*
X114690476Y-137528847D02*
X114690476Y-137385990D01*
X114690476Y-137385990D02*
X114738095Y-137195514D01*
X114738095Y-137195514D02*
X114785714Y-137100276D01*
X114785714Y-137100276D02*
X114880952Y-137005038D01*
X114880952Y-137005038D02*
X115023809Y-136957419D01*
X115023809Y-136957419D02*
X115119047Y-136957419D01*
X115119047Y-136957419D02*
X115261904Y-137005038D01*
X115261904Y-137005038D02*
X115309523Y-137052657D01*
X115738095Y-137957419D02*
X115738095Y-136957419D01*
X115738095Y-136957419D02*
X116309523Y-137957419D01*
X116309523Y-137957419D02*
X116309523Y-136957419D01*
X117309523Y-137957419D02*
X116738095Y-137957419D01*
X117023809Y-137957419D02*
X117023809Y-136957419D01*
X117023809Y-136957419D02*
X116928571Y-137100276D01*
X116928571Y-137100276D02*
X116833333Y-137195514D01*
X116833333Y-137195514D02*
X116738095Y-137243133D01*
X115880038Y-141172306D02*
X115832419Y-141267544D01*
X115832419Y-141267544D02*
X115832419Y-141410401D01*
X115832419Y-141410401D02*
X115880038Y-141553258D01*
X115880038Y-141553258D02*
X115975276Y-141648496D01*
X115975276Y-141648496D02*
X116070514Y-141696115D01*
X116070514Y-141696115D02*
X116260990Y-141743734D01*
X116260990Y-141743734D02*
X116403847Y-141743734D01*
X116403847Y-141743734D02*
X116594323Y-141696115D01*
X116594323Y-141696115D02*
X116689561Y-141648496D01*
X116689561Y-141648496D02*
X116784800Y-141553258D01*
X116784800Y-141553258D02*
X116832419Y-141410401D01*
X116832419Y-141410401D02*
X116832419Y-141315163D01*
X116832419Y-141315163D02*
X116784800Y-141172306D01*
X116784800Y-141172306D02*
X116737180Y-141124687D01*
X116737180Y-141124687D02*
X116403847Y-141124687D01*
X116403847Y-141124687D02*
X116403847Y-141315163D01*
X116832419Y-140696115D02*
X115832419Y-140696115D01*
X115832419Y-140696115D02*
X116832419Y-140124687D01*
X116832419Y-140124687D02*
X115832419Y-140124687D01*
X116832419Y-139648496D02*
X115832419Y-139648496D01*
X115832419Y-139648496D02*
X115832419Y-139410401D01*
X115832419Y-139410401D02*
X115880038Y-139267544D01*
X115880038Y-139267544D02*
X115975276Y-139172306D01*
X115975276Y-139172306D02*
X116070514Y-139124687D01*
X116070514Y-139124687D02*
X116260990Y-139077068D01*
X116260990Y-139077068D02*
X116403847Y-139077068D01*
X116403847Y-139077068D02*
X116594323Y-139124687D01*
X116594323Y-139124687D02*
X116689561Y-139172306D01*
X116689561Y-139172306D02*
X116784800Y-139267544D01*
X116784800Y-139267544D02*
X116832419Y-139410401D01*
X116832419Y-139410401D02*
X116832419Y-139648496D01*
X106333333Y-98957419D02*
X106000000Y-98481228D01*
X105761905Y-98957419D02*
X105761905Y-97957419D01*
X105761905Y-97957419D02*
X106142857Y-97957419D01*
X106142857Y-97957419D02*
X106238095Y-98005038D01*
X106238095Y-98005038D02*
X106285714Y-98052657D01*
X106285714Y-98052657D02*
X106333333Y-98147895D01*
X106333333Y-98147895D02*
X106333333Y-98290752D01*
X106333333Y-98290752D02*
X106285714Y-98385990D01*
X106285714Y-98385990D02*
X106238095Y-98433609D01*
X106238095Y-98433609D02*
X106142857Y-98481228D01*
X106142857Y-98481228D02*
X105761905Y-98481228D01*
X106714286Y-98052657D02*
X106761905Y-98005038D01*
X106761905Y-98005038D02*
X106857143Y-97957419D01*
X106857143Y-97957419D02*
X107095238Y-97957419D01*
X107095238Y-97957419D02*
X107190476Y-98005038D01*
X107190476Y-98005038D02*
X107238095Y-98052657D01*
X107238095Y-98052657D02*
X107285714Y-98147895D01*
X107285714Y-98147895D02*
X107285714Y-98243133D01*
X107285714Y-98243133D02*
X107238095Y-98385990D01*
X107238095Y-98385990D02*
X106666667Y-98957419D01*
X106666667Y-98957419D02*
X107285714Y-98957419D01*
X166738095Y-137909800D02*
X166880952Y-137957419D01*
X166880952Y-137957419D02*
X167119047Y-137957419D01*
X167119047Y-137957419D02*
X167214285Y-137909800D01*
X167214285Y-137909800D02*
X167261904Y-137862180D01*
X167261904Y-137862180D02*
X167309523Y-137766942D01*
X167309523Y-137766942D02*
X167309523Y-137671704D01*
X167309523Y-137671704D02*
X167261904Y-137576466D01*
X167261904Y-137576466D02*
X167214285Y-137528847D01*
X167214285Y-137528847D02*
X167119047Y-137481228D01*
X167119047Y-137481228D02*
X166928571Y-137433609D01*
X166928571Y-137433609D02*
X166833333Y-137385990D01*
X166833333Y-137385990D02*
X166785714Y-137338371D01*
X166785714Y-137338371D02*
X166738095Y-137243133D01*
X166738095Y-137243133D02*
X166738095Y-137147895D01*
X166738095Y-137147895D02*
X166785714Y-137052657D01*
X166785714Y-137052657D02*
X166833333Y-137005038D01*
X166833333Y-137005038D02*
X166928571Y-136957419D01*
X166928571Y-136957419D02*
X167166666Y-136957419D01*
X167166666Y-136957419D02*
X167309523Y-137005038D01*
X168261904Y-137957419D02*
X167690476Y-137957419D01*
X167976190Y-137957419D02*
X167976190Y-136957419D01*
X167976190Y-136957419D02*
X167880952Y-137100276D01*
X167880952Y-137100276D02*
X167785714Y-137195514D01*
X167785714Y-137195514D02*
X167690476Y-137243133D01*
X159761905Y-137957419D02*
X159761905Y-136957419D01*
X159761905Y-136957419D02*
X160142857Y-136957419D01*
X160142857Y-136957419D02*
X160238095Y-137005038D01*
X160238095Y-137005038D02*
X160285714Y-137052657D01*
X160285714Y-137052657D02*
X160333333Y-137147895D01*
X160333333Y-137147895D02*
X160333333Y-137290752D01*
X160333333Y-137290752D02*
X160285714Y-137385990D01*
X160285714Y-137385990D02*
X160238095Y-137433609D01*
X160238095Y-137433609D02*
X160142857Y-137481228D01*
X160142857Y-137481228D02*
X159761905Y-137481228D01*
X161190476Y-137290752D02*
X161190476Y-137957419D01*
X160952381Y-136909800D02*
X160714286Y-137624085D01*
X160714286Y-137624085D02*
X161333333Y-137624085D01*
X119041038Y-126167142D02*
X118993419Y-126262380D01*
X118993419Y-126262380D02*
X118993419Y-126405237D01*
X118993419Y-126405237D02*
X119041038Y-126548094D01*
X119041038Y-126548094D02*
X119136276Y-126643332D01*
X119136276Y-126643332D02*
X119231514Y-126690951D01*
X119231514Y-126690951D02*
X119421990Y-126738570D01*
X119421990Y-126738570D02*
X119564847Y-126738570D01*
X119564847Y-126738570D02*
X119755323Y-126690951D01*
X119755323Y-126690951D02*
X119850561Y-126643332D01*
X119850561Y-126643332D02*
X119945800Y-126548094D01*
X119945800Y-126548094D02*
X119993419Y-126405237D01*
X119993419Y-126405237D02*
X119993419Y-126309999D01*
X119993419Y-126309999D02*
X119945800Y-126167142D01*
X119945800Y-126167142D02*
X119898180Y-126119523D01*
X119898180Y-126119523D02*
X119564847Y-126119523D01*
X119564847Y-126119523D02*
X119564847Y-126309999D01*
X119993419Y-125690951D02*
X118993419Y-125690951D01*
X118993419Y-125690951D02*
X118993419Y-125309999D01*
X118993419Y-125309999D02*
X119041038Y-125214761D01*
X119041038Y-125214761D02*
X119088657Y-125167142D01*
X119088657Y-125167142D02*
X119183895Y-125119523D01*
X119183895Y-125119523D02*
X119326752Y-125119523D01*
X119326752Y-125119523D02*
X119421990Y-125167142D01*
X119421990Y-125167142D02*
X119469609Y-125214761D01*
X119469609Y-125214761D02*
X119517228Y-125309999D01*
X119517228Y-125309999D02*
X119517228Y-125690951D01*
X119945800Y-124738570D02*
X119993419Y-124595713D01*
X119993419Y-124595713D02*
X119993419Y-124357618D01*
X119993419Y-124357618D02*
X119945800Y-124262380D01*
X119945800Y-124262380D02*
X119898180Y-124214761D01*
X119898180Y-124214761D02*
X119802942Y-124167142D01*
X119802942Y-124167142D02*
X119707704Y-124167142D01*
X119707704Y-124167142D02*
X119612466Y-124214761D01*
X119612466Y-124214761D02*
X119564847Y-124262380D01*
X119564847Y-124262380D02*
X119517228Y-124357618D01*
X119517228Y-124357618D02*
X119469609Y-124548094D01*
X119469609Y-124548094D02*
X119421990Y-124643332D01*
X119421990Y-124643332D02*
X119374371Y-124690951D01*
X119374371Y-124690951D02*
X119279133Y-124738570D01*
X119279133Y-124738570D02*
X119183895Y-124738570D01*
X119183895Y-124738570D02*
X119088657Y-124690951D01*
X119088657Y-124690951D02*
X119041038Y-124643332D01*
X119041038Y-124643332D02*
X118993419Y-124548094D01*
X118993419Y-124548094D02*
X118993419Y-124309999D01*
X118993419Y-124309999D02*
X119041038Y-124167142D01*
X119612466Y-123738570D02*
X119612466Y-122976666D01*
X119993419Y-122500475D02*
X118993419Y-122500475D01*
X118993419Y-122500475D02*
X119993419Y-121929047D01*
X119993419Y-121929047D02*
X118993419Y-121929047D01*
X119469609Y-121452856D02*
X119469609Y-121119523D01*
X119993419Y-120976666D02*
X119993419Y-121452856D01*
X119993419Y-121452856D02*
X118993419Y-121452856D01*
X118993419Y-121452856D02*
X118993419Y-120976666D01*
X118993419Y-120357618D02*
X118993419Y-120167142D01*
X118993419Y-120167142D02*
X119041038Y-120071904D01*
X119041038Y-120071904D02*
X119136276Y-119976666D01*
X119136276Y-119976666D02*
X119326752Y-119929047D01*
X119326752Y-119929047D02*
X119660085Y-119929047D01*
X119660085Y-119929047D02*
X119850561Y-119976666D01*
X119850561Y-119976666D02*
X119945800Y-120071904D01*
X119945800Y-120071904D02*
X119993419Y-120167142D01*
X119993419Y-120167142D02*
X119993419Y-120357618D01*
X119993419Y-120357618D02*
X119945800Y-120452856D01*
X119945800Y-120452856D02*
X119850561Y-120548094D01*
X119850561Y-120548094D02*
X119660085Y-120595713D01*
X119660085Y-120595713D02*
X119326752Y-120595713D01*
X119326752Y-120595713D02*
X119136276Y-120548094D01*
X119136276Y-120548094D02*
X119041038Y-120452856D01*
X119041038Y-120452856D02*
X118993419Y-120357618D01*
X118993419Y-119071904D02*
X118993419Y-119262380D01*
X118993419Y-119262380D02*
X119041038Y-119357618D01*
X119041038Y-119357618D02*
X119088657Y-119405237D01*
X119088657Y-119405237D02*
X119231514Y-119500475D01*
X119231514Y-119500475D02*
X119421990Y-119548094D01*
X119421990Y-119548094D02*
X119802942Y-119548094D01*
X119802942Y-119548094D02*
X119898180Y-119500475D01*
X119898180Y-119500475D02*
X119945800Y-119452856D01*
X119945800Y-119452856D02*
X119993419Y-119357618D01*
X119993419Y-119357618D02*
X119993419Y-119167142D01*
X119993419Y-119167142D02*
X119945800Y-119071904D01*
X119945800Y-119071904D02*
X119898180Y-119024285D01*
X119898180Y-119024285D02*
X119802942Y-118976666D01*
X119802942Y-118976666D02*
X119564847Y-118976666D01*
X119564847Y-118976666D02*
X119469609Y-119024285D01*
X119469609Y-119024285D02*
X119421990Y-119071904D01*
X119421990Y-119071904D02*
X119374371Y-119167142D01*
X119374371Y-119167142D02*
X119374371Y-119357618D01*
X119374371Y-119357618D02*
X119421990Y-119452856D01*
X119421990Y-119452856D02*
X119469609Y-119500475D01*
X119469609Y-119500475D02*
X119564847Y-119548094D01*
X119993419Y-118548094D02*
X118993419Y-118548094D01*
X118993419Y-118548094D02*
X119707704Y-118214761D01*
X119707704Y-118214761D02*
X118993419Y-117881428D01*
X118993419Y-117881428D02*
X119993419Y-117881428D01*
X119993419Y-116881428D02*
X119993419Y-117452856D01*
X119993419Y-117167142D02*
X118993419Y-117167142D01*
X118993419Y-117167142D02*
X119136276Y-117262380D01*
X119136276Y-117262380D02*
X119231514Y-117357618D01*
X119231514Y-117357618D02*
X119279133Y-117452856D01*
X135408419Y-123648972D02*
X135408419Y-123077544D01*
X136408419Y-123363258D02*
X135408419Y-123363258D01*
X136408419Y-122839448D02*
X135741752Y-122315639D01*
X135741752Y-122839448D02*
X136408419Y-122315639D01*
X135456038Y-126982306D02*
X135408419Y-127077544D01*
X135408419Y-127077544D02*
X135408419Y-127220401D01*
X135408419Y-127220401D02*
X135456038Y-127363258D01*
X135456038Y-127363258D02*
X135551276Y-127458496D01*
X135551276Y-127458496D02*
X135646514Y-127506115D01*
X135646514Y-127506115D02*
X135836990Y-127553734D01*
X135836990Y-127553734D02*
X135979847Y-127553734D01*
X135979847Y-127553734D02*
X136170323Y-127506115D01*
X136170323Y-127506115D02*
X136265561Y-127458496D01*
X136265561Y-127458496D02*
X136360800Y-127363258D01*
X136360800Y-127363258D02*
X136408419Y-127220401D01*
X136408419Y-127220401D02*
X136408419Y-127125163D01*
X136408419Y-127125163D02*
X136360800Y-126982306D01*
X136360800Y-126982306D02*
X136313180Y-126934687D01*
X136313180Y-126934687D02*
X135979847Y-126934687D01*
X135979847Y-126934687D02*
X135979847Y-127125163D01*
X136408419Y-126506115D02*
X135408419Y-126506115D01*
X135408419Y-126506115D02*
X136408419Y-125934687D01*
X136408419Y-125934687D02*
X135408419Y-125934687D01*
X136408419Y-125458496D02*
X135408419Y-125458496D01*
X135408419Y-125458496D02*
X135408419Y-125220401D01*
X135408419Y-125220401D02*
X135456038Y-125077544D01*
X135456038Y-125077544D02*
X135551276Y-124982306D01*
X135551276Y-124982306D02*
X135646514Y-124934687D01*
X135646514Y-124934687D02*
X135836990Y-124887068D01*
X135836990Y-124887068D02*
X135979847Y-124887068D01*
X135979847Y-124887068D02*
X136170323Y-124934687D01*
X136170323Y-124934687D02*
X136265561Y-124982306D01*
X136265561Y-124982306D02*
X136360800Y-125077544D01*
X136360800Y-125077544D02*
X136408419Y-125220401D01*
X136408419Y-125220401D02*
X136408419Y-125458496D01*
X135908419Y-118148972D02*
X136908419Y-117815639D01*
X136908419Y-117815639D02*
X135908419Y-117482306D01*
X136813180Y-116577544D02*
X136860800Y-116625163D01*
X136860800Y-116625163D02*
X136908419Y-116768020D01*
X136908419Y-116768020D02*
X136908419Y-116863258D01*
X136908419Y-116863258D02*
X136860800Y-117006115D01*
X136860800Y-117006115D02*
X136765561Y-117101353D01*
X136765561Y-117101353D02*
X136670323Y-117148972D01*
X136670323Y-117148972D02*
X136479847Y-117196591D01*
X136479847Y-117196591D02*
X136336990Y-117196591D01*
X136336990Y-117196591D02*
X136146514Y-117148972D01*
X136146514Y-117148972D02*
X136051276Y-117101353D01*
X136051276Y-117101353D02*
X135956038Y-117006115D01*
X135956038Y-117006115D02*
X135908419Y-116863258D01*
X135908419Y-116863258D02*
X135908419Y-116768020D01*
X135908419Y-116768020D02*
X135956038Y-116625163D01*
X135956038Y-116625163D02*
X136003657Y-116577544D01*
X136813180Y-115577544D02*
X136860800Y-115625163D01*
X136860800Y-115625163D02*
X136908419Y-115768020D01*
X136908419Y-115768020D02*
X136908419Y-115863258D01*
X136908419Y-115863258D02*
X136860800Y-116006115D01*
X136860800Y-116006115D02*
X136765561Y-116101353D01*
X136765561Y-116101353D02*
X136670323Y-116148972D01*
X136670323Y-116148972D02*
X136479847Y-116196591D01*
X136479847Y-116196591D02*
X136336990Y-116196591D01*
X136336990Y-116196591D02*
X136146514Y-116148972D01*
X136146514Y-116148972D02*
X136051276Y-116101353D01*
X136051276Y-116101353D02*
X135956038Y-116006115D01*
X135956038Y-116006115D02*
X135908419Y-115863258D01*
X135908419Y-115863258D02*
X135908419Y-115768020D01*
X135908419Y-115768020D02*
X135956038Y-115625163D01*
X135956038Y-115625163D02*
X136003657Y-115577544D01*
X106333333Y-103457419D02*
X106000000Y-102981228D01*
X105761905Y-103457419D02*
X105761905Y-102457419D01*
X105761905Y-102457419D02*
X106142857Y-102457419D01*
X106142857Y-102457419D02*
X106238095Y-102505038D01*
X106238095Y-102505038D02*
X106285714Y-102552657D01*
X106285714Y-102552657D02*
X106333333Y-102647895D01*
X106333333Y-102647895D02*
X106333333Y-102790752D01*
X106333333Y-102790752D02*
X106285714Y-102885990D01*
X106285714Y-102885990D02*
X106238095Y-102933609D01*
X106238095Y-102933609D02*
X106142857Y-102981228D01*
X106142857Y-102981228D02*
X105761905Y-102981228D01*
X106666667Y-102457419D02*
X107285714Y-102457419D01*
X107285714Y-102457419D02*
X106952381Y-102838371D01*
X106952381Y-102838371D02*
X107095238Y-102838371D01*
X107095238Y-102838371D02*
X107190476Y-102885990D01*
X107190476Y-102885990D02*
X107238095Y-102933609D01*
X107238095Y-102933609D02*
X107285714Y-103028847D01*
X107285714Y-103028847D02*
X107285714Y-103266942D01*
X107285714Y-103266942D02*
X107238095Y-103362180D01*
X107238095Y-103362180D02*
X107190476Y-103409800D01*
X107190476Y-103409800D02*
X107095238Y-103457419D01*
X107095238Y-103457419D02*
X106809524Y-103457419D01*
X106809524Y-103457419D02*
X106714286Y-103409800D01*
X106714286Y-103409800D02*
X106666667Y-103362180D01*
X126698095Y-98457419D02*
X126221905Y-98457419D01*
X126221905Y-98457419D02*
X126221905Y-97457419D01*
X127031429Y-98457419D02*
X127031429Y-97790752D01*
X127031429Y-97457419D02*
X126983810Y-97505038D01*
X126983810Y-97505038D02*
X127031429Y-97552657D01*
X127031429Y-97552657D02*
X127079048Y-97505038D01*
X127079048Y-97505038D02*
X127031429Y-97457419D01*
X127031429Y-97457419D02*
X127031429Y-97552657D01*
X127507619Y-97790752D02*
X127507619Y-98790752D01*
X127507619Y-97838371D02*
X127602857Y-97790752D01*
X127602857Y-97790752D02*
X127793333Y-97790752D01*
X127793333Y-97790752D02*
X127888571Y-97838371D01*
X127888571Y-97838371D02*
X127936190Y-97885990D01*
X127936190Y-97885990D02*
X127983809Y-97981228D01*
X127983809Y-97981228D02*
X127983809Y-98266942D01*
X127983809Y-98266942D02*
X127936190Y-98362180D01*
X127936190Y-98362180D02*
X127888571Y-98409800D01*
X127888571Y-98409800D02*
X127793333Y-98457419D01*
X127793333Y-98457419D02*
X127602857Y-98457419D01*
X127602857Y-98457419D02*
X127507619Y-98409800D01*
X128555238Y-98457419D02*
X128460000Y-98409800D01*
X128460000Y-98409800D02*
X128412381Y-98362180D01*
X128412381Y-98362180D02*
X128364762Y-98266942D01*
X128364762Y-98266942D02*
X128364762Y-97981228D01*
X128364762Y-97981228D02*
X128412381Y-97885990D01*
X128412381Y-97885990D02*
X128460000Y-97838371D01*
X128460000Y-97838371D02*
X128555238Y-97790752D01*
X128555238Y-97790752D02*
X128698095Y-97790752D01*
X128698095Y-97790752D02*
X128793333Y-97838371D01*
X128793333Y-97838371D02*
X128840952Y-97885990D01*
X128840952Y-97885990D02*
X128888571Y-97981228D01*
X128888571Y-97981228D02*
X128888571Y-98266942D01*
X128888571Y-98266942D02*
X128840952Y-98362180D01*
X128840952Y-98362180D02*
X128793333Y-98409800D01*
X128793333Y-98409800D02*
X128698095Y-98457419D01*
X128698095Y-98457419D02*
X128555238Y-98457419D01*
X129317143Y-98076466D02*
X130079048Y-98076466D01*
X131079047Y-98457419D02*
X130507619Y-98457419D01*
X130793333Y-98457419D02*
X130793333Y-97457419D01*
X130793333Y-97457419D02*
X130698095Y-97600276D01*
X130698095Y-97600276D02*
X130602857Y-97695514D01*
X130602857Y-97695514D02*
X130507619Y-97743133D01*
X131460000Y-98409800D02*
X131602857Y-98457419D01*
X131602857Y-98457419D02*
X131840952Y-98457419D01*
X131840952Y-98457419D02*
X131936190Y-98409800D01*
X131936190Y-98409800D02*
X131983809Y-98362180D01*
X131983809Y-98362180D02*
X132031428Y-98266942D01*
X132031428Y-98266942D02*
X132031428Y-98171704D01*
X132031428Y-98171704D02*
X131983809Y-98076466D01*
X131983809Y-98076466D02*
X131936190Y-98028847D01*
X131936190Y-98028847D02*
X131840952Y-97981228D01*
X131840952Y-97981228D02*
X131650476Y-97933609D01*
X131650476Y-97933609D02*
X131555238Y-97885990D01*
X131555238Y-97885990D02*
X131507619Y-97838371D01*
X131507619Y-97838371D02*
X131460000Y-97743133D01*
X131460000Y-97743133D02*
X131460000Y-97647895D01*
X131460000Y-97647895D02*
X131507619Y-97552657D01*
X131507619Y-97552657D02*
X131555238Y-97505038D01*
X131555238Y-97505038D02*
X131650476Y-97457419D01*
X131650476Y-97457419D02*
X131888571Y-97457419D01*
X131888571Y-97457419D02*
X132031428Y-97505038D01*
X132460000Y-98076466D02*
X133221905Y-98076466D01*
X133555238Y-97790752D02*
X133936190Y-97790752D01*
X133698095Y-97457419D02*
X133698095Y-98314561D01*
X133698095Y-98314561D02*
X133745714Y-98409800D01*
X133745714Y-98409800D02*
X133840952Y-98457419D01*
X133840952Y-98457419D02*
X133936190Y-98457419D01*
X134412381Y-98457419D02*
X134317143Y-98409800D01*
X134317143Y-98409800D02*
X134269524Y-98362180D01*
X134269524Y-98362180D02*
X134221905Y-98266942D01*
X134221905Y-98266942D02*
X134221905Y-97981228D01*
X134221905Y-97981228D02*
X134269524Y-97885990D01*
X134269524Y-97885990D02*
X134317143Y-97838371D01*
X134317143Y-97838371D02*
X134412381Y-97790752D01*
X134412381Y-97790752D02*
X134555238Y-97790752D01*
X134555238Y-97790752D02*
X134650476Y-97838371D01*
X134650476Y-97838371D02*
X134698095Y-97885990D01*
X134698095Y-97885990D02*
X134745714Y-97981228D01*
X134745714Y-97981228D02*
X134745714Y-98266942D01*
X134745714Y-98266942D02*
X134698095Y-98362180D01*
X134698095Y-98362180D02*
X134650476Y-98409800D01*
X134650476Y-98409800D02*
X134555238Y-98457419D01*
X134555238Y-98457419D02*
X134412381Y-98457419D01*
X135174286Y-98076466D02*
X135936191Y-98076466D01*
X136888571Y-97457419D02*
X136412381Y-97457419D01*
X136412381Y-97457419D02*
X136364762Y-97933609D01*
X136364762Y-97933609D02*
X136412381Y-97885990D01*
X136412381Y-97885990D02*
X136507619Y-97838371D01*
X136507619Y-97838371D02*
X136745714Y-97838371D01*
X136745714Y-97838371D02*
X136840952Y-97885990D01*
X136840952Y-97885990D02*
X136888571Y-97933609D01*
X136888571Y-97933609D02*
X136936190Y-98028847D01*
X136936190Y-98028847D02*
X136936190Y-98266942D01*
X136936190Y-98266942D02*
X136888571Y-98362180D01*
X136888571Y-98362180D02*
X136840952Y-98409800D01*
X136840952Y-98409800D02*
X136745714Y-98457419D01*
X136745714Y-98457419D02*
X136507619Y-98457419D01*
X136507619Y-98457419D02*
X136412381Y-98409800D01*
X136412381Y-98409800D02*
X136364762Y-98362180D01*
X137221905Y-97457419D02*
X137555238Y-98457419D01*
X137555238Y-98457419D02*
X137888571Y-97457419D01*
X138745714Y-98457419D02*
X138174286Y-98457419D01*
X138460000Y-98457419D02*
X138460000Y-97457419D01*
X138460000Y-97457419D02*
X138364762Y-97600276D01*
X138364762Y-97600276D02*
X138269524Y-97695514D01*
X138269524Y-97695514D02*
X138174286Y-97743133D01*
X129287693Y-105920038D02*
X129192455Y-105872419D01*
X129192455Y-105872419D02*
X129049598Y-105872419D01*
X129049598Y-105872419D02*
X128906741Y-105920038D01*
X128906741Y-105920038D02*
X128811503Y-106015276D01*
X128811503Y-106015276D02*
X128763884Y-106110514D01*
X128763884Y-106110514D02*
X128716265Y-106300990D01*
X128716265Y-106300990D02*
X128716265Y-106443847D01*
X128716265Y-106443847D02*
X128763884Y-106634323D01*
X128763884Y-106634323D02*
X128811503Y-106729561D01*
X128811503Y-106729561D02*
X128906741Y-106824800D01*
X128906741Y-106824800D02*
X129049598Y-106872419D01*
X129049598Y-106872419D02*
X129144836Y-106872419D01*
X129144836Y-106872419D02*
X129287693Y-106824800D01*
X129287693Y-106824800D02*
X129335312Y-106777180D01*
X129335312Y-106777180D02*
X129335312Y-106443847D01*
X129335312Y-106443847D02*
X129144836Y-106443847D01*
X129763884Y-106872419D02*
X129763884Y-105872419D01*
X129763884Y-105872419D02*
X130335312Y-106872419D01*
X130335312Y-106872419D02*
X130335312Y-105872419D01*
X130811503Y-106872419D02*
X130811503Y-105872419D01*
X130811503Y-105872419D02*
X131049598Y-105872419D01*
X131049598Y-105872419D02*
X131192455Y-105920038D01*
X131192455Y-105920038D02*
X131287693Y-106015276D01*
X131287693Y-106015276D02*
X131335312Y-106110514D01*
X131335312Y-106110514D02*
X131382931Y-106300990D01*
X131382931Y-106300990D02*
X131382931Y-106443847D01*
X131382931Y-106443847D02*
X131335312Y-106634323D01*
X131335312Y-106634323D02*
X131287693Y-106729561D01*
X131287693Y-106729561D02*
X131192455Y-106824800D01*
X131192455Y-106824800D02*
X131049598Y-106872419D01*
X131049598Y-106872419D02*
X130811503Y-106872419D01*
X132287693Y-106872419D02*
X131716265Y-106872419D01*
X132001979Y-106872419D02*
X132001979Y-105872419D01*
X132001979Y-105872419D02*
X131906741Y-106015276D01*
X131906741Y-106015276D02*
X131811503Y-106110514D01*
X131811503Y-106110514D02*
X131716265Y-106158133D01*
X132668646Y-106824800D02*
X132811503Y-106872419D01*
X132811503Y-106872419D02*
X133049598Y-106872419D01*
X133049598Y-106872419D02*
X133144836Y-106824800D01*
X133144836Y-106824800D02*
X133192455Y-106777180D01*
X133192455Y-106777180D02*
X133240074Y-106681942D01*
X133240074Y-106681942D02*
X133240074Y-106586704D01*
X133240074Y-106586704D02*
X133192455Y-106491466D01*
X133192455Y-106491466D02*
X133144836Y-106443847D01*
X133144836Y-106443847D02*
X133049598Y-106396228D01*
X133049598Y-106396228D02*
X132859122Y-106348609D01*
X132859122Y-106348609D02*
X132763884Y-106300990D01*
X132763884Y-106300990D02*
X132716265Y-106253371D01*
X132716265Y-106253371D02*
X132668646Y-106158133D01*
X132668646Y-106158133D02*
X132668646Y-106062895D01*
X132668646Y-106062895D02*
X132716265Y-105967657D01*
X132716265Y-105967657D02*
X132763884Y-105920038D01*
X132763884Y-105920038D02*
X132859122Y-105872419D01*
X132859122Y-105872419D02*
X133097217Y-105872419D01*
X133097217Y-105872419D02*
X133240074Y-105920038D01*
X135240074Y-105872419D02*
X134763884Y-105872419D01*
X134763884Y-105872419D02*
X134716265Y-106348609D01*
X134716265Y-106348609D02*
X134763884Y-106300990D01*
X134763884Y-106300990D02*
X134859122Y-106253371D01*
X134859122Y-106253371D02*
X135097217Y-106253371D01*
X135097217Y-106253371D02*
X135192455Y-106300990D01*
X135192455Y-106300990D02*
X135240074Y-106348609D01*
X135240074Y-106348609D02*
X135287693Y-106443847D01*
X135287693Y-106443847D02*
X135287693Y-106681942D01*
X135287693Y-106681942D02*
X135240074Y-106777180D01*
X135240074Y-106777180D02*
X135192455Y-106824800D01*
X135192455Y-106824800D02*
X135097217Y-106872419D01*
X135097217Y-106872419D02*
X134859122Y-106872419D01*
X134859122Y-106872419D02*
X134763884Y-106824800D01*
X134763884Y-106824800D02*
X134716265Y-106777180D01*
X135573408Y-105872419D02*
X135906741Y-106872419D01*
X135906741Y-106872419D02*
X136240074Y-105872419D01*
X93632657Y-119968571D02*
X93585038Y-120063809D01*
X93585038Y-120063809D02*
X93489800Y-120159047D01*
X93489800Y-120159047D02*
X93346942Y-120301904D01*
X93346942Y-120301904D02*
X93299323Y-120397142D01*
X93299323Y-120397142D02*
X93299323Y-120492380D01*
X93537419Y-120444761D02*
X93489800Y-120539999D01*
X93489800Y-120539999D02*
X93394561Y-120635237D01*
X93394561Y-120635237D02*
X93204085Y-120682856D01*
X93204085Y-120682856D02*
X92870752Y-120682856D01*
X92870752Y-120682856D02*
X92680276Y-120635237D01*
X92680276Y-120635237D02*
X92585038Y-120539999D01*
X92585038Y-120539999D02*
X92537419Y-120444761D01*
X92537419Y-120444761D02*
X92537419Y-120254285D01*
X92537419Y-120254285D02*
X92585038Y-120159047D01*
X92585038Y-120159047D02*
X92680276Y-120063809D01*
X92680276Y-120063809D02*
X92870752Y-120016190D01*
X92870752Y-120016190D02*
X93204085Y-120016190D01*
X93204085Y-120016190D02*
X93394561Y-120063809D01*
X93394561Y-120063809D02*
X93489800Y-120159047D01*
X93489800Y-120159047D02*
X93537419Y-120254285D01*
X93537419Y-120254285D02*
X93537419Y-120444761D01*
X93537419Y-119587618D02*
X92537419Y-119587618D01*
X92537419Y-119587618D02*
X93251704Y-119254285D01*
X93251704Y-119254285D02*
X92537419Y-118920952D01*
X92537419Y-118920952D02*
X93537419Y-118920952D01*
X93442180Y-117873333D02*
X93489800Y-117920952D01*
X93489800Y-117920952D02*
X93537419Y-118063809D01*
X93537419Y-118063809D02*
X93537419Y-118159047D01*
X93537419Y-118159047D02*
X93489800Y-118301904D01*
X93489800Y-118301904D02*
X93394561Y-118397142D01*
X93394561Y-118397142D02*
X93299323Y-118444761D01*
X93299323Y-118444761D02*
X93108847Y-118492380D01*
X93108847Y-118492380D02*
X92965990Y-118492380D01*
X92965990Y-118492380D02*
X92775514Y-118444761D01*
X92775514Y-118444761D02*
X92680276Y-118397142D01*
X92680276Y-118397142D02*
X92585038Y-118301904D01*
X92585038Y-118301904D02*
X92537419Y-118159047D01*
X92537419Y-118159047D02*
X92537419Y-118063809D01*
X92537419Y-118063809D02*
X92585038Y-117920952D01*
X92585038Y-117920952D02*
X92632657Y-117873333D01*
X92537419Y-116968571D02*
X92537419Y-117444761D01*
X92537419Y-117444761D02*
X93013609Y-117492380D01*
X93013609Y-117492380D02*
X92965990Y-117444761D01*
X92965990Y-117444761D02*
X92918371Y-117349523D01*
X92918371Y-117349523D02*
X92918371Y-117111428D01*
X92918371Y-117111428D02*
X92965990Y-117016190D01*
X92965990Y-117016190D02*
X93013609Y-116968571D01*
X93013609Y-116968571D02*
X93108847Y-116920952D01*
X93108847Y-116920952D02*
X93346942Y-116920952D01*
X93346942Y-116920952D02*
X93442180Y-116968571D01*
X93442180Y-116968571D02*
X93489800Y-117016190D01*
X93489800Y-117016190D02*
X93537419Y-117111428D01*
X93537419Y-117111428D02*
X93537419Y-117349523D01*
X93537419Y-117349523D02*
X93489800Y-117444761D01*
X93489800Y-117444761D02*
X93442180Y-117492380D01*
X92965990Y-116349523D02*
X92918371Y-116444761D01*
X92918371Y-116444761D02*
X92870752Y-116492380D01*
X92870752Y-116492380D02*
X92775514Y-116539999D01*
X92775514Y-116539999D02*
X92727895Y-116539999D01*
X92727895Y-116539999D02*
X92632657Y-116492380D01*
X92632657Y-116492380D02*
X92585038Y-116444761D01*
X92585038Y-116444761D02*
X92537419Y-116349523D01*
X92537419Y-116349523D02*
X92537419Y-116159047D01*
X92537419Y-116159047D02*
X92585038Y-116063809D01*
X92585038Y-116063809D02*
X92632657Y-116016190D01*
X92632657Y-116016190D02*
X92727895Y-115968571D01*
X92727895Y-115968571D02*
X92775514Y-115968571D01*
X92775514Y-115968571D02*
X92870752Y-116016190D01*
X92870752Y-116016190D02*
X92918371Y-116063809D01*
X92918371Y-116063809D02*
X92965990Y-116159047D01*
X92965990Y-116159047D02*
X92965990Y-116349523D01*
X92965990Y-116349523D02*
X93013609Y-116444761D01*
X93013609Y-116444761D02*
X93061228Y-116492380D01*
X93061228Y-116492380D02*
X93156466Y-116539999D01*
X93156466Y-116539999D02*
X93346942Y-116539999D01*
X93346942Y-116539999D02*
X93442180Y-116492380D01*
X93442180Y-116492380D02*
X93489800Y-116444761D01*
X93489800Y-116444761D02*
X93537419Y-116349523D01*
X93537419Y-116349523D02*
X93537419Y-116159047D01*
X93537419Y-116159047D02*
X93489800Y-116063809D01*
X93489800Y-116063809D02*
X93442180Y-116016190D01*
X93442180Y-116016190D02*
X93346942Y-115968571D01*
X93346942Y-115968571D02*
X93156466Y-115968571D01*
X93156466Y-115968571D02*
X93061228Y-116016190D01*
X93061228Y-116016190D02*
X93013609Y-116063809D01*
X93013609Y-116063809D02*
X92965990Y-116159047D01*
X92965990Y-115397142D02*
X92918371Y-115492380D01*
X92918371Y-115492380D02*
X92870752Y-115539999D01*
X92870752Y-115539999D02*
X92775514Y-115587618D01*
X92775514Y-115587618D02*
X92727895Y-115587618D01*
X92727895Y-115587618D02*
X92632657Y-115539999D01*
X92632657Y-115539999D02*
X92585038Y-115492380D01*
X92585038Y-115492380D02*
X92537419Y-115397142D01*
X92537419Y-115397142D02*
X92537419Y-115206666D01*
X92537419Y-115206666D02*
X92585038Y-115111428D01*
X92585038Y-115111428D02*
X92632657Y-115063809D01*
X92632657Y-115063809D02*
X92727895Y-115016190D01*
X92727895Y-115016190D02*
X92775514Y-115016190D01*
X92775514Y-115016190D02*
X92870752Y-115063809D01*
X92870752Y-115063809D02*
X92918371Y-115111428D01*
X92918371Y-115111428D02*
X92965990Y-115206666D01*
X92965990Y-115206666D02*
X92965990Y-115397142D01*
X92965990Y-115397142D02*
X93013609Y-115492380D01*
X93013609Y-115492380D02*
X93061228Y-115539999D01*
X93061228Y-115539999D02*
X93156466Y-115587618D01*
X93156466Y-115587618D02*
X93346942Y-115587618D01*
X93346942Y-115587618D02*
X93442180Y-115539999D01*
X93442180Y-115539999D02*
X93489800Y-115492380D01*
X93489800Y-115492380D02*
X93537419Y-115397142D01*
X93537419Y-115397142D02*
X93537419Y-115206666D01*
X93537419Y-115206666D02*
X93489800Y-115111428D01*
X93489800Y-115111428D02*
X93442180Y-115063809D01*
X93442180Y-115063809D02*
X93346942Y-115016190D01*
X93346942Y-115016190D02*
X93156466Y-115016190D01*
X93156466Y-115016190D02*
X93061228Y-115063809D01*
X93061228Y-115063809D02*
X93013609Y-115111428D01*
X93013609Y-115111428D02*
X92965990Y-115206666D01*
X92537419Y-114682856D02*
X92537419Y-114063809D01*
X92537419Y-114063809D02*
X92918371Y-114397142D01*
X92918371Y-114397142D02*
X92918371Y-114254285D01*
X92918371Y-114254285D02*
X92965990Y-114159047D01*
X92965990Y-114159047D02*
X93013609Y-114111428D01*
X93013609Y-114111428D02*
X93108847Y-114063809D01*
X93108847Y-114063809D02*
X93346942Y-114063809D01*
X93346942Y-114063809D02*
X93442180Y-114111428D01*
X93442180Y-114111428D02*
X93489800Y-114159047D01*
X93489800Y-114159047D02*
X93537419Y-114254285D01*
X93537419Y-114254285D02*
X93537419Y-114539999D01*
X93537419Y-114539999D02*
X93489800Y-114635237D01*
X93489800Y-114635237D02*
X93442180Y-114682856D01*
X93632657Y-113873333D02*
X93632657Y-113111428D01*
X93537419Y-112873332D02*
X92537419Y-112873332D01*
X92537419Y-112873332D02*
X93251704Y-112539999D01*
X93251704Y-112539999D02*
X92537419Y-112206666D01*
X92537419Y-112206666D02*
X93537419Y-112206666D01*
X93537419Y-111301904D02*
X93013609Y-111301904D01*
X93013609Y-111301904D02*
X92918371Y-111349523D01*
X92918371Y-111349523D02*
X92870752Y-111444761D01*
X92870752Y-111444761D02*
X92870752Y-111635237D01*
X92870752Y-111635237D02*
X92918371Y-111730475D01*
X93489800Y-111301904D02*
X93537419Y-111397142D01*
X93537419Y-111397142D02*
X93537419Y-111635237D01*
X93537419Y-111635237D02*
X93489800Y-111730475D01*
X93489800Y-111730475D02*
X93394561Y-111778094D01*
X93394561Y-111778094D02*
X93299323Y-111778094D01*
X93299323Y-111778094D02*
X93204085Y-111730475D01*
X93204085Y-111730475D02*
X93156466Y-111635237D01*
X93156466Y-111635237D02*
X93156466Y-111397142D01*
X93156466Y-111397142D02*
X93108847Y-111301904D01*
X92870752Y-110397142D02*
X93680276Y-110397142D01*
X93680276Y-110397142D02*
X93775514Y-110444761D01*
X93775514Y-110444761D02*
X93823133Y-110492380D01*
X93823133Y-110492380D02*
X93870752Y-110587618D01*
X93870752Y-110587618D02*
X93870752Y-110730475D01*
X93870752Y-110730475D02*
X93823133Y-110825713D01*
X93489800Y-110397142D02*
X93537419Y-110492380D01*
X93537419Y-110492380D02*
X93537419Y-110682856D01*
X93537419Y-110682856D02*
X93489800Y-110778094D01*
X93489800Y-110778094D02*
X93442180Y-110825713D01*
X93442180Y-110825713D02*
X93346942Y-110873332D01*
X93346942Y-110873332D02*
X93061228Y-110873332D01*
X93061228Y-110873332D02*
X92965990Y-110825713D01*
X92965990Y-110825713D02*
X92918371Y-110778094D01*
X92918371Y-110778094D02*
X92870752Y-110682856D01*
X92870752Y-110682856D02*
X92870752Y-110492380D01*
X92870752Y-110492380D02*
X92918371Y-110397142D01*
X93537419Y-109397142D02*
X93537419Y-109968570D01*
X93537419Y-109682856D02*
X92537419Y-109682856D01*
X92537419Y-109682856D02*
X92680276Y-109778094D01*
X92680276Y-109778094D02*
X92775514Y-109873332D01*
X92775514Y-109873332D02*
X92823133Y-109968570D01*
X95920038Y-131712306D02*
X95872419Y-131807544D01*
X95872419Y-131807544D02*
X95872419Y-131950401D01*
X95872419Y-131950401D02*
X95920038Y-132093258D01*
X95920038Y-132093258D02*
X96015276Y-132188496D01*
X96015276Y-132188496D02*
X96110514Y-132236115D01*
X96110514Y-132236115D02*
X96300990Y-132283734D01*
X96300990Y-132283734D02*
X96443847Y-132283734D01*
X96443847Y-132283734D02*
X96634323Y-132236115D01*
X96634323Y-132236115D02*
X96729561Y-132188496D01*
X96729561Y-132188496D02*
X96824800Y-132093258D01*
X96824800Y-132093258D02*
X96872419Y-131950401D01*
X96872419Y-131950401D02*
X96872419Y-131855163D01*
X96872419Y-131855163D02*
X96824800Y-131712306D01*
X96824800Y-131712306D02*
X96777180Y-131664687D01*
X96777180Y-131664687D02*
X96443847Y-131664687D01*
X96443847Y-131664687D02*
X96443847Y-131855163D01*
X96872419Y-131236115D02*
X95872419Y-131236115D01*
X95872419Y-131236115D02*
X96872419Y-130664687D01*
X96872419Y-130664687D02*
X95872419Y-130664687D01*
X96872419Y-130188496D02*
X95872419Y-130188496D01*
X95872419Y-130188496D02*
X95872419Y-129950401D01*
X95872419Y-129950401D02*
X95920038Y-129807544D01*
X95920038Y-129807544D02*
X96015276Y-129712306D01*
X96015276Y-129712306D02*
X96110514Y-129664687D01*
X96110514Y-129664687D02*
X96300990Y-129617068D01*
X96300990Y-129617068D02*
X96443847Y-129617068D01*
X96443847Y-129617068D02*
X96634323Y-129664687D01*
X96634323Y-129664687D02*
X96729561Y-129712306D01*
X96729561Y-129712306D02*
X96824800Y-129807544D01*
X96824800Y-129807544D02*
X96872419Y-129950401D01*
X96872419Y-129950401D02*
X96872419Y-130188496D01*
X96824800Y-125863734D02*
X96872419Y-125720877D01*
X96872419Y-125720877D02*
X96872419Y-125482782D01*
X96872419Y-125482782D02*
X96824800Y-125387544D01*
X96824800Y-125387544D02*
X96777180Y-125339925D01*
X96777180Y-125339925D02*
X96681942Y-125292306D01*
X96681942Y-125292306D02*
X96586704Y-125292306D01*
X96586704Y-125292306D02*
X96491466Y-125339925D01*
X96491466Y-125339925D02*
X96443847Y-125387544D01*
X96443847Y-125387544D02*
X96396228Y-125482782D01*
X96396228Y-125482782D02*
X96348609Y-125673258D01*
X96348609Y-125673258D02*
X96300990Y-125768496D01*
X96300990Y-125768496D02*
X96253371Y-125816115D01*
X96253371Y-125816115D02*
X96158133Y-125863734D01*
X96158133Y-125863734D02*
X96062895Y-125863734D01*
X96062895Y-125863734D02*
X95967657Y-125816115D01*
X95967657Y-125816115D02*
X95920038Y-125768496D01*
X95920038Y-125768496D02*
X95872419Y-125673258D01*
X95872419Y-125673258D02*
X95872419Y-125435163D01*
X95872419Y-125435163D02*
X95920038Y-125292306D01*
X96872419Y-124863734D02*
X95872419Y-124863734D01*
X95872419Y-124863734D02*
X95872419Y-124625639D01*
X95872419Y-124625639D02*
X95920038Y-124482782D01*
X95920038Y-124482782D02*
X96015276Y-124387544D01*
X96015276Y-124387544D02*
X96110514Y-124339925D01*
X96110514Y-124339925D02*
X96300990Y-124292306D01*
X96300990Y-124292306D02*
X96443847Y-124292306D01*
X96443847Y-124292306D02*
X96634323Y-124339925D01*
X96634323Y-124339925D02*
X96729561Y-124387544D01*
X96729561Y-124387544D02*
X96824800Y-124482782D01*
X96824800Y-124482782D02*
X96872419Y-124625639D01*
X96872419Y-124625639D02*
X96872419Y-124863734D01*
X96586704Y-123911353D02*
X96586704Y-123435163D01*
X96872419Y-124006591D02*
X95872419Y-123673258D01*
X95872419Y-123673258D02*
X96872419Y-123339925D01*
X97824800Y-128863734D02*
X97872419Y-128720877D01*
X97872419Y-128720877D02*
X97872419Y-128482782D01*
X97872419Y-128482782D02*
X97824800Y-128387544D01*
X97824800Y-128387544D02*
X97777180Y-128339925D01*
X97777180Y-128339925D02*
X97681942Y-128292306D01*
X97681942Y-128292306D02*
X97586704Y-128292306D01*
X97586704Y-128292306D02*
X97491466Y-128339925D01*
X97491466Y-128339925D02*
X97443847Y-128387544D01*
X97443847Y-128387544D02*
X97396228Y-128482782D01*
X97396228Y-128482782D02*
X97348609Y-128673258D01*
X97348609Y-128673258D02*
X97300990Y-128768496D01*
X97300990Y-128768496D02*
X97253371Y-128816115D01*
X97253371Y-128816115D02*
X97158133Y-128863734D01*
X97158133Y-128863734D02*
X97062895Y-128863734D01*
X97062895Y-128863734D02*
X96967657Y-128816115D01*
X96967657Y-128816115D02*
X96920038Y-128768496D01*
X96920038Y-128768496D02*
X96872419Y-128673258D01*
X96872419Y-128673258D02*
X96872419Y-128435163D01*
X96872419Y-128435163D02*
X96920038Y-128292306D01*
X97777180Y-127292306D02*
X97824800Y-127339925D01*
X97824800Y-127339925D02*
X97872419Y-127482782D01*
X97872419Y-127482782D02*
X97872419Y-127578020D01*
X97872419Y-127578020D02*
X97824800Y-127720877D01*
X97824800Y-127720877D02*
X97729561Y-127816115D01*
X97729561Y-127816115D02*
X97634323Y-127863734D01*
X97634323Y-127863734D02*
X97443847Y-127911353D01*
X97443847Y-127911353D02*
X97300990Y-127911353D01*
X97300990Y-127911353D02*
X97110514Y-127863734D01*
X97110514Y-127863734D02*
X97015276Y-127816115D01*
X97015276Y-127816115D02*
X96920038Y-127720877D01*
X96920038Y-127720877D02*
X96872419Y-127578020D01*
X96872419Y-127578020D02*
X96872419Y-127482782D01*
X96872419Y-127482782D02*
X96920038Y-127339925D01*
X96920038Y-127339925D02*
X96967657Y-127292306D01*
X97872419Y-126387544D02*
X97872419Y-126863734D01*
X97872419Y-126863734D02*
X96872419Y-126863734D01*
X95872419Y-135378972D02*
X96872419Y-135045639D01*
X96872419Y-135045639D02*
X95872419Y-134712306D01*
X96824800Y-133950401D02*
X96872419Y-134045639D01*
X96872419Y-134045639D02*
X96872419Y-134236115D01*
X96872419Y-134236115D02*
X96824800Y-134331353D01*
X96824800Y-134331353D02*
X96777180Y-134378972D01*
X96777180Y-134378972D02*
X96681942Y-134426591D01*
X96681942Y-134426591D02*
X96396228Y-134426591D01*
X96396228Y-134426591D02*
X96300990Y-134378972D01*
X96300990Y-134378972D02*
X96253371Y-134331353D01*
X96253371Y-134331353D02*
X96205752Y-134236115D01*
X96205752Y-134236115D02*
X96205752Y-134045639D01*
X96205752Y-134045639D02*
X96253371Y-133950401D01*
X96824800Y-133093258D02*
X96872419Y-133188496D01*
X96872419Y-133188496D02*
X96872419Y-133378972D01*
X96872419Y-133378972D02*
X96824800Y-133474210D01*
X96824800Y-133474210D02*
X96777180Y-133521829D01*
X96777180Y-133521829D02*
X96681942Y-133569448D01*
X96681942Y-133569448D02*
X96396228Y-133569448D01*
X96396228Y-133569448D02*
X96300990Y-133521829D01*
X96300990Y-133521829D02*
X96253371Y-133474210D01*
X96253371Y-133474210D02*
X96205752Y-133378972D01*
X96205752Y-133378972D02*
X96205752Y-133188496D01*
X96205752Y-133188496D02*
X96253371Y-133093258D01*
X96872419Y-122236115D02*
X95872419Y-122236115D01*
X95872419Y-122236115D02*
X95872419Y-121998020D01*
X95872419Y-121998020D02*
X95920038Y-121855163D01*
X95920038Y-121855163D02*
X96015276Y-121759925D01*
X96015276Y-121759925D02*
X96110514Y-121712306D01*
X96110514Y-121712306D02*
X96300990Y-121664687D01*
X96300990Y-121664687D02*
X96443847Y-121664687D01*
X96443847Y-121664687D02*
X96634323Y-121712306D01*
X96634323Y-121712306D02*
X96729561Y-121759925D01*
X96729561Y-121759925D02*
X96824800Y-121855163D01*
X96824800Y-121855163D02*
X96872419Y-121998020D01*
X96872419Y-121998020D02*
X96872419Y-122236115D01*
X96872419Y-120664687D02*
X96396228Y-120998020D01*
X96872419Y-121236115D02*
X95872419Y-121236115D01*
X95872419Y-121236115D02*
X95872419Y-120855163D01*
X95872419Y-120855163D02*
X95920038Y-120759925D01*
X95920038Y-120759925D02*
X95967657Y-120712306D01*
X95967657Y-120712306D02*
X96062895Y-120664687D01*
X96062895Y-120664687D02*
X96205752Y-120664687D01*
X96205752Y-120664687D02*
X96300990Y-120712306D01*
X96300990Y-120712306D02*
X96348609Y-120759925D01*
X96348609Y-120759925D02*
X96396228Y-120855163D01*
X96396228Y-120855163D02*
X96396228Y-121236115D01*
X96872419Y-120236115D02*
X95872419Y-120236115D01*
X95872419Y-120236115D02*
X95872419Y-119998020D01*
X95872419Y-119998020D02*
X95920038Y-119855163D01*
X95920038Y-119855163D02*
X96015276Y-119759925D01*
X96015276Y-119759925D02*
X96110514Y-119712306D01*
X96110514Y-119712306D02*
X96300990Y-119664687D01*
X96300990Y-119664687D02*
X96443847Y-119664687D01*
X96443847Y-119664687D02*
X96634323Y-119712306D01*
X96634323Y-119712306D02*
X96729561Y-119759925D01*
X96729561Y-119759925D02*
X96824800Y-119855163D01*
X96824800Y-119855163D02*
X96872419Y-119998020D01*
X96872419Y-119998020D02*
X96872419Y-120236115D01*
X96396228Y-119045639D02*
X96872419Y-119045639D01*
X95872419Y-119378972D02*
X96396228Y-119045639D01*
X96396228Y-119045639D02*
X95872419Y-118712306D01*
X128761905Y-137957419D02*
X128761905Y-136957419D01*
X128761905Y-136957419D02*
X129142857Y-136957419D01*
X129142857Y-136957419D02*
X129238095Y-137005038D01*
X129238095Y-137005038D02*
X129285714Y-137052657D01*
X129285714Y-137052657D02*
X129333333Y-137147895D01*
X129333333Y-137147895D02*
X129333333Y-137290752D01*
X129333333Y-137290752D02*
X129285714Y-137385990D01*
X129285714Y-137385990D02*
X129238095Y-137433609D01*
X129238095Y-137433609D02*
X129142857Y-137481228D01*
X129142857Y-137481228D02*
X128761905Y-137481228D01*
X130285714Y-137957419D02*
X129714286Y-137957419D01*
X130000000Y-137957419D02*
X130000000Y-136957419D01*
X130000000Y-136957419D02*
X129904762Y-137100276D01*
X129904762Y-137100276D02*
X129809524Y-137195514D01*
X129809524Y-137195514D02*
X129714286Y-137243133D01*
X129420038Y-141172306D02*
X129372419Y-141267544D01*
X129372419Y-141267544D02*
X129372419Y-141410401D01*
X129372419Y-141410401D02*
X129420038Y-141553258D01*
X129420038Y-141553258D02*
X129515276Y-141648496D01*
X129515276Y-141648496D02*
X129610514Y-141696115D01*
X129610514Y-141696115D02*
X129800990Y-141743734D01*
X129800990Y-141743734D02*
X129943847Y-141743734D01*
X129943847Y-141743734D02*
X130134323Y-141696115D01*
X130134323Y-141696115D02*
X130229561Y-141648496D01*
X130229561Y-141648496D02*
X130324800Y-141553258D01*
X130324800Y-141553258D02*
X130372419Y-141410401D01*
X130372419Y-141410401D02*
X130372419Y-141315163D01*
X130372419Y-141315163D02*
X130324800Y-141172306D01*
X130324800Y-141172306D02*
X130277180Y-141124687D01*
X130277180Y-141124687D02*
X129943847Y-141124687D01*
X129943847Y-141124687D02*
X129943847Y-141315163D01*
X130372419Y-140696115D02*
X129372419Y-140696115D01*
X129372419Y-140696115D02*
X130372419Y-140124687D01*
X130372419Y-140124687D02*
X129372419Y-140124687D01*
X130372419Y-139648496D02*
X129372419Y-139648496D01*
X129372419Y-139648496D02*
X129372419Y-139410401D01*
X129372419Y-139410401D02*
X129420038Y-139267544D01*
X129420038Y-139267544D02*
X129515276Y-139172306D01*
X129515276Y-139172306D02*
X129610514Y-139124687D01*
X129610514Y-139124687D02*
X129800990Y-139077068D01*
X129800990Y-139077068D02*
X129943847Y-139077068D01*
X129943847Y-139077068D02*
X130134323Y-139124687D01*
X130134323Y-139124687D02*
X130229561Y-139172306D01*
X130229561Y-139172306D02*
X130324800Y-139267544D01*
X130324800Y-139267544D02*
X130372419Y-139410401D01*
X130372419Y-139410401D02*
X130372419Y-139648496D01*
X119761905Y-96457419D02*
X119761905Y-95457419D01*
X119761905Y-95457419D02*
X120142857Y-95457419D01*
X120142857Y-95457419D02*
X120238095Y-95505038D01*
X120238095Y-95505038D02*
X120285714Y-95552657D01*
X120285714Y-95552657D02*
X120333333Y-95647895D01*
X120333333Y-95647895D02*
X120333333Y-95790752D01*
X120333333Y-95790752D02*
X120285714Y-95885990D01*
X120285714Y-95885990D02*
X120238095Y-95933609D01*
X120238095Y-95933609D02*
X120142857Y-95981228D01*
X120142857Y-95981228D02*
X119761905Y-95981228D01*
X121238095Y-95457419D02*
X120761905Y-95457419D01*
X120761905Y-95457419D02*
X120714286Y-95933609D01*
X120714286Y-95933609D02*
X120761905Y-95885990D01*
X120761905Y-95885990D02*
X120857143Y-95838371D01*
X120857143Y-95838371D02*
X121095238Y-95838371D01*
X121095238Y-95838371D02*
X121190476Y-95885990D01*
X121190476Y-95885990D02*
X121238095Y-95933609D01*
X121238095Y-95933609D02*
X121285714Y-96028847D01*
X121285714Y-96028847D02*
X121285714Y-96266942D01*
X121285714Y-96266942D02*
X121238095Y-96362180D01*
X121238095Y-96362180D02*
X121190476Y-96409800D01*
X121190476Y-96409800D02*
X121095238Y-96457419D01*
X121095238Y-96457419D02*
X120857143Y-96457419D01*
X120857143Y-96457419D02*
X120761905Y-96409800D01*
X120761905Y-96409800D02*
X120714286Y-96362180D01*
X152006390Y-123926666D02*
X151958771Y-124069523D01*
X151958771Y-124069523D02*
X151911152Y-124117142D01*
X151911152Y-124117142D02*
X151815914Y-124164761D01*
X151815914Y-124164761D02*
X151673057Y-124164761D01*
X151673057Y-124164761D02*
X151577819Y-124117142D01*
X151577819Y-124117142D02*
X151530200Y-124069523D01*
X151530200Y-124069523D02*
X151482580Y-123974285D01*
X151482580Y-123974285D02*
X151482580Y-123593333D01*
X151482580Y-123593333D02*
X152482580Y-123593333D01*
X152482580Y-123593333D02*
X152482580Y-123926666D01*
X152482580Y-123926666D02*
X152434961Y-124021904D01*
X152434961Y-124021904D02*
X152387342Y-124069523D01*
X152387342Y-124069523D02*
X152292104Y-124117142D01*
X152292104Y-124117142D02*
X152196866Y-124117142D01*
X152196866Y-124117142D02*
X152101628Y-124069523D01*
X152101628Y-124069523D02*
X152054009Y-124021904D01*
X152054009Y-124021904D02*
X152006390Y-123926666D01*
X152006390Y-123926666D02*
X152006390Y-123593333D01*
X151482580Y-124593333D02*
X152482580Y-124593333D01*
X152482580Y-124593333D02*
X151768295Y-124926666D01*
X151768295Y-124926666D02*
X152482580Y-125259999D01*
X152482580Y-125259999D02*
X151482580Y-125259999D01*
X151482580Y-125736190D02*
X152482580Y-125736190D01*
X152482580Y-125736190D02*
X152482580Y-126117142D01*
X152482580Y-126117142D02*
X152434961Y-126212380D01*
X152434961Y-126212380D02*
X152387342Y-126259999D01*
X152387342Y-126259999D02*
X152292104Y-126307618D01*
X152292104Y-126307618D02*
X152149247Y-126307618D01*
X152149247Y-126307618D02*
X152054009Y-126259999D01*
X152054009Y-126259999D02*
X152006390Y-126212380D01*
X152006390Y-126212380D02*
X151958771Y-126117142D01*
X151958771Y-126117142D02*
X151958771Y-125736190D01*
X151482580Y-127259999D02*
X151482580Y-126688571D01*
X151482580Y-126974285D02*
X152482580Y-126974285D01*
X152482580Y-126974285D02*
X152339723Y-126879047D01*
X152339723Y-126879047D02*
X152244485Y-126783809D01*
X152244485Y-126783809D02*
X152196866Y-126688571D01*
X152054009Y-127831428D02*
X152101628Y-127736190D01*
X152101628Y-127736190D02*
X152149247Y-127688571D01*
X152149247Y-127688571D02*
X152244485Y-127640952D01*
X152244485Y-127640952D02*
X152292104Y-127640952D01*
X152292104Y-127640952D02*
X152387342Y-127688571D01*
X152387342Y-127688571D02*
X152434961Y-127736190D01*
X152434961Y-127736190D02*
X152482580Y-127831428D01*
X152482580Y-127831428D02*
X152482580Y-128021904D01*
X152482580Y-128021904D02*
X152434961Y-128117142D01*
X152434961Y-128117142D02*
X152387342Y-128164761D01*
X152387342Y-128164761D02*
X152292104Y-128212380D01*
X152292104Y-128212380D02*
X152244485Y-128212380D01*
X152244485Y-128212380D02*
X152149247Y-128164761D01*
X152149247Y-128164761D02*
X152101628Y-128117142D01*
X152101628Y-128117142D02*
X152054009Y-128021904D01*
X152054009Y-128021904D02*
X152054009Y-127831428D01*
X152054009Y-127831428D02*
X152006390Y-127736190D01*
X152006390Y-127736190D02*
X151958771Y-127688571D01*
X151958771Y-127688571D02*
X151863533Y-127640952D01*
X151863533Y-127640952D02*
X151673057Y-127640952D01*
X151673057Y-127640952D02*
X151577819Y-127688571D01*
X151577819Y-127688571D02*
X151530200Y-127736190D01*
X151530200Y-127736190D02*
X151482580Y-127831428D01*
X151482580Y-127831428D02*
X151482580Y-128021904D01*
X151482580Y-128021904D02*
X151530200Y-128117142D01*
X151530200Y-128117142D02*
X151577819Y-128164761D01*
X151577819Y-128164761D02*
X151673057Y-128212380D01*
X151673057Y-128212380D02*
X151863533Y-128212380D01*
X151863533Y-128212380D02*
X151958771Y-128164761D01*
X151958771Y-128164761D02*
X152006390Y-128117142D01*
X152006390Y-128117142D02*
X152054009Y-128021904D01*
X152482580Y-128831428D02*
X152482580Y-128926666D01*
X152482580Y-128926666D02*
X152434961Y-129021904D01*
X152434961Y-129021904D02*
X152387342Y-129069523D01*
X152387342Y-129069523D02*
X152292104Y-129117142D01*
X152292104Y-129117142D02*
X152101628Y-129164761D01*
X152101628Y-129164761D02*
X151863533Y-129164761D01*
X151863533Y-129164761D02*
X151673057Y-129117142D01*
X151673057Y-129117142D02*
X151577819Y-129069523D01*
X151577819Y-129069523D02*
X151530200Y-129021904D01*
X151530200Y-129021904D02*
X151482580Y-128926666D01*
X151482580Y-128926666D02*
X151482580Y-128831428D01*
X151482580Y-128831428D02*
X151530200Y-128736190D01*
X151530200Y-128736190D02*
X151577819Y-128688571D01*
X151577819Y-128688571D02*
X151673057Y-128640952D01*
X151673057Y-128640952D02*
X151863533Y-128593333D01*
X151863533Y-128593333D02*
X152101628Y-128593333D01*
X152101628Y-128593333D02*
X152292104Y-128640952D01*
X152292104Y-128640952D02*
X152387342Y-128688571D01*
X152387342Y-128688571D02*
X152434961Y-128736190D01*
X152434961Y-128736190D02*
X152482580Y-128831428D01*
X151387342Y-129355238D02*
X151387342Y-130117142D01*
X151482580Y-130355238D02*
X152482580Y-130355238D01*
X152482580Y-130355238D02*
X152482580Y-130736190D01*
X152482580Y-130736190D02*
X152434961Y-130831428D01*
X152434961Y-130831428D02*
X152387342Y-130879047D01*
X152387342Y-130879047D02*
X152292104Y-130926666D01*
X152292104Y-130926666D02*
X152149247Y-130926666D01*
X152149247Y-130926666D02*
X152054009Y-130879047D01*
X152054009Y-130879047D02*
X152006390Y-130831428D01*
X152006390Y-130831428D02*
X151958771Y-130736190D01*
X151958771Y-130736190D02*
X151958771Y-130355238D01*
X151482580Y-131355238D02*
X152149247Y-131355238D01*
X151958771Y-131355238D02*
X152054009Y-131402857D01*
X152054009Y-131402857D02*
X152101628Y-131450476D01*
X152101628Y-131450476D02*
X152149247Y-131545714D01*
X152149247Y-131545714D02*
X152149247Y-131640952D01*
X151530200Y-132355238D02*
X151482580Y-132260000D01*
X151482580Y-132260000D02*
X151482580Y-132069524D01*
X151482580Y-132069524D02*
X151530200Y-131974286D01*
X151530200Y-131974286D02*
X151625438Y-131926667D01*
X151625438Y-131926667D02*
X152006390Y-131926667D01*
X152006390Y-131926667D02*
X152101628Y-131974286D01*
X152101628Y-131974286D02*
X152149247Y-132069524D01*
X152149247Y-132069524D02*
X152149247Y-132260000D01*
X152149247Y-132260000D02*
X152101628Y-132355238D01*
X152101628Y-132355238D02*
X152006390Y-132402857D01*
X152006390Y-132402857D02*
X151911152Y-132402857D01*
X151911152Y-132402857D02*
X151815914Y-131926667D01*
X151530200Y-132783810D02*
X151482580Y-132879048D01*
X151482580Y-132879048D02*
X151482580Y-133069524D01*
X151482580Y-133069524D02*
X151530200Y-133164762D01*
X151530200Y-133164762D02*
X151625438Y-133212381D01*
X151625438Y-133212381D02*
X151673057Y-133212381D01*
X151673057Y-133212381D02*
X151768295Y-133164762D01*
X151768295Y-133164762D02*
X151815914Y-133069524D01*
X151815914Y-133069524D02*
X151815914Y-132926667D01*
X151815914Y-132926667D02*
X151863533Y-132831429D01*
X151863533Y-132831429D02*
X151958771Y-132783810D01*
X151958771Y-132783810D02*
X152006390Y-132783810D01*
X152006390Y-132783810D02*
X152101628Y-132831429D01*
X152101628Y-132831429D02*
X152149247Y-132926667D01*
X152149247Y-132926667D02*
X152149247Y-133069524D01*
X152149247Y-133069524D02*
X152101628Y-133164762D01*
X151530200Y-133593334D02*
X151482580Y-133688572D01*
X151482580Y-133688572D02*
X151482580Y-133879048D01*
X151482580Y-133879048D02*
X151530200Y-133974286D01*
X151530200Y-133974286D02*
X151625438Y-134021905D01*
X151625438Y-134021905D02*
X151673057Y-134021905D01*
X151673057Y-134021905D02*
X151768295Y-133974286D01*
X151768295Y-133974286D02*
X151815914Y-133879048D01*
X151815914Y-133879048D02*
X151815914Y-133736191D01*
X151815914Y-133736191D02*
X151863533Y-133640953D01*
X151863533Y-133640953D02*
X151958771Y-133593334D01*
X151958771Y-133593334D02*
X152006390Y-133593334D01*
X152006390Y-133593334D02*
X152101628Y-133640953D01*
X152101628Y-133640953D02*
X152149247Y-133736191D01*
X152149247Y-133736191D02*
X152149247Y-133879048D01*
X152149247Y-133879048D02*
X152101628Y-133974286D01*
X151482580Y-134974286D02*
X151482580Y-134402858D01*
X151482580Y-134688572D02*
X152482580Y-134688572D01*
X152482580Y-134688572D02*
X152339723Y-134593334D01*
X152339723Y-134593334D02*
X152244485Y-134498096D01*
X152244485Y-134498096D02*
X152196866Y-134402858D01*
X140677200Y-126516265D02*
X140629580Y-126659122D01*
X140629580Y-126659122D02*
X140629580Y-126897217D01*
X140629580Y-126897217D02*
X140677200Y-126992455D01*
X140677200Y-126992455D02*
X140724819Y-127040074D01*
X140724819Y-127040074D02*
X140820057Y-127087693D01*
X140820057Y-127087693D02*
X140915295Y-127087693D01*
X140915295Y-127087693D02*
X141010533Y-127040074D01*
X141010533Y-127040074D02*
X141058152Y-126992455D01*
X141058152Y-126992455D02*
X141105771Y-126897217D01*
X141105771Y-126897217D02*
X141153390Y-126706741D01*
X141153390Y-126706741D02*
X141201009Y-126611503D01*
X141201009Y-126611503D02*
X141248628Y-126563884D01*
X141248628Y-126563884D02*
X141343866Y-126516265D01*
X141343866Y-126516265D02*
X141439104Y-126516265D01*
X141439104Y-126516265D02*
X141534342Y-126563884D01*
X141534342Y-126563884D02*
X141581961Y-126611503D01*
X141581961Y-126611503D02*
X141629580Y-126706741D01*
X141629580Y-126706741D02*
X141629580Y-126944836D01*
X141629580Y-126944836D02*
X141581961Y-127087693D01*
X140724819Y-128087693D02*
X140677200Y-128040074D01*
X140677200Y-128040074D02*
X140629580Y-127897217D01*
X140629580Y-127897217D02*
X140629580Y-127801979D01*
X140629580Y-127801979D02*
X140677200Y-127659122D01*
X140677200Y-127659122D02*
X140772438Y-127563884D01*
X140772438Y-127563884D02*
X140867676Y-127516265D01*
X140867676Y-127516265D02*
X141058152Y-127468646D01*
X141058152Y-127468646D02*
X141201009Y-127468646D01*
X141201009Y-127468646D02*
X141391485Y-127516265D01*
X141391485Y-127516265D02*
X141486723Y-127563884D01*
X141486723Y-127563884D02*
X141581961Y-127659122D01*
X141581961Y-127659122D02*
X141629580Y-127801979D01*
X141629580Y-127801979D02*
X141629580Y-127897217D01*
X141629580Y-127897217D02*
X141581961Y-128040074D01*
X141581961Y-128040074D02*
X141534342Y-128087693D01*
X140629580Y-128992455D02*
X140629580Y-128516265D01*
X140629580Y-128516265D02*
X141629580Y-128516265D01*
X140677200Y-123206265D02*
X140629580Y-123349122D01*
X140629580Y-123349122D02*
X140629580Y-123587217D01*
X140629580Y-123587217D02*
X140677200Y-123682455D01*
X140677200Y-123682455D02*
X140724819Y-123730074D01*
X140724819Y-123730074D02*
X140820057Y-123777693D01*
X140820057Y-123777693D02*
X140915295Y-123777693D01*
X140915295Y-123777693D02*
X141010533Y-123730074D01*
X141010533Y-123730074D02*
X141058152Y-123682455D01*
X141058152Y-123682455D02*
X141105771Y-123587217D01*
X141105771Y-123587217D02*
X141153390Y-123396741D01*
X141153390Y-123396741D02*
X141201009Y-123301503D01*
X141201009Y-123301503D02*
X141248628Y-123253884D01*
X141248628Y-123253884D02*
X141343866Y-123206265D01*
X141343866Y-123206265D02*
X141439104Y-123206265D01*
X141439104Y-123206265D02*
X141534342Y-123253884D01*
X141534342Y-123253884D02*
X141581961Y-123301503D01*
X141581961Y-123301503D02*
X141629580Y-123396741D01*
X141629580Y-123396741D02*
X141629580Y-123634836D01*
X141629580Y-123634836D02*
X141581961Y-123777693D01*
X140629580Y-124206265D02*
X141629580Y-124206265D01*
X141629580Y-124206265D02*
X141629580Y-124444360D01*
X141629580Y-124444360D02*
X141581961Y-124587217D01*
X141581961Y-124587217D02*
X141486723Y-124682455D01*
X141486723Y-124682455D02*
X141391485Y-124730074D01*
X141391485Y-124730074D02*
X141201009Y-124777693D01*
X141201009Y-124777693D02*
X141058152Y-124777693D01*
X141058152Y-124777693D02*
X140867676Y-124730074D01*
X140867676Y-124730074D02*
X140772438Y-124682455D01*
X140772438Y-124682455D02*
X140677200Y-124587217D01*
X140677200Y-124587217D02*
X140629580Y-124444360D01*
X140629580Y-124444360D02*
X140629580Y-124206265D01*
X140915295Y-125158646D02*
X140915295Y-125634836D01*
X140629580Y-125063408D02*
X141629580Y-125396741D01*
X141629580Y-125396741D02*
X140629580Y-125730074D01*
X141629580Y-133111027D02*
X140629580Y-133444360D01*
X140629580Y-133444360D02*
X141629580Y-133777693D01*
X140629580Y-134111027D02*
X141629580Y-134111027D01*
X140629580Y-134587217D02*
X141629580Y-134587217D01*
X141629580Y-134587217D02*
X140629580Y-135158645D01*
X140629580Y-135158645D02*
X141629580Y-135158645D01*
X141581961Y-130277693D02*
X141629580Y-130182455D01*
X141629580Y-130182455D02*
X141629580Y-130039598D01*
X141629580Y-130039598D02*
X141581961Y-129896741D01*
X141581961Y-129896741D02*
X141486723Y-129801503D01*
X141486723Y-129801503D02*
X141391485Y-129753884D01*
X141391485Y-129753884D02*
X141201009Y-129706265D01*
X141201009Y-129706265D02*
X141058152Y-129706265D01*
X141058152Y-129706265D02*
X140867676Y-129753884D01*
X140867676Y-129753884D02*
X140772438Y-129801503D01*
X140772438Y-129801503D02*
X140677200Y-129896741D01*
X140677200Y-129896741D02*
X140629580Y-130039598D01*
X140629580Y-130039598D02*
X140629580Y-130134836D01*
X140629580Y-130134836D02*
X140677200Y-130277693D01*
X140677200Y-130277693D02*
X140724819Y-130325312D01*
X140724819Y-130325312D02*
X141058152Y-130325312D01*
X141058152Y-130325312D02*
X141058152Y-130134836D01*
X140629580Y-130753884D02*
X141629580Y-130753884D01*
X141629580Y-130753884D02*
X140629580Y-131325312D01*
X140629580Y-131325312D02*
X141629580Y-131325312D01*
X140629580Y-131801503D02*
X141629580Y-131801503D01*
X141629580Y-131801503D02*
X141629580Y-132039598D01*
X141629580Y-132039598D02*
X141581961Y-132182455D01*
X141581961Y-132182455D02*
X141486723Y-132277693D01*
X141486723Y-132277693D02*
X141391485Y-132325312D01*
X141391485Y-132325312D02*
X141201009Y-132372931D01*
X141201009Y-132372931D02*
X141058152Y-132372931D01*
X141058152Y-132372931D02*
X140867676Y-132325312D01*
X140867676Y-132325312D02*
X140772438Y-132277693D01*
X140772438Y-132277693D02*
X140677200Y-132182455D01*
X140677200Y-132182455D02*
X140629580Y-132039598D01*
X140629580Y-132039598D02*
X140629580Y-131801503D01*
X103261905Y-137957419D02*
X103261905Y-136957419D01*
X103261905Y-136957419D02*
X103642857Y-136957419D01*
X103642857Y-136957419D02*
X103738095Y-137005038D01*
X103738095Y-137005038D02*
X103785714Y-137052657D01*
X103785714Y-137052657D02*
X103833333Y-137147895D01*
X103833333Y-137147895D02*
X103833333Y-137290752D01*
X103833333Y-137290752D02*
X103785714Y-137385990D01*
X103785714Y-137385990D02*
X103738095Y-137433609D01*
X103738095Y-137433609D02*
X103642857Y-137481228D01*
X103642857Y-137481228D02*
X103261905Y-137481228D01*
X104166667Y-136957419D02*
X104785714Y-136957419D01*
X104785714Y-136957419D02*
X104452381Y-137338371D01*
X104452381Y-137338371D02*
X104595238Y-137338371D01*
X104595238Y-137338371D02*
X104690476Y-137385990D01*
X104690476Y-137385990D02*
X104738095Y-137433609D01*
X104738095Y-137433609D02*
X104785714Y-137528847D01*
X104785714Y-137528847D02*
X104785714Y-137766942D01*
X104785714Y-137766942D02*
X104738095Y-137862180D01*
X104738095Y-137862180D02*
X104690476Y-137909800D01*
X104690476Y-137909800D02*
X104595238Y-137957419D01*
X104595238Y-137957419D02*
X104309524Y-137957419D01*
X104309524Y-137957419D02*
X104214286Y-137909800D01*
X104214286Y-137909800D02*
X104166667Y-137862180D01*
X102960038Y-141172306D02*
X102912419Y-141267544D01*
X102912419Y-141267544D02*
X102912419Y-141410401D01*
X102912419Y-141410401D02*
X102960038Y-141553258D01*
X102960038Y-141553258D02*
X103055276Y-141648496D01*
X103055276Y-141648496D02*
X103150514Y-141696115D01*
X103150514Y-141696115D02*
X103340990Y-141743734D01*
X103340990Y-141743734D02*
X103483847Y-141743734D01*
X103483847Y-141743734D02*
X103674323Y-141696115D01*
X103674323Y-141696115D02*
X103769561Y-141648496D01*
X103769561Y-141648496D02*
X103864800Y-141553258D01*
X103864800Y-141553258D02*
X103912419Y-141410401D01*
X103912419Y-141410401D02*
X103912419Y-141315163D01*
X103912419Y-141315163D02*
X103864800Y-141172306D01*
X103864800Y-141172306D02*
X103817180Y-141124687D01*
X103817180Y-141124687D02*
X103483847Y-141124687D01*
X103483847Y-141124687D02*
X103483847Y-141315163D01*
X103912419Y-140696115D02*
X102912419Y-140696115D01*
X102912419Y-140696115D02*
X103912419Y-140124687D01*
X103912419Y-140124687D02*
X102912419Y-140124687D01*
X103912419Y-139648496D02*
X102912419Y-139648496D01*
X102912419Y-139648496D02*
X102912419Y-139410401D01*
X102912419Y-139410401D02*
X102960038Y-139267544D01*
X102960038Y-139267544D02*
X103055276Y-139172306D01*
X103055276Y-139172306D02*
X103150514Y-139124687D01*
X103150514Y-139124687D02*
X103340990Y-139077068D01*
X103340990Y-139077068D02*
X103483847Y-139077068D01*
X103483847Y-139077068D02*
X103674323Y-139124687D01*
X103674323Y-139124687D02*
X103769561Y-139172306D01*
X103769561Y-139172306D02*
X103864800Y-139267544D01*
X103864800Y-139267544D02*
X103912419Y-139410401D01*
X103912419Y-139410401D02*
X103912419Y-139648496D01*
%TO.C,Usb-C-charger1*%
X184800000Y-99000000D02*
X166800000Y-99000000D01*
X166800000Y-99000000D02*
X166800000Y-113000000D01*
X166800000Y-113000000D02*
X184800000Y-113000000D01*
X184800000Y-113000000D02*
X184800000Y-99000000D01*
X185800000Y-103500000D02*
X184800000Y-103500000D01*
X184800000Y-103500000D02*
X184800000Y-108500000D01*
X184800000Y-108500000D02*
X185800000Y-108500000D01*
X185800000Y-108500000D02*
X185800000Y-103500000D01*
D12*
%TO.C,R1*%
X144920000Y-140000000D02*
X145690000Y-140000000D01*
X145690000Y-138630000D02*
X145690000Y-141370000D01*
X145690000Y-141370000D02*
X152230000Y-141370000D01*
X152230000Y-138630000D02*
X145690000Y-138630000D01*
X152230000Y-141370000D02*
X152230000Y-138630000D01*
X153000000Y-140000000D02*
X152230000Y-140000000D01*
%TO.C,ESP32-2432S028_WROOM-32*%
D13*
X158188614Y-108275877D02*
X158212327Y-108290647D01*
X158238978Y-108312227D01*
X158238978Y-108633773D01*
X158238893Y-108727830D01*
X158238529Y-108801932D01*
X158237724Y-108858704D01*
X158236313Y-108900768D01*
X158234133Y-108930748D01*
X158231021Y-108951267D01*
X158226814Y-108964949D01*
X158221348Y-108974416D01*
X158217472Y-108979082D01*
X158186034Y-108999575D01*
X158150233Y-108998739D01*
X158118873Y-108981264D01*
X158092222Y-108959684D01*
X158092222Y-108312227D01*
X158118873Y-108290647D01*
X158144594Y-108274949D01*
X158165600Y-108269067D01*
X158188614Y-108275877D01*
G36*
X158188614Y-108275877D02*
G01*
X158212327Y-108290647D01*
X158238978Y-108312227D01*
X158238978Y-108633773D01*
X158238893Y-108727830D01*
X158238529Y-108801932D01*
X158237724Y-108858704D01*
X158236313Y-108900768D01*
X158234133Y-108930748D01*
X158231021Y-108951267D01*
X158226814Y-108964949D01*
X158221348Y-108974416D01*
X158217472Y-108979082D01*
X158186034Y-108999575D01*
X158150233Y-108998739D01*
X158118873Y-108981264D01*
X158092222Y-108959684D01*
X158092222Y-108312227D01*
X158118873Y-108290647D01*
X158144594Y-108274949D01*
X158165600Y-108269067D01*
X158188614Y-108275877D01*
G37*
X151076178Y-108291645D02*
X151082758Y-108299218D01*
X151087921Y-108308987D01*
X151091836Y-108323571D01*
X151094676Y-108345585D01*
X151096613Y-108377648D01*
X151097817Y-108422375D01*
X151098461Y-108482385D01*
X151098716Y-108560294D01*
X151098755Y-108635956D01*
X151098686Y-108729802D01*
X151098362Y-108803689D01*
X151097614Y-108860232D01*
X151096268Y-108902049D01*
X151094154Y-108931757D01*
X151091100Y-108951973D01*
X151086934Y-108965314D01*
X151081484Y-108974398D01*
X151076178Y-108980267D01*
X151043174Y-108999947D01*
X151008009Y-108998181D01*
X150976545Y-108976717D01*
X150969316Y-108968337D01*
X150963666Y-108958614D01*
X150959401Y-108944861D01*
X150956327Y-108924389D01*
X150954248Y-108894512D01*
X150952970Y-108852541D01*
X150952299Y-108795789D01*
X150952041Y-108721567D01*
X150952000Y-108637537D01*
X150952000Y-108324485D01*
X150979709Y-108296776D01*
X151013863Y-108273463D01*
X151046994Y-108272623D01*
X151076178Y-108291645D01*
G36*
X151076178Y-108291645D02*
G01*
X151082758Y-108299218D01*
X151087921Y-108308987D01*
X151091836Y-108323571D01*
X151094676Y-108345585D01*
X151096613Y-108377648D01*
X151097817Y-108422375D01*
X151098461Y-108482385D01*
X151098716Y-108560294D01*
X151098755Y-108635956D01*
X151098686Y-108729802D01*
X151098362Y-108803689D01*
X151097614Y-108860232D01*
X151096268Y-108902049D01*
X151094154Y-108931757D01*
X151091100Y-108951973D01*
X151086934Y-108965314D01*
X151081484Y-108974398D01*
X151076178Y-108980267D01*
X151043174Y-108999947D01*
X151008009Y-108998181D01*
X150976545Y-108976717D01*
X150969316Y-108968337D01*
X150963666Y-108958614D01*
X150959401Y-108944861D01*
X150956327Y-108924389D01*
X150954248Y-108894512D01*
X150952970Y-108852541D01*
X150952299Y-108795789D01*
X150952041Y-108721567D01*
X150952000Y-108637537D01*
X150952000Y-108324485D01*
X150979709Y-108296776D01*
X151013863Y-108273463D01*
X151046994Y-108272623D01*
X151076178Y-108291645D01*
G37*
X151726957Y-103026571D02*
X151823232Y-103050809D01*
X151909816Y-103093641D01*
X151984627Y-103153419D01*
X152045582Y-103228494D01*
X152090601Y-103317220D01*
X152116864Y-103413530D01*
X152122714Y-103510795D01*
X152107860Y-103604654D01*
X152074160Y-103692511D01*
X152023472Y-103771770D01*
X151957655Y-103839836D01*
X151878566Y-103894112D01*
X151788066Y-103932002D01*
X151736800Y-103944426D01*
X151692302Y-103951947D01*
X151658001Y-103954919D01*
X151625040Y-103953094D01*
X151584566Y-103946225D01*
X151551469Y-103939250D01*
X151458053Y-103907741D01*
X151374381Y-103856617D01*
X151302335Y-103787429D01*
X151243800Y-103701728D01*
X151229852Y-103674489D01*
X151213414Y-103638122D01*
X151203106Y-103607582D01*
X151197540Y-103575450D01*
X151195331Y-103534307D01*
X151195052Y-103488222D01*
X151199139Y-103403865D01*
X151212554Y-103334586D01*
X151237744Y-103273961D01*
X151277154Y-103215567D01*
X151315702Y-103171302D01*
X151387594Y-103105484D01*
X151462687Y-103060053D01*
X151545438Y-103032850D01*
X151623072Y-103022576D01*
X151726957Y-103026571D01*
G36*
X151726957Y-103026571D02*
G01*
X151823232Y-103050809D01*
X151909816Y-103093641D01*
X151984627Y-103153419D01*
X152045582Y-103228494D01*
X152090601Y-103317220D01*
X152116864Y-103413530D01*
X152122714Y-103510795D01*
X152107860Y-103604654D01*
X152074160Y-103692511D01*
X152023472Y-103771770D01*
X151957655Y-103839836D01*
X151878566Y-103894112D01*
X151788066Y-103932002D01*
X151736800Y-103944426D01*
X151692302Y-103951947D01*
X151658001Y-103954919D01*
X151625040Y-103953094D01*
X151584566Y-103946225D01*
X151551469Y-103939250D01*
X151458053Y-103907741D01*
X151374381Y-103856617D01*
X151302335Y-103787429D01*
X151243800Y-103701728D01*
X151229852Y-103674489D01*
X151213414Y-103638122D01*
X151203106Y-103607582D01*
X151197540Y-103575450D01*
X151195331Y-103534307D01*
X151195052Y-103488222D01*
X151199139Y-103403865D01*
X151212554Y-103334586D01*
X151237744Y-103273961D01*
X151277154Y-103215567D01*
X151315702Y-103171302D01*
X151387594Y-103105484D01*
X151462687Y-103060053D01*
X151545438Y-103032850D01*
X151623072Y-103022576D01*
X151726957Y-103026571D01*
G37*
X158963065Y-108269163D02*
X159041772Y-108269542D01*
X159102863Y-108270333D01*
X159148817Y-108271670D01*
X159182114Y-108273683D01*
X159205236Y-108276506D01*
X159220662Y-108280269D01*
X159230871Y-108285105D01*
X159235813Y-108288822D01*
X159261457Y-108321358D01*
X159264559Y-108355138D01*
X159248711Y-108385826D01*
X159238348Y-108398089D01*
X159227196Y-108406450D01*
X159211035Y-108411657D01*
X159185642Y-108414457D01*
X159146798Y-108415596D01*
X159090280Y-108415821D01*
X159079180Y-108415822D01*
X158933244Y-108415822D01*
X158933244Y-108686756D01*
X158933148Y-108772154D01*
X158932711Y-108837864D01*
X158931712Y-108886774D01*
X158929928Y-108921773D01*
X158927137Y-108945749D01*
X158923117Y-108961593D01*
X158917645Y-108972191D01*
X158910666Y-108980267D01*
X158877734Y-109000112D01*
X158843354Y-108998548D01*
X158812176Y-108975906D01*
X158809886Y-108973100D01*
X158802429Y-108962492D01*
X158796747Y-108950081D01*
X158792601Y-108932850D01*
X158789750Y-108907784D01*
X158787954Y-108871867D01*
X158786972Y-108822083D01*
X158786564Y-108755417D01*
X158786489Y-108679589D01*
X158786489Y-108415822D01*
X158647127Y-108415822D01*
X158587322Y-108415418D01*
X158545918Y-108413840D01*
X158518748Y-108410547D01*
X158501646Y-108404992D01*
X158490443Y-108396631D01*
X158489083Y-108395178D01*
X158472725Y-108361939D01*
X158474172Y-108324362D01*
X158492978Y-108291645D01*
X158500250Y-108285298D01*
X158509627Y-108280266D01*
X158523609Y-108276396D01*
X158544696Y-108273537D01*
X158575389Y-108271535D01*
X158618189Y-108270239D01*
X158675595Y-108269498D01*
X158750110Y-108269158D01*
X158844233Y-108269068D01*
X158864260Y-108269067D01*
X158963065Y-108269163D01*
G36*
X158963065Y-108269163D02*
G01*
X159041772Y-108269542D01*
X159102863Y-108270333D01*
X159148817Y-108271670D01*
X159182114Y-108273683D01*
X159205236Y-108276506D01*
X159220662Y-108280269D01*
X159230871Y-108285105D01*
X159235813Y-108288822D01*
X159261457Y-108321358D01*
X159264559Y-108355138D01*
X159248711Y-108385826D01*
X159238348Y-108398089D01*
X159227196Y-108406450D01*
X159211035Y-108411657D01*
X159185642Y-108414457D01*
X159146798Y-108415596D01*
X159090280Y-108415821D01*
X159079180Y-108415822D01*
X158933244Y-108415822D01*
X158933244Y-108686756D01*
X158933148Y-108772154D01*
X158932711Y-108837864D01*
X158931712Y-108886774D01*
X158929928Y-108921773D01*
X158927137Y-108945749D01*
X158923117Y-108961593D01*
X158917645Y-108972191D01*
X158910666Y-108980267D01*
X158877734Y-109000112D01*
X158843354Y-108998548D01*
X158812176Y-108975906D01*
X158809886Y-108973100D01*
X158802429Y-108962492D01*
X158796747Y-108950081D01*
X158792601Y-108932850D01*
X158789750Y-108907784D01*
X158787954Y-108871867D01*
X158786972Y-108822083D01*
X158786564Y-108755417D01*
X158786489Y-108679589D01*
X158786489Y-108415822D01*
X158647127Y-108415822D01*
X158587322Y-108415418D01*
X158545918Y-108413840D01*
X158518748Y-108410547D01*
X158501646Y-108404992D01*
X158490443Y-108396631D01*
X158489083Y-108395178D01*
X158472725Y-108361939D01*
X158474172Y-108324362D01*
X158492978Y-108291645D01*
X158500250Y-108285298D01*
X158509627Y-108280266D01*
X158523609Y-108276396D01*
X158544696Y-108273537D01*
X158575389Y-108271535D01*
X158618189Y-108270239D01*
X158675595Y-108269498D01*
X158750110Y-108269158D01*
X158844233Y-108269068D01*
X158864260Y-108269067D01*
X158963065Y-108269163D01*
G37*
X160228823Y-108274533D02*
X160260202Y-108296776D01*
X160287911Y-108324485D01*
X160287911Y-108633920D01*
X160287838Y-108725799D01*
X160287495Y-108797840D01*
X160286692Y-108852780D01*
X160285241Y-108893360D01*
X160282952Y-108922317D01*
X160279636Y-108942391D01*
X160275105Y-108956321D01*
X160269169Y-108966845D01*
X160264514Y-108973100D01*
X160233783Y-108997673D01*
X160198496Y-109000341D01*
X160166245Y-108985271D01*
X160155588Y-108976374D01*
X160148464Y-108964557D01*
X160144167Y-108945526D01*
X160141991Y-108914992D01*
X160141228Y-108868662D01*
X160141155Y-108832871D01*
X160141155Y-108698045D01*
X159644444Y-108698045D01*
X159644444Y-108820700D01*
X159643931Y-108876787D01*
X159641876Y-108915333D01*
X159637508Y-108941361D01*
X159630056Y-108959897D01*
X159621047Y-108973100D01*
X159590144Y-108997604D01*
X159555196Y-109000506D01*
X159521738Y-108983089D01*
X159512604Y-108973959D01*
X159506152Y-108961855D01*
X159501897Y-108943001D01*
X159499352Y-108913620D01*
X159498029Y-108869937D01*
X159497443Y-108808175D01*
X159497375Y-108794000D01*
X159496891Y-108677631D01*
X159496641Y-108581727D01*
X159496723Y-108504177D01*
X159497231Y-108442869D01*
X159498262Y-108395690D01*
X159499913Y-108360530D01*
X159502279Y-108335276D01*
X159505457Y-108317817D01*
X159509544Y-108306041D01*
X159514634Y-108297835D01*
X159520266Y-108291645D01*
X159552128Y-108271844D01*
X159585357Y-108274533D01*
X159616735Y-108296776D01*
X159629433Y-108311126D01*
X159637526Y-108326978D01*
X159642042Y-108349554D01*
X159644006Y-108384078D01*
X159644444Y-108435776D01*
X159644444Y-108551289D01*
X160141155Y-108551289D01*
X160141155Y-108432756D01*
X160141662Y-108378148D01*
X160143698Y-108341275D01*
X160148035Y-108317307D01*
X160155447Y-108301415D01*
X160163733Y-108291645D01*
X160195594Y-108271844D01*
X160228823Y-108274533D01*
G36*
X160228823Y-108274533D02*
G01*
X160260202Y-108296776D01*
X160287911Y-108324485D01*
X160287911Y-108633920D01*
X160287838Y-108725799D01*
X160287495Y-108797840D01*
X160286692Y-108852780D01*
X160285241Y-108893360D01*
X160282952Y-108922317D01*
X160279636Y-108942391D01*
X160275105Y-108956321D01*
X160269169Y-108966845D01*
X160264514Y-108973100D01*
X160233783Y-108997673D01*
X160198496Y-109000341D01*
X160166245Y-108985271D01*
X160155588Y-108976374D01*
X160148464Y-108964557D01*
X160144167Y-108945526D01*
X160141991Y-108914992D01*
X160141228Y-108868662D01*
X160141155Y-108832871D01*
X160141155Y-108698045D01*
X159644444Y-108698045D01*
X159644444Y-108820700D01*
X159643931Y-108876787D01*
X159641876Y-108915333D01*
X159637508Y-108941361D01*
X159630056Y-108959897D01*
X159621047Y-108973100D01*
X159590144Y-108997604D01*
X159555196Y-109000506D01*
X159521738Y-108983089D01*
X159512604Y-108973959D01*
X159506152Y-108961855D01*
X159501897Y-108943001D01*
X159499352Y-108913620D01*
X159498029Y-108869937D01*
X159497443Y-108808175D01*
X159497375Y-108794000D01*
X159496891Y-108677631D01*
X159496641Y-108581727D01*
X159496723Y-108504177D01*
X159497231Y-108442869D01*
X159498262Y-108395690D01*
X159499913Y-108360530D01*
X159502279Y-108335276D01*
X159505457Y-108317817D01*
X159509544Y-108306041D01*
X159514634Y-108297835D01*
X159520266Y-108291645D01*
X159552128Y-108271844D01*
X159585357Y-108274533D01*
X159616735Y-108296776D01*
X159629433Y-108311126D01*
X159637526Y-108326978D01*
X159642042Y-108349554D01*
X159644006Y-108384078D01*
X159644444Y-108435776D01*
X159644444Y-108551289D01*
X160141155Y-108551289D01*
X160141155Y-108432756D01*
X160141662Y-108378148D01*
X160143698Y-108341275D01*
X160148035Y-108317307D01*
X160155447Y-108301415D01*
X160163733Y-108291645D01*
X160195594Y-108271844D01*
X160228823Y-108274533D01*
G37*
X155018309Y-108269275D02*
X155147288Y-108273636D01*
X155256991Y-108286861D01*
X155349226Y-108309741D01*
X155425802Y-108343070D01*
X155488527Y-108387638D01*
X155539212Y-108444236D01*
X155579663Y-108513658D01*
X155580459Y-108515351D01*
X155604601Y-108577483D01*
X155613203Y-108632509D01*
X155606231Y-108687887D01*
X155583654Y-108751073D01*
X155579372Y-108760689D01*
X155550172Y-108816966D01*
X155517356Y-108860451D01*
X155475002Y-108897417D01*
X155417190Y-108934135D01*
X155413831Y-108936052D01*
X155363504Y-108960227D01*
X155306621Y-108978282D01*
X155239527Y-108990839D01*
X155158565Y-108998522D01*
X155060082Y-109001953D01*
X155025286Y-109002251D01*
X154859594Y-109002845D01*
X154836197Y-108973100D01*
X154829257Y-108963319D01*
X154823842Y-108951897D01*
X154819765Y-108936095D01*
X154816837Y-108913175D01*
X154814867Y-108880396D01*
X154814225Y-108856089D01*
X154970844Y-108856089D01*
X155064726Y-108856089D01*
X155119664Y-108854483D01*
X155176060Y-108850255D01*
X155222345Y-108844292D01*
X155225139Y-108843790D01*
X155307348Y-108821736D01*
X155371114Y-108788600D01*
X155418452Y-108742847D01*
X155451382Y-108682939D01*
X155457108Y-108667061D01*
X155462721Y-108642333D01*
X155460291Y-108617902D01*
X155448467Y-108585400D01*
X155441340Y-108569434D01*
X155418000Y-108527006D01*
X155389880Y-108497240D01*
X155358940Y-108476511D01*
X155296966Y-108449537D01*
X155217651Y-108429998D01*
X155125253Y-108418746D01*
X155058333Y-108416270D01*
X154970844Y-108415822D01*
X154970844Y-108856089D01*
X154814225Y-108856089D01*
X154813668Y-108835021D01*
X154813050Y-108774311D01*
X154812825Y-108695526D01*
X154812800Y-108633920D01*
X154812800Y-108324485D01*
X154840509Y-108296776D01*
X154852806Y-108285544D01*
X154866103Y-108277853D01*
X154884672Y-108273040D01*
X154912786Y-108270446D01*
X154954717Y-108269410D01*
X155014737Y-108269270D01*
X155018309Y-108269275D01*
G36*
X155018309Y-108269275D02*
G01*
X155147288Y-108273636D01*
X155256991Y-108286861D01*
X155349226Y-108309741D01*
X155425802Y-108343070D01*
X155488527Y-108387638D01*
X155539212Y-108444236D01*
X155579663Y-108513658D01*
X155580459Y-108515351D01*
X155604601Y-108577483D01*
X155613203Y-108632509D01*
X155606231Y-108687887D01*
X155583654Y-108751073D01*
X155579372Y-108760689D01*
X155550172Y-108816966D01*
X155517356Y-108860451D01*
X155475002Y-108897417D01*
X155417190Y-108934135D01*
X155413831Y-108936052D01*
X155363504Y-108960227D01*
X155306621Y-108978282D01*
X155239527Y-108990839D01*
X155158565Y-108998522D01*
X155060082Y-109001953D01*
X155025286Y-109002251D01*
X154859594Y-109002845D01*
X154836197Y-108973100D01*
X154829257Y-108963319D01*
X154823842Y-108951897D01*
X154819765Y-108936095D01*
X154816837Y-108913175D01*
X154814867Y-108880396D01*
X154814225Y-108856089D01*
X154970844Y-108856089D01*
X155064726Y-108856089D01*
X155119664Y-108854483D01*
X155176060Y-108850255D01*
X155222345Y-108844292D01*
X155225139Y-108843790D01*
X155307348Y-108821736D01*
X155371114Y-108788600D01*
X155418452Y-108742847D01*
X155451382Y-108682939D01*
X155457108Y-108667061D01*
X155462721Y-108642333D01*
X155460291Y-108617902D01*
X155448467Y-108585400D01*
X155441340Y-108569434D01*
X155418000Y-108527006D01*
X155389880Y-108497240D01*
X155358940Y-108476511D01*
X155296966Y-108449537D01*
X155217651Y-108429998D01*
X155125253Y-108418746D01*
X155058333Y-108416270D01*
X154970844Y-108415822D01*
X154970844Y-108856089D01*
X154814225Y-108856089D01*
X154813668Y-108835021D01*
X154813050Y-108774311D01*
X154812825Y-108695526D01*
X154812800Y-108633920D01*
X154812800Y-108324485D01*
X154840509Y-108296776D01*
X154852806Y-108285544D01*
X154866103Y-108277853D01*
X154884672Y-108273040D01*
X154912786Y-108270446D01*
X154954717Y-108269410D01*
X155014737Y-108269270D01*
X155018309Y-108269275D01*
G37*
X147878629Y-108269066D02*
X147918111Y-108269467D01*
X148033800Y-108272259D01*
X148130689Y-108280550D01*
X148212081Y-108295232D01*
X148281277Y-108317193D01*
X148341580Y-108347322D01*
X148396292Y-108386510D01*
X148415833Y-108403532D01*
X148448250Y-108443363D01*
X148477480Y-108497413D01*
X148500009Y-108557323D01*
X148512321Y-108614739D01*
X148513600Y-108635956D01*
X148505583Y-108694769D01*
X148484101Y-108759013D01*
X148453001Y-108819821D01*
X148416134Y-108868330D01*
X148410146Y-108874182D01*
X148359421Y-108915321D01*
X148303875Y-108947435D01*
X148240304Y-108971365D01*
X148165506Y-108987953D01*
X148076278Y-108998041D01*
X147969418Y-109002469D01*
X147920472Y-109002845D01*
X147858238Y-109002545D01*
X147814472Y-109001292D01*
X147785069Y-108998554D01*
X147765921Y-108993801D01*
X147752923Y-108986501D01*
X147745955Y-108980267D01*
X147739374Y-108972694D01*
X147734212Y-108962924D01*
X147730297Y-108948340D01*
X147727457Y-108926326D01*
X147725520Y-108894264D01*
X147724316Y-108849536D01*
X147723672Y-108789526D01*
X147723417Y-108711617D01*
X147723378Y-108635956D01*
X147723130Y-108535041D01*
X147723183Y-108454427D01*
X147724143Y-108415822D01*
X147870133Y-108415822D01*
X147870133Y-108856089D01*
X147963266Y-108856004D01*
X148019307Y-108854396D01*
X148078001Y-108850256D01*
X148126972Y-108844464D01*
X148128462Y-108844226D01*
X148207608Y-108825090D01*
X148268998Y-108795287D01*
X148315695Y-108752878D01*
X148345365Y-108706961D01*
X148363647Y-108656026D01*
X148362229Y-108608200D01*
X148341012Y-108556933D01*
X148299511Y-108503899D01*
X148242002Y-108464600D01*
X148167250Y-108438331D01*
X148117292Y-108429035D01*
X148060584Y-108422507D01*
X148000481Y-108417782D01*
X147949361Y-108415817D01*
X147946333Y-108415808D01*
X147870133Y-108415822D01*
X147724143Y-108415822D01*
X147724740Y-108391851D01*
X147729002Y-108345055D01*
X147737170Y-108311778D01*
X147750444Y-108289759D01*
X147770026Y-108276739D01*
X147797117Y-108270457D01*
X147832918Y-108268653D01*
X147878629Y-108269066D01*
G36*
X147878629Y-108269066D02*
G01*
X147918111Y-108269467D01*
X148033800Y-108272259D01*
X148130689Y-108280550D01*
X148212081Y-108295232D01*
X148281277Y-108317193D01*
X148341580Y-108347322D01*
X148396292Y-108386510D01*
X148415833Y-108403532D01*
X148448250Y-108443363D01*
X148477480Y-108497413D01*
X148500009Y-108557323D01*
X148512321Y-108614739D01*
X148513600Y-108635956D01*
X148505583Y-108694769D01*
X148484101Y-108759013D01*
X148453001Y-108819821D01*
X148416134Y-108868330D01*
X148410146Y-108874182D01*
X148359421Y-108915321D01*
X148303875Y-108947435D01*
X148240304Y-108971365D01*
X148165506Y-108987953D01*
X148076278Y-108998041D01*
X147969418Y-109002469D01*
X147920472Y-109002845D01*
X147858238Y-109002545D01*
X147814472Y-109001292D01*
X147785069Y-108998554D01*
X147765921Y-108993801D01*
X147752923Y-108986501D01*
X147745955Y-108980267D01*
X147739374Y-108972694D01*
X147734212Y-108962924D01*
X147730297Y-108948340D01*
X147727457Y-108926326D01*
X147725520Y-108894264D01*
X147724316Y-108849536D01*
X147723672Y-108789526D01*
X147723417Y-108711617D01*
X147723378Y-108635956D01*
X147723130Y-108535041D01*
X147723183Y-108454427D01*
X147724143Y-108415822D01*
X147870133Y-108415822D01*
X147870133Y-108856089D01*
X147963266Y-108856004D01*
X148019307Y-108854396D01*
X148078001Y-108850256D01*
X148126972Y-108844464D01*
X148128462Y-108844226D01*
X148207608Y-108825090D01*
X148268998Y-108795287D01*
X148315695Y-108752878D01*
X148345365Y-108706961D01*
X148363647Y-108656026D01*
X148362229Y-108608200D01*
X148341012Y-108556933D01*
X148299511Y-108503899D01*
X148242002Y-108464600D01*
X148167250Y-108438331D01*
X148117292Y-108429035D01*
X148060584Y-108422507D01*
X148000481Y-108417782D01*
X147949361Y-108415817D01*
X147946333Y-108415808D01*
X147870133Y-108415822D01*
X147724143Y-108415822D01*
X147724740Y-108391851D01*
X147729002Y-108345055D01*
X147737170Y-108311778D01*
X147750444Y-108289759D01*
X147770026Y-108276739D01*
X147797117Y-108270457D01*
X147832918Y-108268653D01*
X147878629Y-108269066D01*
G37*
X152699886Y-108273448D02*
X152723452Y-108287273D01*
X152754265Y-108309881D01*
X152793922Y-108342338D01*
X152844020Y-108385708D01*
X152906157Y-108441058D01*
X152981928Y-108509451D01*
X153068666Y-108588084D01*
X153249289Y-108751878D01*
X153254933Y-108532029D01*
X153256971Y-108456351D01*
X153258937Y-108399994D01*
X153261266Y-108359706D01*
X153264394Y-108332235D01*
X153268755Y-108314329D01*
X153274784Y-108302737D01*
X153282916Y-108294208D01*
X153287228Y-108290623D01*
X153321759Y-108271670D01*
X153354617Y-108274441D01*
X153380682Y-108290633D01*
X153407333Y-108312199D01*
X153410648Y-108627151D01*
X153411565Y-108719779D01*
X153412032Y-108792544D01*
X153411887Y-108848161D01*
X153410968Y-108889342D01*
X153409113Y-108918803D01*
X153406161Y-108939255D01*
X153401950Y-108953413D01*
X153396318Y-108963991D01*
X153390073Y-108972474D01*
X153376561Y-108988207D01*
X153363117Y-108998636D01*
X153347876Y-109002639D01*
X153328974Y-108999094D01*
X153304545Y-108986879D01*
X153272727Y-108964871D01*
X153231652Y-108931949D01*
X153179458Y-108886991D01*
X153114278Y-108828875D01*
X153040444Y-108762099D01*
X152775155Y-108521458D01*
X152769511Y-108740589D01*
X152767469Y-108816128D01*
X152765498Y-108872354D01*
X152763161Y-108912524D01*
X152760019Y-108939896D01*
X152755636Y-108957728D01*
X152749576Y-108969279D01*
X152741400Y-108977807D01*
X152737216Y-108981282D01*
X152700235Y-109000372D01*
X152665292Y-108997493D01*
X152634864Y-108973100D01*
X152627903Y-108963286D01*
X152622477Y-108951826D01*
X152618397Y-108935968D01*
X152615471Y-108912963D01*
X152613508Y-108880062D01*
X152612317Y-108834516D01*
X152611708Y-108773573D01*
X152611489Y-108694486D01*
X152611466Y-108635956D01*
X152611540Y-108544407D01*
X152611887Y-108472687D01*
X152612699Y-108418045D01*
X152614167Y-108377732D01*
X152616481Y-108348998D01*
X152619833Y-108329093D01*
X152624412Y-108315268D01*
X152630411Y-108304772D01*
X152634864Y-108298811D01*
X152646150Y-108284691D01*
X152656699Y-108274029D01*
X152668107Y-108267892D01*
X152681970Y-108267343D01*
X152699886Y-108273448D01*
G36*
X152699886Y-108273448D02*
G01*
X152723452Y-108287273D01*
X152754265Y-108309881D01*
X152793922Y-108342338D01*
X152844020Y-108385708D01*
X152906157Y-108441058D01*
X152981928Y-108509451D01*
X153068666Y-108588084D01*
X153249289Y-108751878D01*
X153254933Y-108532029D01*
X153256971Y-108456351D01*
X153258937Y-108399994D01*
X153261266Y-108359706D01*
X153264394Y-108332235D01*
X153268755Y-108314329D01*
X153274784Y-108302737D01*
X153282916Y-108294208D01*
X153287228Y-108290623D01*
X153321759Y-108271670D01*
X153354617Y-108274441D01*
X153380682Y-108290633D01*
X153407333Y-108312199D01*
X153410648Y-108627151D01*
X153411565Y-108719779D01*
X153412032Y-108792544D01*
X153411887Y-108848161D01*
X153410968Y-108889342D01*
X153409113Y-108918803D01*
X153406161Y-108939255D01*
X153401950Y-108953413D01*
X153396318Y-108963991D01*
X153390073Y-108972474D01*
X153376561Y-108988207D01*
X153363117Y-108998636D01*
X153347876Y-109002639D01*
X153328974Y-108999094D01*
X153304545Y-108986879D01*
X153272727Y-108964871D01*
X153231652Y-108931949D01*
X153179458Y-108886991D01*
X153114278Y-108828875D01*
X153040444Y-108762099D01*
X152775155Y-108521458D01*
X152769511Y-108740589D01*
X152767469Y-108816128D01*
X152765498Y-108872354D01*
X152763161Y-108912524D01*
X152760019Y-108939896D01*
X152755636Y-108957728D01*
X152749576Y-108969279D01*
X152741400Y-108977807D01*
X152737216Y-108981282D01*
X152700235Y-109000372D01*
X152665292Y-108997493D01*
X152634864Y-108973100D01*
X152627903Y-108963286D01*
X152622477Y-108951826D01*
X152618397Y-108935968D01*
X152615471Y-108912963D01*
X152613508Y-108880062D01*
X152612317Y-108834516D01*
X152611708Y-108773573D01*
X152611489Y-108694486D01*
X152611466Y-108635956D01*
X152611540Y-108544407D01*
X152611887Y-108472687D01*
X152612699Y-108418045D01*
X152614167Y-108377732D01*
X152616481Y-108348998D01*
X152619833Y-108329093D01*
X152624412Y-108315268D01*
X152630411Y-108304772D01*
X152634864Y-108298811D01*
X152646150Y-108284691D01*
X152656699Y-108274029D01*
X152668107Y-108267892D01*
X152681970Y-108267343D01*
X152699886Y-108273448D01*
G37*
X152049919Y-108274599D02*
X152118435Y-108286095D01*
X152171057Y-108303967D01*
X152205292Y-108327499D01*
X152214621Y-108340924D01*
X152224107Y-108372148D01*
X152217723Y-108400395D01*
X152197570Y-108427182D01*
X152166255Y-108439713D01*
X152120817Y-108438696D01*
X152085674Y-108431906D01*
X152007581Y-108418971D01*
X151927774Y-108417742D01*
X151838445Y-108428241D01*
X151813771Y-108432690D01*
X151730709Y-108456108D01*
X151665727Y-108490945D01*
X151619539Y-108536604D01*
X151592855Y-108592494D01*
X151587337Y-108621388D01*
X151590949Y-108680012D01*
X151614271Y-108731879D01*
X151655176Y-108775978D01*
X151711541Y-108811299D01*
X151781240Y-108836829D01*
X151862148Y-108851559D01*
X151952140Y-108854478D01*
X152049090Y-108844575D01*
X152054564Y-108843641D01*
X152093125Y-108836459D01*
X152114506Y-108829521D01*
X152123773Y-108819227D01*
X152125994Y-108801976D01*
X152126044Y-108792841D01*
X152126044Y-108754489D01*
X152057569Y-108754489D01*
X151997100Y-108750347D01*
X151955835Y-108737147D01*
X151931825Y-108713730D01*
X151923123Y-108678936D01*
X151923017Y-108674394D01*
X151928108Y-108644654D01*
X151945567Y-108623419D01*
X151978061Y-108609366D01*
X152028257Y-108601173D01*
X152076877Y-108598161D01*
X152147544Y-108596433D01*
X152198802Y-108599070D01*
X152233761Y-108608800D01*
X152255530Y-108628353D01*
X152267220Y-108660456D01*
X152271940Y-108707838D01*
X152272800Y-108770071D01*
X152271391Y-108839535D01*
X152267152Y-108886786D01*
X152260064Y-108912012D01*
X152258689Y-108913988D01*
X152219772Y-108945508D01*
X152162714Y-108970470D01*
X152091131Y-108988340D01*
X152008642Y-108998586D01*
X151918861Y-109000673D01*
X151825408Y-108994068D01*
X151770444Y-108985956D01*
X151684234Y-108961554D01*
X151604108Y-108921662D01*
X151537023Y-108869887D01*
X151526827Y-108859539D01*
X151493698Y-108816035D01*
X151463806Y-108762118D01*
X151440643Y-108705592D01*
X151427702Y-108654259D01*
X151426142Y-108634544D01*
X151432782Y-108593419D01*
X151450432Y-108542252D01*
X151475703Y-108488394D01*
X151505211Y-108439195D01*
X151531281Y-108406334D01*
X151592235Y-108357452D01*
X151671031Y-108318545D01*
X151764843Y-108290494D01*
X151870850Y-108274179D01*
X151968000Y-108270192D01*
X152049919Y-108274599D01*
G36*
X152049919Y-108274599D02*
G01*
X152118435Y-108286095D01*
X152171057Y-108303967D01*
X152205292Y-108327499D01*
X152214621Y-108340924D01*
X152224107Y-108372148D01*
X152217723Y-108400395D01*
X152197570Y-108427182D01*
X152166255Y-108439713D01*
X152120817Y-108438696D01*
X152085674Y-108431906D01*
X152007581Y-108418971D01*
X151927774Y-108417742D01*
X151838445Y-108428241D01*
X151813771Y-108432690D01*
X151730709Y-108456108D01*
X151665727Y-108490945D01*
X151619539Y-108536604D01*
X151592855Y-108592494D01*
X151587337Y-108621388D01*
X151590949Y-108680012D01*
X151614271Y-108731879D01*
X151655176Y-108775978D01*
X151711541Y-108811299D01*
X151781240Y-108836829D01*
X151862148Y-108851559D01*
X151952140Y-108854478D01*
X152049090Y-108844575D01*
X152054564Y-108843641D01*
X152093125Y-108836459D01*
X152114506Y-108829521D01*
X152123773Y-108819227D01*
X152125994Y-108801976D01*
X152126044Y-108792841D01*
X152126044Y-108754489D01*
X152057569Y-108754489D01*
X151997100Y-108750347D01*
X151955835Y-108737147D01*
X151931825Y-108713730D01*
X151923123Y-108678936D01*
X151923017Y-108674394D01*
X151928108Y-108644654D01*
X151945567Y-108623419D01*
X151978061Y-108609366D01*
X152028257Y-108601173D01*
X152076877Y-108598161D01*
X152147544Y-108596433D01*
X152198802Y-108599070D01*
X152233761Y-108608800D01*
X152255530Y-108628353D01*
X152267220Y-108660456D01*
X152271940Y-108707838D01*
X152272800Y-108770071D01*
X152271391Y-108839535D01*
X152267152Y-108886786D01*
X152260064Y-108912012D01*
X152258689Y-108913988D01*
X152219772Y-108945508D01*
X152162714Y-108970470D01*
X152091131Y-108988340D01*
X152008642Y-108998586D01*
X151918861Y-109000673D01*
X151825408Y-108994068D01*
X151770444Y-108985956D01*
X151684234Y-108961554D01*
X151604108Y-108921662D01*
X151537023Y-108869887D01*
X151526827Y-108859539D01*
X151493698Y-108816035D01*
X151463806Y-108762118D01*
X151440643Y-108705592D01*
X151427702Y-108654259D01*
X151426142Y-108634544D01*
X151432782Y-108593419D01*
X151450432Y-108542252D01*
X151475703Y-108488394D01*
X151505211Y-108439195D01*
X151531281Y-108406334D01*
X151592235Y-108357452D01*
X151671031Y-108318545D01*
X151764843Y-108290494D01*
X151870850Y-108274179D01*
X151968000Y-108270192D01*
X152049919Y-108274599D01*
G37*
X154230343Y-108269260D02*
X154306701Y-108270174D01*
X154365217Y-108272311D01*
X154408255Y-108276175D01*
X154438183Y-108282267D01*
X154457368Y-108291090D01*
X154468176Y-108303146D01*
X154472973Y-108318939D01*
X154474127Y-108338970D01*
X154474133Y-108341335D01*
X154473131Y-108363992D01*
X154468396Y-108381503D01*
X154457333Y-108394574D01*
X154437348Y-108403913D01*
X154405846Y-108410227D01*
X154360232Y-108414222D01*
X154297913Y-108416606D01*
X154216293Y-108418086D01*
X154191277Y-108418414D01*
X153949200Y-108421467D01*
X153945814Y-108486378D01*
X153942429Y-108551289D01*
X154110576Y-108551289D01*
X154176266Y-108551531D01*
X154223172Y-108552556D01*
X154255083Y-108554811D01*
X154275791Y-108558742D01*
X154289084Y-108564798D01*
X154298755Y-108573424D01*
X154298817Y-108573493D01*
X154316356Y-108607112D01*
X154315722Y-108643448D01*
X154297314Y-108674423D01*
X154293671Y-108677607D01*
X154280741Y-108685812D01*
X154263024Y-108691521D01*
X154236570Y-108695162D01*
X154197432Y-108697167D01*
X154141662Y-108697964D01*
X154105994Y-108698045D01*
X153943555Y-108698045D01*
X153943555Y-108856089D01*
X154190161Y-108856089D01*
X154271580Y-108856231D01*
X154333410Y-108856814D01*
X154378637Y-108858068D01*
X154410248Y-108860227D01*
X154431231Y-108863523D01*
X154444573Y-108868189D01*
X154453261Y-108874457D01*
X154455450Y-108876733D01*
X154471614Y-108908280D01*
X154472797Y-108944168D01*
X154459536Y-108975285D01*
X154449043Y-108985271D01*
X154438129Y-108990769D01*
X154421217Y-108995022D01*
X154395633Y-108998180D01*
X154358701Y-109000392D01*
X154307746Y-109001806D01*
X154240094Y-109002572D01*
X154153069Y-109002838D01*
X154133394Y-109002845D01*
X154044911Y-109002787D01*
X153976227Y-109002467D01*
X153924564Y-109001667D01*
X153887145Y-109000167D01*
X153861190Y-108997749D01*
X153843922Y-108994194D01*
X153832562Y-108989282D01*
X153824332Y-108982795D01*
X153819817Y-108978138D01*
X153813021Y-108969889D01*
X153807712Y-108959669D01*
X153803706Y-108944800D01*
X153800821Y-108922602D01*
X153798874Y-108890393D01*
X153797681Y-108845496D01*
X153797061Y-108785228D01*
X153796829Y-108706911D01*
X153796800Y-108640994D01*
X153796871Y-108548628D01*
X153797208Y-108476117D01*
X153797998Y-108420737D01*
X153799426Y-108379765D01*
X153801679Y-108350478D01*
X153804943Y-108330153D01*
X153809404Y-108316066D01*
X153815248Y-108305495D01*
X153820197Y-108298811D01*
X153843594Y-108269067D01*
X154133774Y-108269067D01*
X154230343Y-108269260D01*
G36*
X154230343Y-108269260D02*
G01*
X154306701Y-108270174D01*
X154365217Y-108272311D01*
X154408255Y-108276175D01*
X154438183Y-108282267D01*
X154457368Y-108291090D01*
X154468176Y-108303146D01*
X154472973Y-108318939D01*
X154474127Y-108338970D01*
X154474133Y-108341335D01*
X154473131Y-108363992D01*
X154468396Y-108381503D01*
X154457333Y-108394574D01*
X154437348Y-108403913D01*
X154405846Y-108410227D01*
X154360232Y-108414222D01*
X154297913Y-108416606D01*
X154216293Y-108418086D01*
X154191277Y-108418414D01*
X153949200Y-108421467D01*
X153945814Y-108486378D01*
X153942429Y-108551289D01*
X154110576Y-108551289D01*
X154176266Y-108551531D01*
X154223172Y-108552556D01*
X154255083Y-108554811D01*
X154275791Y-108558742D01*
X154289084Y-108564798D01*
X154298755Y-108573424D01*
X154298817Y-108573493D01*
X154316356Y-108607112D01*
X154315722Y-108643448D01*
X154297314Y-108674423D01*
X154293671Y-108677607D01*
X154280741Y-108685812D01*
X154263024Y-108691521D01*
X154236570Y-108695162D01*
X154197432Y-108697167D01*
X154141662Y-108697964D01*
X154105994Y-108698045D01*
X153943555Y-108698045D01*
X153943555Y-108856089D01*
X154190161Y-108856089D01*
X154271580Y-108856231D01*
X154333410Y-108856814D01*
X154378637Y-108858068D01*
X154410248Y-108860227D01*
X154431231Y-108863523D01*
X154444573Y-108868189D01*
X154453261Y-108874457D01*
X154455450Y-108876733D01*
X154471614Y-108908280D01*
X154472797Y-108944168D01*
X154459536Y-108975285D01*
X154449043Y-108985271D01*
X154438129Y-108990769D01*
X154421217Y-108995022D01*
X154395633Y-108998180D01*
X154358701Y-109000392D01*
X154307746Y-109001806D01*
X154240094Y-109002572D01*
X154153069Y-109002838D01*
X154133394Y-109002845D01*
X154044911Y-109002787D01*
X153976227Y-109002467D01*
X153924564Y-109001667D01*
X153887145Y-109000167D01*
X153861190Y-108997749D01*
X153843922Y-108994194D01*
X153832562Y-108989282D01*
X153824332Y-108982795D01*
X153819817Y-108978138D01*
X153813021Y-108969889D01*
X153807712Y-108959669D01*
X153803706Y-108944800D01*
X153800821Y-108922602D01*
X153798874Y-108890393D01*
X153797681Y-108845496D01*
X153797061Y-108785228D01*
X153796829Y-108706911D01*
X153796800Y-108640994D01*
X153796871Y-108548628D01*
X153797208Y-108476117D01*
X153797998Y-108420737D01*
X153799426Y-108379765D01*
X153801679Y-108350478D01*
X153804943Y-108330153D01*
X153809404Y-108316066D01*
X153815248Y-108305495D01*
X153820197Y-108298811D01*
X153843594Y-108269067D01*
X154133774Y-108269067D01*
X154230343Y-108269260D01*
G37*
X149287206Y-108269146D02*
X149356614Y-108269518D01*
X149409003Y-108270385D01*
X149447153Y-108271946D01*
X149473841Y-108274403D01*
X149491847Y-108277957D01*
X149503951Y-108282810D01*
X149512931Y-108289161D01*
X149516182Y-108292084D01*
X149535957Y-108323142D01*
X149539518Y-108358828D01*
X149526509Y-108390510D01*
X149520494Y-108396913D01*
X149510765Y-108403121D01*
X149495099Y-108407910D01*
X149470592Y-108411514D01*
X149434339Y-108414164D01*
X149383435Y-108416095D01*
X149314974Y-108417539D01*
X149252383Y-108418418D01*
X149004666Y-108421467D01*
X149001281Y-108486378D01*
X148997895Y-108551289D01*
X149166042Y-108551289D01*
X149239041Y-108551919D01*
X149292483Y-108554553D01*
X149329372Y-108560309D01*
X149352712Y-108570304D01*
X149365506Y-108585656D01*
X149370758Y-108607482D01*
X149371555Y-108627738D01*
X149369077Y-108652592D01*
X149359723Y-108670906D01*
X149340617Y-108683637D01*
X149308882Y-108691741D01*
X149261641Y-108696176D01*
X149196017Y-108697899D01*
X149160199Y-108698045D01*
X148999022Y-108698045D01*
X148999022Y-108856089D01*
X149247378Y-108856089D01*
X149328787Y-108856202D01*
X149390658Y-108856712D01*
X149436032Y-108857870D01*
X149467946Y-108859930D01*
X149489441Y-108863146D01*
X149503557Y-108867772D01*
X149513332Y-108874059D01*
X149518311Y-108878667D01*
X149535390Y-108905560D01*
X149540889Y-108929467D01*
X149533037Y-108958667D01*
X149518311Y-108980267D01*
X149510454Y-108987066D01*
X149500312Y-108992346D01*
X149485156Y-108996298D01*
X149462259Y-108999113D01*
X149428891Y-109000982D01*
X149382325Y-109002098D01*
X149319833Y-109002651D01*
X149238686Y-109002833D01*
X149196578Y-109002845D01*
X149106402Y-109002765D01*
X149036076Y-109002398D01*
X148982871Y-109001552D01*
X148944060Y-109000036D01*
X148916913Y-108997659D01*
X148898702Y-108994229D01*
X148886700Y-108989554D01*
X148878178Y-108983444D01*
X148874844Y-108980267D01*
X148868245Y-108972670D01*
X148863073Y-108962870D01*
X148859154Y-108948239D01*
X148856316Y-108926152D01*
X148854385Y-108893982D01*
X148853188Y-108849103D01*
X148852552Y-108788889D01*
X148852303Y-108710713D01*
X148852266Y-108637923D01*
X148852300Y-108544707D01*
X148852535Y-108471431D01*
X148853170Y-108415458D01*
X148854406Y-108374151D01*
X148856444Y-108344872D01*
X148859483Y-108324984D01*
X148863723Y-108311850D01*
X148869365Y-108302832D01*
X148876609Y-108295293D01*
X148878394Y-108293612D01*
X148887055Y-108286172D01*
X148897118Y-108280409D01*
X148911375Y-108276112D01*
X148932617Y-108273064D01*
X148963636Y-108271051D01*
X149007223Y-108269860D01*
X149066169Y-108269275D01*
X149143266Y-108269083D01*
X149197999Y-108269067D01*
X149287206Y-108269146D01*
G36*
X149287206Y-108269146D02*
G01*
X149356614Y-108269518D01*
X149409003Y-108270385D01*
X149447153Y-108271946D01*
X149473841Y-108274403D01*
X149491847Y-108277957D01*
X149503951Y-108282810D01*
X149512931Y-108289161D01*
X149516182Y-108292084D01*
X149535957Y-108323142D01*
X149539518Y-108358828D01*
X149526509Y-108390510D01*
X149520494Y-108396913D01*
X149510765Y-108403121D01*
X149495099Y-108407910D01*
X149470592Y-108411514D01*
X149434339Y-108414164D01*
X149383435Y-108416095D01*
X149314974Y-108417539D01*
X149252383Y-108418418D01*
X149004666Y-108421467D01*
X149001281Y-108486378D01*
X148997895Y-108551289D01*
X149166042Y-108551289D01*
X149239041Y-108551919D01*
X149292483Y-108554553D01*
X149329372Y-108560309D01*
X149352712Y-108570304D01*
X149365506Y-108585656D01*
X149370758Y-108607482D01*
X149371555Y-108627738D01*
X149369077Y-108652592D01*
X149359723Y-108670906D01*
X149340617Y-108683637D01*
X149308882Y-108691741D01*
X149261641Y-108696176D01*
X149196017Y-108697899D01*
X149160199Y-108698045D01*
X148999022Y-108698045D01*
X148999022Y-108856089D01*
X149247378Y-108856089D01*
X149328787Y-108856202D01*
X149390658Y-108856712D01*
X149436032Y-108857870D01*
X149467946Y-108859930D01*
X149489441Y-108863146D01*
X149503557Y-108867772D01*
X149513332Y-108874059D01*
X149518311Y-108878667D01*
X149535390Y-108905560D01*
X149540889Y-108929467D01*
X149533037Y-108958667D01*
X149518311Y-108980267D01*
X149510454Y-108987066D01*
X149500312Y-108992346D01*
X149485156Y-108996298D01*
X149462259Y-108999113D01*
X149428891Y-109000982D01*
X149382325Y-109002098D01*
X149319833Y-109002651D01*
X149238686Y-109002833D01*
X149196578Y-109002845D01*
X149106402Y-109002765D01*
X149036076Y-109002398D01*
X148982871Y-109001552D01*
X148944060Y-109000036D01*
X148916913Y-108997659D01*
X148898702Y-108994229D01*
X148886700Y-108989554D01*
X148878178Y-108983444D01*
X148874844Y-108980267D01*
X148868245Y-108972670D01*
X148863073Y-108962870D01*
X148859154Y-108948239D01*
X148856316Y-108926152D01*
X148854385Y-108893982D01*
X148853188Y-108849103D01*
X148852552Y-108788889D01*
X148852303Y-108710713D01*
X148852266Y-108637923D01*
X148852300Y-108544707D01*
X148852535Y-108471431D01*
X148853170Y-108415458D01*
X148854406Y-108374151D01*
X148856444Y-108344872D01*
X148859483Y-108324984D01*
X148863723Y-108311850D01*
X148869365Y-108302832D01*
X148876609Y-108295293D01*
X148878394Y-108293612D01*
X148887055Y-108286172D01*
X148897118Y-108280409D01*
X148911375Y-108276112D01*
X148932617Y-108273064D01*
X148963636Y-108271051D01*
X149007223Y-108269860D01*
X149066169Y-108269275D01*
X149143266Y-108269083D01*
X149197999Y-108269067D01*
X149287206Y-108269146D01*
G37*
X157744665Y-108271034D02*
X157764255Y-108278035D01*
X157765010Y-108278377D01*
X157791613Y-108298678D01*
X157806270Y-108319561D01*
X157809138Y-108329352D01*
X157808996Y-108342361D01*
X157804961Y-108360895D01*
X157796146Y-108387257D01*
X157781669Y-108423752D01*
X157760645Y-108472687D01*
X157732188Y-108536365D01*
X157695415Y-108617093D01*
X157675175Y-108661216D01*
X157638625Y-108739985D01*
X157604315Y-108812423D01*
X157573552Y-108875880D01*
X157547648Y-108927708D01*
X157527910Y-108965259D01*
X157515650Y-108985884D01*
X157513224Y-108988733D01*
X157482183Y-109001302D01*
X157447121Y-108999619D01*
X157419000Y-108984332D01*
X157417854Y-108983089D01*
X157406668Y-108966154D01*
X157387904Y-108933170D01*
X157363875Y-108888380D01*
X157336897Y-108836032D01*
X157327201Y-108816742D01*
X157254014Y-108670150D01*
X157174240Y-108829393D01*
X157145767Y-108884415D01*
X157119350Y-108932132D01*
X157097148Y-108968893D01*
X157081319Y-108991044D01*
X157075954Y-108995741D01*
X157034257Y-109002102D01*
X156999849Y-108988733D01*
X156989728Y-108974446D01*
X156972214Y-108942692D01*
X156948735Y-108896597D01*
X156920720Y-108839285D01*
X156889599Y-108773880D01*
X156856799Y-108703507D01*
X156823750Y-108631291D01*
X156791881Y-108560355D01*
X156762619Y-108493825D01*
X156737395Y-108434826D01*
X156717636Y-108386481D01*
X156704772Y-108351915D01*
X156700231Y-108334253D01*
X156700277Y-108333613D01*
X156711326Y-108311388D01*
X156733410Y-108288753D01*
X156734710Y-108287768D01*
X156761853Y-108272425D01*
X156786958Y-108272574D01*
X156796368Y-108275466D01*
X156807834Y-108281718D01*
X156820010Y-108294014D01*
X156834357Y-108314908D01*
X156852336Y-108346949D01*
X156875407Y-108392688D01*
X156905030Y-108454677D01*
X156931745Y-108511898D01*
X156962480Y-108578226D01*
X156990021Y-108637874D01*
X157012938Y-108687725D01*
X157029798Y-108724664D01*
X157039173Y-108745573D01*
X157040540Y-108748845D01*
X157046689Y-108743497D01*
X157060822Y-108721109D01*
X157081057Y-108684946D01*
X157105515Y-108638277D01*
X157115248Y-108619022D01*
X157148217Y-108554004D01*
X157173643Y-108506654D01*
X157193612Y-108474219D01*
X157210210Y-108453946D01*
X157225524Y-108443082D01*
X157241640Y-108438875D01*
X157252143Y-108438400D01*
X157270670Y-108440042D01*
X157286904Y-108446831D01*
X157303035Y-108461566D01*
X157321251Y-108487044D01*
X157343739Y-108526061D01*
X157372689Y-108581414D01*
X157388662Y-108612903D01*
X157414570Y-108663087D01*
X157437167Y-108704704D01*
X157454458Y-108734242D01*
X157464450Y-108748189D01*
X157465809Y-108748770D01*
X157472261Y-108737793D01*
X157486708Y-108709290D01*
X157507703Y-108666244D01*
X157533797Y-108611638D01*
X157563546Y-108548454D01*
X157578180Y-108517071D01*
X157616250Y-108436078D01*
X157646905Y-108373756D01*
X157671737Y-108328071D01*
X157692337Y-108296989D01*
X157710298Y-108278478D01*
X157727210Y-108270504D01*
X157744665Y-108271034D01*
G36*
X157744665Y-108271034D02*
G01*
X157764255Y-108278035D01*
X157765010Y-108278377D01*
X157791613Y-108298678D01*
X157806270Y-108319561D01*
X157809138Y-108329352D01*
X157808996Y-108342361D01*
X157804961Y-108360895D01*
X157796146Y-108387257D01*
X157781669Y-108423752D01*
X157760645Y-108472687D01*
X157732188Y-108536365D01*
X157695415Y-108617093D01*
X157675175Y-108661216D01*
X157638625Y-108739985D01*
X157604315Y-108812423D01*
X157573552Y-108875880D01*
X157547648Y-108927708D01*
X157527910Y-108965259D01*
X157515650Y-108985884D01*
X157513224Y-108988733D01*
X157482183Y-109001302D01*
X157447121Y-108999619D01*
X157419000Y-108984332D01*
X157417854Y-108983089D01*
X157406668Y-108966154D01*
X157387904Y-108933170D01*
X157363875Y-108888380D01*
X157336897Y-108836032D01*
X157327201Y-108816742D01*
X157254014Y-108670150D01*
X157174240Y-108829393D01*
X157145767Y-108884415D01*
X157119350Y-108932132D01*
X157097148Y-108968893D01*
X157081319Y-108991044D01*
X157075954Y-108995741D01*
X157034257Y-109002102D01*
X156999849Y-108988733D01*
X156989728Y-108974446D01*
X156972214Y-108942692D01*
X156948735Y-108896597D01*
X156920720Y-108839285D01*
X156889599Y-108773880D01*
X156856799Y-108703507D01*
X156823750Y-108631291D01*
X156791881Y-108560355D01*
X156762619Y-108493825D01*
X156737395Y-108434826D01*
X156717636Y-108386481D01*
X156704772Y-108351915D01*
X156700231Y-108334253D01*
X156700277Y-108333613D01*
X156711326Y-108311388D01*
X156733410Y-108288753D01*
X156734710Y-108287768D01*
X156761853Y-108272425D01*
X156786958Y-108272574D01*
X156796368Y-108275466D01*
X156807834Y-108281718D01*
X156820010Y-108294014D01*
X156834357Y-108314908D01*
X156852336Y-108346949D01*
X156875407Y-108392688D01*
X156905030Y-108454677D01*
X156931745Y-108511898D01*
X156962480Y-108578226D01*
X156990021Y-108637874D01*
X157012938Y-108687725D01*
X157029798Y-108724664D01*
X157039173Y-108745573D01*
X157040540Y-108748845D01*
X157046689Y-108743497D01*
X157060822Y-108721109D01*
X157081057Y-108684946D01*
X157105515Y-108638277D01*
X157115248Y-108619022D01*
X157148217Y-108554004D01*
X157173643Y-108506654D01*
X157193612Y-108474219D01*
X157210210Y-108453946D01*
X157225524Y-108443082D01*
X157241640Y-108438875D01*
X157252143Y-108438400D01*
X157270670Y-108440042D01*
X157286904Y-108446831D01*
X157303035Y-108461566D01*
X157321251Y-108487044D01*
X157343739Y-108526061D01*
X157372689Y-108581414D01*
X157388662Y-108612903D01*
X157414570Y-108663087D01*
X157437167Y-108704704D01*
X157454458Y-108734242D01*
X157464450Y-108748189D01*
X157465809Y-108748770D01*
X157472261Y-108737793D01*
X157486708Y-108709290D01*
X157507703Y-108666244D01*
X157533797Y-108611638D01*
X157563546Y-108548454D01*
X157578180Y-108517071D01*
X157616250Y-108436078D01*
X157646905Y-108373756D01*
X157671737Y-108328071D01*
X157692337Y-108296989D01*
X157710298Y-108278478D01*
X157727210Y-108270504D01*
X157744665Y-108271034D01*
G37*
X150308297Y-108270351D02*
X150383112Y-108275581D01*
X150452694Y-108283750D01*
X150512998Y-108294550D01*
X150559980Y-108307673D01*
X150589594Y-108322813D01*
X150594140Y-108327269D01*
X150609946Y-108361850D01*
X150605153Y-108397351D01*
X150580636Y-108427725D01*
X150579466Y-108428596D01*
X150565046Y-108437954D01*
X150549992Y-108442876D01*
X150528995Y-108443473D01*
X150496743Y-108439861D01*
X150447927Y-108432154D01*
X150444000Y-108431505D01*
X150371261Y-108422569D01*
X150292783Y-108418161D01*
X150214073Y-108418119D01*
X150140639Y-108422279D01*
X150077989Y-108430479D01*
X150031630Y-108442557D01*
X150028584Y-108443771D01*
X149994952Y-108462615D01*
X149983136Y-108481685D01*
X149992386Y-108500439D01*
X150021953Y-108518337D01*
X150071089Y-108534837D01*
X150139043Y-108549396D01*
X150184355Y-108556406D01*
X150278544Y-108569889D01*
X150353456Y-108582214D01*
X150412283Y-108594449D01*
X150458215Y-108607661D01*
X150494445Y-108622917D01*
X150524162Y-108641285D01*
X150550558Y-108663831D01*
X150571770Y-108685971D01*
X150596935Y-108716819D01*
X150609319Y-108743345D01*
X150613192Y-108776026D01*
X150613333Y-108787995D01*
X150610424Y-108827712D01*
X150598798Y-108857259D01*
X150578677Y-108883486D01*
X150537784Y-108923576D01*
X150492183Y-108954149D01*
X150438487Y-108976203D01*
X150373308Y-108990735D01*
X150293256Y-108998741D01*
X150194943Y-109001218D01*
X150178711Y-109001177D01*
X150113151Y-108999818D01*
X150048134Y-108996730D01*
X149990748Y-108992356D01*
X149948078Y-108987140D01*
X149944628Y-108986541D01*
X149902204Y-108976491D01*
X149866220Y-108963796D01*
X149845850Y-108952190D01*
X149826893Y-108921572D01*
X149825573Y-108885918D01*
X149841915Y-108854144D01*
X149845571Y-108850551D01*
X149860685Y-108839876D01*
X149879585Y-108835276D01*
X149908838Y-108836059D01*
X149944349Y-108840127D01*
X149984030Y-108843762D01*
X150039655Y-108846828D01*
X150104594Y-108849053D01*
X150172215Y-108850164D01*
X150190000Y-108850237D01*
X150257872Y-108849964D01*
X150307546Y-108848646D01*
X150343390Y-108845827D01*
X150369776Y-108841050D01*
X150391074Y-108833857D01*
X150403874Y-108827867D01*
X150432000Y-108811233D01*
X150449932Y-108796168D01*
X150452553Y-108791897D01*
X150447024Y-108774263D01*
X150420740Y-108757192D01*
X150375522Y-108741458D01*
X150313192Y-108727838D01*
X150294829Y-108724804D01*
X150198910Y-108709738D01*
X150122359Y-108697146D01*
X150062220Y-108686111D01*
X150015540Y-108675720D01*
X149979363Y-108665056D01*
X149950735Y-108653205D01*
X149926702Y-108639251D01*
X149904308Y-108622281D01*
X149880598Y-108601378D01*
X149872620Y-108594049D01*
X149844647Y-108566699D01*
X149829840Y-108545029D01*
X149824048Y-108520232D01*
X149823111Y-108488983D01*
X149833425Y-108427705D01*
X149864248Y-108375640D01*
X149915405Y-108332958D01*
X149986717Y-108299825D01*
X150037600Y-108284964D01*
X150092900Y-108275366D01*
X150159147Y-108269936D01*
X150232294Y-108268367D01*
X150308297Y-108270351D01*
G36*
X150308297Y-108270351D02*
G01*
X150383112Y-108275581D01*
X150452694Y-108283750D01*
X150512998Y-108294550D01*
X150559980Y-108307673D01*
X150589594Y-108322813D01*
X150594140Y-108327269D01*
X150609946Y-108361850D01*
X150605153Y-108397351D01*
X150580636Y-108427725D01*
X150579466Y-108428596D01*
X150565046Y-108437954D01*
X150549992Y-108442876D01*
X150528995Y-108443473D01*
X150496743Y-108439861D01*
X150447927Y-108432154D01*
X150444000Y-108431505D01*
X150371261Y-108422569D01*
X150292783Y-108418161D01*
X150214073Y-108418119D01*
X150140639Y-108422279D01*
X150077989Y-108430479D01*
X150031630Y-108442557D01*
X150028584Y-108443771D01*
X149994952Y-108462615D01*
X149983136Y-108481685D01*
X149992386Y-108500439D01*
X150021953Y-108518337D01*
X150071089Y-108534837D01*
X150139043Y-108549396D01*
X150184355Y-108556406D01*
X150278544Y-108569889D01*
X150353456Y-108582214D01*
X150412283Y-108594449D01*
X150458215Y-108607661D01*
X150494445Y-108622917D01*
X150524162Y-108641285D01*
X150550558Y-108663831D01*
X150571770Y-108685971D01*
X150596935Y-108716819D01*
X150609319Y-108743345D01*
X150613192Y-108776026D01*
X150613333Y-108787995D01*
X150610424Y-108827712D01*
X150598798Y-108857259D01*
X150578677Y-108883486D01*
X150537784Y-108923576D01*
X150492183Y-108954149D01*
X150438487Y-108976203D01*
X150373308Y-108990735D01*
X150293256Y-108998741D01*
X150194943Y-109001218D01*
X150178711Y-109001177D01*
X150113151Y-108999818D01*
X150048134Y-108996730D01*
X149990748Y-108992356D01*
X149948078Y-108987140D01*
X149944628Y-108986541D01*
X149902204Y-108976491D01*
X149866220Y-108963796D01*
X149845850Y-108952190D01*
X149826893Y-108921572D01*
X149825573Y-108885918D01*
X149841915Y-108854144D01*
X149845571Y-108850551D01*
X149860685Y-108839876D01*
X149879585Y-108835276D01*
X149908838Y-108836059D01*
X149944349Y-108840127D01*
X149984030Y-108843762D01*
X150039655Y-108846828D01*
X150104594Y-108849053D01*
X150172215Y-108850164D01*
X150190000Y-108850237D01*
X150257872Y-108849964D01*
X150307546Y-108848646D01*
X150343390Y-108845827D01*
X150369776Y-108841050D01*
X150391074Y-108833857D01*
X150403874Y-108827867D01*
X150432000Y-108811233D01*
X150449932Y-108796168D01*
X150452553Y-108791897D01*
X150447024Y-108774263D01*
X150420740Y-108757192D01*
X150375522Y-108741458D01*
X150313192Y-108727838D01*
X150294829Y-108724804D01*
X150198910Y-108709738D01*
X150122359Y-108697146D01*
X150062220Y-108686111D01*
X150015540Y-108675720D01*
X149979363Y-108665056D01*
X149950735Y-108653205D01*
X149926702Y-108639251D01*
X149904308Y-108622281D01*
X149880598Y-108601378D01*
X149872620Y-108594049D01*
X149844647Y-108566699D01*
X149829840Y-108545029D01*
X149824048Y-108520232D01*
X149823111Y-108488983D01*
X149833425Y-108427705D01*
X149864248Y-108375640D01*
X149915405Y-108332958D01*
X149986717Y-108299825D01*
X150037600Y-108284964D01*
X150092900Y-108275366D01*
X150159147Y-108269936D01*
X150232294Y-108268367D01*
X150308297Y-108270351D01*
G37*
X154328429Y-103949071D02*
X154488570Y-103970245D01*
X154652510Y-104010385D01*
X154822313Y-104069889D01*
X155000043Y-104149154D01*
X155011310Y-104154699D01*
X155069005Y-104182725D01*
X155120552Y-104206802D01*
X155162191Y-104225249D01*
X155190162Y-104236386D01*
X155199733Y-104238933D01*
X155218950Y-104243941D01*
X155223561Y-104248147D01*
X155218458Y-104258580D01*
X155202418Y-104284868D01*
X155177288Y-104324257D01*
X155144914Y-104373991D01*
X155107143Y-104431315D01*
X155065822Y-104493476D01*
X155022798Y-104557718D01*
X154979917Y-104621285D01*
X154939026Y-104681425D01*
X154901971Y-104735380D01*
X154870600Y-104780397D01*
X154846759Y-104813721D01*
X154832294Y-104832597D01*
X154830309Y-104834787D01*
X154820191Y-104830138D01*
X154797850Y-104812962D01*
X154767280Y-104786440D01*
X154751536Y-104771964D01*
X154655047Y-104696682D01*
X154548336Y-104641241D01*
X154432832Y-104606141D01*
X154309962Y-104591880D01*
X154240561Y-104593051D01*
X154119423Y-104610212D01*
X154010205Y-104646094D01*
X153912582Y-104700959D01*
X153826228Y-104775070D01*
X153750815Y-104868688D01*
X153686018Y-104982076D01*
X153648601Y-105068667D01*
X153604748Y-105204366D01*
X153572428Y-105351850D01*
X153551557Y-105507314D01*
X153542051Y-105666956D01*
X153543827Y-105826973D01*
X153556803Y-105983561D01*
X153580894Y-106132918D01*
X153616018Y-106271240D01*
X153662092Y-106394724D01*
X153678373Y-106428978D01*
X153746620Y-106543064D01*
X153827079Y-106639557D01*
X153918570Y-106717670D01*
X154019911Y-106776617D01*
X154129920Y-106815612D01*
X154247415Y-106833868D01*
X154288883Y-106835211D01*
X154410441Y-106824290D01*
X154530878Y-106791474D01*
X154648666Y-106737439D01*
X154762277Y-106662865D01*
X154853685Y-106584539D01*
X154900215Y-106540008D01*
X155081483Y-106837271D01*
X155126580Y-106911433D01*
X155167819Y-106979646D01*
X155203735Y-107039459D01*
X155232866Y-107088420D01*
X155253750Y-107124079D01*
X155264924Y-107143984D01*
X155266375Y-107147079D01*
X155258146Y-107156718D01*
X155232567Y-107173999D01*
X155192873Y-107197283D01*
X155142297Y-107224934D01*
X155084074Y-107255315D01*
X155021437Y-107286790D01*
X154957621Y-107317722D01*
X154895860Y-107346473D01*
X154839388Y-107371408D01*
X154791438Y-107390889D01*
X154767986Y-107399318D01*
X154634221Y-107437133D01*
X154496327Y-107462136D01*
X154348622Y-107475140D01*
X154221833Y-107477468D01*
X154153878Y-107476373D01*
X154088277Y-107474275D01*
X154030847Y-107471434D01*
X153987403Y-107468106D01*
X153973298Y-107466422D01*
X153834284Y-107437587D01*
X153692757Y-107392468D01*
X153555275Y-107333750D01*
X153428394Y-107264120D01*
X153350889Y-107211441D01*
X153223481Y-107103239D01*
X153105178Y-106976671D01*
X152998172Y-106834866D01*
X152904652Y-106680951D01*
X152826810Y-106518053D01*
X152782956Y-106400756D01*
X152732708Y-106217128D01*
X152699209Y-106022581D01*
X152682449Y-105821325D01*
X152682416Y-105617568D01*
X152699101Y-105415521D01*
X152732493Y-105219392D01*
X152782580Y-105033391D01*
X152786397Y-105021803D01*
X152849281Y-104859750D01*
X152926028Y-104711832D01*
X153019242Y-104573865D01*
X153131527Y-104441661D01*
X153175392Y-104396399D01*
X153311534Y-104272457D01*
X153451491Y-104169915D01*
X153597411Y-104087656D01*
X153751442Y-104024564D01*
X153915732Y-103979523D01*
X154011289Y-103962033D01*
X154170023Y-103946466D01*
X154328429Y-103949071D01*
G36*
X154328429Y-103949071D02*
G01*
X154488570Y-103970245D01*
X154652510Y-104010385D01*
X154822313Y-104069889D01*
X155000043Y-104149154D01*
X155011310Y-104154699D01*
X155069005Y-104182725D01*
X155120552Y-104206802D01*
X155162191Y-104225249D01*
X155190162Y-104236386D01*
X155199733Y-104238933D01*
X155218950Y-104243941D01*
X155223561Y-104248147D01*
X155218458Y-104258580D01*
X155202418Y-104284868D01*
X155177288Y-104324257D01*
X155144914Y-104373991D01*
X155107143Y-104431315D01*
X155065822Y-104493476D01*
X155022798Y-104557718D01*
X154979917Y-104621285D01*
X154939026Y-104681425D01*
X154901971Y-104735380D01*
X154870600Y-104780397D01*
X154846759Y-104813721D01*
X154832294Y-104832597D01*
X154830309Y-104834787D01*
X154820191Y-104830138D01*
X154797850Y-104812962D01*
X154767280Y-104786440D01*
X154751536Y-104771964D01*
X154655047Y-104696682D01*
X154548336Y-104641241D01*
X154432832Y-104606141D01*
X154309962Y-104591880D01*
X154240561Y-104593051D01*
X154119423Y-104610212D01*
X154010205Y-104646094D01*
X153912582Y-104700959D01*
X153826228Y-104775070D01*
X153750815Y-104868688D01*
X153686018Y-104982076D01*
X153648601Y-105068667D01*
X153604748Y-105204366D01*
X153572428Y-105351850D01*
X153551557Y-105507314D01*
X153542051Y-105666956D01*
X153543827Y-105826973D01*
X153556803Y-105983561D01*
X153580894Y-106132918D01*
X153616018Y-106271240D01*
X153662092Y-106394724D01*
X153678373Y-106428978D01*
X153746620Y-106543064D01*
X153827079Y-106639557D01*
X153918570Y-106717670D01*
X154019911Y-106776617D01*
X154129920Y-106815612D01*
X154247415Y-106833868D01*
X154288883Y-106835211D01*
X154410441Y-106824290D01*
X154530878Y-106791474D01*
X154648666Y-106737439D01*
X154762277Y-106662865D01*
X154853685Y-106584539D01*
X154900215Y-106540008D01*
X155081483Y-106837271D01*
X155126580Y-106911433D01*
X155167819Y-106979646D01*
X155203735Y-107039459D01*
X155232866Y-107088420D01*
X155253750Y-107124079D01*
X155264924Y-107143984D01*
X155266375Y-107147079D01*
X155258146Y-107156718D01*
X155232567Y-107173999D01*
X155192873Y-107197283D01*
X155142297Y-107224934D01*
X155084074Y-107255315D01*
X155021437Y-107286790D01*
X154957621Y-107317722D01*
X154895860Y-107346473D01*
X154839388Y-107371408D01*
X154791438Y-107390889D01*
X154767986Y-107399318D01*
X154634221Y-107437133D01*
X154496327Y-107462136D01*
X154348622Y-107475140D01*
X154221833Y-107477468D01*
X154153878Y-107476373D01*
X154088277Y-107474275D01*
X154030847Y-107471434D01*
X153987403Y-107468106D01*
X153973298Y-107466422D01*
X153834284Y-107437587D01*
X153692757Y-107392468D01*
X153555275Y-107333750D01*
X153428394Y-107264120D01*
X153350889Y-107211441D01*
X153223481Y-107103239D01*
X153105178Y-106976671D01*
X152998172Y-106834866D01*
X152904652Y-106680951D01*
X152826810Y-106518053D01*
X152782956Y-106400756D01*
X152732708Y-106217128D01*
X152699209Y-106022581D01*
X152682449Y-105821325D01*
X152682416Y-105617568D01*
X152699101Y-105415521D01*
X152732493Y-105219392D01*
X152782580Y-105033391D01*
X152786397Y-105021803D01*
X152849281Y-104859750D01*
X152926028Y-104711832D01*
X153019242Y-104573865D01*
X153131527Y-104441661D01*
X153175392Y-104396399D01*
X153311534Y-104272457D01*
X153451491Y-104169915D01*
X153597411Y-104087656D01*
X153751442Y-104024564D01*
X153915732Y-103979523D01*
X154011289Y-103962033D01*
X154170023Y-103946466D01*
X154328429Y-103949071D01*
G37*
X160186507Y-105472245D02*
X160186526Y-105706662D01*
X160186552Y-105919603D01*
X160186625Y-106112168D01*
X160186782Y-106285459D01*
X160187064Y-106440576D01*
X160187509Y-106578620D01*
X160188156Y-106700692D01*
X160189045Y-106807894D01*
X160190213Y-106901326D01*
X160191701Y-106982090D01*
X160193546Y-107051286D01*
X160195789Y-107110015D01*
X160198469Y-107159379D01*
X160201623Y-107200478D01*
X160205292Y-107234413D01*
X160209513Y-107262286D01*
X160214327Y-107285198D01*
X160219773Y-107304249D01*
X160225888Y-107320540D01*
X160232712Y-107335173D01*
X160240285Y-107349249D01*
X160248645Y-107363868D01*
X160253839Y-107372974D01*
X160288104Y-107433689D01*
X159429955Y-107433689D01*
X159429955Y-107337733D01*
X159429224Y-107294370D01*
X159427272Y-107261205D01*
X159424463Y-107243424D01*
X159423221Y-107241778D01*
X159411799Y-107248662D01*
X159389084Y-107266505D01*
X159366385Y-107285879D01*
X159311800Y-107326614D01*
X159242321Y-107367617D01*
X159165270Y-107405123D01*
X159087965Y-107435364D01*
X159057113Y-107445012D01*
X158988616Y-107459578D01*
X158905764Y-107469539D01*
X158816371Y-107474583D01*
X158728248Y-107474396D01*
X158649207Y-107468666D01*
X158611511Y-107462858D01*
X158473414Y-107424797D01*
X158346113Y-107367073D01*
X158230292Y-107290211D01*
X158126637Y-107194739D01*
X158035833Y-107081179D01*
X157969031Y-106970381D01*
X157914164Y-106853625D01*
X157872163Y-106734276D01*
X157842167Y-106608283D01*
X157823311Y-106471594D01*
X157814732Y-106320158D01*
X157814006Y-106242711D01*
X157816100Y-106185934D01*
X158645217Y-106185934D01*
X158645424Y-106279002D01*
X158648337Y-106366692D01*
X158654000Y-106443772D01*
X158662455Y-106505009D01*
X158665038Y-106517350D01*
X158696840Y-106624633D01*
X158738498Y-106711658D01*
X158790363Y-106778642D01*
X158852781Y-106825805D01*
X158926100Y-106853365D01*
X159010669Y-106861541D01*
X159106835Y-106850551D01*
X159170311Y-106834829D01*
X159219454Y-106816639D01*
X159273583Y-106790791D01*
X159314244Y-106767089D01*
X159384800Y-106720721D01*
X159384800Y-105570530D01*
X159317392Y-105526962D01*
X159238867Y-105486040D01*
X159154681Y-105459389D01*
X159069557Y-105447465D01*
X158988216Y-105450722D01*
X158915380Y-105469615D01*
X158883426Y-105485184D01*
X158825501Y-105528181D01*
X158776544Y-105584953D01*
X158735390Y-105657575D01*
X158700874Y-105748121D01*
X158671833Y-105858666D01*
X158670552Y-105864533D01*
X158660381Y-105926788D01*
X158652739Y-106004594D01*
X158647670Y-106092720D01*
X158645217Y-106185934D01*
X157816100Y-106185934D01*
X157821857Y-106029895D01*
X157843802Y-105834059D01*
X157879786Y-105655332D01*
X157929759Y-105493845D01*
X157993668Y-105349726D01*
X158071462Y-105223106D01*
X158163089Y-105114115D01*
X158268497Y-105022883D01*
X158313662Y-104991932D01*
X158414611Y-104935785D01*
X158517901Y-104896174D01*
X158627989Y-104872014D01*
X158749330Y-104862219D01*
X158841836Y-104863265D01*
X158971490Y-104874231D01*
X159084084Y-104896046D01*
X159182875Y-104929714D01*
X159271121Y-104976236D01*
X159319986Y-105010448D01*
X159349353Y-105032362D01*
X159371043Y-105047333D01*
X159379253Y-105051733D01*
X159380868Y-105040904D01*
X159382159Y-105010251D01*
X159383138Y-104962526D01*
X159383817Y-104900479D01*
X159384210Y-104826862D01*
X159384330Y-104744427D01*
X159384188Y-104655925D01*
X159383797Y-104564107D01*
X159383171Y-104471724D01*
X159382320Y-104381528D01*
X159381260Y-104296271D01*
X159380001Y-104218703D01*
X159378556Y-104151576D01*
X159376938Y-104097641D01*
X159375161Y-104059650D01*
X159374669Y-104052667D01*
X159367092Y-103982251D01*
X159355531Y-103927102D01*
X159337792Y-103879981D01*
X159311682Y-103833647D01*
X159305415Y-103824067D01*
X159280983Y-103787378D01*
X160186311Y-103787378D01*
X160186507Y-105472245D01*
G36*
X160186507Y-105472245D02*
G01*
X160186526Y-105706662D01*
X160186552Y-105919603D01*
X160186625Y-106112168D01*
X160186782Y-106285459D01*
X160187064Y-106440576D01*
X160187509Y-106578620D01*
X160188156Y-106700692D01*
X160189045Y-106807894D01*
X160190213Y-106901326D01*
X160191701Y-106982090D01*
X160193546Y-107051286D01*
X160195789Y-107110015D01*
X160198469Y-107159379D01*
X160201623Y-107200478D01*
X160205292Y-107234413D01*
X160209513Y-107262286D01*
X160214327Y-107285198D01*
X160219773Y-107304249D01*
X160225888Y-107320540D01*
X160232712Y-107335173D01*
X160240285Y-107349249D01*
X160248645Y-107363868D01*
X160253839Y-107372974D01*
X160288104Y-107433689D01*
X159429955Y-107433689D01*
X159429955Y-107337733D01*
X159429224Y-107294370D01*
X159427272Y-107261205D01*
X159424463Y-107243424D01*
X159423221Y-107241778D01*
X159411799Y-107248662D01*
X159389084Y-107266505D01*
X159366385Y-107285879D01*
X159311800Y-107326614D01*
X159242321Y-107367617D01*
X159165270Y-107405123D01*
X159087965Y-107435364D01*
X159057113Y-107445012D01*
X158988616Y-107459578D01*
X158905764Y-107469539D01*
X158816371Y-107474583D01*
X158728248Y-107474396D01*
X158649207Y-107468666D01*
X158611511Y-107462858D01*
X158473414Y-107424797D01*
X158346113Y-107367073D01*
X158230292Y-107290211D01*
X158126637Y-107194739D01*
X158035833Y-107081179D01*
X157969031Y-106970381D01*
X157914164Y-106853625D01*
X157872163Y-106734276D01*
X157842167Y-106608283D01*
X157823311Y-106471594D01*
X157814732Y-106320158D01*
X157814006Y-106242711D01*
X157816100Y-106185934D01*
X158645217Y-106185934D01*
X158645424Y-106279002D01*
X158648337Y-106366692D01*
X158654000Y-106443772D01*
X158662455Y-106505009D01*
X158665038Y-106517350D01*
X158696840Y-106624633D01*
X158738498Y-106711658D01*
X158790363Y-106778642D01*
X158852781Y-106825805D01*
X158926100Y-106853365D01*
X159010669Y-106861541D01*
X159106835Y-106850551D01*
X159170311Y-106834829D01*
X159219454Y-106816639D01*
X159273583Y-106790791D01*
X159314244Y-106767089D01*
X159384800Y-106720721D01*
X159384800Y-105570530D01*
X159317392Y-105526962D01*
X159238867Y-105486040D01*
X159154681Y-105459389D01*
X159069557Y-105447465D01*
X158988216Y-105450722D01*
X158915380Y-105469615D01*
X158883426Y-105485184D01*
X158825501Y-105528181D01*
X158776544Y-105584953D01*
X158735390Y-105657575D01*
X158700874Y-105748121D01*
X158671833Y-105858666D01*
X158670552Y-105864533D01*
X158660381Y-105926788D01*
X158652739Y-106004594D01*
X158647670Y-106092720D01*
X158645217Y-106185934D01*
X157816100Y-106185934D01*
X157821857Y-106029895D01*
X157843802Y-105834059D01*
X157879786Y-105655332D01*
X157929759Y-105493845D01*
X157993668Y-105349726D01*
X158071462Y-105223106D01*
X158163089Y-105114115D01*
X158268497Y-105022883D01*
X158313662Y-104991932D01*
X158414611Y-104935785D01*
X158517901Y-104896174D01*
X158627989Y-104872014D01*
X158749330Y-104862219D01*
X158841836Y-104863265D01*
X158971490Y-104874231D01*
X159084084Y-104896046D01*
X159182875Y-104929714D01*
X159271121Y-104976236D01*
X159319986Y-105010448D01*
X159349353Y-105032362D01*
X159371043Y-105047333D01*
X159379253Y-105051733D01*
X159380868Y-105040904D01*
X159382159Y-105010251D01*
X159383138Y-104962526D01*
X159383817Y-104900479D01*
X159384210Y-104826862D01*
X159384330Y-104744427D01*
X159384188Y-104655925D01*
X159383797Y-104564107D01*
X159383171Y-104471724D01*
X159382320Y-104381528D01*
X159381260Y-104296271D01*
X159380001Y-104218703D01*
X159378556Y-104151576D01*
X159376938Y-104097641D01*
X159375161Y-104059650D01*
X159374669Y-104052667D01*
X159367092Y-103982251D01*
X159355531Y-103927102D01*
X159337792Y-103879981D01*
X159311682Y-103833647D01*
X159305415Y-103824067D01*
X159280983Y-103787378D01*
X160186311Y-103787378D01*
X160186507Y-105472245D01*
G37*
X156673574Y-104866552D02*
X156825492Y-104886567D01*
X156960756Y-104920202D01*
X157080239Y-104967725D01*
X157184815Y-105029405D01*
X157262424Y-105092965D01*
X157331265Y-105167099D01*
X157385006Y-105246871D01*
X157427910Y-105339091D01*
X157443384Y-105382161D01*
X157456244Y-105421142D01*
X157467446Y-105457289D01*
X157477120Y-105492434D01*
X157485396Y-105528410D01*
X157492403Y-105567050D01*
X157498272Y-105610185D01*
X157503131Y-105659649D01*
X157507110Y-105717273D01*
X157510340Y-105784891D01*
X157512949Y-105864334D01*
X157515067Y-105957436D01*
X157516824Y-106066027D01*
X157518349Y-106191942D01*
X157519772Y-106337012D01*
X157521025Y-106479778D01*
X157522351Y-106635968D01*
X157523556Y-106771239D01*
X157524766Y-106887246D01*
X157526106Y-106985645D01*
X157527700Y-107068093D01*
X157529675Y-107136246D01*
X157532156Y-107191760D01*
X157535269Y-107236292D01*
X157539138Y-107271498D01*
X157543889Y-107299034D01*
X157549648Y-107320556D01*
X157556539Y-107337722D01*
X157564689Y-107352186D01*
X157574223Y-107365606D01*
X157585266Y-107379638D01*
X157589566Y-107385071D01*
X157605386Y-107407910D01*
X157612422Y-107423463D01*
X157612444Y-107423922D01*
X157601567Y-107426121D01*
X157570582Y-107428147D01*
X157521957Y-107429942D01*
X157458163Y-107431451D01*
X157381669Y-107432616D01*
X157294944Y-107433380D01*
X157200457Y-107433686D01*
X157189550Y-107433689D01*
X156766657Y-107433689D01*
X156763395Y-107337622D01*
X156760133Y-107241556D01*
X156698044Y-107292543D01*
X156600714Y-107360057D01*
X156490813Y-107414749D01*
X156404349Y-107444978D01*
X156335278Y-107459666D01*
X156251925Y-107469659D01*
X156162159Y-107474646D01*
X156073845Y-107474313D01*
X155994851Y-107468351D01*
X155958622Y-107462638D01*
X155818603Y-107424776D01*
X155692178Y-107369932D01*
X155580260Y-107298924D01*
X155483762Y-107212568D01*
X155403600Y-107111679D01*
X155340687Y-106997076D01*
X155296312Y-106870984D01*
X155283978Y-106814401D01*
X155276368Y-106752202D01*
X155272739Y-106677363D01*
X155272245Y-106643467D01*
X155272310Y-106640282D01*
X156032248Y-106640282D01*
X156041541Y-106715333D01*
X156069728Y-106779160D01*
X156118197Y-106834798D01*
X156123254Y-106839211D01*
X156171548Y-106874037D01*
X156223257Y-106896620D01*
X156283989Y-106908540D01*
X156359352Y-106911383D01*
X156377459Y-106910978D01*
X156431278Y-106908325D01*
X156471308Y-106902909D01*
X156506324Y-106892745D01*
X156545103Y-106875850D01*
X156555745Y-106870672D01*
X156616396Y-106834844D01*
X156663215Y-106792212D01*
X156675952Y-106776973D01*
X156720622Y-106720462D01*
X156720622Y-106524586D01*
X156720086Y-106445939D01*
X156718396Y-106387988D01*
X156715428Y-106348875D01*
X156711057Y-106326741D01*
X156706972Y-106320274D01*
X156691047Y-106317111D01*
X156657264Y-106314488D01*
X156610340Y-106312655D01*
X156554993Y-106311857D01*
X156546106Y-106311842D01*
X156425330Y-106317096D01*
X156322660Y-106333263D01*
X156236106Y-106360961D01*
X156163681Y-106400808D01*
X156108751Y-106447758D01*
X156064204Y-106505645D01*
X156039480Y-106568693D01*
X156032248Y-106640282D01*
X155272310Y-106640282D01*
X155274178Y-106549712D01*
X155282522Y-106470812D01*
X155298768Y-106399590D01*
X155324405Y-106328864D01*
X155348401Y-106276493D01*
X155407020Y-106181196D01*
X155485117Y-106093170D01*
X155580315Y-106014017D01*
X155690238Y-105945340D01*
X155812510Y-105888741D01*
X155944755Y-105845821D01*
X156009422Y-105830882D01*
X156145604Y-105808777D01*
X156294049Y-105794194D01*
X156445505Y-105787813D01*
X156572064Y-105789445D01*
X156733950Y-105796224D01*
X156726530Y-105737245D01*
X156707238Y-105638092D01*
X156676104Y-105557372D01*
X156632269Y-105494466D01*
X156574871Y-105448756D01*
X156503048Y-105419622D01*
X156415941Y-105406447D01*
X156312686Y-105408611D01*
X156274711Y-105412612D01*
X156133520Y-105437780D01*
X155996707Y-105478814D01*
X155902178Y-105516815D01*
X155857018Y-105536190D01*
X155818585Y-105551760D01*
X155792234Y-105561405D01*
X155784546Y-105563452D01*
X155774802Y-105554374D01*
X155758083Y-105525405D01*
X155734232Y-105476217D01*
X155703093Y-105406484D01*
X155664507Y-105315879D01*
X155657910Y-105300089D01*
X155627853Y-105227772D01*
X155600874Y-105162425D01*
X155578136Y-105106906D01*
X155560806Y-105064072D01*
X155550048Y-105036781D01*
X155546941Y-105027942D01*
X155556940Y-105023187D01*
X155583217Y-105017910D01*
X155611489Y-105014231D01*
X155641646Y-105009474D01*
X155689433Y-105000028D01*
X155750612Y-104986820D01*
X155820946Y-104970776D01*
X155896194Y-104952820D01*
X155924755Y-104945797D01*
X156029816Y-104920209D01*
X156117480Y-104900147D01*
X156192068Y-104884969D01*
X156257903Y-104874035D01*
X156319307Y-104866704D01*
X156380602Y-104862335D01*
X156446110Y-104860287D01*
X156504128Y-104859889D01*
X156673574Y-104866552D01*
G36*
X156673574Y-104866552D02*
G01*
X156825492Y-104886567D01*
X156960756Y-104920202D01*
X157080239Y-104967725D01*
X157184815Y-105029405D01*
X157262424Y-105092965D01*
X157331265Y-105167099D01*
X157385006Y-105246871D01*
X157427910Y-105339091D01*
X157443384Y-105382161D01*
X157456244Y-105421142D01*
X157467446Y-105457289D01*
X157477120Y-105492434D01*
X157485396Y-105528410D01*
X157492403Y-105567050D01*
X157498272Y-105610185D01*
X157503131Y-105659649D01*
X157507110Y-105717273D01*
X157510340Y-105784891D01*
X157512949Y-105864334D01*
X157515067Y-105957436D01*
X157516824Y-106066027D01*
X157518349Y-106191942D01*
X157519772Y-106337012D01*
X157521025Y-106479778D01*
X157522351Y-106635968D01*
X157523556Y-106771239D01*
X157524766Y-106887246D01*
X157526106Y-106985645D01*
X157527700Y-107068093D01*
X157529675Y-107136246D01*
X157532156Y-107191760D01*
X157535269Y-107236292D01*
X157539138Y-107271498D01*
X157543889Y-107299034D01*
X157549648Y-107320556D01*
X157556539Y-107337722D01*
X157564689Y-107352186D01*
X157574223Y-107365606D01*
X157585266Y-107379638D01*
X157589566Y-107385071D01*
X157605386Y-107407910D01*
X157612422Y-107423463D01*
X157612444Y-107423922D01*
X157601567Y-107426121D01*
X157570582Y-107428147D01*
X157521957Y-107429942D01*
X157458163Y-107431451D01*
X157381669Y-107432616D01*
X157294944Y-107433380D01*
X157200457Y-107433686D01*
X157189550Y-107433689D01*
X156766657Y-107433689D01*
X156763395Y-107337622D01*
X156760133Y-107241556D01*
X156698044Y-107292543D01*
X156600714Y-107360057D01*
X156490813Y-107414749D01*
X156404349Y-107444978D01*
X156335278Y-107459666D01*
X156251925Y-107469659D01*
X156162159Y-107474646D01*
X156073845Y-107474313D01*
X155994851Y-107468351D01*
X155958622Y-107462638D01*
X155818603Y-107424776D01*
X155692178Y-107369932D01*
X155580260Y-107298924D01*
X155483762Y-107212568D01*
X155403600Y-107111679D01*
X155340687Y-106997076D01*
X155296312Y-106870984D01*
X155283978Y-106814401D01*
X155276368Y-106752202D01*
X155272739Y-106677363D01*
X155272245Y-106643467D01*
X155272310Y-106640282D01*
X156032248Y-106640282D01*
X156041541Y-106715333D01*
X156069728Y-106779160D01*
X156118197Y-106834798D01*
X156123254Y-106839211D01*
X156171548Y-106874037D01*
X156223257Y-106896620D01*
X156283989Y-106908540D01*
X156359352Y-106911383D01*
X156377459Y-106910978D01*
X156431278Y-106908325D01*
X156471308Y-106902909D01*
X156506324Y-106892745D01*
X156545103Y-106875850D01*
X156555745Y-106870672D01*
X156616396Y-106834844D01*
X156663215Y-106792212D01*
X156675952Y-106776973D01*
X156720622Y-106720462D01*
X156720622Y-106524586D01*
X156720086Y-106445939D01*
X156718396Y-106387988D01*
X156715428Y-106348875D01*
X156711057Y-106326741D01*
X156706972Y-106320274D01*
X156691047Y-106317111D01*
X156657264Y-106314488D01*
X156610340Y-106312655D01*
X156554993Y-106311857D01*
X156546106Y-106311842D01*
X156425330Y-106317096D01*
X156322660Y-106333263D01*
X156236106Y-106360961D01*
X156163681Y-106400808D01*
X156108751Y-106447758D01*
X156064204Y-106505645D01*
X156039480Y-106568693D01*
X156032248Y-106640282D01*
X155272310Y-106640282D01*
X155274178Y-106549712D01*
X155282522Y-106470812D01*
X155298768Y-106399590D01*
X155324405Y-106328864D01*
X155348401Y-106276493D01*
X155407020Y-106181196D01*
X155485117Y-106093170D01*
X155580315Y-106014017D01*
X155690238Y-105945340D01*
X155812510Y-105888741D01*
X155944755Y-105845821D01*
X156009422Y-105830882D01*
X156145604Y-105808777D01*
X156294049Y-105794194D01*
X156445505Y-105787813D01*
X156572064Y-105789445D01*
X156733950Y-105796224D01*
X156726530Y-105737245D01*
X156707238Y-105638092D01*
X156676104Y-105557372D01*
X156632269Y-105494466D01*
X156574871Y-105448756D01*
X156503048Y-105419622D01*
X156415941Y-105406447D01*
X156312686Y-105408611D01*
X156274711Y-105412612D01*
X156133520Y-105437780D01*
X155996707Y-105478814D01*
X155902178Y-105516815D01*
X155857018Y-105536190D01*
X155818585Y-105551760D01*
X155792234Y-105561405D01*
X155784546Y-105563452D01*
X155774802Y-105554374D01*
X155758083Y-105525405D01*
X155734232Y-105476217D01*
X155703093Y-105406484D01*
X155664507Y-105315879D01*
X155657910Y-105300089D01*
X155627853Y-105227772D01*
X155600874Y-105162425D01*
X155578136Y-105106906D01*
X155560806Y-105064072D01*
X155550048Y-105036781D01*
X155546941Y-105027942D01*
X155556940Y-105023187D01*
X155583217Y-105017910D01*
X155611489Y-105014231D01*
X155641646Y-105009474D01*
X155689433Y-105000028D01*
X155750612Y-104986820D01*
X155820946Y-104970776D01*
X155896194Y-104952820D01*
X155924755Y-104945797D01*
X156029816Y-104920209D01*
X156117480Y-104900147D01*
X156192068Y-104884969D01*
X156257903Y-104874035D01*
X156319307Y-104866704D01*
X156380602Y-104862335D01*
X156446110Y-104860287D01*
X156504128Y-104859889D01*
X156673574Y-104866552D01*
G37*
X151053600Y-103489054D02*
X151064465Y-103602993D01*
X151096082Y-103710616D01*
X151146985Y-103809615D01*
X151215707Y-103897684D01*
X151300781Y-103972516D01*
X151397768Y-104030384D01*
X151504036Y-104070005D01*
X151611050Y-104088573D01*
X151716700Y-104087434D01*
X151818875Y-104067930D01*
X151915466Y-104031406D01*
X152004362Y-103979205D01*
X152083454Y-103912673D01*
X152150631Y-103833152D01*
X152203783Y-103741987D01*
X152240801Y-103640523D01*
X152259573Y-103530102D01*
X152261511Y-103480206D01*
X152261511Y-103392267D01*
X152313440Y-103392267D01*
X152349747Y-103395111D01*
X152376645Y-103406911D01*
X152403751Y-103430649D01*
X152442133Y-103469031D01*
X152442133Y-105660602D01*
X152442124Y-105922739D01*
X152442092Y-106163241D01*
X152442028Y-106383048D01*
X152441924Y-106583101D01*
X152441773Y-106764344D01*
X152441566Y-106927716D01*
X152441294Y-107074160D01*
X152440950Y-107204617D01*
X152440526Y-107320029D01*
X152440013Y-107421338D01*
X152439403Y-107509484D01*
X152438688Y-107585410D01*
X152437860Y-107650057D01*
X152436911Y-107704367D01*
X152435833Y-107749280D01*
X152434617Y-107785740D01*
X152433255Y-107814687D01*
X152431739Y-107837063D01*
X152430062Y-107853809D01*
X152428214Y-107865868D01*
X152426187Y-107874180D01*
X152423975Y-107879687D01*
X152422892Y-107881537D01*
X152418729Y-107888549D01*
X152415195Y-107894996D01*
X152411365Y-107900900D01*
X152406318Y-107906286D01*
X152399129Y-107911178D01*
X152388877Y-107915598D01*
X152374636Y-107919572D01*
X152355486Y-107923121D01*
X152330501Y-107926270D01*
X152298760Y-107929042D01*
X152259338Y-107931461D01*
X152211314Y-107933551D01*
X152153763Y-107935335D01*
X152085763Y-107936837D01*
X152006390Y-107938080D01*
X151914721Y-107939089D01*
X151809834Y-107939885D01*
X151690804Y-107940494D01*
X151556710Y-107940939D01*
X151406627Y-107941243D01*
X151239633Y-107941430D01*
X151054804Y-107941524D01*
X150851217Y-107941548D01*
X150627950Y-107941525D01*
X150384078Y-107941480D01*
X150118679Y-107941437D01*
X150080296Y-107941432D01*
X149813318Y-107941389D01*
X149567998Y-107941318D01*
X149343417Y-107941213D01*
X149138655Y-107941066D01*
X148952794Y-107940869D01*
X148784912Y-107940616D01*
X148634092Y-107940300D01*
X148499413Y-107939913D01*
X148379956Y-107939447D01*
X148274801Y-107938897D01*
X148183029Y-107938253D01*
X148103721Y-107937511D01*
X148035957Y-107936661D01*
X147978818Y-107935697D01*
X147931383Y-107934611D01*
X147892734Y-107933397D01*
X147861951Y-107932047D01*
X147838115Y-107930555D01*
X147820306Y-107928911D01*
X147807605Y-107927111D01*
X147799092Y-107925145D01*
X147794734Y-107923477D01*
X147786272Y-107919906D01*
X147778503Y-107917270D01*
X147771398Y-107914634D01*
X147764927Y-107911062D01*
X147759061Y-107905621D01*
X147753771Y-107897375D01*
X147749026Y-107885390D01*
X147744798Y-107868731D01*
X147741057Y-107846463D01*
X147737773Y-107817652D01*
X147734917Y-107781363D01*
X147732460Y-107736661D01*
X147730371Y-107682611D01*
X147728622Y-107618279D01*
X147727183Y-107542730D01*
X147726024Y-107455030D01*
X147725117Y-107354243D01*
X147724431Y-107239434D01*
X147723937Y-107109670D01*
X147723605Y-106964015D01*
X147723407Y-106801535D01*
X147723313Y-106621295D01*
X147723292Y-106422360D01*
X147723315Y-106203796D01*
X147723354Y-105964668D01*
X147723378Y-105704040D01*
X147723378Y-105661889D01*
X147723364Y-105398992D01*
X147723339Y-105157732D01*
X147723329Y-104937165D01*
X147723358Y-104736352D01*
X147723452Y-104554349D01*
X147723638Y-104390216D01*
X147723941Y-104243011D01*
X147724386Y-104111792D01*
X147724966Y-104001867D01*
X148027803Y-104001867D01*
X148067593Y-104059711D01*
X148078764Y-104075479D01*
X148088834Y-104089441D01*
X148097862Y-104102784D01*
X148105903Y-104116693D01*
X148113014Y-104132356D01*
X148119253Y-104150958D01*
X148124675Y-104173686D01*
X148129338Y-104201727D01*
X148133299Y-104236267D01*
X148136615Y-104278492D01*
X148139341Y-104329589D01*
X148141536Y-104390744D01*
X148143255Y-104463144D01*
X148144556Y-104547975D01*
X148145495Y-104646422D01*
X148146130Y-104759674D01*
X148146516Y-104888916D01*
X148146712Y-105035334D01*
X148146773Y-105200116D01*
X148146757Y-105384447D01*
X148146720Y-105589513D01*
X148146711Y-105712133D01*
X148146735Y-105929082D01*
X148146769Y-106124642D01*
X148146757Y-106299999D01*
X148146642Y-106456341D01*
X148146370Y-106594857D01*
X148145882Y-106716734D01*
X148145124Y-106823160D01*
X148144038Y-106915322D01*
X148142569Y-106994409D01*
X148140660Y-107061608D01*
X148138256Y-107118107D01*
X148135299Y-107165093D01*
X148131734Y-107203755D01*
X148127505Y-107235280D01*
X148122554Y-107260855D01*
X148116827Y-107281670D01*
X148110267Y-107298911D01*
X148102817Y-107313765D01*
X148094421Y-107327422D01*
X148085024Y-107341069D01*
X148074568Y-107355893D01*
X148068477Y-107364783D01*
X148029704Y-107422400D01*
X148561268Y-107422400D01*
X148684517Y-107422365D01*
X148787013Y-107422215D01*
X148870580Y-107421878D01*
X148937044Y-107421286D01*
X148988229Y-107420367D01*
X149025959Y-107419051D01*
X149052060Y-107417269D01*
X149068356Y-107414951D01*
X149076672Y-107412026D01*
X149078832Y-107408424D01*
X149076661Y-107404075D01*
X149075465Y-107402645D01*
X149050315Y-107365573D01*
X149024417Y-107312772D01*
X149000808Y-107250770D01*
X148992539Y-107224357D01*
X148987922Y-107206416D01*
X148984021Y-107185355D01*
X148980752Y-107159089D01*
X148978034Y-107125532D01*
X148975785Y-107082599D01*
X148973923Y-107028204D01*
X148972364Y-106960262D01*
X148971028Y-106876688D01*
X148969831Y-106775395D01*
X148968692Y-106654300D01*
X148968315Y-106609600D01*
X148967298Y-106484449D01*
X148966540Y-106380082D01*
X148966097Y-106294707D01*
X148966030Y-106226533D01*
X148966395Y-106173765D01*
X148967252Y-106134614D01*
X148968659Y-106107285D01*
X148970675Y-106089986D01*
X148973357Y-106080926D01*
X148976764Y-106078312D01*
X148980956Y-106080351D01*
X148985429Y-106084667D01*
X148995784Y-106097602D01*
X149017842Y-106126676D01*
X149050043Y-106169759D01*
X149090826Y-106224718D01*
X149138630Y-106289423D01*
X149191895Y-106361742D01*
X149249060Y-106439544D01*
X149308563Y-106520698D01*
X149368845Y-106603072D01*
X149428345Y-106684536D01*
X149485502Y-106762957D01*
X149538755Y-106836204D01*
X149586543Y-106902147D01*
X149627307Y-106958654D01*
X149659484Y-107003593D01*
X149681515Y-107034834D01*
X149686083Y-107041466D01*
X149709004Y-107078369D01*
X149735812Y-107126359D01*
X149761211Y-107175897D01*
X149764432Y-107182577D01*
X149786110Y-107230772D01*
X149798696Y-107268334D01*
X149804426Y-107304160D01*
X149805544Y-107346200D01*
X149804910Y-107422400D01*
X150959349Y-107422400D01*
X150868185Y-107328669D01*
X150821388Y-107278775D01*
X150771101Y-107222295D01*
X150725056Y-107168026D01*
X150704631Y-107142673D01*
X150674193Y-107103128D01*
X150634138Y-107049916D01*
X150585639Y-106984667D01*
X150529865Y-106909011D01*
X150467989Y-106824577D01*
X150401181Y-106732994D01*
X150330613Y-106635892D01*
X150257455Y-106534901D01*
X150182879Y-106431650D01*
X150108056Y-106327768D01*
X150034157Y-106224885D01*
X149962354Y-106124631D01*
X149893816Y-106028636D01*
X149829716Y-105938527D01*
X149771225Y-105855936D01*
X149719514Y-105782492D01*
X149675753Y-105719824D01*
X149641115Y-105669561D01*
X149616770Y-105633334D01*
X149603889Y-105612771D01*
X149602131Y-105608668D01*
X149610090Y-105597342D01*
X149630885Y-105570162D01*
X149663153Y-105528829D01*
X149705530Y-105475044D01*
X149756653Y-105410506D01*
X149815159Y-105336918D01*
X149879686Y-105255978D01*
X149948869Y-105169388D01*
X150021347Y-105078848D01*
X150095754Y-104986060D01*
X150155483Y-104911702D01*
X151166489Y-104911702D01*
X151172398Y-104924659D01*
X151186728Y-104946908D01*
X151187775Y-104948391D01*
X151206562Y-104978544D01*
X151226209Y-105015375D01*
X151230108Y-105023511D01*
X151233644Y-105031940D01*
X151236770Y-105042059D01*
X151239514Y-105055260D01*
X151241908Y-105072938D01*
X151243981Y-105096484D01*
X151245765Y-105127293D01*
X151247288Y-105166757D01*
X151248581Y-105216269D01*
X151249674Y-105277223D01*
X151250597Y-105351011D01*
X151251381Y-105439028D01*
X151252055Y-105542665D01*
X151252650Y-105663316D01*
X151253195Y-105802374D01*
X151253721Y-105961232D01*
X151254255Y-106140089D01*
X151254794Y-106325207D01*
X151255228Y-106489145D01*
X151255491Y-106633303D01*
X151255516Y-106759079D01*
X151255235Y-106867871D01*
X151254581Y-106961077D01*
X151253486Y-107040097D01*
X151251882Y-107106328D01*
X151249703Y-107161170D01*
X151246881Y-107206021D01*
X151243349Y-107242278D01*
X151239039Y-107271341D01*
X151233883Y-107294609D01*
X151227815Y-107313479D01*
X151220767Y-107329351D01*
X151212671Y-107343622D01*
X151203460Y-107357691D01*
X151194960Y-107370158D01*
X151177824Y-107396452D01*
X151167678Y-107414037D01*
X151166489Y-107417257D01*
X151177396Y-107418334D01*
X151208589Y-107419335D01*
X151257777Y-107420235D01*
X151322667Y-107421010D01*
X151400970Y-107421637D01*
X151490393Y-107422091D01*
X151588644Y-107422349D01*
X151657555Y-107422400D01*
X151762548Y-107422180D01*
X151859390Y-107421548D01*
X151945893Y-107420549D01*
X152019868Y-107419227D01*
X152079126Y-107417626D01*
X152121480Y-107415791D01*
X152144740Y-107413765D01*
X152148622Y-107412493D01*
X152140924Y-107397591D01*
X152132926Y-107389560D01*
X152119754Y-107372434D01*
X152102515Y-107342183D01*
X152090593Y-107317622D01*
X152063955Y-107258711D01*
X152060880Y-106081845D01*
X152057805Y-104904978D01*
X151612147Y-104904978D01*
X151514330Y-104905142D01*
X151423936Y-104905611D01*
X151343370Y-104906347D01*
X151275038Y-104907316D01*
X151221344Y-104908480D01*
X151184695Y-104909803D01*
X151167496Y-104911249D01*
X151166489Y-104911702D01*
X150155483Y-104911702D01*
X150170730Y-104892722D01*
X150244910Y-104800537D01*
X150316931Y-104711204D01*
X150385431Y-104626424D01*
X150449045Y-104547898D01*
X150506412Y-104477326D01*
X150556167Y-104416409D01*
X150596948Y-104366847D01*
X150614112Y-104346178D01*
X150700404Y-104245516D01*
X150777003Y-104162259D01*
X150845817Y-104094438D01*
X150908752Y-104040089D01*
X150918133Y-104032722D01*
X150957644Y-104002117D01*
X149825884Y-104001867D01*
X149831173Y-104049844D01*
X149827870Y-104107188D01*
X149806339Y-104175463D01*
X149766365Y-104255212D01*
X149721057Y-104327495D01*
X149704839Y-104350140D01*
X149676786Y-104387696D01*
X149638570Y-104438021D01*
X149591863Y-104498973D01*
X149538339Y-104568411D01*
X149479669Y-104644194D01*
X149417525Y-104724180D01*
X149353579Y-104806228D01*
X149289505Y-104888196D01*
X149226973Y-104967943D01*
X149167657Y-105043327D01*
X149113229Y-105112207D01*
X149065361Y-105172442D01*
X149025725Y-105221889D01*
X148995994Y-105258408D01*
X148977839Y-105279858D01*
X148974780Y-105283156D01*
X148971921Y-105275149D01*
X148969707Y-105244855D01*
X148968143Y-105192556D01*
X148967233Y-105118531D01*
X148966980Y-105023063D01*
X148967387Y-104906434D01*
X148968296Y-104786445D01*
X148969618Y-104654333D01*
X148971143Y-104542594D01*
X148973119Y-104449025D01*
X148975794Y-104371419D01*
X148979418Y-104307574D01*
X148984239Y-104255283D01*
X148990506Y-104212344D01*
X148998468Y-104176551D01*
X149008373Y-104145700D01*
X149020469Y-104117586D01*
X149035007Y-104090005D01*
X149049689Y-104064966D01*
X149087686Y-104001867D01*
X148027803Y-104001867D01*
X147724966Y-104001867D01*
X147724999Y-103995617D01*
X147725805Y-103893544D01*
X147726830Y-103804633D01*
X147728100Y-103727941D01*
X147729640Y-103662527D01*
X147731476Y-103607449D01*
X147733633Y-103561765D01*
X147736137Y-103524534D01*
X147739013Y-103494813D01*
X147742287Y-103471662D01*
X147745985Y-103454139D01*
X147750131Y-103441301D01*
X147754753Y-103432208D01*
X147759874Y-103425918D01*
X147765522Y-103421488D01*
X147771721Y-103417978D01*
X147778496Y-103414445D01*
X147784492Y-103410876D01*
X147789725Y-103408300D01*
X147797901Y-103405972D01*
X147810114Y-103403878D01*
X147827459Y-103402007D01*
X147851031Y-103400347D01*
X147881923Y-103398884D01*
X147921232Y-103397608D01*
X147970050Y-103396504D01*
X148029473Y-103395561D01*
X148100596Y-103394767D01*
X148184512Y-103394109D01*
X148282317Y-103393575D01*
X148395106Y-103393153D01*
X148523971Y-103392829D01*
X148670009Y-103392592D01*
X148834314Y-103392430D01*
X149017980Y-103392330D01*
X149222103Y-103392280D01*
X149433247Y-103392267D01*
X151053600Y-103392267D01*
X151053600Y-103489054D01*
G36*
X151053600Y-103489054D02*
G01*
X151064465Y-103602993D01*
X151096082Y-103710616D01*
X151146985Y-103809615D01*
X151215707Y-103897684D01*
X151300781Y-103972516D01*
X151397768Y-104030384D01*
X151504036Y-104070005D01*
X151611050Y-104088573D01*
X151716700Y-104087434D01*
X151818875Y-104067930D01*
X151915466Y-104031406D01*
X152004362Y-103979205D01*
X152083454Y-103912673D01*
X152150631Y-103833152D01*
X152203783Y-103741987D01*
X152240801Y-103640523D01*
X152259573Y-103530102D01*
X152261511Y-103480206D01*
X152261511Y-103392267D01*
X152313440Y-103392267D01*
X152349747Y-103395111D01*
X152376645Y-103406911D01*
X152403751Y-103430649D01*
X152442133Y-103469031D01*
X152442133Y-105660602D01*
X152442124Y-105922739D01*
X152442092Y-106163241D01*
X152442028Y-106383048D01*
X152441924Y-106583101D01*
X152441773Y-106764344D01*
X152441566Y-106927716D01*
X152441294Y-107074160D01*
X152440950Y-107204617D01*
X152440526Y-107320029D01*
X152440013Y-107421338D01*
X152439403Y-107509484D01*
X152438688Y-107585410D01*
X152437860Y-107650057D01*
X152436911Y-107704367D01*
X152435833Y-107749280D01*
X152434617Y-107785740D01*
X152433255Y-107814687D01*
X152431739Y-107837063D01*
X152430062Y-107853809D01*
X152428214Y-107865868D01*
X152426187Y-107874180D01*
X152423975Y-107879687D01*
X152422892Y-107881537D01*
X152418729Y-107888549D01*
X152415195Y-107894996D01*
X152411365Y-107900900D01*
X152406318Y-107906286D01*
X152399129Y-107911178D01*
X152388877Y-107915598D01*
X152374636Y-107919572D01*
X152355486Y-107923121D01*
X152330501Y-107926270D01*
X152298760Y-107929042D01*
X152259338Y-107931461D01*
X152211314Y-107933551D01*
X152153763Y-107935335D01*
X152085763Y-107936837D01*
X152006390Y-107938080D01*
X151914721Y-107939089D01*
X151809834Y-107939885D01*
X151690804Y-107940494D01*
X151556710Y-107940939D01*
X151406627Y-107941243D01*
X151239633Y-107941430D01*
X151054804Y-107941524D01*
X150851217Y-107941548D01*
X150627950Y-107941525D01*
X150384078Y-107941480D01*
X150118679Y-107941437D01*
X150080296Y-107941432D01*
X149813318Y-107941389D01*
X149567998Y-107941318D01*
X149343417Y-107941213D01*
X149138655Y-107941066D01*
X148952794Y-107940869D01*
X148784912Y-107940616D01*
X148634092Y-107940300D01*
X148499413Y-107939913D01*
X148379956Y-107939447D01*
X148274801Y-107938897D01*
X148183029Y-107938253D01*
X148103721Y-107937511D01*
X148035957Y-107936661D01*
X147978818Y-107935697D01*
X147931383Y-107934611D01*
X147892734Y-107933397D01*
X147861951Y-107932047D01*
X147838115Y-107930555D01*
X147820306Y-107928911D01*
X147807605Y-107927111D01*
X147799092Y-107925145D01*
X147794734Y-107923477D01*
X147786272Y-107919906D01*
X147778503Y-107917270D01*
X147771398Y-107914634D01*
X147764927Y-107911062D01*
X147759061Y-107905621D01*
X147753771Y-107897375D01*
X147749026Y-107885390D01*
X147744798Y-107868731D01*
X147741057Y-107846463D01*
X147737773Y-107817652D01*
X147734917Y-107781363D01*
X147732460Y-107736661D01*
X147730371Y-107682611D01*
X147728622Y-107618279D01*
X147727183Y-107542730D01*
X147726024Y-107455030D01*
X147725117Y-107354243D01*
X147724431Y-107239434D01*
X147723937Y-107109670D01*
X147723605Y-106964015D01*
X147723407Y-106801535D01*
X147723313Y-106621295D01*
X147723292Y-106422360D01*
X147723315Y-106203796D01*
X147723354Y-105964668D01*
X147723378Y-105704040D01*
X147723378Y-105661889D01*
X147723364Y-105398992D01*
X147723339Y-105157732D01*
X147723329Y-104937165D01*
X147723358Y-104736352D01*
X147723452Y-104554349D01*
X147723638Y-104390216D01*
X147723941Y-104243011D01*
X147724386Y-104111792D01*
X147724966Y-104001867D01*
X148027803Y-104001867D01*
X148067593Y-104059711D01*
X148078764Y-104075479D01*
X148088834Y-104089441D01*
X148097862Y-104102784D01*
X148105903Y-104116693D01*
X148113014Y-104132356D01*
X148119253Y-104150958D01*
X148124675Y-104173686D01*
X148129338Y-104201727D01*
X148133299Y-104236267D01*
X148136615Y-104278492D01*
X148139341Y-104329589D01*
X148141536Y-104390744D01*
X148143255Y-104463144D01*
X148144556Y-104547975D01*
X148145495Y-104646422D01*
X148146130Y-104759674D01*
X148146516Y-104888916D01*
X148146712Y-105035334D01*
X148146773Y-105200116D01*
X148146757Y-105384447D01*
X148146720Y-105589513D01*
X148146711Y-105712133D01*
X148146735Y-105929082D01*
X148146769Y-106124642D01*
X148146757Y-106299999D01*
X148146642Y-106456341D01*
X148146370Y-106594857D01*
X148145882Y-106716734D01*
X148145124Y-106823160D01*
X148144038Y-106915322D01*
X148142569Y-106994409D01*
X148140660Y-107061608D01*
X148138256Y-107118107D01*
X148135299Y-107165093D01*
X148131734Y-107203755D01*
X148127505Y-107235280D01*
X148122554Y-107260855D01*
X148116827Y-107281670D01*
X148110267Y-107298911D01*
X148102817Y-107313765D01*
X148094421Y-107327422D01*
X148085024Y-107341069D01*
X148074568Y-107355893D01*
X148068477Y-107364783D01*
X148029704Y-107422400D01*
X148561268Y-107422400D01*
X148684517Y-107422365D01*
X148787013Y-107422215D01*
X148870580Y-107421878D01*
X148937044Y-107421286D01*
X148988229Y-107420367D01*
X149025959Y-107419051D01*
X149052060Y-107417269D01*
X149068356Y-107414951D01*
X149076672Y-107412026D01*
X149078832Y-107408424D01*
X149076661Y-107404075D01*
X149075465Y-107402645D01*
X149050315Y-107365573D01*
X149024417Y-107312772D01*
X149000808Y-107250770D01*
X148992539Y-107224357D01*
X148987922Y-107206416D01*
X148984021Y-107185355D01*
X148980752Y-107159089D01*
X148978034Y-107125532D01*
X148975785Y-107082599D01*
X148973923Y-107028204D01*
X148972364Y-106960262D01*
X148971028Y-106876688D01*
X148969831Y-106775395D01*
X148968692Y-106654300D01*
X148968315Y-106609600D01*
X148967298Y-106484449D01*
X148966540Y-106380082D01*
X148966097Y-106294707D01*
X148966030Y-106226533D01*
X148966395Y-106173765D01*
X148967252Y-106134614D01*
X148968659Y-106107285D01*
X148970675Y-106089986D01*
X148973357Y-106080926D01*
X148976764Y-106078312D01*
X148980956Y-106080351D01*
X148985429Y-106084667D01*
X148995784Y-106097602D01*
X149017842Y-106126676D01*
X149050043Y-106169759D01*
X149090826Y-106224718D01*
X149138630Y-106289423D01*
X149191895Y-106361742D01*
X149249060Y-106439544D01*
X149308563Y-106520698D01*
X149368845Y-106603072D01*
X149428345Y-106684536D01*
X149485502Y-106762957D01*
X149538755Y-106836204D01*
X149586543Y-106902147D01*
X149627307Y-106958654D01*
X149659484Y-107003593D01*
X149681515Y-107034834D01*
X149686083Y-107041466D01*
X149709004Y-107078369D01*
X149735812Y-107126359D01*
X149761211Y-107175897D01*
X149764432Y-107182577D01*
X149786110Y-107230772D01*
X149798696Y-107268334D01*
X149804426Y-107304160D01*
X149805544Y-107346200D01*
X149804910Y-107422400D01*
X150959349Y-107422400D01*
X150868185Y-107328669D01*
X150821388Y-107278775D01*
X150771101Y-107222295D01*
X150725056Y-107168026D01*
X150704631Y-107142673D01*
X150674193Y-107103128D01*
X150634138Y-107049916D01*
X150585639Y-106984667D01*
X150529865Y-106909011D01*
X150467989Y-106824577D01*
X150401181Y-106732994D01*
X150330613Y-106635892D01*
X150257455Y-106534901D01*
X150182879Y-106431650D01*
X150108056Y-106327768D01*
X150034157Y-106224885D01*
X149962354Y-106124631D01*
X149893816Y-106028636D01*
X149829716Y-105938527D01*
X149771225Y-105855936D01*
X149719514Y-105782492D01*
X149675753Y-105719824D01*
X149641115Y-105669561D01*
X149616770Y-105633334D01*
X149603889Y-105612771D01*
X149602131Y-105608668D01*
X149610090Y-105597342D01*
X149630885Y-105570162D01*
X149663153Y-105528829D01*
X149705530Y-105475044D01*
X149756653Y-105410506D01*
X149815159Y-105336918D01*
X149879686Y-105255978D01*
X149948869Y-105169388D01*
X150021347Y-105078848D01*
X150095754Y-104986060D01*
X150155483Y-104911702D01*
X151166489Y-104911702D01*
X151172398Y-104924659D01*
X151186728Y-104946908D01*
X151187775Y-104948391D01*
X151206562Y-104978544D01*
X151226209Y-105015375D01*
X151230108Y-105023511D01*
X151233644Y-105031940D01*
X151236770Y-105042059D01*
X151239514Y-105055260D01*
X151241908Y-105072938D01*
X151243981Y-105096484D01*
X151245765Y-105127293D01*
X151247288Y-105166757D01*
X151248581Y-105216269D01*
X151249674Y-105277223D01*
X151250597Y-105351011D01*
X151251381Y-105439028D01*
X151252055Y-105542665D01*
X151252650Y-105663316D01*
X151253195Y-105802374D01*
X151253721Y-105961232D01*
X151254255Y-106140089D01*
X151254794Y-106325207D01*
X151255228Y-106489145D01*
X151255491Y-106633303D01*
X151255516Y-106759079D01*
X151255235Y-106867871D01*
X151254581Y-106961077D01*
X151253486Y-107040097D01*
X151251882Y-107106328D01*
X151249703Y-107161170D01*
X151246881Y-107206021D01*
X151243349Y-107242278D01*
X151239039Y-107271341D01*
X151233883Y-107294609D01*
X151227815Y-107313479D01*
X151220767Y-107329351D01*
X151212671Y-107343622D01*
X151203460Y-107357691D01*
X151194960Y-107370158D01*
X151177824Y-107396452D01*
X151167678Y-107414037D01*
X151166489Y-107417257D01*
X151177396Y-107418334D01*
X151208589Y-107419335D01*
X151257777Y-107420235D01*
X151322667Y-107421010D01*
X151400970Y-107421637D01*
X151490393Y-107422091D01*
X151588644Y-107422349D01*
X151657555Y-107422400D01*
X151762548Y-107422180D01*
X151859390Y-107421548D01*
X151945893Y-107420549D01*
X152019868Y-107419227D01*
X152079126Y-107417626D01*
X152121480Y-107415791D01*
X152144740Y-107413765D01*
X152148622Y-107412493D01*
X152140924Y-107397591D01*
X152132926Y-107389560D01*
X152119754Y-107372434D01*
X152102515Y-107342183D01*
X152090593Y-107317622D01*
X152063955Y-107258711D01*
X152060880Y-106081845D01*
X152057805Y-104904978D01*
X151612147Y-104904978D01*
X151514330Y-104905142D01*
X151423936Y-104905611D01*
X151343370Y-104906347D01*
X151275038Y-104907316D01*
X151221344Y-104908480D01*
X151184695Y-104909803D01*
X151167496Y-104911249D01*
X151166489Y-104911702D01*
X150155483Y-104911702D01*
X150170730Y-104892722D01*
X150244910Y-104800537D01*
X150316931Y-104711204D01*
X150385431Y-104626424D01*
X150449045Y-104547898D01*
X150506412Y-104477326D01*
X150556167Y-104416409D01*
X150596948Y-104366847D01*
X150614112Y-104346178D01*
X150700404Y-104245516D01*
X150777003Y-104162259D01*
X150845817Y-104094438D01*
X150908752Y-104040089D01*
X150918133Y-104032722D01*
X150957644Y-104002117D01*
X149825884Y-104001867D01*
X149831173Y-104049844D01*
X149827870Y-104107188D01*
X149806339Y-104175463D01*
X149766365Y-104255212D01*
X149721057Y-104327495D01*
X149704839Y-104350140D01*
X149676786Y-104387696D01*
X149638570Y-104438021D01*
X149591863Y-104498973D01*
X149538339Y-104568411D01*
X149479669Y-104644194D01*
X149417525Y-104724180D01*
X149353579Y-104806228D01*
X149289505Y-104888196D01*
X149226973Y-104967943D01*
X149167657Y-105043327D01*
X149113229Y-105112207D01*
X149065361Y-105172442D01*
X149025725Y-105221889D01*
X148995994Y-105258408D01*
X148977839Y-105279858D01*
X148974780Y-105283156D01*
X148971921Y-105275149D01*
X148969707Y-105244855D01*
X148968143Y-105192556D01*
X148967233Y-105118531D01*
X148966980Y-105023063D01*
X148967387Y-104906434D01*
X148968296Y-104786445D01*
X148969618Y-104654333D01*
X148971143Y-104542594D01*
X148973119Y-104449025D01*
X148975794Y-104371419D01*
X148979418Y-104307574D01*
X148984239Y-104255283D01*
X148990506Y-104212344D01*
X148998468Y-104176551D01*
X149008373Y-104145700D01*
X149020469Y-104117586D01*
X149035007Y-104090005D01*
X149049689Y-104064966D01*
X149087686Y-104001867D01*
X148027803Y-104001867D01*
X147724966Y-104001867D01*
X147724999Y-103995617D01*
X147725805Y-103893544D01*
X147726830Y-103804633D01*
X147728100Y-103727941D01*
X147729640Y-103662527D01*
X147731476Y-103607449D01*
X147733633Y-103561765D01*
X147736137Y-103524534D01*
X147739013Y-103494813D01*
X147742287Y-103471662D01*
X147745985Y-103454139D01*
X147750131Y-103441301D01*
X147754753Y-103432208D01*
X147759874Y-103425918D01*
X147765522Y-103421488D01*
X147771721Y-103417978D01*
X147778496Y-103414445D01*
X147784492Y-103410876D01*
X147789725Y-103408300D01*
X147797901Y-103405972D01*
X147810114Y-103403878D01*
X147827459Y-103402007D01*
X147851031Y-103400347D01*
X147881923Y-103398884D01*
X147921232Y-103397608D01*
X147970050Y-103396504D01*
X148029473Y-103395561D01*
X148100596Y-103394767D01*
X148184512Y-103394109D01*
X148282317Y-103393575D01*
X148395106Y-103393153D01*
X148523971Y-103392829D01*
X148670009Y-103392592D01*
X148834314Y-103392430D01*
X149017980Y-103392330D01*
X149222103Y-103392280D01*
X149433247Y-103392267D01*
X151053600Y-103392267D01*
X151053600Y-103489054D01*
G37*
D10*
%TO.C,GPS-NEO6M1*%
X98976000Y-134810000D02*
X135036000Y-134810000D01*
X135036000Y-134810000D02*
X135036000Y-108810000D01*
X135036000Y-108810000D02*
X98976000Y-108810000D01*
X98976000Y-108810000D02*
X98976000Y-134810000D01*
X58976000Y-118810000D02*
X83976000Y-118810000D01*
X83976000Y-118810000D02*
X83976000Y-93810000D01*
X83976000Y-93810000D02*
X58976000Y-93810000D01*
X58976000Y-93810000D02*
X58976000Y-118810000D01*
%TO.C,Lipo-1S-to-5V1*%
X128460000Y-92500000D02*
X136460000Y-92500000D01*
X136460000Y-92500000D02*
X136460000Y-105500000D01*
X136460000Y-105500000D02*
X128460000Y-105500000D01*
X128460000Y-105500000D02*
X128460000Y-92500000D01*
%TO.C,QMC5883_Mag1*%
X77000000Y-134620000D02*
X95000000Y-134620000D01*
X95000000Y-134620000D02*
X95000000Y-121620000D01*
X95000000Y-121620000D02*
X77000000Y-121620000D01*
X77000000Y-121620000D02*
X77000000Y-134620000D01*
%TO.C,BMP180_Press1*%
X155798000Y-123760000D02*
X142798000Y-123760000D01*
X142798000Y-123760000D02*
X142798000Y-134760000D01*
X142798000Y-134760000D02*
X155798000Y-134760000D01*
X155798000Y-134760000D02*
X155798000Y-123760000D01*
%TD*%
M02*
